G75*
%MOIN*%
%OFA0B0*%
%FSLAX25Y25*%
%IPPOS*%
%LPD*%
%AMOC8*
5,1,8,0,0,1.08239X$1,22.5*
%
%ADD10C,0.00000*%
%ADD11C,0.10000*%
%ADD12OC8,0.06300*%
%ADD13C,0.07050*%
%ADD14C,0.08000*%
D10*
X0001587Y0008595D02*
X0001587Y0099146D01*
X0217871Y0099146D01*
X0217871Y0008595D01*
X0001587Y0008595D01*
X0030595Y0053871D02*
X0030597Y0054029D01*
X0030603Y0054187D01*
X0030613Y0054345D01*
X0030627Y0054503D01*
X0030645Y0054660D01*
X0030666Y0054817D01*
X0030692Y0054973D01*
X0030722Y0055129D01*
X0030755Y0055284D01*
X0030793Y0055437D01*
X0030834Y0055590D01*
X0030879Y0055742D01*
X0030928Y0055893D01*
X0030981Y0056042D01*
X0031037Y0056190D01*
X0031097Y0056336D01*
X0031161Y0056481D01*
X0031229Y0056624D01*
X0031300Y0056766D01*
X0031374Y0056906D01*
X0031452Y0057043D01*
X0031534Y0057179D01*
X0031618Y0057313D01*
X0031707Y0057444D01*
X0031798Y0057573D01*
X0031893Y0057700D01*
X0031990Y0057825D01*
X0032091Y0057947D01*
X0032195Y0058066D01*
X0032302Y0058183D01*
X0032412Y0058297D01*
X0032525Y0058408D01*
X0032640Y0058517D01*
X0032758Y0058622D01*
X0032879Y0058724D01*
X0033002Y0058824D01*
X0033128Y0058920D01*
X0033256Y0059013D01*
X0033386Y0059103D01*
X0033519Y0059189D01*
X0033654Y0059273D01*
X0033790Y0059352D01*
X0033929Y0059429D01*
X0034070Y0059501D01*
X0034212Y0059571D01*
X0034356Y0059636D01*
X0034502Y0059698D01*
X0034649Y0059756D01*
X0034798Y0059811D01*
X0034948Y0059862D01*
X0035099Y0059909D01*
X0035251Y0059952D01*
X0035404Y0059991D01*
X0035559Y0060027D01*
X0035714Y0060058D01*
X0035870Y0060086D01*
X0036026Y0060110D01*
X0036183Y0060130D01*
X0036341Y0060146D01*
X0036498Y0060158D01*
X0036657Y0060166D01*
X0036815Y0060170D01*
X0036973Y0060170D01*
X0037131Y0060166D01*
X0037290Y0060158D01*
X0037447Y0060146D01*
X0037605Y0060130D01*
X0037762Y0060110D01*
X0037918Y0060086D01*
X0038074Y0060058D01*
X0038229Y0060027D01*
X0038384Y0059991D01*
X0038537Y0059952D01*
X0038689Y0059909D01*
X0038840Y0059862D01*
X0038990Y0059811D01*
X0039139Y0059756D01*
X0039286Y0059698D01*
X0039432Y0059636D01*
X0039576Y0059571D01*
X0039718Y0059501D01*
X0039859Y0059429D01*
X0039998Y0059352D01*
X0040134Y0059273D01*
X0040269Y0059189D01*
X0040402Y0059103D01*
X0040532Y0059013D01*
X0040660Y0058920D01*
X0040786Y0058824D01*
X0040909Y0058724D01*
X0041030Y0058622D01*
X0041148Y0058517D01*
X0041263Y0058408D01*
X0041376Y0058297D01*
X0041486Y0058183D01*
X0041593Y0058066D01*
X0041697Y0057947D01*
X0041798Y0057825D01*
X0041895Y0057700D01*
X0041990Y0057573D01*
X0042081Y0057444D01*
X0042170Y0057313D01*
X0042254Y0057179D01*
X0042336Y0057043D01*
X0042414Y0056906D01*
X0042488Y0056766D01*
X0042559Y0056624D01*
X0042627Y0056481D01*
X0042691Y0056336D01*
X0042751Y0056190D01*
X0042807Y0056042D01*
X0042860Y0055893D01*
X0042909Y0055742D01*
X0042954Y0055590D01*
X0042995Y0055437D01*
X0043033Y0055284D01*
X0043066Y0055129D01*
X0043096Y0054973D01*
X0043122Y0054817D01*
X0043143Y0054660D01*
X0043161Y0054503D01*
X0043175Y0054345D01*
X0043185Y0054187D01*
X0043191Y0054029D01*
X0043193Y0053871D01*
X0043191Y0053713D01*
X0043185Y0053555D01*
X0043175Y0053397D01*
X0043161Y0053239D01*
X0043143Y0053082D01*
X0043122Y0052925D01*
X0043096Y0052769D01*
X0043066Y0052613D01*
X0043033Y0052458D01*
X0042995Y0052305D01*
X0042954Y0052152D01*
X0042909Y0052000D01*
X0042860Y0051849D01*
X0042807Y0051700D01*
X0042751Y0051552D01*
X0042691Y0051406D01*
X0042627Y0051261D01*
X0042559Y0051118D01*
X0042488Y0050976D01*
X0042414Y0050836D01*
X0042336Y0050699D01*
X0042254Y0050563D01*
X0042170Y0050429D01*
X0042081Y0050298D01*
X0041990Y0050169D01*
X0041895Y0050042D01*
X0041798Y0049917D01*
X0041697Y0049795D01*
X0041593Y0049676D01*
X0041486Y0049559D01*
X0041376Y0049445D01*
X0041263Y0049334D01*
X0041148Y0049225D01*
X0041030Y0049120D01*
X0040909Y0049018D01*
X0040786Y0048918D01*
X0040660Y0048822D01*
X0040532Y0048729D01*
X0040402Y0048639D01*
X0040269Y0048553D01*
X0040134Y0048469D01*
X0039998Y0048390D01*
X0039859Y0048313D01*
X0039718Y0048241D01*
X0039576Y0048171D01*
X0039432Y0048106D01*
X0039286Y0048044D01*
X0039139Y0047986D01*
X0038990Y0047931D01*
X0038840Y0047880D01*
X0038689Y0047833D01*
X0038537Y0047790D01*
X0038384Y0047751D01*
X0038229Y0047715D01*
X0038074Y0047684D01*
X0037918Y0047656D01*
X0037762Y0047632D01*
X0037605Y0047612D01*
X0037447Y0047596D01*
X0037290Y0047584D01*
X0037131Y0047576D01*
X0036973Y0047572D01*
X0036815Y0047572D01*
X0036657Y0047576D01*
X0036498Y0047584D01*
X0036341Y0047596D01*
X0036183Y0047612D01*
X0036026Y0047632D01*
X0035870Y0047656D01*
X0035714Y0047684D01*
X0035559Y0047715D01*
X0035404Y0047751D01*
X0035251Y0047790D01*
X0035099Y0047833D01*
X0034948Y0047880D01*
X0034798Y0047931D01*
X0034649Y0047986D01*
X0034502Y0048044D01*
X0034356Y0048106D01*
X0034212Y0048171D01*
X0034070Y0048241D01*
X0033929Y0048313D01*
X0033790Y0048390D01*
X0033654Y0048469D01*
X0033519Y0048553D01*
X0033386Y0048639D01*
X0033256Y0048729D01*
X0033128Y0048822D01*
X0033002Y0048918D01*
X0032879Y0049018D01*
X0032758Y0049120D01*
X0032640Y0049225D01*
X0032525Y0049334D01*
X0032412Y0049445D01*
X0032302Y0049559D01*
X0032195Y0049676D01*
X0032091Y0049795D01*
X0031990Y0049917D01*
X0031893Y0050042D01*
X0031798Y0050169D01*
X0031707Y0050298D01*
X0031618Y0050429D01*
X0031534Y0050563D01*
X0031452Y0050699D01*
X0031374Y0050836D01*
X0031300Y0050976D01*
X0031229Y0051118D01*
X0031161Y0051261D01*
X0031097Y0051406D01*
X0031037Y0051552D01*
X0030981Y0051700D01*
X0030928Y0051849D01*
X0030879Y0052000D01*
X0030834Y0052152D01*
X0030793Y0052305D01*
X0030755Y0052458D01*
X0030722Y0052613D01*
X0030692Y0052769D01*
X0030666Y0052925D01*
X0030645Y0053082D01*
X0030627Y0053239D01*
X0030613Y0053397D01*
X0030603Y0053555D01*
X0030597Y0053713D01*
X0030595Y0053871D01*
X0178233Y0053871D02*
X0178235Y0054029D01*
X0178241Y0054187D01*
X0178251Y0054345D01*
X0178265Y0054503D01*
X0178283Y0054660D01*
X0178304Y0054817D01*
X0178330Y0054973D01*
X0178360Y0055129D01*
X0178393Y0055284D01*
X0178431Y0055437D01*
X0178472Y0055590D01*
X0178517Y0055742D01*
X0178566Y0055893D01*
X0178619Y0056042D01*
X0178675Y0056190D01*
X0178735Y0056336D01*
X0178799Y0056481D01*
X0178867Y0056624D01*
X0178938Y0056766D01*
X0179012Y0056906D01*
X0179090Y0057043D01*
X0179172Y0057179D01*
X0179256Y0057313D01*
X0179345Y0057444D01*
X0179436Y0057573D01*
X0179531Y0057700D01*
X0179628Y0057825D01*
X0179729Y0057947D01*
X0179833Y0058066D01*
X0179940Y0058183D01*
X0180050Y0058297D01*
X0180163Y0058408D01*
X0180278Y0058517D01*
X0180396Y0058622D01*
X0180517Y0058724D01*
X0180640Y0058824D01*
X0180766Y0058920D01*
X0180894Y0059013D01*
X0181024Y0059103D01*
X0181157Y0059189D01*
X0181292Y0059273D01*
X0181428Y0059352D01*
X0181567Y0059429D01*
X0181708Y0059501D01*
X0181850Y0059571D01*
X0181994Y0059636D01*
X0182140Y0059698D01*
X0182287Y0059756D01*
X0182436Y0059811D01*
X0182586Y0059862D01*
X0182737Y0059909D01*
X0182889Y0059952D01*
X0183042Y0059991D01*
X0183197Y0060027D01*
X0183352Y0060058D01*
X0183508Y0060086D01*
X0183664Y0060110D01*
X0183821Y0060130D01*
X0183979Y0060146D01*
X0184136Y0060158D01*
X0184295Y0060166D01*
X0184453Y0060170D01*
X0184611Y0060170D01*
X0184769Y0060166D01*
X0184928Y0060158D01*
X0185085Y0060146D01*
X0185243Y0060130D01*
X0185400Y0060110D01*
X0185556Y0060086D01*
X0185712Y0060058D01*
X0185867Y0060027D01*
X0186022Y0059991D01*
X0186175Y0059952D01*
X0186327Y0059909D01*
X0186478Y0059862D01*
X0186628Y0059811D01*
X0186777Y0059756D01*
X0186924Y0059698D01*
X0187070Y0059636D01*
X0187214Y0059571D01*
X0187356Y0059501D01*
X0187497Y0059429D01*
X0187636Y0059352D01*
X0187772Y0059273D01*
X0187907Y0059189D01*
X0188040Y0059103D01*
X0188170Y0059013D01*
X0188298Y0058920D01*
X0188424Y0058824D01*
X0188547Y0058724D01*
X0188668Y0058622D01*
X0188786Y0058517D01*
X0188901Y0058408D01*
X0189014Y0058297D01*
X0189124Y0058183D01*
X0189231Y0058066D01*
X0189335Y0057947D01*
X0189436Y0057825D01*
X0189533Y0057700D01*
X0189628Y0057573D01*
X0189719Y0057444D01*
X0189808Y0057313D01*
X0189892Y0057179D01*
X0189974Y0057043D01*
X0190052Y0056906D01*
X0190126Y0056766D01*
X0190197Y0056624D01*
X0190265Y0056481D01*
X0190329Y0056336D01*
X0190389Y0056190D01*
X0190445Y0056042D01*
X0190498Y0055893D01*
X0190547Y0055742D01*
X0190592Y0055590D01*
X0190633Y0055437D01*
X0190671Y0055284D01*
X0190704Y0055129D01*
X0190734Y0054973D01*
X0190760Y0054817D01*
X0190781Y0054660D01*
X0190799Y0054503D01*
X0190813Y0054345D01*
X0190823Y0054187D01*
X0190829Y0054029D01*
X0190831Y0053871D01*
X0190829Y0053713D01*
X0190823Y0053555D01*
X0190813Y0053397D01*
X0190799Y0053239D01*
X0190781Y0053082D01*
X0190760Y0052925D01*
X0190734Y0052769D01*
X0190704Y0052613D01*
X0190671Y0052458D01*
X0190633Y0052305D01*
X0190592Y0052152D01*
X0190547Y0052000D01*
X0190498Y0051849D01*
X0190445Y0051700D01*
X0190389Y0051552D01*
X0190329Y0051406D01*
X0190265Y0051261D01*
X0190197Y0051118D01*
X0190126Y0050976D01*
X0190052Y0050836D01*
X0189974Y0050699D01*
X0189892Y0050563D01*
X0189808Y0050429D01*
X0189719Y0050298D01*
X0189628Y0050169D01*
X0189533Y0050042D01*
X0189436Y0049917D01*
X0189335Y0049795D01*
X0189231Y0049676D01*
X0189124Y0049559D01*
X0189014Y0049445D01*
X0188901Y0049334D01*
X0188786Y0049225D01*
X0188668Y0049120D01*
X0188547Y0049018D01*
X0188424Y0048918D01*
X0188298Y0048822D01*
X0188170Y0048729D01*
X0188040Y0048639D01*
X0187907Y0048553D01*
X0187772Y0048469D01*
X0187636Y0048390D01*
X0187497Y0048313D01*
X0187356Y0048241D01*
X0187214Y0048171D01*
X0187070Y0048106D01*
X0186924Y0048044D01*
X0186777Y0047986D01*
X0186628Y0047931D01*
X0186478Y0047880D01*
X0186327Y0047833D01*
X0186175Y0047790D01*
X0186022Y0047751D01*
X0185867Y0047715D01*
X0185712Y0047684D01*
X0185556Y0047656D01*
X0185400Y0047632D01*
X0185243Y0047612D01*
X0185085Y0047596D01*
X0184928Y0047584D01*
X0184769Y0047576D01*
X0184611Y0047572D01*
X0184453Y0047572D01*
X0184295Y0047576D01*
X0184136Y0047584D01*
X0183979Y0047596D01*
X0183821Y0047612D01*
X0183664Y0047632D01*
X0183508Y0047656D01*
X0183352Y0047684D01*
X0183197Y0047715D01*
X0183042Y0047751D01*
X0182889Y0047790D01*
X0182737Y0047833D01*
X0182586Y0047880D01*
X0182436Y0047931D01*
X0182287Y0047986D01*
X0182140Y0048044D01*
X0181994Y0048106D01*
X0181850Y0048171D01*
X0181708Y0048241D01*
X0181567Y0048313D01*
X0181428Y0048390D01*
X0181292Y0048469D01*
X0181157Y0048553D01*
X0181024Y0048639D01*
X0180894Y0048729D01*
X0180766Y0048822D01*
X0180640Y0048918D01*
X0180517Y0049018D01*
X0180396Y0049120D01*
X0180278Y0049225D01*
X0180163Y0049334D01*
X0180050Y0049445D01*
X0179940Y0049559D01*
X0179833Y0049676D01*
X0179729Y0049795D01*
X0179628Y0049917D01*
X0179531Y0050042D01*
X0179436Y0050169D01*
X0179345Y0050298D01*
X0179256Y0050429D01*
X0179172Y0050563D01*
X0179090Y0050699D01*
X0179012Y0050836D01*
X0178938Y0050976D01*
X0178867Y0051118D01*
X0178799Y0051261D01*
X0178735Y0051406D01*
X0178675Y0051552D01*
X0178619Y0051700D01*
X0178566Y0051849D01*
X0178517Y0052000D01*
X0178472Y0052152D01*
X0178431Y0052305D01*
X0178393Y0052458D01*
X0178360Y0052613D01*
X0178330Y0052769D01*
X0178304Y0052925D01*
X0178283Y0053082D01*
X0178265Y0053239D01*
X0178251Y0053397D01*
X0178241Y0053555D01*
X0178235Y0053713D01*
X0178233Y0053871D01*
D11*
X0149808Y0075800D03*
X0133627Y0074894D03*
X0084414Y0074894D03*
X0070674Y0075800D03*
X0084414Y0035524D03*
X0070674Y0026587D03*
X0133627Y0035524D03*
X0149808Y0026587D03*
D12*
X0159729Y0043635D03*
X0159729Y0063635D03*
X0060517Y0061902D03*
X0060517Y0041902D03*
D13*
X0050501Y0086322D02*
X0050501Y0093372D01*
X0030816Y0093372D02*
X0030816Y0086322D01*
X0011131Y0086322D02*
X0011131Y0093372D01*
X0167414Y0021325D02*
X0167414Y0014275D01*
X0187099Y0014275D02*
X0187099Y0021325D01*
X0206784Y0021325D02*
X0206784Y0014275D01*
D14*
X0206619Y0018595D02*
X0210619Y0022595D01*
X0210619Y0083595D01*
X0203619Y0090595D01*
X0156619Y0090595D01*
X0155619Y0090595D02*
X0152619Y0087595D01*
X0152619Y0079595D01*
X0149619Y0076595D01*
X0149619Y0075595D01*
X0148619Y0074595D01*
X0133619Y0074595D01*
X0149619Y0074595D02*
X0159619Y0064595D01*
X0159619Y0063595D01*
X0159729Y0043635D02*
X0156998Y0040904D01*
X0151619Y0035524D01*
X0133627Y0035524D01*
X0149808Y0033713D02*
X0156998Y0040904D01*
X0149808Y0033713D02*
X0149808Y0026587D01*
X0158595Y0017800D01*
X0167414Y0017800D01*
X0084619Y0035595D02*
X0079619Y0035595D01*
X0061619Y0017595D01*
X0015619Y0017595D01*
X0011119Y0022095D01*
X0011119Y0026595D01*
X0011119Y0089595D01*
X0050619Y0089595D02*
X0063619Y0076595D01*
X0082619Y0076595D01*
X0084619Y0074595D01*
X0070619Y0074595D02*
X0070619Y0062595D01*
X0069619Y0061595D01*
X0060619Y0061595D01*
X0060619Y0041595D02*
X0063619Y0041595D01*
X0073619Y0031595D01*
X0050619Y0089595D02*
X0050619Y0090595D01*
M02*
