%
M48
M72
T01C0.0320
T02C0.0470
T03C0.0472
T04C0.1260
%
T01
X6052Y4190
X6052Y6190
X15973Y6363
X15973Y4363
T02
X3082Y8985
X5050Y8985
X1113Y8985
X16741Y1780
X18710Y1780
X20678Y1780
T03
X7067Y2659
X8441Y3552
X7067Y7580
X8441Y7489
X13363Y7489
X14981Y7580
X13363Y3552
X14981Y2659
T04
X3689Y5387
X18453Y5387
M30
