G75*
%MOIN*%
%OFA0B0*%
%FSLAX25Y25*%
%IPPOS*%
%LPD*%
%AMOC8*
5,1,8,0,0,1.08239X$1,22.5*
%
%ADD10C,0.00300*%
%ADD11C,0.00100*%
%ADD12C,0.00400*%
%ADD13C,0.00500*%
%ADD14C,0.01200*%
%ADD15C,0.00600*%
D10*
X0008290Y0018961D02*
X0009524Y0020195D01*
X0009524Y0022664D01*
X0010739Y0021430D02*
X0011973Y0022664D01*
X0011973Y0018961D01*
X0010739Y0018961D02*
X0013207Y0018961D01*
X0014422Y0018961D02*
X0015039Y0018961D01*
X0015039Y0019578D01*
X0014422Y0019578D01*
X0014422Y0018961D01*
X0016263Y0019578D02*
X0018732Y0022047D01*
X0018732Y0019578D01*
X0018115Y0018961D01*
X0016881Y0018961D01*
X0016263Y0019578D01*
X0016263Y0022047D01*
X0016881Y0022664D01*
X0018115Y0022664D01*
X0018732Y0022047D01*
X0018105Y0024961D02*
X0018105Y0028664D01*
X0020574Y0028664D01*
X0021788Y0027430D02*
X0022405Y0027430D01*
X0022405Y0024961D01*
X0021788Y0024961D02*
X0023022Y0024961D01*
X0024244Y0024961D02*
X0025478Y0024961D01*
X0024861Y0024961D02*
X0024861Y0028664D01*
X0024244Y0028664D01*
X0022405Y0028664D02*
X0022405Y0029281D01*
X0021788Y0030961D02*
X0024257Y0030961D01*
X0025471Y0032195D02*
X0026706Y0030961D01*
X0027940Y0032195D01*
X0027940Y0034664D01*
X0029154Y0034047D02*
X0029154Y0033430D01*
X0029772Y0032813D01*
X0031006Y0032813D01*
X0031623Y0032195D01*
X0031623Y0031578D01*
X0031006Y0030961D01*
X0029772Y0030961D01*
X0029154Y0031578D01*
X0025471Y0032195D02*
X0025471Y0034664D01*
X0024257Y0034664D02*
X0021788Y0034664D01*
X0021788Y0030961D01*
X0020574Y0030961D02*
X0020574Y0032813D01*
X0019957Y0033430D01*
X0018105Y0033430D01*
X0018105Y0030961D01*
X0016891Y0032195D02*
X0014422Y0032195D01*
X0014422Y0031578D02*
X0014422Y0032813D01*
X0015039Y0033430D01*
X0016273Y0033430D01*
X0016891Y0032813D01*
X0016891Y0032195D01*
X0016273Y0030961D02*
X0015039Y0030961D01*
X0014422Y0031578D01*
X0013207Y0031578D02*
X0012590Y0030961D01*
X0010739Y0030961D01*
X0010739Y0029727D02*
X0010739Y0033430D01*
X0012590Y0033430D01*
X0013207Y0032813D01*
X0013207Y0031578D01*
X0009524Y0031578D02*
X0009524Y0034047D01*
X0008907Y0034664D01*
X0007673Y0034664D01*
X0007056Y0034047D01*
X0007056Y0031578D01*
X0007673Y0030961D01*
X0008907Y0030961D01*
X0009524Y0031578D01*
X0008290Y0028664D02*
X0009524Y0027430D01*
X0009524Y0024961D01*
X0010739Y0025578D02*
X0011356Y0024961D01*
X0012590Y0024961D01*
X0013207Y0025578D01*
X0010739Y0025578D02*
X0010739Y0028047D01*
X0011356Y0028664D01*
X0012590Y0028664D01*
X0013207Y0028047D01*
X0009524Y0026813D02*
X0007056Y0026813D01*
X0007056Y0027430D02*
X0008290Y0028664D01*
X0007056Y0027430D02*
X0007056Y0024961D01*
X0007056Y0022664D02*
X0007056Y0020195D01*
X0008290Y0018961D01*
X0018105Y0026813D02*
X0019339Y0026813D01*
X0026699Y0027430D02*
X0027933Y0027430D01*
X0027316Y0028047D02*
X0027316Y0025578D01*
X0027933Y0024961D01*
X0029154Y0025578D02*
X0029154Y0026813D01*
X0029772Y0027430D01*
X0031006Y0027430D01*
X0031623Y0026813D01*
X0031623Y0026195D01*
X0029154Y0026195D01*
X0029154Y0025578D02*
X0029772Y0024961D01*
X0031006Y0024961D01*
X0032838Y0024961D02*
X0032838Y0027430D01*
X0034072Y0027430D02*
X0034689Y0027430D01*
X0034072Y0027430D02*
X0032838Y0026195D01*
X0032838Y0030961D02*
X0035306Y0030961D01*
X0032838Y0030961D02*
X0032838Y0034664D01*
X0035306Y0034664D01*
X0031623Y0034047D02*
X0031006Y0034664D01*
X0029772Y0034664D01*
X0029154Y0034047D01*
X0032838Y0032813D02*
X0034072Y0032813D01*
X0023022Y0032813D02*
X0021788Y0032813D01*
X0062174Y0038552D02*
X0064642Y0038552D01*
X0065857Y0038552D02*
X0068326Y0038552D01*
X0067091Y0038552D02*
X0067091Y0042255D01*
X0065857Y0041020D01*
X0063408Y0042255D02*
X0063408Y0038552D01*
X0062174Y0041020D02*
X0063408Y0042255D01*
X0062174Y0044552D02*
X0062174Y0048255D01*
X0064025Y0048255D01*
X0064642Y0047638D01*
X0064642Y0046403D01*
X0064025Y0045786D01*
X0062174Y0045786D01*
X0063408Y0045786D02*
X0064642Y0044552D01*
X0065857Y0044552D02*
X0065857Y0048255D01*
X0068326Y0044552D01*
X0068326Y0048255D01*
X0068326Y0050552D02*
X0065857Y0050552D01*
X0067091Y0050552D02*
X0067091Y0054255D01*
X0065857Y0053020D01*
X0064642Y0054255D02*
X0064642Y0051169D01*
X0064025Y0050552D01*
X0062791Y0050552D01*
X0062174Y0051169D01*
X0062174Y0054255D01*
X0071391Y0042255D02*
X0069540Y0040403D01*
X0072009Y0040403D01*
X0071391Y0038552D02*
X0071391Y0042255D01*
X0088381Y0077922D02*
X0089616Y0077922D01*
X0090233Y0078539D01*
X0090233Y0081625D01*
X0091447Y0081008D02*
X0092065Y0081625D01*
X0093299Y0081625D01*
X0093916Y0081008D01*
X0093916Y0080390D01*
X0091447Y0077922D01*
X0093916Y0077922D01*
X0098814Y0077922D02*
X0098814Y0081625D01*
X0100665Y0081625D01*
X0101282Y0081008D01*
X0101282Y0079773D01*
X0100665Y0079156D01*
X0098814Y0079156D01*
X0100048Y0079156D02*
X0101282Y0077922D01*
X0102497Y0077922D02*
X0102497Y0081625D01*
X0104966Y0077922D01*
X0104966Y0081625D01*
X0106180Y0081008D02*
X0106797Y0081625D01*
X0108031Y0081625D01*
X0108649Y0081008D01*
X0108649Y0080390D01*
X0106180Y0077922D01*
X0108649Y0077922D01*
X0109863Y0077922D02*
X0112332Y0077922D01*
X0111097Y0077922D02*
X0111097Y0081625D01*
X0109863Y0080390D01*
X0113546Y0079773D02*
X0116015Y0079773D01*
X0115398Y0081625D02*
X0113546Y0079773D01*
X0115398Y0077922D02*
X0115398Y0081625D01*
X0088381Y0077922D02*
X0087764Y0078539D01*
X0087764Y0081625D01*
D11*
X0064047Y0030110D02*
X0064047Y0028609D01*
X0063547Y0028609D02*
X0064548Y0028609D01*
X0063547Y0029610D02*
X0064047Y0030110D01*
X0063074Y0030110D02*
X0063074Y0028859D01*
X0062824Y0028609D01*
X0062324Y0028609D01*
X0062074Y0028859D01*
X0062074Y0030110D01*
D12*
X0038200Y0014939D02*
X0037433Y0015706D01*
X0035898Y0015706D01*
X0035131Y0014939D01*
X0035131Y0013404D01*
X0035898Y0012637D01*
X0037433Y0012637D01*
X0038200Y0014172D02*
X0035131Y0014172D01*
X0033596Y0015706D02*
X0032061Y0012637D01*
X0030527Y0015706D01*
X0028225Y0015706D02*
X0028225Y0012637D01*
X0028992Y0012637D02*
X0027457Y0012637D01*
X0025923Y0012637D02*
X0022854Y0012637D01*
X0022854Y0017241D01*
X0027457Y0015706D02*
X0028225Y0015706D01*
X0028225Y0017241D02*
X0028225Y0018008D01*
X0038200Y0014939D02*
X0038200Y0014172D01*
X0038200Y0009741D02*
X0039735Y0008206D01*
X0039735Y0006672D01*
X0038200Y0005137D01*
X0036665Y0005137D02*
X0035898Y0005904D01*
X0035898Y0008974D01*
X0035131Y0008206D02*
X0036665Y0008206D01*
X0033596Y0007439D02*
X0032829Y0008206D01*
X0031294Y0008206D01*
X0030527Y0007439D01*
X0030527Y0005904D01*
X0031294Y0005137D01*
X0032829Y0005137D01*
X0033596Y0005904D01*
X0033596Y0007439D01*
X0028992Y0007439D02*
X0025923Y0007439D01*
X0025923Y0005137D02*
X0025923Y0009741D01*
X0024388Y0009741D02*
X0022854Y0008206D01*
X0022854Y0006672D01*
X0024388Y0005137D01*
X0028992Y0005137D02*
X0028992Y0009741D01*
X0170491Y0008206D02*
X0170491Y0006672D01*
X0172026Y0005137D01*
X0173561Y0005137D02*
X0173561Y0009741D01*
X0172026Y0009741D02*
X0170491Y0008206D01*
X0173561Y0007439D02*
X0176630Y0007439D01*
X0178165Y0007439D02*
X0178165Y0005904D01*
X0178932Y0005137D01*
X0180466Y0005137D01*
X0181234Y0005904D01*
X0181234Y0007439D01*
X0180466Y0008206D01*
X0178932Y0008206D01*
X0178165Y0007439D01*
X0176630Y0009741D02*
X0176630Y0005137D01*
X0182768Y0008206D02*
X0184303Y0008206D01*
X0183536Y0008974D02*
X0183536Y0005904D01*
X0184303Y0005137D01*
X0185838Y0005137D02*
X0187372Y0006672D01*
X0187372Y0008206D01*
X0185838Y0009741D01*
X0185070Y0012637D02*
X0183536Y0012637D01*
X0182768Y0013404D01*
X0182768Y0014939D01*
X0183536Y0015706D01*
X0185070Y0015706D01*
X0185838Y0014939D01*
X0185838Y0014172D01*
X0182768Y0014172D01*
X0181234Y0015706D02*
X0179699Y0012637D01*
X0178165Y0015706D01*
X0175863Y0015706D02*
X0175863Y0012637D01*
X0176630Y0012637D02*
X0175095Y0012637D01*
X0173561Y0012637D02*
X0170491Y0012637D01*
X0170491Y0017241D01*
X0175095Y0015706D02*
X0175863Y0015706D01*
X0175863Y0017241D02*
X0175863Y0018008D01*
X0176863Y0079940D02*
X0174561Y0079940D01*
X0173794Y0080707D01*
X0173794Y0083009D01*
X0172259Y0082242D02*
X0172259Y0081475D01*
X0169190Y0081475D01*
X0169190Y0082242D02*
X0169190Y0080707D01*
X0169957Y0079940D01*
X0171492Y0079940D01*
X0167655Y0079940D02*
X0167655Y0084544D01*
X0169190Y0082242D02*
X0169957Y0083009D01*
X0171492Y0083009D01*
X0172259Y0082242D01*
X0176863Y0083009D02*
X0176863Y0079940D01*
X0179165Y0080707D02*
X0179932Y0079940D01*
X0179165Y0080707D02*
X0179165Y0083777D01*
X0178398Y0083009D02*
X0179932Y0083009D01*
X0181467Y0083009D02*
X0181467Y0079940D01*
X0181467Y0081475D02*
X0183002Y0083009D01*
X0183769Y0083009D01*
X0186071Y0083009D02*
X0187605Y0083009D01*
X0188373Y0082242D01*
X0188373Y0079940D01*
X0186071Y0079940D01*
X0185303Y0080707D01*
X0186071Y0081475D01*
X0188373Y0081475D01*
X0189907Y0079940D02*
X0191442Y0079940D01*
X0190675Y0079940D02*
X0190675Y0084544D01*
X0189907Y0084544D01*
X0167655Y0079940D02*
X0164586Y0084544D01*
X0164586Y0079940D01*
X0047741Y0079940D02*
X0046207Y0079940D01*
X0046974Y0079940D02*
X0046974Y0084544D01*
X0046207Y0084544D01*
X0044672Y0082242D02*
X0044672Y0079940D01*
X0042370Y0079940D01*
X0041603Y0080707D01*
X0042370Y0081475D01*
X0044672Y0081475D01*
X0044672Y0082242D02*
X0043905Y0083009D01*
X0042370Y0083009D01*
X0040068Y0083009D02*
X0039301Y0083009D01*
X0037766Y0081475D01*
X0037766Y0083009D02*
X0037766Y0079940D01*
X0036231Y0079940D02*
X0035464Y0080707D01*
X0035464Y0083777D01*
X0034697Y0083009D02*
X0036231Y0083009D01*
X0033162Y0083009D02*
X0033162Y0079940D01*
X0030860Y0079940D01*
X0030093Y0080707D01*
X0030093Y0083009D01*
X0028558Y0082242D02*
X0028558Y0081475D01*
X0025489Y0081475D01*
X0025489Y0082242D02*
X0025489Y0080707D01*
X0026256Y0079940D01*
X0027791Y0079940D01*
X0023954Y0079940D02*
X0023954Y0084544D01*
X0020885Y0084544D02*
X0023954Y0079940D01*
X0020885Y0079940D02*
X0020885Y0084544D01*
X0025489Y0082242D02*
X0026256Y0083009D01*
X0027791Y0083009D01*
X0028558Y0082242D01*
D13*
X0059583Y0073317D02*
X0059583Y0015195D01*
X0069425Y0018992D02*
X0093047Y0018992D01*
X0093047Y0015055D01*
X0114701Y0015055D01*
X0114701Y0018992D01*
X0114701Y0022929D01*
X0093047Y0022929D01*
X0093047Y0018992D01*
X0093795Y0023992D02*
X0111512Y0023992D01*
X0111512Y0027929D01*
X0111512Y0031866D01*
X0093795Y0031866D01*
X0093795Y0023992D01*
X0093795Y0027929D02*
X0083953Y0027929D01*
X0078047Y0029898D02*
X0078047Y0025961D01*
X0056861Y0025499D02*
X0056861Y0024749D01*
X0053859Y0021746D01*
X0056861Y0021746D01*
X0052257Y0022497D02*
X0051507Y0021746D01*
X0050005Y0021746D01*
X0049255Y0022497D01*
X0049255Y0025499D01*
X0050005Y0026250D01*
X0051507Y0026250D01*
X0052257Y0025499D01*
X0053859Y0025499D02*
X0054609Y0026250D01*
X0056111Y0026250D01*
X0056861Y0025499D01*
X0059583Y0015195D02*
X0059587Y0014859D01*
X0059599Y0014523D01*
X0059620Y0014187D01*
X0059648Y0013852D01*
X0059684Y0013517D01*
X0059729Y0013184D01*
X0059782Y0012852D01*
X0059842Y0012521D01*
X0059911Y0012191D01*
X0059987Y0011864D01*
X0060072Y0011538D01*
X0060164Y0011215D01*
X0060264Y0010894D01*
X0060372Y0010575D01*
X0060488Y0010259D01*
X0060611Y0009946D01*
X0060741Y0009636D01*
X0060879Y0009330D01*
X0061025Y0009026D01*
X0061177Y0008727D01*
X0061337Y0008431D01*
X0061504Y0008139D01*
X0061678Y0007851D01*
X0061859Y0007567D01*
X0062047Y0007288D01*
X0062241Y0007014D01*
X0062442Y0006744D01*
X0062650Y0006479D01*
X0062863Y0006219D01*
X0063083Y0005965D01*
X0063310Y0005716D01*
X0063542Y0005472D01*
X0063779Y0005235D01*
X0064023Y0005003D01*
X0064272Y0004776D01*
X0064526Y0004556D01*
X0064786Y0004343D01*
X0065051Y0004135D01*
X0065321Y0003934D01*
X0065595Y0003740D01*
X0065874Y0003552D01*
X0066158Y0003371D01*
X0066446Y0003197D01*
X0066738Y0003030D01*
X0067034Y0002870D01*
X0067333Y0002718D01*
X0067637Y0002572D01*
X0067943Y0002434D01*
X0068253Y0002304D01*
X0068566Y0002181D01*
X0068882Y0002065D01*
X0069201Y0001957D01*
X0069522Y0001857D01*
X0069845Y0001765D01*
X0070171Y0001680D01*
X0070498Y0001604D01*
X0070828Y0001535D01*
X0071159Y0001475D01*
X0071491Y0001422D01*
X0071824Y0001377D01*
X0072159Y0001341D01*
X0072494Y0001313D01*
X0072830Y0001292D01*
X0073166Y0001280D01*
X0073502Y0001276D01*
X0134960Y0001276D01*
X0125694Y0002339D02*
X0080333Y0002339D01*
X0080135Y0002341D01*
X0079937Y0002349D01*
X0079740Y0002361D01*
X0079542Y0002377D01*
X0079346Y0002399D01*
X0079149Y0002425D01*
X0078954Y0002456D01*
X0078759Y0002492D01*
X0078566Y0002532D01*
X0078373Y0002577D01*
X0078181Y0002627D01*
X0077991Y0002681D01*
X0077802Y0002740D01*
X0077614Y0002803D01*
X0077428Y0002871D01*
X0077244Y0002944D01*
X0077062Y0003021D01*
X0076881Y0003102D01*
X0076703Y0003187D01*
X0076526Y0003277D01*
X0076352Y0003371D01*
X0076180Y0003470D01*
X0076011Y0003572D01*
X0075844Y0003678D01*
X0075680Y0003789D01*
X0075518Y0003903D01*
X0075360Y0004022D01*
X0075204Y0004144D01*
X0075051Y0004269D01*
X0074901Y0004399D01*
X0074755Y0004532D01*
X0074611Y0004669D01*
X0074472Y0004808D01*
X0074335Y0004952D01*
X0074202Y0005098D01*
X0074072Y0005248D01*
X0073947Y0005401D01*
X0073825Y0005557D01*
X0073706Y0005715D01*
X0073592Y0005877D01*
X0073481Y0006041D01*
X0073375Y0006208D01*
X0073273Y0006377D01*
X0073174Y0006549D01*
X0073080Y0006723D01*
X0072990Y0006900D01*
X0072905Y0007078D01*
X0072824Y0007259D01*
X0072747Y0007441D01*
X0072674Y0007625D01*
X0072606Y0007811D01*
X0072543Y0007999D01*
X0072484Y0008188D01*
X0072430Y0008378D01*
X0072380Y0008570D01*
X0072335Y0008763D01*
X0072295Y0008956D01*
X0072259Y0009151D01*
X0072228Y0009346D01*
X0072202Y0009543D01*
X0072180Y0009739D01*
X0072164Y0009937D01*
X0072152Y0010134D01*
X0072144Y0010332D01*
X0072142Y0010530D01*
X0072142Y0085061D01*
X0072187Y0085921D02*
X0133970Y0085921D01*
X0133165Y0085819D02*
X0133165Y0009810D01*
X0133163Y0009629D01*
X0133156Y0009449D01*
X0133145Y0009269D01*
X0133130Y0009089D01*
X0133111Y0008909D01*
X0133087Y0008731D01*
X0133058Y0008552D01*
X0133026Y0008375D01*
X0132989Y0008198D01*
X0132948Y0008022D01*
X0132903Y0007847D01*
X0132853Y0007674D01*
X0132799Y0007501D01*
X0132741Y0007330D01*
X0132680Y0007161D01*
X0132613Y0006993D01*
X0132543Y0006826D01*
X0132469Y0006662D01*
X0132391Y0006499D01*
X0132309Y0006338D01*
X0132223Y0006179D01*
X0132134Y0006023D01*
X0132040Y0005868D01*
X0131943Y0005716D01*
X0131843Y0005566D01*
X0131738Y0005419D01*
X0131630Y0005274D01*
X0131519Y0005132D01*
X0131404Y0004992D01*
X0131286Y0004856D01*
X0131165Y0004722D01*
X0131040Y0004591D01*
X0130913Y0004464D01*
X0130782Y0004339D01*
X0130648Y0004218D01*
X0130512Y0004100D01*
X0130372Y0003985D01*
X0130230Y0003874D01*
X0130085Y0003766D01*
X0129938Y0003661D01*
X0129788Y0003561D01*
X0129636Y0003464D01*
X0129481Y0003370D01*
X0129325Y0003281D01*
X0129166Y0003195D01*
X0129005Y0003113D01*
X0128842Y0003035D01*
X0128678Y0002961D01*
X0128511Y0002891D01*
X0128343Y0002824D01*
X0128174Y0002763D01*
X0128003Y0002705D01*
X0127830Y0002651D01*
X0127657Y0002601D01*
X0127482Y0002556D01*
X0127306Y0002515D01*
X0127129Y0002478D01*
X0126952Y0002446D01*
X0126773Y0002417D01*
X0126595Y0002393D01*
X0126415Y0002374D01*
X0126235Y0002359D01*
X0126055Y0002348D01*
X0125875Y0002341D01*
X0125694Y0002339D01*
X0134960Y0001276D02*
X0135279Y0001280D01*
X0135598Y0001291D01*
X0135917Y0001311D01*
X0136234Y0001338D01*
X0136552Y0001372D01*
X0136868Y0001415D01*
X0137183Y0001464D01*
X0137497Y0001522D01*
X0137809Y0001587D01*
X0138120Y0001660D01*
X0138429Y0001740D01*
X0138736Y0001827D01*
X0139041Y0001922D01*
X0139343Y0002025D01*
X0139643Y0002134D01*
X0139940Y0002251D01*
X0140234Y0002375D01*
X0140525Y0002506D01*
X0140812Y0002644D01*
X0141097Y0002789D01*
X0141377Y0002940D01*
X0141654Y0003099D01*
X0141927Y0003264D01*
X0142197Y0003435D01*
X0142461Y0003613D01*
X0142722Y0003798D01*
X0142978Y0003989D01*
X0143229Y0004185D01*
X0143475Y0004388D01*
X0143717Y0004597D01*
X0143953Y0004811D01*
X0144184Y0005032D01*
X0144409Y0005257D01*
X0144630Y0005488D01*
X0144844Y0005724D01*
X0145053Y0005966D01*
X0145256Y0006212D01*
X0145452Y0006463D01*
X0145643Y0006719D01*
X0145828Y0006980D01*
X0146006Y0007244D01*
X0146177Y0007514D01*
X0146342Y0007787D01*
X0146501Y0008064D01*
X0146652Y0008344D01*
X0146797Y0008629D01*
X0146935Y0008916D01*
X0147066Y0009207D01*
X0147190Y0009501D01*
X0147307Y0009798D01*
X0147416Y0010098D01*
X0147519Y0010400D01*
X0147614Y0010705D01*
X0147701Y0011012D01*
X0147781Y0011321D01*
X0147854Y0011632D01*
X0147919Y0011944D01*
X0147977Y0012258D01*
X0148026Y0012573D01*
X0148069Y0012889D01*
X0148103Y0013207D01*
X0148130Y0013524D01*
X0148150Y0013843D01*
X0148161Y0014162D01*
X0148165Y0014481D01*
X0148165Y0071726D01*
X0138323Y0068205D02*
X0114701Y0068205D01*
X0114701Y0072142D01*
X0093047Y0072142D01*
X0093047Y0068205D01*
X0069425Y0068205D01*
X0059582Y0073317D02*
X0059586Y0073622D01*
X0059597Y0073926D01*
X0059615Y0074230D01*
X0059641Y0074534D01*
X0059674Y0074836D01*
X0059714Y0075138D01*
X0059762Y0075439D01*
X0059817Y0075739D01*
X0059879Y0076037D01*
X0059948Y0076334D01*
X0060025Y0076628D01*
X0060108Y0076921D01*
X0060199Y0077212D01*
X0060297Y0077501D01*
X0060401Y0077787D01*
X0060513Y0078070D01*
X0060631Y0078351D01*
X0060756Y0078629D01*
X0060888Y0078903D01*
X0061026Y0079175D01*
X0061171Y0079443D01*
X0061322Y0079707D01*
X0061479Y0079968D01*
X0061643Y0080225D01*
X0061813Y0080477D01*
X0061989Y0080726D01*
X0062171Y0080970D01*
X0062359Y0081210D01*
X0062553Y0081445D01*
X0062752Y0081676D01*
X0062957Y0081901D01*
X0063167Y0082122D01*
X0063382Y0082337D01*
X0063603Y0082547D01*
X0063828Y0082752D01*
X0064059Y0082951D01*
X0064294Y0083145D01*
X0064534Y0083333D01*
X0064778Y0083515D01*
X0065027Y0083691D01*
X0065279Y0083861D01*
X0065536Y0084025D01*
X0065797Y0084182D01*
X0066061Y0084333D01*
X0066329Y0084478D01*
X0066601Y0084616D01*
X0066875Y0084748D01*
X0067153Y0084873D01*
X0067434Y0084991D01*
X0067717Y0085103D01*
X0068003Y0085207D01*
X0068292Y0085305D01*
X0068583Y0085396D01*
X0068876Y0085479D01*
X0069170Y0085556D01*
X0069467Y0085625D01*
X0069765Y0085687D01*
X0070065Y0085742D01*
X0070366Y0085790D01*
X0070668Y0085830D01*
X0070970Y0085863D01*
X0071274Y0085889D01*
X0071578Y0085907D01*
X0071882Y0085918D01*
X0072187Y0085922D01*
X0072142Y0085061D02*
X0072144Y0085250D01*
X0072151Y0085439D01*
X0072163Y0085628D01*
X0072179Y0085817D01*
X0072199Y0086005D01*
X0072224Y0086192D01*
X0072254Y0086379D01*
X0072288Y0086565D01*
X0072326Y0086750D01*
X0072369Y0086934D01*
X0072417Y0087117D01*
X0072469Y0087299D01*
X0072525Y0087480D01*
X0072586Y0087659D01*
X0072651Y0087837D01*
X0072720Y0088013D01*
X0072793Y0088187D01*
X0072871Y0088360D01*
X0072953Y0088530D01*
X0073039Y0088699D01*
X0073129Y0088865D01*
X0073223Y0089029D01*
X0073320Y0089191D01*
X0073422Y0089351D01*
X0073528Y0089508D01*
X0073637Y0089662D01*
X0073750Y0089814D01*
X0073867Y0089963D01*
X0073987Y0090109D01*
X0074111Y0090252D01*
X0074238Y0090392D01*
X0074368Y0090529D01*
X0074502Y0090663D01*
X0074639Y0090793D01*
X0074779Y0090920D01*
X0074922Y0091044D01*
X0075068Y0091164D01*
X0075217Y0091281D01*
X0075369Y0091394D01*
X0075523Y0091503D01*
X0075680Y0091609D01*
X0075840Y0091711D01*
X0076002Y0091808D01*
X0076166Y0091902D01*
X0076332Y0091992D01*
X0076501Y0092078D01*
X0076671Y0092160D01*
X0076844Y0092238D01*
X0077018Y0092311D01*
X0077194Y0092380D01*
X0077372Y0092445D01*
X0077551Y0092506D01*
X0077732Y0092562D01*
X0077914Y0092614D01*
X0078097Y0092662D01*
X0078281Y0092705D01*
X0078466Y0092743D01*
X0078652Y0092777D01*
X0078839Y0092807D01*
X0079026Y0092832D01*
X0079214Y0092852D01*
X0079403Y0092868D01*
X0079592Y0092880D01*
X0079781Y0092887D01*
X0079970Y0092889D01*
X0079970Y0092890D02*
X0126094Y0092890D01*
X0126265Y0092888D01*
X0126436Y0092882D01*
X0126606Y0092871D01*
X0126776Y0092857D01*
X0126946Y0092838D01*
X0127116Y0092816D01*
X0127284Y0092789D01*
X0127453Y0092758D01*
X0127620Y0092723D01*
X0127786Y0092685D01*
X0127952Y0092642D01*
X0128116Y0092595D01*
X0128279Y0092544D01*
X0128441Y0092489D01*
X0128601Y0092430D01*
X0128760Y0092368D01*
X0128918Y0092302D01*
X0129074Y0092232D01*
X0129228Y0092158D01*
X0129380Y0092080D01*
X0129530Y0091999D01*
X0129679Y0091914D01*
X0129825Y0091826D01*
X0129969Y0091734D01*
X0130111Y0091638D01*
X0130250Y0091540D01*
X0130387Y0091437D01*
X0130522Y0091332D01*
X0130654Y0091223D01*
X0130783Y0091112D01*
X0130909Y0090997D01*
X0131033Y0090879D01*
X0131154Y0090758D01*
X0131272Y0090634D01*
X0131387Y0090508D01*
X0131498Y0090379D01*
X0131607Y0090247D01*
X0131712Y0090112D01*
X0131815Y0089975D01*
X0131913Y0089836D01*
X0132009Y0089694D01*
X0132101Y0089550D01*
X0132189Y0089404D01*
X0132274Y0089255D01*
X0132355Y0089105D01*
X0132433Y0088953D01*
X0132507Y0088799D01*
X0132577Y0088643D01*
X0132643Y0088485D01*
X0132705Y0088326D01*
X0132764Y0088166D01*
X0132819Y0088004D01*
X0132870Y0087841D01*
X0132917Y0087677D01*
X0132960Y0087511D01*
X0132998Y0087345D01*
X0133033Y0087178D01*
X0133064Y0087009D01*
X0133091Y0086841D01*
X0133113Y0086671D01*
X0133132Y0086501D01*
X0133146Y0086331D01*
X0133157Y0086161D01*
X0133163Y0085990D01*
X0133165Y0085819D01*
X0133970Y0085921D02*
X0134313Y0085917D01*
X0134656Y0085904D01*
X0134998Y0085884D01*
X0135340Y0085855D01*
X0135681Y0085818D01*
X0136021Y0085772D01*
X0136360Y0085718D01*
X0136697Y0085657D01*
X0137033Y0085587D01*
X0137367Y0085509D01*
X0137699Y0085422D01*
X0138029Y0085328D01*
X0138356Y0085226D01*
X0138681Y0085116D01*
X0139004Y0084999D01*
X0139323Y0084873D01*
X0139639Y0084740D01*
X0139952Y0084599D01*
X0140261Y0084451D01*
X0140567Y0084295D01*
X0140869Y0084132D01*
X0141166Y0083962D01*
X0141460Y0083784D01*
X0141749Y0083600D01*
X0142034Y0083408D01*
X0142314Y0083210D01*
X0142589Y0083005D01*
X0142859Y0082793D01*
X0143124Y0082575D01*
X0143383Y0082351D01*
X0143637Y0082121D01*
X0143885Y0081884D01*
X0144128Y0081641D01*
X0144365Y0081393D01*
X0144595Y0081139D01*
X0144819Y0080880D01*
X0145037Y0080615D01*
X0145249Y0080345D01*
X0145454Y0080070D01*
X0145652Y0079790D01*
X0145844Y0079505D01*
X0146028Y0079216D01*
X0146206Y0078922D01*
X0146376Y0078625D01*
X0146539Y0078323D01*
X0146695Y0078017D01*
X0146843Y0077708D01*
X0146984Y0077395D01*
X0147117Y0077079D01*
X0147243Y0076760D01*
X0147360Y0076437D01*
X0147470Y0076112D01*
X0147572Y0075785D01*
X0147666Y0075455D01*
X0147753Y0075123D01*
X0147831Y0074789D01*
X0147901Y0074453D01*
X0147962Y0074116D01*
X0148016Y0073777D01*
X0148062Y0073437D01*
X0148099Y0073096D01*
X0148128Y0072754D01*
X0148148Y0072412D01*
X0148161Y0072069D01*
X0148165Y0071726D01*
X0121354Y0067299D02*
X0111512Y0067299D01*
X0111512Y0071236D01*
X0093795Y0071236D01*
X0093795Y0063362D01*
X0111512Y0063362D01*
X0111512Y0067299D01*
X0114701Y0068205D02*
X0114701Y0064268D01*
X0093047Y0064268D01*
X0093047Y0068205D01*
X0093795Y0067299D02*
X0083953Y0067299D01*
X0093155Y0047614D02*
X0093158Y0047871D01*
X0093168Y0048128D01*
X0093183Y0048385D01*
X0093205Y0048642D01*
X0093234Y0048897D01*
X0093268Y0049152D01*
X0093309Y0049406D01*
X0093356Y0049659D01*
X0093410Y0049911D01*
X0093469Y0050161D01*
X0093535Y0050410D01*
X0093606Y0050657D01*
X0093684Y0050902D01*
X0093768Y0051146D01*
X0093857Y0051387D01*
X0093953Y0051626D01*
X0094054Y0051862D01*
X0094161Y0052096D01*
X0094274Y0052327D01*
X0094393Y0052556D01*
X0094517Y0052781D01*
X0094646Y0053003D01*
X0094781Y0053222D01*
X0094922Y0053438D01*
X0095067Y0053650D01*
X0095218Y0053859D01*
X0095374Y0054063D01*
X0095535Y0054264D01*
X0095700Y0054461D01*
X0095871Y0054654D01*
X0096046Y0054842D01*
X0096225Y0055027D01*
X0096410Y0055206D01*
X0096598Y0055381D01*
X0096791Y0055552D01*
X0096988Y0055717D01*
X0097189Y0055878D01*
X0097393Y0056034D01*
X0097602Y0056185D01*
X0097814Y0056330D01*
X0098030Y0056471D01*
X0098249Y0056606D01*
X0098471Y0056735D01*
X0098696Y0056859D01*
X0098925Y0056978D01*
X0099156Y0057091D01*
X0099390Y0057198D01*
X0099626Y0057299D01*
X0099865Y0057395D01*
X0100106Y0057484D01*
X0100350Y0057568D01*
X0100595Y0057646D01*
X0100842Y0057717D01*
X0101091Y0057783D01*
X0101341Y0057842D01*
X0101593Y0057896D01*
X0101846Y0057943D01*
X0102100Y0057984D01*
X0102355Y0058018D01*
X0102610Y0058047D01*
X0102867Y0058069D01*
X0103124Y0058084D01*
X0103381Y0058094D01*
X0103638Y0058097D01*
X0103895Y0058094D01*
X0104152Y0058084D01*
X0104409Y0058069D01*
X0104666Y0058047D01*
X0104921Y0058018D01*
X0105176Y0057984D01*
X0105430Y0057943D01*
X0105683Y0057896D01*
X0105935Y0057842D01*
X0106185Y0057783D01*
X0106434Y0057717D01*
X0106681Y0057646D01*
X0106926Y0057568D01*
X0107170Y0057484D01*
X0107411Y0057395D01*
X0107650Y0057299D01*
X0107886Y0057198D01*
X0108120Y0057091D01*
X0108351Y0056978D01*
X0108580Y0056859D01*
X0108805Y0056735D01*
X0109027Y0056606D01*
X0109246Y0056471D01*
X0109462Y0056330D01*
X0109674Y0056185D01*
X0109883Y0056034D01*
X0110087Y0055878D01*
X0110288Y0055717D01*
X0110485Y0055552D01*
X0110678Y0055381D01*
X0110866Y0055206D01*
X0111051Y0055027D01*
X0111230Y0054842D01*
X0111405Y0054654D01*
X0111576Y0054461D01*
X0111741Y0054264D01*
X0111902Y0054063D01*
X0112058Y0053859D01*
X0112209Y0053650D01*
X0112354Y0053438D01*
X0112495Y0053222D01*
X0112630Y0053003D01*
X0112759Y0052781D01*
X0112883Y0052556D01*
X0113002Y0052327D01*
X0113115Y0052096D01*
X0113222Y0051862D01*
X0113323Y0051626D01*
X0113419Y0051387D01*
X0113508Y0051146D01*
X0113592Y0050902D01*
X0113670Y0050657D01*
X0113741Y0050410D01*
X0113807Y0050161D01*
X0113866Y0049911D01*
X0113920Y0049659D01*
X0113967Y0049406D01*
X0114008Y0049152D01*
X0114042Y0048897D01*
X0114071Y0048642D01*
X0114093Y0048385D01*
X0114108Y0048128D01*
X0114118Y0047871D01*
X0114121Y0047614D01*
X0114118Y0047357D01*
X0114108Y0047100D01*
X0114093Y0046843D01*
X0114071Y0046586D01*
X0114042Y0046331D01*
X0114008Y0046076D01*
X0113967Y0045822D01*
X0113920Y0045569D01*
X0113866Y0045317D01*
X0113807Y0045067D01*
X0113741Y0044818D01*
X0113670Y0044571D01*
X0113592Y0044326D01*
X0113508Y0044082D01*
X0113419Y0043841D01*
X0113323Y0043602D01*
X0113222Y0043366D01*
X0113115Y0043132D01*
X0113002Y0042901D01*
X0112883Y0042672D01*
X0112759Y0042447D01*
X0112630Y0042225D01*
X0112495Y0042006D01*
X0112354Y0041790D01*
X0112209Y0041578D01*
X0112058Y0041369D01*
X0111902Y0041165D01*
X0111741Y0040964D01*
X0111576Y0040767D01*
X0111405Y0040574D01*
X0111230Y0040386D01*
X0111051Y0040201D01*
X0110866Y0040022D01*
X0110678Y0039847D01*
X0110485Y0039676D01*
X0110288Y0039511D01*
X0110087Y0039350D01*
X0109883Y0039194D01*
X0109674Y0039043D01*
X0109462Y0038898D01*
X0109246Y0038757D01*
X0109027Y0038622D01*
X0108805Y0038493D01*
X0108580Y0038369D01*
X0108351Y0038250D01*
X0108120Y0038137D01*
X0107886Y0038030D01*
X0107650Y0037929D01*
X0107411Y0037833D01*
X0107170Y0037744D01*
X0106926Y0037660D01*
X0106681Y0037582D01*
X0106434Y0037511D01*
X0106185Y0037445D01*
X0105935Y0037386D01*
X0105683Y0037332D01*
X0105430Y0037285D01*
X0105176Y0037244D01*
X0104921Y0037210D01*
X0104666Y0037181D01*
X0104409Y0037159D01*
X0104152Y0037144D01*
X0103895Y0037134D01*
X0103638Y0037131D01*
X0103381Y0037134D01*
X0103124Y0037144D01*
X0102867Y0037159D01*
X0102610Y0037181D01*
X0102355Y0037210D01*
X0102100Y0037244D01*
X0101846Y0037285D01*
X0101593Y0037332D01*
X0101341Y0037386D01*
X0101091Y0037445D01*
X0100842Y0037511D01*
X0100595Y0037582D01*
X0100350Y0037660D01*
X0100106Y0037744D01*
X0099865Y0037833D01*
X0099626Y0037929D01*
X0099390Y0038030D01*
X0099156Y0038137D01*
X0098925Y0038250D01*
X0098696Y0038369D01*
X0098471Y0038493D01*
X0098249Y0038622D01*
X0098030Y0038757D01*
X0097814Y0038898D01*
X0097602Y0039043D01*
X0097393Y0039194D01*
X0097189Y0039350D01*
X0096988Y0039511D01*
X0096791Y0039676D01*
X0096598Y0039847D01*
X0096410Y0040022D01*
X0096225Y0040201D01*
X0096046Y0040386D01*
X0095871Y0040574D01*
X0095700Y0040767D01*
X0095535Y0040964D01*
X0095374Y0041165D01*
X0095218Y0041369D01*
X0095067Y0041578D01*
X0094922Y0041790D01*
X0094781Y0042006D01*
X0094646Y0042225D01*
X0094517Y0042447D01*
X0094393Y0042672D01*
X0094274Y0042901D01*
X0094161Y0043132D01*
X0094054Y0043366D01*
X0093953Y0043602D01*
X0093857Y0043841D01*
X0093768Y0044082D01*
X0093684Y0044326D01*
X0093606Y0044571D01*
X0093535Y0044818D01*
X0093469Y0045067D01*
X0093410Y0045317D01*
X0093356Y0045569D01*
X0093309Y0045822D01*
X0093268Y0046076D01*
X0093234Y0046331D01*
X0093205Y0046586D01*
X0093183Y0046843D01*
X0093168Y0047100D01*
X0093158Y0047357D01*
X0093155Y0047614D01*
X0093588Y0043795D02*
X0093591Y0044052D01*
X0093601Y0044309D01*
X0093616Y0044566D01*
X0093638Y0044823D01*
X0093667Y0045078D01*
X0093701Y0045333D01*
X0093742Y0045587D01*
X0093789Y0045840D01*
X0093843Y0046092D01*
X0093902Y0046342D01*
X0093968Y0046591D01*
X0094039Y0046838D01*
X0094117Y0047083D01*
X0094201Y0047327D01*
X0094290Y0047568D01*
X0094386Y0047807D01*
X0094487Y0048043D01*
X0094594Y0048277D01*
X0094707Y0048508D01*
X0094826Y0048737D01*
X0094950Y0048962D01*
X0095079Y0049184D01*
X0095214Y0049403D01*
X0095355Y0049619D01*
X0095500Y0049831D01*
X0095651Y0050040D01*
X0095807Y0050244D01*
X0095968Y0050445D01*
X0096133Y0050642D01*
X0096304Y0050835D01*
X0096479Y0051023D01*
X0096658Y0051208D01*
X0096843Y0051387D01*
X0097031Y0051562D01*
X0097224Y0051733D01*
X0097421Y0051898D01*
X0097622Y0052059D01*
X0097826Y0052215D01*
X0098035Y0052366D01*
X0098247Y0052511D01*
X0098463Y0052652D01*
X0098682Y0052787D01*
X0098904Y0052916D01*
X0099129Y0053040D01*
X0099358Y0053159D01*
X0099589Y0053272D01*
X0099823Y0053379D01*
X0100059Y0053480D01*
X0100298Y0053576D01*
X0100539Y0053665D01*
X0100783Y0053749D01*
X0101028Y0053827D01*
X0101275Y0053898D01*
X0101524Y0053964D01*
X0101774Y0054023D01*
X0102026Y0054077D01*
X0102279Y0054124D01*
X0102533Y0054165D01*
X0102788Y0054199D01*
X0103043Y0054228D01*
X0103300Y0054250D01*
X0103557Y0054265D01*
X0103814Y0054275D01*
X0104071Y0054278D01*
X0104328Y0054275D01*
X0104585Y0054265D01*
X0104842Y0054250D01*
X0105099Y0054228D01*
X0105354Y0054199D01*
X0105609Y0054165D01*
X0105863Y0054124D01*
X0106116Y0054077D01*
X0106368Y0054023D01*
X0106618Y0053964D01*
X0106867Y0053898D01*
X0107114Y0053827D01*
X0107359Y0053749D01*
X0107603Y0053665D01*
X0107844Y0053576D01*
X0108083Y0053480D01*
X0108319Y0053379D01*
X0108553Y0053272D01*
X0108784Y0053159D01*
X0109013Y0053040D01*
X0109238Y0052916D01*
X0109460Y0052787D01*
X0109679Y0052652D01*
X0109895Y0052511D01*
X0110107Y0052366D01*
X0110316Y0052215D01*
X0110520Y0052059D01*
X0110721Y0051898D01*
X0110918Y0051733D01*
X0111111Y0051562D01*
X0111299Y0051387D01*
X0111484Y0051208D01*
X0111663Y0051023D01*
X0111838Y0050835D01*
X0112009Y0050642D01*
X0112174Y0050445D01*
X0112335Y0050244D01*
X0112491Y0050040D01*
X0112642Y0049831D01*
X0112787Y0049619D01*
X0112928Y0049403D01*
X0113063Y0049184D01*
X0113192Y0048962D01*
X0113316Y0048737D01*
X0113435Y0048508D01*
X0113548Y0048277D01*
X0113655Y0048043D01*
X0113756Y0047807D01*
X0113852Y0047568D01*
X0113941Y0047327D01*
X0114025Y0047083D01*
X0114103Y0046838D01*
X0114174Y0046591D01*
X0114240Y0046342D01*
X0114299Y0046092D01*
X0114353Y0045840D01*
X0114400Y0045587D01*
X0114441Y0045333D01*
X0114475Y0045078D01*
X0114504Y0044823D01*
X0114526Y0044566D01*
X0114541Y0044309D01*
X0114551Y0044052D01*
X0114554Y0043795D01*
X0114551Y0043538D01*
X0114541Y0043281D01*
X0114526Y0043024D01*
X0114504Y0042767D01*
X0114475Y0042512D01*
X0114441Y0042257D01*
X0114400Y0042003D01*
X0114353Y0041750D01*
X0114299Y0041498D01*
X0114240Y0041248D01*
X0114174Y0040999D01*
X0114103Y0040752D01*
X0114025Y0040507D01*
X0113941Y0040263D01*
X0113852Y0040022D01*
X0113756Y0039783D01*
X0113655Y0039547D01*
X0113548Y0039313D01*
X0113435Y0039082D01*
X0113316Y0038853D01*
X0113192Y0038628D01*
X0113063Y0038406D01*
X0112928Y0038187D01*
X0112787Y0037971D01*
X0112642Y0037759D01*
X0112491Y0037550D01*
X0112335Y0037346D01*
X0112174Y0037145D01*
X0112009Y0036948D01*
X0111838Y0036755D01*
X0111663Y0036567D01*
X0111484Y0036382D01*
X0111299Y0036203D01*
X0111111Y0036028D01*
X0110918Y0035857D01*
X0110721Y0035692D01*
X0110520Y0035531D01*
X0110316Y0035375D01*
X0110107Y0035224D01*
X0109895Y0035079D01*
X0109679Y0034938D01*
X0109460Y0034803D01*
X0109238Y0034674D01*
X0109013Y0034550D01*
X0108784Y0034431D01*
X0108553Y0034318D01*
X0108319Y0034211D01*
X0108083Y0034110D01*
X0107844Y0034014D01*
X0107603Y0033925D01*
X0107359Y0033841D01*
X0107114Y0033763D01*
X0106867Y0033692D01*
X0106618Y0033626D01*
X0106368Y0033567D01*
X0106116Y0033513D01*
X0105863Y0033466D01*
X0105609Y0033425D01*
X0105354Y0033391D01*
X0105099Y0033362D01*
X0104842Y0033340D01*
X0104585Y0033325D01*
X0104328Y0033315D01*
X0104071Y0033312D01*
X0103814Y0033315D01*
X0103557Y0033325D01*
X0103300Y0033340D01*
X0103043Y0033362D01*
X0102788Y0033391D01*
X0102533Y0033425D01*
X0102279Y0033466D01*
X0102026Y0033513D01*
X0101774Y0033567D01*
X0101524Y0033626D01*
X0101275Y0033692D01*
X0101028Y0033763D01*
X0100783Y0033841D01*
X0100539Y0033925D01*
X0100298Y0034014D01*
X0100059Y0034110D01*
X0099823Y0034211D01*
X0099589Y0034318D01*
X0099358Y0034431D01*
X0099129Y0034550D01*
X0098904Y0034674D01*
X0098682Y0034803D01*
X0098463Y0034938D01*
X0098247Y0035079D01*
X0098035Y0035224D01*
X0097826Y0035375D01*
X0097622Y0035531D01*
X0097421Y0035692D01*
X0097224Y0035857D01*
X0097031Y0036028D01*
X0096843Y0036203D01*
X0096658Y0036382D01*
X0096479Y0036567D01*
X0096304Y0036755D01*
X0096133Y0036948D01*
X0095968Y0037145D01*
X0095807Y0037346D01*
X0095651Y0037550D01*
X0095500Y0037759D01*
X0095355Y0037971D01*
X0095214Y0038187D01*
X0095079Y0038406D01*
X0094950Y0038628D01*
X0094826Y0038853D01*
X0094707Y0039082D01*
X0094594Y0039313D01*
X0094487Y0039547D01*
X0094386Y0039783D01*
X0094290Y0040022D01*
X0094201Y0040263D01*
X0094117Y0040507D01*
X0094039Y0040752D01*
X0093968Y0040999D01*
X0093902Y0041248D01*
X0093843Y0041498D01*
X0093789Y0041750D01*
X0093742Y0042003D01*
X0093701Y0042257D01*
X0093667Y0042512D01*
X0093638Y0042767D01*
X0093616Y0043024D01*
X0093601Y0043281D01*
X0093591Y0043538D01*
X0093588Y0043795D01*
X0111512Y0027929D02*
X0121354Y0027929D01*
X0114701Y0018992D02*
X0138323Y0018992D01*
X0149885Y0023284D02*
X0150635Y0022533D01*
X0152137Y0022533D01*
X0152887Y0023284D01*
X0154489Y0022533D02*
X0157491Y0022533D01*
X0155990Y0022533D02*
X0155990Y0027037D01*
X0154489Y0025536D01*
X0152887Y0026287D02*
X0152137Y0027037D01*
X0150635Y0027037D01*
X0149885Y0026287D01*
X0149885Y0023284D01*
D14*
X0150862Y0044839D02*
X0153362Y0044839D01*
X0155862Y0044839D01*
X0155862Y0047339D02*
X0153362Y0047339D01*
X0150862Y0047339D01*
X0056650Y0045607D02*
X0054150Y0045607D01*
X0051650Y0045607D01*
X0051650Y0043107D02*
X0054150Y0043107D01*
X0056650Y0043107D01*
D15*
X0005843Y0007843D02*
X0005843Y0005843D01*
X0007843Y0005843D01*
X0013843Y0005843D02*
X0015843Y0005843D01*
X0015843Y0007843D01*
X0015843Y0013843D02*
X0015843Y0015843D01*
X0013843Y0015843D01*
X0007843Y0015843D02*
X0005843Y0015843D01*
X0005843Y0013843D01*
X0049150Y0030807D02*
X0049150Y0057807D01*
X0049152Y0057867D01*
X0049157Y0057928D01*
X0049166Y0057987D01*
X0049179Y0058046D01*
X0049195Y0058105D01*
X0049215Y0058162D01*
X0049238Y0058217D01*
X0049265Y0058272D01*
X0049294Y0058324D01*
X0049327Y0058375D01*
X0049363Y0058424D01*
X0049401Y0058470D01*
X0049443Y0058514D01*
X0049487Y0058556D01*
X0049533Y0058594D01*
X0049582Y0058630D01*
X0049633Y0058663D01*
X0049685Y0058692D01*
X0049740Y0058719D01*
X0049795Y0058742D01*
X0049852Y0058762D01*
X0049911Y0058778D01*
X0049970Y0058791D01*
X0050029Y0058800D01*
X0050090Y0058805D01*
X0050150Y0058807D01*
X0058150Y0058807D01*
X0058210Y0058805D01*
X0058271Y0058800D01*
X0058330Y0058791D01*
X0058389Y0058778D01*
X0058448Y0058762D01*
X0058505Y0058742D01*
X0058560Y0058719D01*
X0058615Y0058692D01*
X0058667Y0058663D01*
X0058718Y0058630D01*
X0058767Y0058594D01*
X0058813Y0058556D01*
X0058857Y0058514D01*
X0058899Y0058470D01*
X0058937Y0058424D01*
X0058973Y0058375D01*
X0059006Y0058324D01*
X0059035Y0058272D01*
X0059062Y0058217D01*
X0059085Y0058162D01*
X0059105Y0058105D01*
X0059121Y0058046D01*
X0059134Y0057987D01*
X0059143Y0057928D01*
X0059148Y0057867D01*
X0059150Y0057807D01*
X0059150Y0030807D01*
X0059148Y0030747D01*
X0059143Y0030686D01*
X0059134Y0030627D01*
X0059121Y0030568D01*
X0059105Y0030509D01*
X0059085Y0030452D01*
X0059062Y0030397D01*
X0059035Y0030342D01*
X0059006Y0030290D01*
X0058973Y0030239D01*
X0058937Y0030190D01*
X0058899Y0030144D01*
X0058857Y0030100D01*
X0058813Y0030058D01*
X0058767Y0030020D01*
X0058718Y0029984D01*
X0058667Y0029951D01*
X0058615Y0029922D01*
X0058560Y0029895D01*
X0058505Y0029872D01*
X0058448Y0029852D01*
X0058389Y0029836D01*
X0058330Y0029823D01*
X0058271Y0029814D01*
X0058210Y0029809D01*
X0058150Y0029807D01*
X0050150Y0029807D01*
X0050090Y0029809D01*
X0050029Y0029814D01*
X0049970Y0029823D01*
X0049911Y0029836D01*
X0049852Y0029852D01*
X0049795Y0029872D01*
X0049740Y0029895D01*
X0049685Y0029922D01*
X0049633Y0029951D01*
X0049582Y0029984D01*
X0049533Y0030020D01*
X0049487Y0030058D01*
X0049443Y0030100D01*
X0049401Y0030144D01*
X0049363Y0030190D01*
X0049327Y0030239D01*
X0049294Y0030290D01*
X0049265Y0030342D01*
X0049238Y0030397D01*
X0049215Y0030452D01*
X0049195Y0030509D01*
X0049179Y0030568D01*
X0049166Y0030627D01*
X0049157Y0030686D01*
X0049152Y0030747D01*
X0049150Y0030807D01*
X0054150Y0038307D02*
X0054150Y0043107D01*
X0054150Y0045607D02*
X0054150Y0050307D01*
X0015843Y0076709D02*
X0013843Y0076709D01*
X0015843Y0076709D02*
X0015843Y0078709D01*
X0007843Y0076709D02*
X0005843Y0076709D01*
X0005843Y0078709D01*
X0005843Y0084709D02*
X0005843Y0086709D01*
X0007843Y0086709D01*
X0013843Y0086709D02*
X0015843Y0086709D01*
X0015843Y0084709D01*
X0148362Y0059539D02*
X0148362Y0032539D01*
X0148364Y0032479D01*
X0148369Y0032418D01*
X0148378Y0032359D01*
X0148391Y0032300D01*
X0148407Y0032241D01*
X0148427Y0032184D01*
X0148450Y0032129D01*
X0148477Y0032074D01*
X0148506Y0032022D01*
X0148539Y0031971D01*
X0148575Y0031922D01*
X0148613Y0031876D01*
X0148655Y0031832D01*
X0148699Y0031790D01*
X0148745Y0031752D01*
X0148794Y0031716D01*
X0148845Y0031683D01*
X0148897Y0031654D01*
X0148952Y0031627D01*
X0149007Y0031604D01*
X0149064Y0031584D01*
X0149123Y0031568D01*
X0149182Y0031555D01*
X0149241Y0031546D01*
X0149302Y0031541D01*
X0149362Y0031539D01*
X0157362Y0031539D01*
X0157422Y0031541D01*
X0157483Y0031546D01*
X0157542Y0031555D01*
X0157601Y0031568D01*
X0157660Y0031584D01*
X0157717Y0031604D01*
X0157772Y0031627D01*
X0157827Y0031654D01*
X0157879Y0031683D01*
X0157930Y0031716D01*
X0157979Y0031752D01*
X0158025Y0031790D01*
X0158069Y0031832D01*
X0158111Y0031876D01*
X0158149Y0031922D01*
X0158185Y0031971D01*
X0158218Y0032022D01*
X0158247Y0032074D01*
X0158274Y0032129D01*
X0158297Y0032184D01*
X0158317Y0032241D01*
X0158333Y0032300D01*
X0158346Y0032359D01*
X0158355Y0032418D01*
X0158360Y0032479D01*
X0158362Y0032539D01*
X0158362Y0059539D01*
X0158360Y0059599D01*
X0158355Y0059660D01*
X0158346Y0059719D01*
X0158333Y0059778D01*
X0158317Y0059837D01*
X0158297Y0059894D01*
X0158274Y0059949D01*
X0158247Y0060004D01*
X0158218Y0060056D01*
X0158185Y0060107D01*
X0158149Y0060156D01*
X0158111Y0060202D01*
X0158069Y0060246D01*
X0158025Y0060288D01*
X0157979Y0060326D01*
X0157930Y0060362D01*
X0157879Y0060395D01*
X0157827Y0060424D01*
X0157772Y0060451D01*
X0157717Y0060474D01*
X0157660Y0060494D01*
X0157601Y0060510D01*
X0157542Y0060523D01*
X0157483Y0060532D01*
X0157422Y0060537D01*
X0157362Y0060539D01*
X0149362Y0060539D01*
X0149302Y0060537D01*
X0149241Y0060532D01*
X0149182Y0060523D01*
X0149123Y0060510D01*
X0149064Y0060494D01*
X0149007Y0060474D01*
X0148952Y0060451D01*
X0148897Y0060424D01*
X0148845Y0060395D01*
X0148794Y0060362D01*
X0148745Y0060326D01*
X0148699Y0060288D01*
X0148655Y0060246D01*
X0148613Y0060202D01*
X0148575Y0060156D01*
X0148539Y0060107D01*
X0148506Y0060056D01*
X0148477Y0060004D01*
X0148450Y0059949D01*
X0148427Y0059894D01*
X0148407Y0059837D01*
X0148391Y0059778D01*
X0148378Y0059719D01*
X0148369Y0059660D01*
X0148364Y0059599D01*
X0148362Y0059539D01*
X0153362Y0052039D02*
X0153362Y0047339D01*
X0153362Y0044839D02*
X0153362Y0040039D01*
X0192850Y0013874D02*
X0192850Y0011874D01*
X0192850Y0013874D02*
X0194850Y0013874D01*
X0200850Y0013874D02*
X0202850Y0013874D01*
X0202850Y0011874D01*
X0202850Y0005874D02*
X0202850Y0003874D01*
X0200850Y0003874D01*
X0194850Y0003874D02*
X0192850Y0003874D01*
X0192850Y0005874D01*
X0194819Y0078677D02*
X0194819Y0080677D01*
X0194819Y0078677D02*
X0196819Y0078677D01*
X0202819Y0078677D02*
X0204819Y0078677D01*
X0204819Y0080677D01*
X0204819Y0086677D02*
X0204819Y0088677D01*
X0202819Y0088677D01*
X0196819Y0088677D02*
X0194819Y0088677D01*
X0194819Y0086677D01*
M02*
