G75*
%MOIN*%
%OFA0B0*%
%FSLAX25Y25*%
%IPPOS*%
%LPD*%
%AMOC8*
5,1,8,0,0,1.08239X$1,22.5*
%
%ADD10C,0.10000*%
%ADD11OC8,0.06300*%
%ADD12OC8,0.08500*%
%ADD13C,0.10000*%
D10*
X0064307Y0018992D03*
X0078047Y0027929D03*
X0127260Y0027929D03*
X0143441Y0018992D03*
X0127260Y0067299D03*
X0143441Y0068205D03*
X0078047Y0067299D03*
X0064307Y0068205D03*
D11*
X0054150Y0054307D03*
X0054150Y0034307D03*
X0153362Y0036039D03*
X0153362Y0056039D03*
D12*
X0012575Y0014024D03*
X0012575Y0079063D03*
X0196575Y0078102D03*
X0196575Y0015142D03*
D13*
X0192724Y0018992D01*
X0143441Y0018992D01*
X0134504Y0027929D01*
X0127260Y0027929D01*
X0153362Y0036039D02*
X0174260Y0015142D01*
X0196575Y0015142D01*
X0195882Y0014780D02*
X0193913Y0014780D01*
X0189701Y0018992D01*
X0153362Y0056039D02*
X0163835Y0066512D01*
X0175094Y0077772D01*
X0193913Y0077772D01*
X0196575Y0078102D02*
X0175425Y0078102D01*
X0153362Y0056039D01*
X0163835Y0066512D02*
X0162142Y0068205D01*
X0143441Y0068205D01*
X0142535Y0067299D01*
X0127260Y0067299D01*
X0078047Y0067299D02*
X0077142Y0068205D01*
X0040252Y0068205D01*
X0030685Y0077772D01*
X0014780Y0077772D01*
X0012575Y0079063D02*
X0030811Y0079063D01*
X0053000Y0056874D01*
X0053000Y0055457D01*
X0054150Y0054307D01*
X0040252Y0068205D01*
X0054150Y0034307D02*
X0039465Y0019622D01*
X0034622Y0014780D01*
X0014780Y0014780D01*
X0012575Y0014024D02*
X0033866Y0014024D01*
X0054150Y0034307D01*
X0062024Y0018992D02*
X0070961Y0027929D01*
X0078047Y0027929D01*
X0064307Y0018992D02*
X0062024Y0018992D01*
X0040094Y0018992D01*
X0039465Y0019622D01*
M02*
