G75*
%MOIN*%
%OFA0B0*%
%FSLAX25Y25*%
%IPPOS*%
%LPD*%
%AMOC8*
5,1,8,0,0,1.08239X$1,22.5*
%
%ADD10C,0.10000*%
%ADD11OC8,0.06300*%
%ADD12OC8,0.08500*%
%ADD13C,0.10000*%
D10*
X0056441Y0018992D03*
X0070181Y0027929D03*
X0119394Y0027929D03*
X0135575Y0018992D03*
X0119394Y0067299D03*
X0135575Y0068205D03*
X0070181Y0067299D03*
X0056441Y0068205D03*
D11*
X0046283Y0054307D03*
X0046283Y0034307D03*
X0145496Y0036039D03*
X0145496Y0056039D03*
D12*
X0008709Y0014024D03*
X0008709Y0079063D03*
X0184709Y0078102D03*
X0184709Y0015142D03*
D13*
X0184858Y0018992D01*
X0135575Y0018992D01*
X0126638Y0027929D01*
X0119394Y0027929D01*
X0145496Y0036039D02*
X0166394Y0015142D01*
X0184709Y0015142D01*
X0186047Y0014780D02*
X0181835Y0018992D01*
X0186047Y0014780D02*
X0188016Y0014780D01*
X0145496Y0056039D02*
X0155969Y0066512D01*
X0167228Y0077772D01*
X0186047Y0077772D01*
X0184709Y0078102D02*
X0167559Y0078102D01*
X0145496Y0056039D01*
X0155969Y0066512D02*
X0154276Y0068205D01*
X0135575Y0068205D01*
X0134669Y0067299D01*
X0119394Y0067299D01*
X0070181Y0067299D02*
X0069276Y0068205D01*
X0032386Y0068205D01*
X0022819Y0077772D01*
X0006913Y0077772D01*
X0008709Y0079063D02*
X0022945Y0079063D01*
X0045134Y0056874D01*
X0045134Y0055457D01*
X0046283Y0054307D01*
X0032386Y0068205D01*
X0046283Y0034307D02*
X0031598Y0019622D01*
X0026756Y0014780D01*
X0006913Y0014780D01*
X0008709Y0014024D02*
X0026000Y0014024D01*
X0046283Y0034307D01*
X0054157Y0018992D02*
X0063094Y0027929D01*
X0070181Y0027929D01*
X0056441Y0018992D02*
X0054157Y0018992D01*
X0032228Y0018992D01*
X0031598Y0019622D01*
M02*
