G75*
%MOIN*%
%OFA0B0*%
%FSLAX25Y25*%
%IPPOS*%
%LPD*%
%AMOC8*
5,1,8,0,0,1.08239X$1,22.5*
%
%ADD10C,0.00000*%
%ADD11C,0.05150*%
%ADD12OC8,0.06300*%
%ADD13OC8,0.10000*%
%ADD14C,0.10000*%
D10*
X0001000Y0001000D02*
X0001000Y0091551D01*
X0207693Y0091551D01*
X0207693Y0001000D01*
X0001000Y0001000D01*
X0024229Y0046276D02*
X0024231Y0046434D01*
X0024237Y0046592D01*
X0024247Y0046750D01*
X0024261Y0046908D01*
X0024279Y0047065D01*
X0024300Y0047222D01*
X0024326Y0047378D01*
X0024356Y0047534D01*
X0024389Y0047689D01*
X0024427Y0047842D01*
X0024468Y0047995D01*
X0024513Y0048147D01*
X0024562Y0048298D01*
X0024615Y0048447D01*
X0024671Y0048595D01*
X0024731Y0048741D01*
X0024795Y0048886D01*
X0024863Y0049029D01*
X0024934Y0049171D01*
X0025008Y0049311D01*
X0025086Y0049448D01*
X0025168Y0049584D01*
X0025252Y0049718D01*
X0025341Y0049849D01*
X0025432Y0049978D01*
X0025527Y0050105D01*
X0025624Y0050230D01*
X0025725Y0050352D01*
X0025829Y0050471D01*
X0025936Y0050588D01*
X0026046Y0050702D01*
X0026159Y0050813D01*
X0026274Y0050922D01*
X0026392Y0051027D01*
X0026513Y0051129D01*
X0026636Y0051229D01*
X0026762Y0051325D01*
X0026890Y0051418D01*
X0027020Y0051508D01*
X0027153Y0051594D01*
X0027288Y0051678D01*
X0027424Y0051757D01*
X0027563Y0051834D01*
X0027704Y0051906D01*
X0027846Y0051976D01*
X0027990Y0052041D01*
X0028136Y0052103D01*
X0028283Y0052161D01*
X0028432Y0052216D01*
X0028582Y0052267D01*
X0028733Y0052314D01*
X0028885Y0052357D01*
X0029038Y0052396D01*
X0029193Y0052432D01*
X0029348Y0052463D01*
X0029504Y0052491D01*
X0029660Y0052515D01*
X0029817Y0052535D01*
X0029975Y0052551D01*
X0030132Y0052563D01*
X0030291Y0052571D01*
X0030449Y0052575D01*
X0030607Y0052575D01*
X0030765Y0052571D01*
X0030924Y0052563D01*
X0031081Y0052551D01*
X0031239Y0052535D01*
X0031396Y0052515D01*
X0031552Y0052491D01*
X0031708Y0052463D01*
X0031863Y0052432D01*
X0032018Y0052396D01*
X0032171Y0052357D01*
X0032323Y0052314D01*
X0032474Y0052267D01*
X0032624Y0052216D01*
X0032773Y0052161D01*
X0032920Y0052103D01*
X0033066Y0052041D01*
X0033210Y0051976D01*
X0033352Y0051906D01*
X0033493Y0051834D01*
X0033632Y0051757D01*
X0033768Y0051678D01*
X0033903Y0051594D01*
X0034036Y0051508D01*
X0034166Y0051418D01*
X0034294Y0051325D01*
X0034420Y0051229D01*
X0034543Y0051129D01*
X0034664Y0051027D01*
X0034782Y0050922D01*
X0034897Y0050813D01*
X0035010Y0050702D01*
X0035120Y0050588D01*
X0035227Y0050471D01*
X0035331Y0050352D01*
X0035432Y0050230D01*
X0035529Y0050105D01*
X0035624Y0049978D01*
X0035715Y0049849D01*
X0035804Y0049718D01*
X0035888Y0049584D01*
X0035970Y0049448D01*
X0036048Y0049311D01*
X0036122Y0049171D01*
X0036193Y0049029D01*
X0036261Y0048886D01*
X0036325Y0048741D01*
X0036385Y0048595D01*
X0036441Y0048447D01*
X0036494Y0048298D01*
X0036543Y0048147D01*
X0036588Y0047995D01*
X0036629Y0047842D01*
X0036667Y0047689D01*
X0036700Y0047534D01*
X0036730Y0047378D01*
X0036756Y0047222D01*
X0036777Y0047065D01*
X0036795Y0046908D01*
X0036809Y0046750D01*
X0036819Y0046592D01*
X0036825Y0046434D01*
X0036827Y0046276D01*
X0036825Y0046118D01*
X0036819Y0045960D01*
X0036809Y0045802D01*
X0036795Y0045644D01*
X0036777Y0045487D01*
X0036756Y0045330D01*
X0036730Y0045174D01*
X0036700Y0045018D01*
X0036667Y0044863D01*
X0036629Y0044710D01*
X0036588Y0044557D01*
X0036543Y0044405D01*
X0036494Y0044254D01*
X0036441Y0044105D01*
X0036385Y0043957D01*
X0036325Y0043811D01*
X0036261Y0043666D01*
X0036193Y0043523D01*
X0036122Y0043381D01*
X0036048Y0043241D01*
X0035970Y0043104D01*
X0035888Y0042968D01*
X0035804Y0042834D01*
X0035715Y0042703D01*
X0035624Y0042574D01*
X0035529Y0042447D01*
X0035432Y0042322D01*
X0035331Y0042200D01*
X0035227Y0042081D01*
X0035120Y0041964D01*
X0035010Y0041850D01*
X0034897Y0041739D01*
X0034782Y0041630D01*
X0034664Y0041525D01*
X0034543Y0041423D01*
X0034420Y0041323D01*
X0034294Y0041227D01*
X0034166Y0041134D01*
X0034036Y0041044D01*
X0033903Y0040958D01*
X0033768Y0040874D01*
X0033632Y0040795D01*
X0033493Y0040718D01*
X0033352Y0040646D01*
X0033210Y0040576D01*
X0033066Y0040511D01*
X0032920Y0040449D01*
X0032773Y0040391D01*
X0032624Y0040336D01*
X0032474Y0040285D01*
X0032323Y0040238D01*
X0032171Y0040195D01*
X0032018Y0040156D01*
X0031863Y0040120D01*
X0031708Y0040089D01*
X0031552Y0040061D01*
X0031396Y0040037D01*
X0031239Y0040017D01*
X0031081Y0040001D01*
X0030924Y0039989D01*
X0030765Y0039981D01*
X0030607Y0039977D01*
X0030449Y0039977D01*
X0030291Y0039981D01*
X0030132Y0039989D01*
X0029975Y0040001D01*
X0029817Y0040017D01*
X0029660Y0040037D01*
X0029504Y0040061D01*
X0029348Y0040089D01*
X0029193Y0040120D01*
X0029038Y0040156D01*
X0028885Y0040195D01*
X0028733Y0040238D01*
X0028582Y0040285D01*
X0028432Y0040336D01*
X0028283Y0040391D01*
X0028136Y0040449D01*
X0027990Y0040511D01*
X0027846Y0040576D01*
X0027704Y0040646D01*
X0027563Y0040718D01*
X0027424Y0040795D01*
X0027288Y0040874D01*
X0027153Y0040958D01*
X0027020Y0041044D01*
X0026890Y0041134D01*
X0026762Y0041227D01*
X0026636Y0041323D01*
X0026513Y0041423D01*
X0026392Y0041525D01*
X0026274Y0041630D01*
X0026159Y0041739D01*
X0026046Y0041850D01*
X0025936Y0041964D01*
X0025829Y0042081D01*
X0025725Y0042200D01*
X0025624Y0042322D01*
X0025527Y0042447D01*
X0025432Y0042574D01*
X0025341Y0042703D01*
X0025252Y0042834D01*
X0025168Y0042968D01*
X0025086Y0043104D01*
X0025008Y0043241D01*
X0024934Y0043381D01*
X0024863Y0043523D01*
X0024795Y0043666D01*
X0024731Y0043811D01*
X0024671Y0043957D01*
X0024615Y0044105D01*
X0024562Y0044254D01*
X0024513Y0044405D01*
X0024468Y0044557D01*
X0024427Y0044710D01*
X0024389Y0044863D01*
X0024356Y0045018D01*
X0024326Y0045174D01*
X0024300Y0045330D01*
X0024279Y0045487D01*
X0024261Y0045644D01*
X0024247Y0045802D01*
X0024237Y0045960D01*
X0024231Y0046118D01*
X0024229Y0046276D01*
X0171866Y0046276D02*
X0171868Y0046434D01*
X0171874Y0046592D01*
X0171884Y0046750D01*
X0171898Y0046908D01*
X0171916Y0047065D01*
X0171937Y0047222D01*
X0171963Y0047378D01*
X0171993Y0047534D01*
X0172026Y0047689D01*
X0172064Y0047842D01*
X0172105Y0047995D01*
X0172150Y0048147D01*
X0172199Y0048298D01*
X0172252Y0048447D01*
X0172308Y0048595D01*
X0172368Y0048741D01*
X0172432Y0048886D01*
X0172500Y0049029D01*
X0172571Y0049171D01*
X0172645Y0049311D01*
X0172723Y0049448D01*
X0172805Y0049584D01*
X0172889Y0049718D01*
X0172978Y0049849D01*
X0173069Y0049978D01*
X0173164Y0050105D01*
X0173261Y0050230D01*
X0173362Y0050352D01*
X0173466Y0050471D01*
X0173573Y0050588D01*
X0173683Y0050702D01*
X0173796Y0050813D01*
X0173911Y0050922D01*
X0174029Y0051027D01*
X0174150Y0051129D01*
X0174273Y0051229D01*
X0174399Y0051325D01*
X0174527Y0051418D01*
X0174657Y0051508D01*
X0174790Y0051594D01*
X0174925Y0051678D01*
X0175061Y0051757D01*
X0175200Y0051834D01*
X0175341Y0051906D01*
X0175483Y0051976D01*
X0175627Y0052041D01*
X0175773Y0052103D01*
X0175920Y0052161D01*
X0176069Y0052216D01*
X0176219Y0052267D01*
X0176370Y0052314D01*
X0176522Y0052357D01*
X0176675Y0052396D01*
X0176830Y0052432D01*
X0176985Y0052463D01*
X0177141Y0052491D01*
X0177297Y0052515D01*
X0177454Y0052535D01*
X0177612Y0052551D01*
X0177769Y0052563D01*
X0177928Y0052571D01*
X0178086Y0052575D01*
X0178244Y0052575D01*
X0178402Y0052571D01*
X0178561Y0052563D01*
X0178718Y0052551D01*
X0178876Y0052535D01*
X0179033Y0052515D01*
X0179189Y0052491D01*
X0179345Y0052463D01*
X0179500Y0052432D01*
X0179655Y0052396D01*
X0179808Y0052357D01*
X0179960Y0052314D01*
X0180111Y0052267D01*
X0180261Y0052216D01*
X0180410Y0052161D01*
X0180557Y0052103D01*
X0180703Y0052041D01*
X0180847Y0051976D01*
X0180989Y0051906D01*
X0181130Y0051834D01*
X0181269Y0051757D01*
X0181405Y0051678D01*
X0181540Y0051594D01*
X0181673Y0051508D01*
X0181803Y0051418D01*
X0181931Y0051325D01*
X0182057Y0051229D01*
X0182180Y0051129D01*
X0182301Y0051027D01*
X0182419Y0050922D01*
X0182534Y0050813D01*
X0182647Y0050702D01*
X0182757Y0050588D01*
X0182864Y0050471D01*
X0182968Y0050352D01*
X0183069Y0050230D01*
X0183166Y0050105D01*
X0183261Y0049978D01*
X0183352Y0049849D01*
X0183441Y0049718D01*
X0183525Y0049584D01*
X0183607Y0049448D01*
X0183685Y0049311D01*
X0183759Y0049171D01*
X0183830Y0049029D01*
X0183898Y0048886D01*
X0183962Y0048741D01*
X0184022Y0048595D01*
X0184078Y0048447D01*
X0184131Y0048298D01*
X0184180Y0048147D01*
X0184225Y0047995D01*
X0184266Y0047842D01*
X0184304Y0047689D01*
X0184337Y0047534D01*
X0184367Y0047378D01*
X0184393Y0047222D01*
X0184414Y0047065D01*
X0184432Y0046908D01*
X0184446Y0046750D01*
X0184456Y0046592D01*
X0184462Y0046434D01*
X0184464Y0046276D01*
X0184462Y0046118D01*
X0184456Y0045960D01*
X0184446Y0045802D01*
X0184432Y0045644D01*
X0184414Y0045487D01*
X0184393Y0045330D01*
X0184367Y0045174D01*
X0184337Y0045018D01*
X0184304Y0044863D01*
X0184266Y0044710D01*
X0184225Y0044557D01*
X0184180Y0044405D01*
X0184131Y0044254D01*
X0184078Y0044105D01*
X0184022Y0043957D01*
X0183962Y0043811D01*
X0183898Y0043666D01*
X0183830Y0043523D01*
X0183759Y0043381D01*
X0183685Y0043241D01*
X0183607Y0043104D01*
X0183525Y0042968D01*
X0183441Y0042834D01*
X0183352Y0042703D01*
X0183261Y0042574D01*
X0183166Y0042447D01*
X0183069Y0042322D01*
X0182968Y0042200D01*
X0182864Y0042081D01*
X0182757Y0041964D01*
X0182647Y0041850D01*
X0182534Y0041739D01*
X0182419Y0041630D01*
X0182301Y0041525D01*
X0182180Y0041423D01*
X0182057Y0041323D01*
X0181931Y0041227D01*
X0181803Y0041134D01*
X0181673Y0041044D01*
X0181540Y0040958D01*
X0181405Y0040874D01*
X0181269Y0040795D01*
X0181130Y0040718D01*
X0180989Y0040646D01*
X0180847Y0040576D01*
X0180703Y0040511D01*
X0180557Y0040449D01*
X0180410Y0040391D01*
X0180261Y0040336D01*
X0180111Y0040285D01*
X0179960Y0040238D01*
X0179808Y0040195D01*
X0179655Y0040156D01*
X0179500Y0040120D01*
X0179345Y0040089D01*
X0179189Y0040061D01*
X0179033Y0040037D01*
X0178876Y0040017D01*
X0178718Y0040001D01*
X0178561Y0039989D01*
X0178402Y0039981D01*
X0178244Y0039977D01*
X0178086Y0039977D01*
X0177928Y0039981D01*
X0177769Y0039989D01*
X0177612Y0040001D01*
X0177454Y0040017D01*
X0177297Y0040037D01*
X0177141Y0040061D01*
X0176985Y0040089D01*
X0176830Y0040120D01*
X0176675Y0040156D01*
X0176522Y0040195D01*
X0176370Y0040238D01*
X0176219Y0040285D01*
X0176069Y0040336D01*
X0175920Y0040391D01*
X0175773Y0040449D01*
X0175627Y0040511D01*
X0175483Y0040576D01*
X0175341Y0040646D01*
X0175200Y0040718D01*
X0175061Y0040795D01*
X0174925Y0040874D01*
X0174790Y0040958D01*
X0174657Y0041044D01*
X0174527Y0041134D01*
X0174399Y0041227D01*
X0174273Y0041323D01*
X0174150Y0041423D01*
X0174029Y0041525D01*
X0173911Y0041630D01*
X0173796Y0041739D01*
X0173683Y0041850D01*
X0173573Y0041964D01*
X0173466Y0042081D01*
X0173362Y0042200D01*
X0173261Y0042322D01*
X0173164Y0042447D01*
X0173069Y0042574D01*
X0172978Y0042703D01*
X0172889Y0042834D01*
X0172805Y0042968D01*
X0172723Y0043104D01*
X0172645Y0043241D01*
X0172571Y0043381D01*
X0172500Y0043523D01*
X0172432Y0043666D01*
X0172368Y0043811D01*
X0172308Y0043957D01*
X0172252Y0044105D01*
X0172199Y0044254D01*
X0172150Y0044405D01*
X0172105Y0044557D01*
X0172064Y0044710D01*
X0172026Y0044863D01*
X0171993Y0045018D01*
X0171963Y0045174D01*
X0171937Y0045330D01*
X0171916Y0045487D01*
X0171898Y0045644D01*
X0171884Y0045802D01*
X0171874Y0045960D01*
X0171868Y0046118D01*
X0171866Y0046276D01*
D11*
X0143441Y0068205D03*
X0127260Y0067299D03*
X0078047Y0067299D03*
X0064307Y0068205D03*
X0078047Y0027929D03*
X0064307Y0018992D03*
X0127260Y0027929D03*
X0143441Y0018992D03*
D12*
X0153362Y0036039D03*
X0153362Y0056039D03*
X0054150Y0054307D03*
X0054150Y0034307D03*
D13*
X0010843Y0010843D03*
X0010843Y0081709D03*
X0197850Y0008874D03*
X0199819Y0083677D03*
D14*
X0181000Y0083677D01*
X0163835Y0066512D01*
X0162142Y0068205D01*
X0143441Y0068205D01*
X0142535Y0067299D01*
X0127260Y0067299D01*
X0153362Y0056039D02*
X0163835Y0066512D01*
X0153362Y0036039D02*
X0180528Y0008874D01*
X0197850Y0008874D01*
X0153362Y0036039D02*
X0145252Y0027929D01*
X0142732Y0027929D01*
X0143441Y0027220D01*
X0143441Y0018992D01*
X0142732Y0027929D02*
X0127260Y0027929D01*
X0078047Y0027929D02*
X0070961Y0027929D01*
X0062024Y0018992D01*
X0040094Y0018992D01*
X0039465Y0019622D01*
X0054150Y0034307D01*
X0039465Y0019622D02*
X0030685Y0010843D01*
X0010843Y0010843D01*
X0062024Y0018992D02*
X0064307Y0018992D01*
X0054150Y0054307D02*
X0040252Y0068205D01*
X0064307Y0068205D01*
X0077142Y0068205D01*
X0078047Y0067299D01*
X0040252Y0068205D02*
X0026748Y0081709D01*
X0010843Y0081709D01*
M02*
