G75*
%MOIN*%
%OFA0B0*%
%FSLAX25Y25*%
%IPPOS*%
%LPD*%
%AMOC8*
5,1,8,0,0,1.08239X$1,22.5*
%
%ADD10C,0.00000*%
%ADD11C,0.13398*%
%ADD12C,0.10800*%
%ADD13OC8,0.07100*%
%ADD14OC8,0.09300*%
D10*
X0001134Y0001000D02*
X0001134Y0091551D01*
X0191827Y0091551D01*
X0191827Y0001000D01*
X0001134Y0001000D01*
X0016362Y0046276D02*
X0016364Y0046434D01*
X0016370Y0046592D01*
X0016380Y0046750D01*
X0016394Y0046908D01*
X0016412Y0047065D01*
X0016433Y0047222D01*
X0016459Y0047378D01*
X0016489Y0047534D01*
X0016522Y0047689D01*
X0016560Y0047842D01*
X0016601Y0047995D01*
X0016646Y0048147D01*
X0016695Y0048298D01*
X0016748Y0048447D01*
X0016804Y0048595D01*
X0016864Y0048741D01*
X0016928Y0048886D01*
X0016996Y0049029D01*
X0017067Y0049171D01*
X0017141Y0049311D01*
X0017219Y0049448D01*
X0017301Y0049584D01*
X0017385Y0049718D01*
X0017474Y0049849D01*
X0017565Y0049978D01*
X0017660Y0050105D01*
X0017757Y0050230D01*
X0017858Y0050352D01*
X0017962Y0050471D01*
X0018069Y0050588D01*
X0018179Y0050702D01*
X0018292Y0050813D01*
X0018407Y0050922D01*
X0018525Y0051027D01*
X0018646Y0051129D01*
X0018769Y0051229D01*
X0018895Y0051325D01*
X0019023Y0051418D01*
X0019153Y0051508D01*
X0019286Y0051594D01*
X0019421Y0051678D01*
X0019557Y0051757D01*
X0019696Y0051834D01*
X0019837Y0051906D01*
X0019979Y0051976D01*
X0020123Y0052041D01*
X0020269Y0052103D01*
X0020416Y0052161D01*
X0020565Y0052216D01*
X0020715Y0052267D01*
X0020866Y0052314D01*
X0021018Y0052357D01*
X0021171Y0052396D01*
X0021326Y0052432D01*
X0021481Y0052463D01*
X0021637Y0052491D01*
X0021793Y0052515D01*
X0021950Y0052535D01*
X0022108Y0052551D01*
X0022265Y0052563D01*
X0022424Y0052571D01*
X0022582Y0052575D01*
X0022740Y0052575D01*
X0022898Y0052571D01*
X0023057Y0052563D01*
X0023214Y0052551D01*
X0023372Y0052535D01*
X0023529Y0052515D01*
X0023685Y0052491D01*
X0023841Y0052463D01*
X0023996Y0052432D01*
X0024151Y0052396D01*
X0024304Y0052357D01*
X0024456Y0052314D01*
X0024607Y0052267D01*
X0024757Y0052216D01*
X0024906Y0052161D01*
X0025053Y0052103D01*
X0025199Y0052041D01*
X0025343Y0051976D01*
X0025485Y0051906D01*
X0025626Y0051834D01*
X0025765Y0051757D01*
X0025901Y0051678D01*
X0026036Y0051594D01*
X0026169Y0051508D01*
X0026299Y0051418D01*
X0026427Y0051325D01*
X0026553Y0051229D01*
X0026676Y0051129D01*
X0026797Y0051027D01*
X0026915Y0050922D01*
X0027030Y0050813D01*
X0027143Y0050702D01*
X0027253Y0050588D01*
X0027360Y0050471D01*
X0027464Y0050352D01*
X0027565Y0050230D01*
X0027662Y0050105D01*
X0027757Y0049978D01*
X0027848Y0049849D01*
X0027937Y0049718D01*
X0028021Y0049584D01*
X0028103Y0049448D01*
X0028181Y0049311D01*
X0028255Y0049171D01*
X0028326Y0049029D01*
X0028394Y0048886D01*
X0028458Y0048741D01*
X0028518Y0048595D01*
X0028574Y0048447D01*
X0028627Y0048298D01*
X0028676Y0048147D01*
X0028721Y0047995D01*
X0028762Y0047842D01*
X0028800Y0047689D01*
X0028833Y0047534D01*
X0028863Y0047378D01*
X0028889Y0047222D01*
X0028910Y0047065D01*
X0028928Y0046908D01*
X0028942Y0046750D01*
X0028952Y0046592D01*
X0028958Y0046434D01*
X0028960Y0046276D01*
X0028958Y0046118D01*
X0028952Y0045960D01*
X0028942Y0045802D01*
X0028928Y0045644D01*
X0028910Y0045487D01*
X0028889Y0045330D01*
X0028863Y0045174D01*
X0028833Y0045018D01*
X0028800Y0044863D01*
X0028762Y0044710D01*
X0028721Y0044557D01*
X0028676Y0044405D01*
X0028627Y0044254D01*
X0028574Y0044105D01*
X0028518Y0043957D01*
X0028458Y0043811D01*
X0028394Y0043666D01*
X0028326Y0043523D01*
X0028255Y0043381D01*
X0028181Y0043241D01*
X0028103Y0043104D01*
X0028021Y0042968D01*
X0027937Y0042834D01*
X0027848Y0042703D01*
X0027757Y0042574D01*
X0027662Y0042447D01*
X0027565Y0042322D01*
X0027464Y0042200D01*
X0027360Y0042081D01*
X0027253Y0041964D01*
X0027143Y0041850D01*
X0027030Y0041739D01*
X0026915Y0041630D01*
X0026797Y0041525D01*
X0026676Y0041423D01*
X0026553Y0041323D01*
X0026427Y0041227D01*
X0026299Y0041134D01*
X0026169Y0041044D01*
X0026036Y0040958D01*
X0025901Y0040874D01*
X0025765Y0040795D01*
X0025626Y0040718D01*
X0025485Y0040646D01*
X0025343Y0040576D01*
X0025199Y0040511D01*
X0025053Y0040449D01*
X0024906Y0040391D01*
X0024757Y0040336D01*
X0024607Y0040285D01*
X0024456Y0040238D01*
X0024304Y0040195D01*
X0024151Y0040156D01*
X0023996Y0040120D01*
X0023841Y0040089D01*
X0023685Y0040061D01*
X0023529Y0040037D01*
X0023372Y0040017D01*
X0023214Y0040001D01*
X0023057Y0039989D01*
X0022898Y0039981D01*
X0022740Y0039977D01*
X0022582Y0039977D01*
X0022424Y0039981D01*
X0022265Y0039989D01*
X0022108Y0040001D01*
X0021950Y0040017D01*
X0021793Y0040037D01*
X0021637Y0040061D01*
X0021481Y0040089D01*
X0021326Y0040120D01*
X0021171Y0040156D01*
X0021018Y0040195D01*
X0020866Y0040238D01*
X0020715Y0040285D01*
X0020565Y0040336D01*
X0020416Y0040391D01*
X0020269Y0040449D01*
X0020123Y0040511D01*
X0019979Y0040576D01*
X0019837Y0040646D01*
X0019696Y0040718D01*
X0019557Y0040795D01*
X0019421Y0040874D01*
X0019286Y0040958D01*
X0019153Y0041044D01*
X0019023Y0041134D01*
X0018895Y0041227D01*
X0018769Y0041323D01*
X0018646Y0041423D01*
X0018525Y0041525D01*
X0018407Y0041630D01*
X0018292Y0041739D01*
X0018179Y0041850D01*
X0018069Y0041964D01*
X0017962Y0042081D01*
X0017858Y0042200D01*
X0017757Y0042322D01*
X0017660Y0042447D01*
X0017565Y0042574D01*
X0017474Y0042703D01*
X0017385Y0042834D01*
X0017301Y0042968D01*
X0017219Y0043104D01*
X0017141Y0043241D01*
X0017067Y0043381D01*
X0016996Y0043523D01*
X0016928Y0043666D01*
X0016864Y0043811D01*
X0016804Y0043957D01*
X0016748Y0044105D01*
X0016695Y0044254D01*
X0016646Y0044405D01*
X0016601Y0044557D01*
X0016560Y0044710D01*
X0016522Y0044863D01*
X0016489Y0045018D01*
X0016459Y0045174D01*
X0016433Y0045330D01*
X0016412Y0045487D01*
X0016394Y0045644D01*
X0016380Y0045802D01*
X0016370Y0045960D01*
X0016364Y0046118D01*
X0016362Y0046276D01*
X0164000Y0046276D02*
X0164002Y0046434D01*
X0164008Y0046592D01*
X0164018Y0046750D01*
X0164032Y0046908D01*
X0164050Y0047065D01*
X0164071Y0047222D01*
X0164097Y0047378D01*
X0164127Y0047534D01*
X0164160Y0047689D01*
X0164198Y0047842D01*
X0164239Y0047995D01*
X0164284Y0048147D01*
X0164333Y0048298D01*
X0164386Y0048447D01*
X0164442Y0048595D01*
X0164502Y0048741D01*
X0164566Y0048886D01*
X0164634Y0049029D01*
X0164705Y0049171D01*
X0164779Y0049311D01*
X0164857Y0049448D01*
X0164939Y0049584D01*
X0165023Y0049718D01*
X0165112Y0049849D01*
X0165203Y0049978D01*
X0165298Y0050105D01*
X0165395Y0050230D01*
X0165496Y0050352D01*
X0165600Y0050471D01*
X0165707Y0050588D01*
X0165817Y0050702D01*
X0165930Y0050813D01*
X0166045Y0050922D01*
X0166163Y0051027D01*
X0166284Y0051129D01*
X0166407Y0051229D01*
X0166533Y0051325D01*
X0166661Y0051418D01*
X0166791Y0051508D01*
X0166924Y0051594D01*
X0167059Y0051678D01*
X0167195Y0051757D01*
X0167334Y0051834D01*
X0167475Y0051906D01*
X0167617Y0051976D01*
X0167761Y0052041D01*
X0167907Y0052103D01*
X0168054Y0052161D01*
X0168203Y0052216D01*
X0168353Y0052267D01*
X0168504Y0052314D01*
X0168656Y0052357D01*
X0168809Y0052396D01*
X0168964Y0052432D01*
X0169119Y0052463D01*
X0169275Y0052491D01*
X0169431Y0052515D01*
X0169588Y0052535D01*
X0169746Y0052551D01*
X0169903Y0052563D01*
X0170062Y0052571D01*
X0170220Y0052575D01*
X0170378Y0052575D01*
X0170536Y0052571D01*
X0170695Y0052563D01*
X0170852Y0052551D01*
X0171010Y0052535D01*
X0171167Y0052515D01*
X0171323Y0052491D01*
X0171479Y0052463D01*
X0171634Y0052432D01*
X0171789Y0052396D01*
X0171942Y0052357D01*
X0172094Y0052314D01*
X0172245Y0052267D01*
X0172395Y0052216D01*
X0172544Y0052161D01*
X0172691Y0052103D01*
X0172837Y0052041D01*
X0172981Y0051976D01*
X0173123Y0051906D01*
X0173264Y0051834D01*
X0173403Y0051757D01*
X0173539Y0051678D01*
X0173674Y0051594D01*
X0173807Y0051508D01*
X0173937Y0051418D01*
X0174065Y0051325D01*
X0174191Y0051229D01*
X0174314Y0051129D01*
X0174435Y0051027D01*
X0174553Y0050922D01*
X0174668Y0050813D01*
X0174781Y0050702D01*
X0174891Y0050588D01*
X0174998Y0050471D01*
X0175102Y0050352D01*
X0175203Y0050230D01*
X0175300Y0050105D01*
X0175395Y0049978D01*
X0175486Y0049849D01*
X0175575Y0049718D01*
X0175659Y0049584D01*
X0175741Y0049448D01*
X0175819Y0049311D01*
X0175893Y0049171D01*
X0175964Y0049029D01*
X0176032Y0048886D01*
X0176096Y0048741D01*
X0176156Y0048595D01*
X0176212Y0048447D01*
X0176265Y0048298D01*
X0176314Y0048147D01*
X0176359Y0047995D01*
X0176400Y0047842D01*
X0176438Y0047689D01*
X0176471Y0047534D01*
X0176501Y0047378D01*
X0176527Y0047222D01*
X0176548Y0047065D01*
X0176566Y0046908D01*
X0176580Y0046750D01*
X0176590Y0046592D01*
X0176596Y0046434D01*
X0176598Y0046276D01*
X0176596Y0046118D01*
X0176590Y0045960D01*
X0176580Y0045802D01*
X0176566Y0045644D01*
X0176548Y0045487D01*
X0176527Y0045330D01*
X0176501Y0045174D01*
X0176471Y0045018D01*
X0176438Y0044863D01*
X0176400Y0044710D01*
X0176359Y0044557D01*
X0176314Y0044405D01*
X0176265Y0044254D01*
X0176212Y0044105D01*
X0176156Y0043957D01*
X0176096Y0043811D01*
X0176032Y0043666D01*
X0175964Y0043523D01*
X0175893Y0043381D01*
X0175819Y0043241D01*
X0175741Y0043104D01*
X0175659Y0042968D01*
X0175575Y0042834D01*
X0175486Y0042703D01*
X0175395Y0042574D01*
X0175300Y0042447D01*
X0175203Y0042322D01*
X0175102Y0042200D01*
X0174998Y0042081D01*
X0174891Y0041964D01*
X0174781Y0041850D01*
X0174668Y0041739D01*
X0174553Y0041630D01*
X0174435Y0041525D01*
X0174314Y0041423D01*
X0174191Y0041323D01*
X0174065Y0041227D01*
X0173937Y0041134D01*
X0173807Y0041044D01*
X0173674Y0040958D01*
X0173539Y0040874D01*
X0173403Y0040795D01*
X0173264Y0040718D01*
X0173123Y0040646D01*
X0172981Y0040576D01*
X0172837Y0040511D01*
X0172691Y0040449D01*
X0172544Y0040391D01*
X0172395Y0040336D01*
X0172245Y0040285D01*
X0172094Y0040238D01*
X0171942Y0040195D01*
X0171789Y0040156D01*
X0171634Y0040120D01*
X0171479Y0040089D01*
X0171323Y0040061D01*
X0171167Y0040037D01*
X0171010Y0040017D01*
X0170852Y0040001D01*
X0170695Y0039989D01*
X0170536Y0039981D01*
X0170378Y0039977D01*
X0170220Y0039977D01*
X0170062Y0039981D01*
X0169903Y0039989D01*
X0169746Y0040001D01*
X0169588Y0040017D01*
X0169431Y0040037D01*
X0169275Y0040061D01*
X0169119Y0040089D01*
X0168964Y0040120D01*
X0168809Y0040156D01*
X0168656Y0040195D01*
X0168504Y0040238D01*
X0168353Y0040285D01*
X0168203Y0040336D01*
X0168054Y0040391D01*
X0167907Y0040449D01*
X0167761Y0040511D01*
X0167617Y0040576D01*
X0167475Y0040646D01*
X0167334Y0040718D01*
X0167195Y0040795D01*
X0167059Y0040874D01*
X0166924Y0040958D01*
X0166791Y0041044D01*
X0166661Y0041134D01*
X0166533Y0041227D01*
X0166407Y0041323D01*
X0166284Y0041423D01*
X0166163Y0041525D01*
X0166045Y0041630D01*
X0165930Y0041739D01*
X0165817Y0041850D01*
X0165707Y0041964D01*
X0165600Y0042081D01*
X0165496Y0042200D01*
X0165395Y0042322D01*
X0165298Y0042447D01*
X0165203Y0042574D01*
X0165112Y0042703D01*
X0165023Y0042834D01*
X0164939Y0042968D01*
X0164857Y0043104D01*
X0164779Y0043241D01*
X0164705Y0043381D01*
X0164634Y0043523D01*
X0164566Y0043666D01*
X0164502Y0043811D01*
X0164442Y0043957D01*
X0164386Y0044105D01*
X0164333Y0044254D01*
X0164284Y0044405D01*
X0164239Y0044557D01*
X0164198Y0044710D01*
X0164160Y0044863D01*
X0164127Y0045018D01*
X0164097Y0045174D01*
X0164071Y0045330D01*
X0164050Y0045487D01*
X0164032Y0045644D01*
X0164018Y0045802D01*
X0164008Y0045960D01*
X0164002Y0046118D01*
X0164000Y0046276D01*
D11*
X0170299Y0046276D03*
X0022661Y0046276D03*
D12*
X0056441Y0068205D03*
X0070181Y0067299D03*
X0119394Y0067299D03*
X0135575Y0068205D03*
X0119394Y0027929D03*
X0135575Y0018992D03*
X0070181Y0027929D03*
X0056441Y0018992D03*
D13*
X0046283Y0034307D03*
X0046283Y0054307D03*
X0145496Y0056039D03*
X0145496Y0036039D03*
D14*
X0184709Y0015142D03*
X0184709Y0078102D03*
X0008709Y0079063D03*
X0008709Y0014024D03*
M02*
