G75*
%MOIN*%
%OFA0B0*%
%FSLAX25Y25*%
%IPPOS*%
%LPD*%
%AMOC8*
5,1,8,0,0,1.08239X$1,22.5*
%
%ADD10C,0.00700*%
%ADD11C,0.00600*%
%ADD12C,0.00900*%
%ADD13C,0.00500*%
%ADD14C,0.01200*%
%ADD15C,0.00200*%
%ADD16C,0.00800*%
D10*
X0062694Y0039072D02*
X0064896Y0039072D01*
X0063795Y0039072D02*
X0063795Y0042375D01*
X0062694Y0041274D01*
X0066377Y0041274D02*
X0067478Y0042375D01*
X0067478Y0039072D01*
X0066377Y0039072D02*
X0068579Y0039072D01*
X0070060Y0040723D02*
X0072262Y0040723D01*
X0071712Y0042375D02*
X0070060Y0040723D01*
X0071712Y0039072D02*
X0071712Y0042375D01*
X0068579Y0045072D02*
X0068579Y0048375D01*
X0066377Y0048375D02*
X0068579Y0045072D01*
X0066377Y0045072D02*
X0066377Y0048375D01*
X0064896Y0047824D02*
X0064896Y0046723D01*
X0064345Y0046173D01*
X0062694Y0046173D01*
X0063795Y0046173D02*
X0064896Y0045072D01*
X0062694Y0045072D02*
X0062694Y0048375D01*
X0064345Y0048375D01*
X0064896Y0047824D01*
X0064345Y0051072D02*
X0064896Y0051623D01*
X0064896Y0054375D01*
X0066377Y0053274D02*
X0067478Y0054375D01*
X0067478Y0051072D01*
X0066377Y0051072D02*
X0068579Y0051072D01*
X0064345Y0051072D02*
X0063245Y0051072D01*
X0062694Y0051623D01*
X0062694Y0054375D01*
X0033591Y0061009D02*
X0031389Y0061009D01*
X0031389Y0064312D01*
X0033591Y0064312D01*
X0032490Y0062660D02*
X0031389Y0062660D01*
X0029908Y0062110D02*
X0029908Y0061560D01*
X0029358Y0061009D01*
X0028257Y0061009D01*
X0027706Y0061560D01*
X0028257Y0062660D02*
X0029358Y0062660D01*
X0029908Y0062110D01*
X0029908Y0063761D02*
X0029358Y0064312D01*
X0028257Y0064312D01*
X0027706Y0063761D01*
X0027706Y0063211D01*
X0028257Y0062660D01*
X0026225Y0062110D02*
X0025124Y0061009D01*
X0024023Y0062110D01*
X0024023Y0064312D01*
X0022542Y0064312D02*
X0020340Y0064312D01*
X0020340Y0061009D01*
X0022542Y0061009D01*
X0021441Y0062660D02*
X0020340Y0062660D01*
X0018859Y0062660D02*
X0018859Y0061009D01*
X0018859Y0062660D02*
X0018308Y0063211D01*
X0016657Y0063211D01*
X0016657Y0061009D01*
X0015176Y0062110D02*
X0012974Y0062110D01*
X0012974Y0062660D02*
X0013524Y0063211D01*
X0014625Y0063211D01*
X0015176Y0062660D01*
X0015176Y0062110D01*
X0014625Y0061009D02*
X0013524Y0061009D01*
X0012974Y0061560D01*
X0012974Y0062660D01*
X0011492Y0062660D02*
X0011492Y0061560D01*
X0010942Y0061009D01*
X0009291Y0061009D01*
X0009291Y0059908D02*
X0009291Y0063211D01*
X0010942Y0063211D01*
X0011492Y0062660D01*
X0007809Y0061560D02*
X0007809Y0063761D01*
X0007259Y0064312D01*
X0006158Y0064312D01*
X0005607Y0063761D01*
X0005607Y0061560D01*
X0006158Y0061009D01*
X0007259Y0061009D01*
X0007809Y0061560D01*
X0006708Y0058312D02*
X0007809Y0057211D01*
X0007809Y0055009D01*
X0009291Y0055560D02*
X0009841Y0055009D01*
X0010942Y0055009D01*
X0011492Y0055560D01*
X0009291Y0055560D02*
X0009291Y0057761D01*
X0009841Y0058312D01*
X0010942Y0058312D01*
X0011492Y0057761D01*
X0007809Y0056660D02*
X0005607Y0056660D01*
X0005607Y0057211D02*
X0005607Y0055009D01*
X0005607Y0057211D02*
X0006708Y0058312D01*
X0016657Y0058312D02*
X0016657Y0055009D01*
X0016657Y0056660D02*
X0017758Y0056660D01*
X0020340Y0057211D02*
X0020891Y0057211D01*
X0020891Y0055009D01*
X0021441Y0055009D02*
X0020340Y0055009D01*
X0022795Y0055009D02*
X0023896Y0055009D01*
X0023346Y0055009D02*
X0023346Y0058312D01*
X0022795Y0058312D01*
X0020891Y0058312D02*
X0020891Y0058862D01*
X0018859Y0058312D02*
X0016657Y0058312D01*
X0025251Y0057211D02*
X0026352Y0057211D01*
X0025801Y0057761D02*
X0025801Y0055560D01*
X0026352Y0055009D01*
X0027706Y0055560D02*
X0027706Y0056660D01*
X0028257Y0057211D01*
X0029358Y0057211D01*
X0029908Y0056660D01*
X0029908Y0056110D01*
X0027706Y0056110D01*
X0027706Y0055560D02*
X0028257Y0055009D01*
X0029358Y0055009D01*
X0031389Y0055009D02*
X0031389Y0057211D01*
X0031389Y0056110D02*
X0032490Y0057211D01*
X0033041Y0057211D01*
X0026225Y0062110D02*
X0026225Y0064312D01*
X0015916Y0052312D02*
X0015916Y0049009D01*
X0014815Y0049009D02*
X0017017Y0049009D01*
X0013524Y0049009D02*
X0012974Y0049009D01*
X0012974Y0049560D01*
X0013524Y0049560D01*
X0013524Y0049009D01*
X0011492Y0049009D02*
X0009291Y0049009D01*
X0010392Y0049009D02*
X0010392Y0052312D01*
X0009291Y0051211D01*
X0007809Y0050110D02*
X0007809Y0052312D01*
X0005607Y0052312D02*
X0005607Y0050110D01*
X0006708Y0049009D01*
X0007809Y0050110D01*
X0014815Y0051211D02*
X0015916Y0052312D01*
X0088285Y0078993D02*
X0088835Y0078442D01*
X0089936Y0078442D01*
X0090487Y0078993D01*
X0090487Y0081745D01*
X0091968Y0081194D02*
X0092518Y0081745D01*
X0093619Y0081745D01*
X0094170Y0081194D01*
X0094170Y0080644D01*
X0091968Y0078442D01*
X0094170Y0078442D01*
X0088285Y0078993D02*
X0088285Y0081745D01*
X0099334Y0081745D02*
X0099334Y0078442D01*
X0099334Y0079543D02*
X0100985Y0079543D01*
X0101536Y0080094D01*
X0101536Y0081194D01*
X0100985Y0081745D01*
X0099334Y0081745D01*
X0103017Y0081745D02*
X0105219Y0078442D01*
X0105219Y0081745D01*
X0106700Y0081194D02*
X0107251Y0081745D01*
X0108352Y0081745D01*
X0108902Y0081194D01*
X0108902Y0080644D01*
X0106700Y0078442D01*
X0108902Y0078442D01*
X0110384Y0078442D02*
X0112585Y0078442D01*
X0111484Y0078442D02*
X0111484Y0081745D01*
X0110384Y0080644D01*
X0114067Y0080094D02*
X0116269Y0080094D01*
X0115718Y0081745D02*
X0114067Y0080094D01*
X0115718Y0081745D02*
X0115718Y0078442D01*
X0103017Y0078442D02*
X0103017Y0081745D01*
X0100435Y0079543D02*
X0101536Y0078442D01*
D11*
X0059470Y0058128D02*
X0059470Y0031128D01*
X0059468Y0031068D01*
X0059463Y0031007D01*
X0059454Y0030948D01*
X0059441Y0030889D01*
X0059425Y0030830D01*
X0059405Y0030773D01*
X0059382Y0030718D01*
X0059355Y0030663D01*
X0059326Y0030611D01*
X0059293Y0030560D01*
X0059257Y0030511D01*
X0059219Y0030465D01*
X0059177Y0030421D01*
X0059133Y0030379D01*
X0059087Y0030341D01*
X0059038Y0030305D01*
X0058987Y0030272D01*
X0058935Y0030243D01*
X0058880Y0030216D01*
X0058825Y0030193D01*
X0058768Y0030173D01*
X0058709Y0030157D01*
X0058650Y0030144D01*
X0058591Y0030135D01*
X0058530Y0030130D01*
X0058470Y0030128D01*
X0050470Y0030128D01*
X0050410Y0030130D01*
X0050349Y0030135D01*
X0050290Y0030144D01*
X0050231Y0030157D01*
X0050172Y0030173D01*
X0050115Y0030193D01*
X0050060Y0030216D01*
X0050005Y0030243D01*
X0049953Y0030272D01*
X0049902Y0030305D01*
X0049853Y0030341D01*
X0049807Y0030379D01*
X0049763Y0030421D01*
X0049721Y0030465D01*
X0049683Y0030511D01*
X0049647Y0030560D01*
X0049614Y0030611D01*
X0049585Y0030663D01*
X0049558Y0030718D01*
X0049535Y0030773D01*
X0049515Y0030830D01*
X0049499Y0030889D01*
X0049486Y0030948D01*
X0049477Y0031007D01*
X0049472Y0031068D01*
X0049470Y0031128D01*
X0049470Y0058128D01*
X0049472Y0058188D01*
X0049477Y0058249D01*
X0049486Y0058308D01*
X0049499Y0058367D01*
X0049515Y0058426D01*
X0049535Y0058483D01*
X0049558Y0058538D01*
X0049585Y0058593D01*
X0049614Y0058645D01*
X0049647Y0058696D01*
X0049683Y0058745D01*
X0049721Y0058791D01*
X0049763Y0058835D01*
X0049807Y0058877D01*
X0049853Y0058915D01*
X0049902Y0058951D01*
X0049953Y0058984D01*
X0050005Y0059013D01*
X0050060Y0059040D01*
X0050115Y0059063D01*
X0050172Y0059083D01*
X0050231Y0059099D01*
X0050290Y0059112D01*
X0050349Y0059121D01*
X0050410Y0059126D01*
X0050470Y0059128D01*
X0058470Y0059128D01*
X0058530Y0059126D01*
X0058591Y0059121D01*
X0058650Y0059112D01*
X0058709Y0059099D01*
X0058768Y0059083D01*
X0058825Y0059063D01*
X0058880Y0059040D01*
X0058935Y0059013D01*
X0058987Y0058984D01*
X0059038Y0058951D01*
X0059087Y0058915D01*
X0059133Y0058877D01*
X0059177Y0058835D01*
X0059219Y0058791D01*
X0059257Y0058745D01*
X0059293Y0058696D01*
X0059326Y0058645D01*
X0059355Y0058593D01*
X0059382Y0058538D01*
X0059405Y0058483D01*
X0059425Y0058426D01*
X0059441Y0058367D01*
X0059454Y0058308D01*
X0059463Y0058249D01*
X0059468Y0058188D01*
X0059470Y0058128D01*
X0054470Y0050628D02*
X0054470Y0045928D01*
X0054470Y0043428D02*
X0054470Y0038628D01*
X0062644Y0031782D02*
X0062644Y0029613D01*
X0063078Y0029180D01*
X0063945Y0029180D01*
X0064379Y0029613D01*
X0064379Y0031782D01*
X0065591Y0030914D02*
X0066458Y0031782D01*
X0066458Y0029180D01*
X0065591Y0029180D02*
X0067325Y0029180D01*
X0003600Y0015100D02*
X0003603Y0015382D01*
X0003614Y0015664D01*
X0003631Y0015946D01*
X0003655Y0016227D01*
X0003686Y0016508D01*
X0003724Y0016787D01*
X0003769Y0017066D01*
X0003821Y0017344D01*
X0003879Y0017620D01*
X0003945Y0017894D01*
X0004017Y0018167D01*
X0004095Y0018438D01*
X0004180Y0018707D01*
X0004272Y0018974D01*
X0004371Y0019239D01*
X0004475Y0019501D01*
X0004587Y0019760D01*
X0004704Y0020017D01*
X0004828Y0020271D01*
X0004958Y0020521D01*
X0005094Y0020768D01*
X0005236Y0021012D01*
X0005384Y0021252D01*
X0005538Y0021489D01*
X0005698Y0021722D01*
X0005863Y0021951D01*
X0006034Y0022175D01*
X0006210Y0022396D01*
X0006392Y0022611D01*
X0006579Y0022823D01*
X0006771Y0023030D01*
X0006968Y0023232D01*
X0007170Y0023429D01*
X0007377Y0023621D01*
X0007589Y0023808D01*
X0007804Y0023990D01*
X0008025Y0024166D01*
X0008249Y0024337D01*
X0008478Y0024502D01*
X0008711Y0024662D01*
X0008948Y0024816D01*
X0009188Y0024964D01*
X0009432Y0025106D01*
X0009679Y0025242D01*
X0009929Y0025372D01*
X0010183Y0025496D01*
X0010440Y0025613D01*
X0010699Y0025725D01*
X0010961Y0025829D01*
X0011226Y0025928D01*
X0011493Y0026020D01*
X0011762Y0026105D01*
X0012033Y0026183D01*
X0012306Y0026255D01*
X0012580Y0026321D01*
X0012856Y0026379D01*
X0013134Y0026431D01*
X0013413Y0026476D01*
X0013692Y0026514D01*
X0013973Y0026545D01*
X0014254Y0026569D01*
X0014536Y0026586D01*
X0014818Y0026597D01*
X0015100Y0026600D01*
X0015382Y0026597D01*
X0015664Y0026586D01*
X0015946Y0026569D01*
X0016227Y0026545D01*
X0016508Y0026514D01*
X0016787Y0026476D01*
X0017066Y0026431D01*
X0017344Y0026379D01*
X0017620Y0026321D01*
X0017894Y0026255D01*
X0018167Y0026183D01*
X0018438Y0026105D01*
X0018707Y0026020D01*
X0018974Y0025928D01*
X0019239Y0025829D01*
X0019501Y0025725D01*
X0019760Y0025613D01*
X0020017Y0025496D01*
X0020271Y0025372D01*
X0020521Y0025242D01*
X0020768Y0025106D01*
X0021012Y0024964D01*
X0021252Y0024816D01*
X0021489Y0024662D01*
X0021722Y0024502D01*
X0021951Y0024337D01*
X0022175Y0024166D01*
X0022396Y0023990D01*
X0022611Y0023808D01*
X0022823Y0023621D01*
X0023030Y0023429D01*
X0023232Y0023232D01*
X0023429Y0023030D01*
X0023621Y0022823D01*
X0023808Y0022611D01*
X0023990Y0022396D01*
X0024166Y0022175D01*
X0024337Y0021951D01*
X0024502Y0021722D01*
X0024662Y0021489D01*
X0024816Y0021252D01*
X0024964Y0021012D01*
X0025106Y0020768D01*
X0025242Y0020521D01*
X0025372Y0020271D01*
X0025496Y0020017D01*
X0025613Y0019760D01*
X0025725Y0019501D01*
X0025829Y0019239D01*
X0025928Y0018974D01*
X0026020Y0018707D01*
X0026105Y0018438D01*
X0026183Y0018167D01*
X0026255Y0017894D01*
X0026321Y0017620D01*
X0026379Y0017344D01*
X0026431Y0017066D01*
X0026476Y0016787D01*
X0026514Y0016508D01*
X0026545Y0016227D01*
X0026569Y0015946D01*
X0026586Y0015664D01*
X0026597Y0015382D01*
X0026600Y0015100D01*
X0026597Y0014818D01*
X0026586Y0014536D01*
X0026569Y0014254D01*
X0026545Y0013973D01*
X0026514Y0013692D01*
X0026476Y0013413D01*
X0026431Y0013134D01*
X0026379Y0012856D01*
X0026321Y0012580D01*
X0026255Y0012306D01*
X0026183Y0012033D01*
X0026105Y0011762D01*
X0026020Y0011493D01*
X0025928Y0011226D01*
X0025829Y0010961D01*
X0025725Y0010699D01*
X0025613Y0010440D01*
X0025496Y0010183D01*
X0025372Y0009929D01*
X0025242Y0009679D01*
X0025106Y0009432D01*
X0024964Y0009188D01*
X0024816Y0008948D01*
X0024662Y0008711D01*
X0024502Y0008478D01*
X0024337Y0008249D01*
X0024166Y0008025D01*
X0023990Y0007804D01*
X0023808Y0007589D01*
X0023621Y0007377D01*
X0023429Y0007170D01*
X0023232Y0006968D01*
X0023030Y0006771D01*
X0022823Y0006579D01*
X0022611Y0006392D01*
X0022396Y0006210D01*
X0022175Y0006034D01*
X0021951Y0005863D01*
X0021722Y0005698D01*
X0021489Y0005538D01*
X0021252Y0005384D01*
X0021012Y0005236D01*
X0020768Y0005094D01*
X0020521Y0004958D01*
X0020271Y0004828D01*
X0020017Y0004704D01*
X0019760Y0004587D01*
X0019501Y0004475D01*
X0019239Y0004371D01*
X0018974Y0004272D01*
X0018707Y0004180D01*
X0018438Y0004095D01*
X0018167Y0004017D01*
X0017894Y0003945D01*
X0017620Y0003879D01*
X0017344Y0003821D01*
X0017066Y0003769D01*
X0016787Y0003724D01*
X0016508Y0003686D01*
X0016227Y0003655D01*
X0015946Y0003631D01*
X0015664Y0003614D01*
X0015382Y0003603D01*
X0015100Y0003600D01*
X0014818Y0003603D01*
X0014536Y0003614D01*
X0014254Y0003631D01*
X0013973Y0003655D01*
X0013692Y0003686D01*
X0013413Y0003724D01*
X0013134Y0003769D01*
X0012856Y0003821D01*
X0012580Y0003879D01*
X0012306Y0003945D01*
X0012033Y0004017D01*
X0011762Y0004095D01*
X0011493Y0004180D01*
X0011226Y0004272D01*
X0010961Y0004371D01*
X0010699Y0004475D01*
X0010440Y0004587D01*
X0010183Y0004704D01*
X0009929Y0004828D01*
X0009679Y0004958D01*
X0009432Y0005094D01*
X0009188Y0005236D01*
X0008948Y0005384D01*
X0008711Y0005538D01*
X0008478Y0005698D01*
X0008249Y0005863D01*
X0008025Y0006034D01*
X0007804Y0006210D01*
X0007589Y0006392D01*
X0007377Y0006579D01*
X0007170Y0006771D01*
X0006968Y0006968D01*
X0006771Y0007170D01*
X0006579Y0007377D01*
X0006392Y0007589D01*
X0006210Y0007804D01*
X0006034Y0008025D01*
X0005863Y0008249D01*
X0005698Y0008478D01*
X0005538Y0008711D01*
X0005384Y0008948D01*
X0005236Y0009188D01*
X0005094Y0009432D01*
X0004958Y0009679D01*
X0004828Y0009929D01*
X0004704Y0010183D01*
X0004587Y0010440D01*
X0004475Y0010699D01*
X0004371Y0010961D01*
X0004272Y0011226D01*
X0004180Y0011493D01*
X0004095Y0011762D01*
X0004017Y0012033D01*
X0003945Y0012306D01*
X0003879Y0012580D01*
X0003821Y0012856D01*
X0003769Y0013134D01*
X0003724Y0013413D01*
X0003686Y0013692D01*
X0003655Y0013973D01*
X0003631Y0014254D01*
X0003614Y0014536D01*
X0003603Y0014818D01*
X0003600Y0015100D01*
X0003600Y0078092D02*
X0003603Y0078374D01*
X0003614Y0078656D01*
X0003631Y0078938D01*
X0003655Y0079219D01*
X0003686Y0079500D01*
X0003724Y0079779D01*
X0003769Y0080058D01*
X0003821Y0080336D01*
X0003879Y0080612D01*
X0003945Y0080886D01*
X0004017Y0081159D01*
X0004095Y0081430D01*
X0004180Y0081699D01*
X0004272Y0081966D01*
X0004371Y0082231D01*
X0004475Y0082493D01*
X0004587Y0082752D01*
X0004704Y0083009D01*
X0004828Y0083263D01*
X0004958Y0083513D01*
X0005094Y0083760D01*
X0005236Y0084004D01*
X0005384Y0084244D01*
X0005538Y0084481D01*
X0005698Y0084714D01*
X0005863Y0084943D01*
X0006034Y0085167D01*
X0006210Y0085388D01*
X0006392Y0085603D01*
X0006579Y0085815D01*
X0006771Y0086022D01*
X0006968Y0086224D01*
X0007170Y0086421D01*
X0007377Y0086613D01*
X0007589Y0086800D01*
X0007804Y0086982D01*
X0008025Y0087158D01*
X0008249Y0087329D01*
X0008478Y0087494D01*
X0008711Y0087654D01*
X0008948Y0087808D01*
X0009188Y0087956D01*
X0009432Y0088098D01*
X0009679Y0088234D01*
X0009929Y0088364D01*
X0010183Y0088488D01*
X0010440Y0088605D01*
X0010699Y0088717D01*
X0010961Y0088821D01*
X0011226Y0088920D01*
X0011493Y0089012D01*
X0011762Y0089097D01*
X0012033Y0089175D01*
X0012306Y0089247D01*
X0012580Y0089313D01*
X0012856Y0089371D01*
X0013134Y0089423D01*
X0013413Y0089468D01*
X0013692Y0089506D01*
X0013973Y0089537D01*
X0014254Y0089561D01*
X0014536Y0089578D01*
X0014818Y0089589D01*
X0015100Y0089592D01*
X0015382Y0089589D01*
X0015664Y0089578D01*
X0015946Y0089561D01*
X0016227Y0089537D01*
X0016508Y0089506D01*
X0016787Y0089468D01*
X0017066Y0089423D01*
X0017344Y0089371D01*
X0017620Y0089313D01*
X0017894Y0089247D01*
X0018167Y0089175D01*
X0018438Y0089097D01*
X0018707Y0089012D01*
X0018974Y0088920D01*
X0019239Y0088821D01*
X0019501Y0088717D01*
X0019760Y0088605D01*
X0020017Y0088488D01*
X0020271Y0088364D01*
X0020521Y0088234D01*
X0020768Y0088098D01*
X0021012Y0087956D01*
X0021252Y0087808D01*
X0021489Y0087654D01*
X0021722Y0087494D01*
X0021951Y0087329D01*
X0022175Y0087158D01*
X0022396Y0086982D01*
X0022611Y0086800D01*
X0022823Y0086613D01*
X0023030Y0086421D01*
X0023232Y0086224D01*
X0023429Y0086022D01*
X0023621Y0085815D01*
X0023808Y0085603D01*
X0023990Y0085388D01*
X0024166Y0085167D01*
X0024337Y0084943D01*
X0024502Y0084714D01*
X0024662Y0084481D01*
X0024816Y0084244D01*
X0024964Y0084004D01*
X0025106Y0083760D01*
X0025242Y0083513D01*
X0025372Y0083263D01*
X0025496Y0083009D01*
X0025613Y0082752D01*
X0025725Y0082493D01*
X0025829Y0082231D01*
X0025928Y0081966D01*
X0026020Y0081699D01*
X0026105Y0081430D01*
X0026183Y0081159D01*
X0026255Y0080886D01*
X0026321Y0080612D01*
X0026379Y0080336D01*
X0026431Y0080058D01*
X0026476Y0079779D01*
X0026514Y0079500D01*
X0026545Y0079219D01*
X0026569Y0078938D01*
X0026586Y0078656D01*
X0026597Y0078374D01*
X0026600Y0078092D01*
X0026597Y0077810D01*
X0026586Y0077528D01*
X0026569Y0077246D01*
X0026545Y0076965D01*
X0026514Y0076684D01*
X0026476Y0076405D01*
X0026431Y0076126D01*
X0026379Y0075848D01*
X0026321Y0075572D01*
X0026255Y0075298D01*
X0026183Y0075025D01*
X0026105Y0074754D01*
X0026020Y0074485D01*
X0025928Y0074218D01*
X0025829Y0073953D01*
X0025725Y0073691D01*
X0025613Y0073432D01*
X0025496Y0073175D01*
X0025372Y0072921D01*
X0025242Y0072671D01*
X0025106Y0072424D01*
X0024964Y0072180D01*
X0024816Y0071940D01*
X0024662Y0071703D01*
X0024502Y0071470D01*
X0024337Y0071241D01*
X0024166Y0071017D01*
X0023990Y0070796D01*
X0023808Y0070581D01*
X0023621Y0070369D01*
X0023429Y0070162D01*
X0023232Y0069960D01*
X0023030Y0069763D01*
X0022823Y0069571D01*
X0022611Y0069384D01*
X0022396Y0069202D01*
X0022175Y0069026D01*
X0021951Y0068855D01*
X0021722Y0068690D01*
X0021489Y0068530D01*
X0021252Y0068376D01*
X0021012Y0068228D01*
X0020768Y0068086D01*
X0020521Y0067950D01*
X0020271Y0067820D01*
X0020017Y0067696D01*
X0019760Y0067579D01*
X0019501Y0067467D01*
X0019239Y0067363D01*
X0018974Y0067264D01*
X0018707Y0067172D01*
X0018438Y0067087D01*
X0018167Y0067009D01*
X0017894Y0066937D01*
X0017620Y0066871D01*
X0017344Y0066813D01*
X0017066Y0066761D01*
X0016787Y0066716D01*
X0016508Y0066678D01*
X0016227Y0066647D01*
X0015946Y0066623D01*
X0015664Y0066606D01*
X0015382Y0066595D01*
X0015100Y0066592D01*
X0014818Y0066595D01*
X0014536Y0066606D01*
X0014254Y0066623D01*
X0013973Y0066647D01*
X0013692Y0066678D01*
X0013413Y0066716D01*
X0013134Y0066761D01*
X0012856Y0066813D01*
X0012580Y0066871D01*
X0012306Y0066937D01*
X0012033Y0067009D01*
X0011762Y0067087D01*
X0011493Y0067172D01*
X0011226Y0067264D01*
X0010961Y0067363D01*
X0010699Y0067467D01*
X0010440Y0067579D01*
X0010183Y0067696D01*
X0009929Y0067820D01*
X0009679Y0067950D01*
X0009432Y0068086D01*
X0009188Y0068228D01*
X0008948Y0068376D01*
X0008711Y0068530D01*
X0008478Y0068690D01*
X0008249Y0068855D01*
X0008025Y0069026D01*
X0007804Y0069202D01*
X0007589Y0069384D01*
X0007377Y0069571D01*
X0007170Y0069763D01*
X0006968Y0069960D01*
X0006771Y0070162D01*
X0006579Y0070369D01*
X0006392Y0070581D01*
X0006210Y0070796D01*
X0006034Y0071017D01*
X0005863Y0071241D01*
X0005698Y0071470D01*
X0005538Y0071703D01*
X0005384Y0071940D01*
X0005236Y0072180D01*
X0005094Y0072424D01*
X0004958Y0072671D01*
X0004828Y0072921D01*
X0004704Y0073175D01*
X0004587Y0073432D01*
X0004475Y0073691D01*
X0004371Y0073953D01*
X0004272Y0074218D01*
X0004180Y0074485D01*
X0004095Y0074754D01*
X0004017Y0075025D01*
X0003945Y0075298D01*
X0003879Y0075572D01*
X0003821Y0075848D01*
X0003769Y0076126D01*
X0003724Y0076405D01*
X0003686Y0076684D01*
X0003655Y0076965D01*
X0003631Y0077246D01*
X0003614Y0077528D01*
X0003603Y0077810D01*
X0003600Y0078092D01*
X0148683Y0059860D02*
X0148683Y0032860D01*
X0148685Y0032800D01*
X0148690Y0032739D01*
X0148699Y0032680D01*
X0148712Y0032621D01*
X0148728Y0032562D01*
X0148748Y0032505D01*
X0148771Y0032450D01*
X0148798Y0032395D01*
X0148827Y0032343D01*
X0148860Y0032292D01*
X0148896Y0032243D01*
X0148934Y0032197D01*
X0148976Y0032153D01*
X0149020Y0032111D01*
X0149066Y0032073D01*
X0149115Y0032037D01*
X0149166Y0032004D01*
X0149218Y0031975D01*
X0149273Y0031948D01*
X0149328Y0031925D01*
X0149385Y0031905D01*
X0149444Y0031889D01*
X0149503Y0031876D01*
X0149562Y0031867D01*
X0149623Y0031862D01*
X0149683Y0031860D01*
X0157683Y0031860D01*
X0157743Y0031862D01*
X0157804Y0031867D01*
X0157863Y0031876D01*
X0157922Y0031889D01*
X0157981Y0031905D01*
X0158038Y0031925D01*
X0158093Y0031948D01*
X0158148Y0031975D01*
X0158200Y0032004D01*
X0158251Y0032037D01*
X0158300Y0032073D01*
X0158346Y0032111D01*
X0158390Y0032153D01*
X0158432Y0032197D01*
X0158470Y0032243D01*
X0158506Y0032292D01*
X0158539Y0032343D01*
X0158568Y0032395D01*
X0158595Y0032450D01*
X0158618Y0032505D01*
X0158638Y0032562D01*
X0158654Y0032621D01*
X0158667Y0032680D01*
X0158676Y0032739D01*
X0158681Y0032800D01*
X0158683Y0032860D01*
X0158683Y0059860D01*
X0158681Y0059920D01*
X0158676Y0059981D01*
X0158667Y0060040D01*
X0158654Y0060099D01*
X0158638Y0060158D01*
X0158618Y0060215D01*
X0158595Y0060270D01*
X0158568Y0060325D01*
X0158539Y0060377D01*
X0158506Y0060428D01*
X0158470Y0060477D01*
X0158432Y0060523D01*
X0158390Y0060567D01*
X0158346Y0060609D01*
X0158300Y0060647D01*
X0158251Y0060683D01*
X0158200Y0060716D01*
X0158148Y0060745D01*
X0158093Y0060772D01*
X0158038Y0060795D01*
X0157981Y0060815D01*
X0157922Y0060831D01*
X0157863Y0060844D01*
X0157804Y0060853D01*
X0157743Y0060858D01*
X0157683Y0060860D01*
X0149683Y0060860D01*
X0149623Y0060858D01*
X0149562Y0060853D01*
X0149503Y0060844D01*
X0149444Y0060831D01*
X0149385Y0060815D01*
X0149328Y0060795D01*
X0149273Y0060772D01*
X0149218Y0060745D01*
X0149166Y0060716D01*
X0149115Y0060683D01*
X0149066Y0060647D01*
X0149020Y0060609D01*
X0148976Y0060567D01*
X0148934Y0060523D01*
X0148896Y0060477D01*
X0148860Y0060428D01*
X0148827Y0060377D01*
X0148798Y0060325D01*
X0148771Y0060270D01*
X0148748Y0060215D01*
X0148728Y0060158D01*
X0148712Y0060099D01*
X0148699Y0060040D01*
X0148690Y0059981D01*
X0148685Y0059920D01*
X0148683Y0059860D01*
X0153683Y0052360D02*
X0153683Y0047660D01*
X0153683Y0045160D02*
X0153683Y0040360D01*
X0182734Y0015100D02*
X0182737Y0015382D01*
X0182748Y0015664D01*
X0182765Y0015946D01*
X0182789Y0016227D01*
X0182820Y0016508D01*
X0182858Y0016787D01*
X0182903Y0017066D01*
X0182955Y0017344D01*
X0183013Y0017620D01*
X0183079Y0017894D01*
X0183151Y0018167D01*
X0183229Y0018438D01*
X0183314Y0018707D01*
X0183406Y0018974D01*
X0183505Y0019239D01*
X0183609Y0019501D01*
X0183721Y0019760D01*
X0183838Y0020017D01*
X0183962Y0020271D01*
X0184092Y0020521D01*
X0184228Y0020768D01*
X0184370Y0021012D01*
X0184518Y0021252D01*
X0184672Y0021489D01*
X0184832Y0021722D01*
X0184997Y0021951D01*
X0185168Y0022175D01*
X0185344Y0022396D01*
X0185526Y0022611D01*
X0185713Y0022823D01*
X0185905Y0023030D01*
X0186102Y0023232D01*
X0186304Y0023429D01*
X0186511Y0023621D01*
X0186723Y0023808D01*
X0186938Y0023990D01*
X0187159Y0024166D01*
X0187383Y0024337D01*
X0187612Y0024502D01*
X0187845Y0024662D01*
X0188082Y0024816D01*
X0188322Y0024964D01*
X0188566Y0025106D01*
X0188813Y0025242D01*
X0189063Y0025372D01*
X0189317Y0025496D01*
X0189574Y0025613D01*
X0189833Y0025725D01*
X0190095Y0025829D01*
X0190360Y0025928D01*
X0190627Y0026020D01*
X0190896Y0026105D01*
X0191167Y0026183D01*
X0191440Y0026255D01*
X0191714Y0026321D01*
X0191990Y0026379D01*
X0192268Y0026431D01*
X0192547Y0026476D01*
X0192826Y0026514D01*
X0193107Y0026545D01*
X0193388Y0026569D01*
X0193670Y0026586D01*
X0193952Y0026597D01*
X0194234Y0026600D01*
X0194516Y0026597D01*
X0194798Y0026586D01*
X0195080Y0026569D01*
X0195361Y0026545D01*
X0195642Y0026514D01*
X0195921Y0026476D01*
X0196200Y0026431D01*
X0196478Y0026379D01*
X0196754Y0026321D01*
X0197028Y0026255D01*
X0197301Y0026183D01*
X0197572Y0026105D01*
X0197841Y0026020D01*
X0198108Y0025928D01*
X0198373Y0025829D01*
X0198635Y0025725D01*
X0198894Y0025613D01*
X0199151Y0025496D01*
X0199405Y0025372D01*
X0199655Y0025242D01*
X0199902Y0025106D01*
X0200146Y0024964D01*
X0200386Y0024816D01*
X0200623Y0024662D01*
X0200856Y0024502D01*
X0201085Y0024337D01*
X0201309Y0024166D01*
X0201530Y0023990D01*
X0201745Y0023808D01*
X0201957Y0023621D01*
X0202164Y0023429D01*
X0202366Y0023232D01*
X0202563Y0023030D01*
X0202755Y0022823D01*
X0202942Y0022611D01*
X0203124Y0022396D01*
X0203300Y0022175D01*
X0203471Y0021951D01*
X0203636Y0021722D01*
X0203796Y0021489D01*
X0203950Y0021252D01*
X0204098Y0021012D01*
X0204240Y0020768D01*
X0204376Y0020521D01*
X0204506Y0020271D01*
X0204630Y0020017D01*
X0204747Y0019760D01*
X0204859Y0019501D01*
X0204963Y0019239D01*
X0205062Y0018974D01*
X0205154Y0018707D01*
X0205239Y0018438D01*
X0205317Y0018167D01*
X0205389Y0017894D01*
X0205455Y0017620D01*
X0205513Y0017344D01*
X0205565Y0017066D01*
X0205610Y0016787D01*
X0205648Y0016508D01*
X0205679Y0016227D01*
X0205703Y0015946D01*
X0205720Y0015664D01*
X0205731Y0015382D01*
X0205734Y0015100D01*
X0205731Y0014818D01*
X0205720Y0014536D01*
X0205703Y0014254D01*
X0205679Y0013973D01*
X0205648Y0013692D01*
X0205610Y0013413D01*
X0205565Y0013134D01*
X0205513Y0012856D01*
X0205455Y0012580D01*
X0205389Y0012306D01*
X0205317Y0012033D01*
X0205239Y0011762D01*
X0205154Y0011493D01*
X0205062Y0011226D01*
X0204963Y0010961D01*
X0204859Y0010699D01*
X0204747Y0010440D01*
X0204630Y0010183D01*
X0204506Y0009929D01*
X0204376Y0009679D01*
X0204240Y0009432D01*
X0204098Y0009188D01*
X0203950Y0008948D01*
X0203796Y0008711D01*
X0203636Y0008478D01*
X0203471Y0008249D01*
X0203300Y0008025D01*
X0203124Y0007804D01*
X0202942Y0007589D01*
X0202755Y0007377D01*
X0202563Y0007170D01*
X0202366Y0006968D01*
X0202164Y0006771D01*
X0201957Y0006579D01*
X0201745Y0006392D01*
X0201530Y0006210D01*
X0201309Y0006034D01*
X0201085Y0005863D01*
X0200856Y0005698D01*
X0200623Y0005538D01*
X0200386Y0005384D01*
X0200146Y0005236D01*
X0199902Y0005094D01*
X0199655Y0004958D01*
X0199405Y0004828D01*
X0199151Y0004704D01*
X0198894Y0004587D01*
X0198635Y0004475D01*
X0198373Y0004371D01*
X0198108Y0004272D01*
X0197841Y0004180D01*
X0197572Y0004095D01*
X0197301Y0004017D01*
X0197028Y0003945D01*
X0196754Y0003879D01*
X0196478Y0003821D01*
X0196200Y0003769D01*
X0195921Y0003724D01*
X0195642Y0003686D01*
X0195361Y0003655D01*
X0195080Y0003631D01*
X0194798Y0003614D01*
X0194516Y0003603D01*
X0194234Y0003600D01*
X0193952Y0003603D01*
X0193670Y0003614D01*
X0193388Y0003631D01*
X0193107Y0003655D01*
X0192826Y0003686D01*
X0192547Y0003724D01*
X0192268Y0003769D01*
X0191990Y0003821D01*
X0191714Y0003879D01*
X0191440Y0003945D01*
X0191167Y0004017D01*
X0190896Y0004095D01*
X0190627Y0004180D01*
X0190360Y0004272D01*
X0190095Y0004371D01*
X0189833Y0004475D01*
X0189574Y0004587D01*
X0189317Y0004704D01*
X0189063Y0004828D01*
X0188813Y0004958D01*
X0188566Y0005094D01*
X0188322Y0005236D01*
X0188082Y0005384D01*
X0187845Y0005538D01*
X0187612Y0005698D01*
X0187383Y0005863D01*
X0187159Y0006034D01*
X0186938Y0006210D01*
X0186723Y0006392D01*
X0186511Y0006579D01*
X0186304Y0006771D01*
X0186102Y0006968D01*
X0185905Y0007170D01*
X0185713Y0007377D01*
X0185526Y0007589D01*
X0185344Y0007804D01*
X0185168Y0008025D01*
X0184997Y0008249D01*
X0184832Y0008478D01*
X0184672Y0008711D01*
X0184518Y0008948D01*
X0184370Y0009188D01*
X0184228Y0009432D01*
X0184092Y0009679D01*
X0183962Y0009929D01*
X0183838Y0010183D01*
X0183721Y0010440D01*
X0183609Y0010699D01*
X0183505Y0010961D01*
X0183406Y0011226D01*
X0183314Y0011493D01*
X0183229Y0011762D01*
X0183151Y0012033D01*
X0183079Y0012306D01*
X0183013Y0012580D01*
X0182955Y0012856D01*
X0182903Y0013134D01*
X0182858Y0013413D01*
X0182820Y0013692D01*
X0182789Y0013973D01*
X0182765Y0014254D01*
X0182748Y0014536D01*
X0182737Y0014818D01*
X0182734Y0015100D01*
X0182734Y0078092D02*
X0182737Y0078374D01*
X0182748Y0078656D01*
X0182765Y0078938D01*
X0182789Y0079219D01*
X0182820Y0079500D01*
X0182858Y0079779D01*
X0182903Y0080058D01*
X0182955Y0080336D01*
X0183013Y0080612D01*
X0183079Y0080886D01*
X0183151Y0081159D01*
X0183229Y0081430D01*
X0183314Y0081699D01*
X0183406Y0081966D01*
X0183505Y0082231D01*
X0183609Y0082493D01*
X0183721Y0082752D01*
X0183838Y0083009D01*
X0183962Y0083263D01*
X0184092Y0083513D01*
X0184228Y0083760D01*
X0184370Y0084004D01*
X0184518Y0084244D01*
X0184672Y0084481D01*
X0184832Y0084714D01*
X0184997Y0084943D01*
X0185168Y0085167D01*
X0185344Y0085388D01*
X0185526Y0085603D01*
X0185713Y0085815D01*
X0185905Y0086022D01*
X0186102Y0086224D01*
X0186304Y0086421D01*
X0186511Y0086613D01*
X0186723Y0086800D01*
X0186938Y0086982D01*
X0187159Y0087158D01*
X0187383Y0087329D01*
X0187612Y0087494D01*
X0187845Y0087654D01*
X0188082Y0087808D01*
X0188322Y0087956D01*
X0188566Y0088098D01*
X0188813Y0088234D01*
X0189063Y0088364D01*
X0189317Y0088488D01*
X0189574Y0088605D01*
X0189833Y0088717D01*
X0190095Y0088821D01*
X0190360Y0088920D01*
X0190627Y0089012D01*
X0190896Y0089097D01*
X0191167Y0089175D01*
X0191440Y0089247D01*
X0191714Y0089313D01*
X0191990Y0089371D01*
X0192268Y0089423D01*
X0192547Y0089468D01*
X0192826Y0089506D01*
X0193107Y0089537D01*
X0193388Y0089561D01*
X0193670Y0089578D01*
X0193952Y0089589D01*
X0194234Y0089592D01*
X0194516Y0089589D01*
X0194798Y0089578D01*
X0195080Y0089561D01*
X0195361Y0089537D01*
X0195642Y0089506D01*
X0195921Y0089468D01*
X0196200Y0089423D01*
X0196478Y0089371D01*
X0196754Y0089313D01*
X0197028Y0089247D01*
X0197301Y0089175D01*
X0197572Y0089097D01*
X0197841Y0089012D01*
X0198108Y0088920D01*
X0198373Y0088821D01*
X0198635Y0088717D01*
X0198894Y0088605D01*
X0199151Y0088488D01*
X0199405Y0088364D01*
X0199655Y0088234D01*
X0199902Y0088098D01*
X0200146Y0087956D01*
X0200386Y0087808D01*
X0200623Y0087654D01*
X0200856Y0087494D01*
X0201085Y0087329D01*
X0201309Y0087158D01*
X0201530Y0086982D01*
X0201745Y0086800D01*
X0201957Y0086613D01*
X0202164Y0086421D01*
X0202366Y0086224D01*
X0202563Y0086022D01*
X0202755Y0085815D01*
X0202942Y0085603D01*
X0203124Y0085388D01*
X0203300Y0085167D01*
X0203471Y0084943D01*
X0203636Y0084714D01*
X0203796Y0084481D01*
X0203950Y0084244D01*
X0204098Y0084004D01*
X0204240Y0083760D01*
X0204376Y0083513D01*
X0204506Y0083263D01*
X0204630Y0083009D01*
X0204747Y0082752D01*
X0204859Y0082493D01*
X0204963Y0082231D01*
X0205062Y0081966D01*
X0205154Y0081699D01*
X0205239Y0081430D01*
X0205317Y0081159D01*
X0205389Y0080886D01*
X0205455Y0080612D01*
X0205513Y0080336D01*
X0205565Y0080058D01*
X0205610Y0079779D01*
X0205648Y0079500D01*
X0205679Y0079219D01*
X0205703Y0078938D01*
X0205720Y0078656D01*
X0205731Y0078374D01*
X0205734Y0078092D01*
X0205731Y0077810D01*
X0205720Y0077528D01*
X0205703Y0077246D01*
X0205679Y0076965D01*
X0205648Y0076684D01*
X0205610Y0076405D01*
X0205565Y0076126D01*
X0205513Y0075848D01*
X0205455Y0075572D01*
X0205389Y0075298D01*
X0205317Y0075025D01*
X0205239Y0074754D01*
X0205154Y0074485D01*
X0205062Y0074218D01*
X0204963Y0073953D01*
X0204859Y0073691D01*
X0204747Y0073432D01*
X0204630Y0073175D01*
X0204506Y0072921D01*
X0204376Y0072671D01*
X0204240Y0072424D01*
X0204098Y0072180D01*
X0203950Y0071940D01*
X0203796Y0071703D01*
X0203636Y0071470D01*
X0203471Y0071241D01*
X0203300Y0071017D01*
X0203124Y0070796D01*
X0202942Y0070581D01*
X0202755Y0070369D01*
X0202563Y0070162D01*
X0202366Y0069960D01*
X0202164Y0069763D01*
X0201957Y0069571D01*
X0201745Y0069384D01*
X0201530Y0069202D01*
X0201309Y0069026D01*
X0201085Y0068855D01*
X0200856Y0068690D01*
X0200623Y0068530D01*
X0200386Y0068376D01*
X0200146Y0068228D01*
X0199902Y0068086D01*
X0199655Y0067950D01*
X0199405Y0067820D01*
X0199151Y0067696D01*
X0198894Y0067579D01*
X0198635Y0067467D01*
X0198373Y0067363D01*
X0198108Y0067264D01*
X0197841Y0067172D01*
X0197572Y0067087D01*
X0197301Y0067009D01*
X0197028Y0066937D01*
X0196754Y0066871D01*
X0196478Y0066813D01*
X0196200Y0066761D01*
X0195921Y0066716D01*
X0195642Y0066678D01*
X0195361Y0066647D01*
X0195080Y0066623D01*
X0194798Y0066606D01*
X0194516Y0066595D01*
X0194234Y0066592D01*
X0193952Y0066595D01*
X0193670Y0066606D01*
X0193388Y0066623D01*
X0193107Y0066647D01*
X0192826Y0066678D01*
X0192547Y0066716D01*
X0192268Y0066761D01*
X0191990Y0066813D01*
X0191714Y0066871D01*
X0191440Y0066937D01*
X0191167Y0067009D01*
X0190896Y0067087D01*
X0190627Y0067172D01*
X0190360Y0067264D01*
X0190095Y0067363D01*
X0189833Y0067467D01*
X0189574Y0067579D01*
X0189317Y0067696D01*
X0189063Y0067820D01*
X0188813Y0067950D01*
X0188566Y0068086D01*
X0188322Y0068228D01*
X0188082Y0068376D01*
X0187845Y0068530D01*
X0187612Y0068690D01*
X0187383Y0068855D01*
X0187159Y0069026D01*
X0186938Y0069202D01*
X0186723Y0069384D01*
X0186511Y0069571D01*
X0186304Y0069763D01*
X0186102Y0069960D01*
X0185905Y0070162D01*
X0185713Y0070369D01*
X0185526Y0070581D01*
X0185344Y0070796D01*
X0185168Y0071017D01*
X0184997Y0071241D01*
X0184832Y0071470D01*
X0184672Y0071703D01*
X0184518Y0071940D01*
X0184370Y0072180D01*
X0184228Y0072424D01*
X0184092Y0072671D01*
X0183962Y0072921D01*
X0183838Y0073175D01*
X0183721Y0073432D01*
X0183609Y0073691D01*
X0183505Y0073953D01*
X0183406Y0074218D01*
X0183314Y0074485D01*
X0183229Y0074754D01*
X0183151Y0075025D01*
X0183079Y0075298D01*
X0183013Y0075572D01*
X0182955Y0075848D01*
X0182903Y0076126D01*
X0182858Y0076405D01*
X0182820Y0076684D01*
X0182789Y0076965D01*
X0182765Y0077246D01*
X0182748Y0077528D01*
X0182737Y0077810D01*
X0182734Y0078092D01*
D12*
X0178066Y0080511D02*
X0176698Y0080511D01*
X0177382Y0080511D02*
X0177382Y0084614D01*
X0176698Y0084614D01*
X0174830Y0082562D02*
X0174830Y0080511D01*
X0172778Y0080511D01*
X0172094Y0081195D01*
X0172778Y0081878D01*
X0174830Y0081878D01*
X0174830Y0082562D02*
X0174146Y0083246D01*
X0172778Y0083246D01*
X0170310Y0083246D02*
X0169626Y0083246D01*
X0168258Y0081878D01*
X0168258Y0080511D02*
X0168258Y0083246D01*
X0166556Y0083246D02*
X0165189Y0083246D01*
X0165872Y0083930D02*
X0165872Y0081195D01*
X0166556Y0080511D01*
X0163320Y0080511D02*
X0163320Y0083246D01*
X0160585Y0083246D02*
X0160585Y0081195D01*
X0161269Y0080511D01*
X0163320Y0080511D01*
X0158716Y0081878D02*
X0158716Y0082562D01*
X0158032Y0083246D01*
X0156665Y0083246D01*
X0155981Y0082562D01*
X0155981Y0081195D01*
X0156665Y0080511D01*
X0158032Y0080511D01*
X0158716Y0081878D02*
X0155981Y0081878D01*
X0154112Y0080511D02*
X0154112Y0084614D01*
X0151377Y0084614D02*
X0154112Y0080511D01*
X0151377Y0080511D02*
X0151377Y0084614D01*
X0059956Y0080511D02*
X0058588Y0080511D01*
X0059272Y0080511D02*
X0059272Y0084614D01*
X0058588Y0084614D01*
X0056720Y0082562D02*
X0056036Y0083246D01*
X0054668Y0083246D01*
X0054668Y0081878D02*
X0056720Y0081878D01*
X0056720Y0082562D02*
X0056720Y0080511D01*
X0054668Y0080511D01*
X0053984Y0081195D01*
X0054668Y0081878D01*
X0052199Y0083246D02*
X0051515Y0083246D01*
X0050148Y0081878D01*
X0050148Y0080511D02*
X0050148Y0083246D01*
X0048446Y0083246D02*
X0047078Y0083246D01*
X0047762Y0083930D02*
X0047762Y0081195D01*
X0048446Y0080511D01*
X0045210Y0080511D02*
X0045210Y0083246D01*
X0042474Y0083246D02*
X0042474Y0081195D01*
X0043158Y0080511D01*
X0045210Y0080511D01*
X0040606Y0081878D02*
X0037870Y0081878D01*
X0037870Y0081195D02*
X0037870Y0082562D01*
X0038554Y0083246D01*
X0039922Y0083246D01*
X0040606Y0082562D01*
X0040606Y0081878D01*
X0038554Y0080511D02*
X0037870Y0081195D01*
X0038554Y0080511D02*
X0039922Y0080511D01*
X0036002Y0080511D02*
X0036002Y0084614D01*
X0033267Y0084614D02*
X0036002Y0080511D01*
X0033267Y0080511D02*
X0033267Y0084614D01*
X0150405Y0026474D02*
X0151089Y0027157D01*
X0152457Y0027157D01*
X0153141Y0026474D01*
X0155009Y0025790D02*
X0156377Y0027157D01*
X0156377Y0023054D01*
X0155009Y0023054D02*
X0157745Y0023054D01*
X0153141Y0023738D02*
X0152457Y0023054D01*
X0151089Y0023054D01*
X0150405Y0023738D01*
X0150405Y0026474D01*
X0161219Y0019279D02*
X0161219Y0015176D01*
X0163955Y0015176D01*
X0165823Y0015176D02*
X0167191Y0015176D01*
X0166507Y0015176D02*
X0166507Y0017912D01*
X0165823Y0017912D01*
X0166507Y0019279D02*
X0166507Y0019963D01*
X0168892Y0017912D02*
X0170260Y0015176D01*
X0171628Y0017912D01*
X0173496Y0017228D02*
X0174180Y0017912D01*
X0175548Y0017912D01*
X0176232Y0017228D01*
X0176232Y0016544D01*
X0173496Y0016544D01*
X0173496Y0015860D02*
X0173496Y0017228D01*
X0173496Y0015860D02*
X0174180Y0015176D01*
X0175548Y0015176D01*
X0176566Y0011779D02*
X0177934Y0010412D01*
X0177934Y0009044D01*
X0176566Y0007676D01*
X0174864Y0007676D02*
X0174180Y0008360D01*
X0174180Y0011096D01*
X0173496Y0010412D02*
X0174864Y0010412D01*
X0171628Y0009728D02*
X0171628Y0008360D01*
X0170944Y0007676D01*
X0169576Y0007676D01*
X0168892Y0008360D01*
X0168892Y0009728D01*
X0169576Y0010412D01*
X0170944Y0010412D01*
X0171628Y0009728D01*
X0167024Y0009728D02*
X0164289Y0009728D01*
X0162587Y0011779D02*
X0161219Y0010412D01*
X0161219Y0009044D01*
X0162587Y0007676D01*
X0164289Y0007676D02*
X0164289Y0011779D01*
X0167024Y0011779D02*
X0167024Y0007676D01*
X0057115Y0022267D02*
X0054379Y0022267D01*
X0057115Y0025002D01*
X0057115Y0025686D01*
X0056431Y0026370D01*
X0055063Y0026370D01*
X0054379Y0025686D01*
X0052511Y0025686D02*
X0051827Y0026370D01*
X0050459Y0026370D01*
X0049775Y0025686D01*
X0049775Y0022950D01*
X0050459Y0022267D01*
X0051827Y0022267D01*
X0052511Y0022950D01*
X0047595Y0017912D02*
X0048279Y0017228D01*
X0048279Y0016544D01*
X0045544Y0016544D01*
X0045544Y0015860D02*
X0045544Y0017228D01*
X0046228Y0017912D01*
X0047595Y0017912D01*
X0045544Y0015860D02*
X0046228Y0015176D01*
X0047595Y0015176D01*
X0043675Y0017912D02*
X0042308Y0015176D01*
X0040940Y0017912D01*
X0038554Y0017912D02*
X0038554Y0015176D01*
X0037870Y0015176D02*
X0039238Y0015176D01*
X0036002Y0015176D02*
X0033267Y0015176D01*
X0033267Y0019279D01*
X0037870Y0017912D02*
X0038554Y0017912D01*
X0038554Y0019279D02*
X0038554Y0019963D01*
X0039071Y0011779D02*
X0039071Y0007676D01*
X0040940Y0008360D02*
X0041624Y0007676D01*
X0042991Y0007676D01*
X0043675Y0008360D01*
X0043675Y0009728D01*
X0042991Y0010412D01*
X0041624Y0010412D01*
X0040940Y0009728D01*
X0040940Y0008360D01*
X0039071Y0009728D02*
X0036336Y0009728D01*
X0036336Y0011779D02*
X0036336Y0007676D01*
X0034634Y0007676D02*
X0033267Y0009044D01*
X0033267Y0010412D01*
X0034634Y0011779D01*
X0045544Y0010412D02*
X0046911Y0010412D01*
X0046228Y0011096D02*
X0046228Y0008360D01*
X0046911Y0007676D01*
X0048613Y0007676D02*
X0049981Y0009044D01*
X0049981Y0010412D01*
X0048613Y0011779D01*
D13*
X0059903Y0015515D02*
X0059903Y0073637D01*
X0069746Y0068525D02*
X0093368Y0068525D01*
X0093368Y0064588D01*
X0115021Y0064588D01*
X0115021Y0068525D01*
X0115021Y0072462D01*
X0093368Y0072462D01*
X0093368Y0068525D01*
X0094116Y0067620D02*
X0084273Y0067620D01*
X0094116Y0071557D02*
X0094116Y0063683D01*
X0111832Y0063683D01*
X0111832Y0067620D01*
X0111832Y0071557D01*
X0094116Y0071557D01*
X0111832Y0067620D02*
X0121675Y0067620D01*
X0115021Y0068525D02*
X0138643Y0068525D01*
X0148486Y0072047D02*
X0148482Y0072390D01*
X0148469Y0072733D01*
X0148449Y0073075D01*
X0148420Y0073417D01*
X0148383Y0073758D01*
X0148337Y0074098D01*
X0148283Y0074437D01*
X0148222Y0074774D01*
X0148152Y0075110D01*
X0148074Y0075444D01*
X0147987Y0075776D01*
X0147893Y0076106D01*
X0147791Y0076433D01*
X0147681Y0076758D01*
X0147564Y0077081D01*
X0147438Y0077400D01*
X0147305Y0077716D01*
X0147164Y0078029D01*
X0147016Y0078338D01*
X0146860Y0078644D01*
X0146697Y0078946D01*
X0146527Y0079243D01*
X0146349Y0079537D01*
X0146165Y0079826D01*
X0145973Y0080111D01*
X0145775Y0080391D01*
X0145570Y0080666D01*
X0145358Y0080936D01*
X0145140Y0081201D01*
X0144916Y0081460D01*
X0144686Y0081714D01*
X0144449Y0081962D01*
X0144206Y0082205D01*
X0143958Y0082442D01*
X0143704Y0082672D01*
X0143445Y0082896D01*
X0143180Y0083114D01*
X0142910Y0083326D01*
X0142635Y0083531D01*
X0142355Y0083729D01*
X0142070Y0083921D01*
X0141781Y0084105D01*
X0141487Y0084283D01*
X0141190Y0084453D01*
X0140888Y0084616D01*
X0140582Y0084772D01*
X0140273Y0084920D01*
X0139960Y0085061D01*
X0139644Y0085194D01*
X0139325Y0085320D01*
X0139002Y0085437D01*
X0138677Y0085547D01*
X0138350Y0085649D01*
X0138020Y0085743D01*
X0137688Y0085830D01*
X0137354Y0085908D01*
X0137018Y0085978D01*
X0136681Y0086039D01*
X0136342Y0086093D01*
X0136002Y0086139D01*
X0135661Y0086176D01*
X0135319Y0086205D01*
X0134977Y0086225D01*
X0134634Y0086238D01*
X0134291Y0086242D01*
X0072508Y0086242D01*
X0072462Y0085382D02*
X0072462Y0010850D01*
X0073823Y0001596D02*
X0073487Y0001600D01*
X0073151Y0001612D01*
X0072815Y0001633D01*
X0072480Y0001661D01*
X0072145Y0001697D01*
X0071812Y0001742D01*
X0071480Y0001795D01*
X0071149Y0001855D01*
X0070819Y0001924D01*
X0070492Y0002000D01*
X0070166Y0002085D01*
X0069843Y0002177D01*
X0069522Y0002277D01*
X0069203Y0002385D01*
X0068887Y0002501D01*
X0068574Y0002624D01*
X0068264Y0002754D01*
X0067958Y0002892D01*
X0067654Y0003038D01*
X0067355Y0003190D01*
X0067059Y0003350D01*
X0066767Y0003517D01*
X0066479Y0003691D01*
X0066195Y0003872D01*
X0065916Y0004060D01*
X0065642Y0004254D01*
X0065372Y0004455D01*
X0065107Y0004663D01*
X0064847Y0004876D01*
X0064593Y0005096D01*
X0064344Y0005323D01*
X0064100Y0005555D01*
X0063863Y0005792D01*
X0063631Y0006036D01*
X0063404Y0006285D01*
X0063184Y0006539D01*
X0062971Y0006799D01*
X0062763Y0007064D01*
X0062562Y0007334D01*
X0062368Y0007608D01*
X0062180Y0007887D01*
X0061999Y0008171D01*
X0061825Y0008459D01*
X0061658Y0008751D01*
X0061498Y0009047D01*
X0061346Y0009346D01*
X0061200Y0009650D01*
X0061062Y0009956D01*
X0060932Y0010266D01*
X0060809Y0010579D01*
X0060693Y0010895D01*
X0060585Y0011214D01*
X0060485Y0011535D01*
X0060393Y0011858D01*
X0060308Y0012184D01*
X0060232Y0012511D01*
X0060163Y0012841D01*
X0060103Y0013172D01*
X0060050Y0013504D01*
X0060005Y0013837D01*
X0059969Y0014172D01*
X0059941Y0014507D01*
X0059920Y0014843D01*
X0059908Y0015179D01*
X0059904Y0015515D01*
X0069746Y0019313D02*
X0093368Y0019313D01*
X0093368Y0015376D01*
X0115021Y0015376D01*
X0115021Y0019313D01*
X0115021Y0023250D01*
X0093368Y0023250D01*
X0093368Y0019313D01*
X0094116Y0024313D02*
X0111832Y0024313D01*
X0111832Y0028250D01*
X0111832Y0032187D01*
X0094116Y0032187D01*
X0094116Y0024313D01*
X0094116Y0028250D02*
X0084273Y0028250D01*
X0078368Y0030218D02*
X0078368Y0026281D01*
X0072463Y0010850D02*
X0072465Y0010652D01*
X0072473Y0010454D01*
X0072485Y0010257D01*
X0072501Y0010059D01*
X0072523Y0009863D01*
X0072549Y0009666D01*
X0072580Y0009471D01*
X0072616Y0009276D01*
X0072656Y0009083D01*
X0072701Y0008890D01*
X0072751Y0008698D01*
X0072805Y0008508D01*
X0072864Y0008319D01*
X0072927Y0008131D01*
X0072995Y0007945D01*
X0073068Y0007761D01*
X0073145Y0007579D01*
X0073226Y0007398D01*
X0073311Y0007220D01*
X0073401Y0007043D01*
X0073495Y0006869D01*
X0073594Y0006697D01*
X0073696Y0006528D01*
X0073802Y0006361D01*
X0073913Y0006197D01*
X0074027Y0006035D01*
X0074146Y0005877D01*
X0074268Y0005721D01*
X0074393Y0005568D01*
X0074523Y0005418D01*
X0074656Y0005272D01*
X0074793Y0005128D01*
X0074932Y0004989D01*
X0075076Y0004852D01*
X0075222Y0004719D01*
X0075372Y0004589D01*
X0075525Y0004464D01*
X0075681Y0004342D01*
X0075839Y0004223D01*
X0076001Y0004109D01*
X0076165Y0003998D01*
X0076332Y0003892D01*
X0076501Y0003790D01*
X0076673Y0003691D01*
X0076847Y0003597D01*
X0077024Y0003507D01*
X0077202Y0003422D01*
X0077383Y0003341D01*
X0077565Y0003264D01*
X0077749Y0003191D01*
X0077935Y0003123D01*
X0078123Y0003060D01*
X0078312Y0003001D01*
X0078502Y0002947D01*
X0078694Y0002897D01*
X0078887Y0002852D01*
X0079080Y0002812D01*
X0079275Y0002776D01*
X0079470Y0002745D01*
X0079667Y0002719D01*
X0079863Y0002697D01*
X0080061Y0002681D01*
X0080258Y0002669D01*
X0080456Y0002661D01*
X0080654Y0002659D01*
X0126015Y0002659D01*
X0135281Y0001596D02*
X0073823Y0001596D01*
X0115021Y0019313D02*
X0138643Y0019313D01*
X0148486Y0014801D02*
X0148482Y0014482D01*
X0148471Y0014163D01*
X0148451Y0013844D01*
X0148424Y0013527D01*
X0148390Y0013209D01*
X0148347Y0012893D01*
X0148298Y0012578D01*
X0148240Y0012264D01*
X0148175Y0011952D01*
X0148102Y0011641D01*
X0148022Y0011332D01*
X0147935Y0011025D01*
X0147840Y0010720D01*
X0147737Y0010418D01*
X0147628Y0010118D01*
X0147511Y0009821D01*
X0147387Y0009527D01*
X0147256Y0009236D01*
X0147118Y0008949D01*
X0146973Y0008664D01*
X0146822Y0008384D01*
X0146663Y0008107D01*
X0146498Y0007834D01*
X0146327Y0007564D01*
X0146149Y0007300D01*
X0145964Y0007039D01*
X0145773Y0006783D01*
X0145577Y0006532D01*
X0145374Y0006286D01*
X0145165Y0006044D01*
X0144951Y0005808D01*
X0144730Y0005577D01*
X0144505Y0005352D01*
X0144274Y0005131D01*
X0144038Y0004917D01*
X0143796Y0004708D01*
X0143550Y0004505D01*
X0143299Y0004309D01*
X0143043Y0004118D01*
X0142782Y0003933D01*
X0142518Y0003755D01*
X0142248Y0003584D01*
X0141975Y0003419D01*
X0141698Y0003260D01*
X0141418Y0003109D01*
X0141133Y0002964D01*
X0140846Y0002826D01*
X0140555Y0002695D01*
X0140261Y0002571D01*
X0139964Y0002454D01*
X0139664Y0002345D01*
X0139362Y0002242D01*
X0139057Y0002147D01*
X0138750Y0002060D01*
X0138441Y0001980D01*
X0138130Y0001907D01*
X0137818Y0001842D01*
X0137504Y0001784D01*
X0137189Y0001735D01*
X0136873Y0001692D01*
X0136555Y0001658D01*
X0136238Y0001631D01*
X0135919Y0001611D01*
X0135600Y0001600D01*
X0135281Y0001596D01*
X0133486Y0010130D02*
X0133486Y0086139D01*
X0133484Y0086310D01*
X0133478Y0086481D01*
X0133467Y0086651D01*
X0133453Y0086821D01*
X0133434Y0086991D01*
X0133412Y0087161D01*
X0133385Y0087329D01*
X0133354Y0087498D01*
X0133319Y0087665D01*
X0133281Y0087831D01*
X0133238Y0087997D01*
X0133191Y0088161D01*
X0133140Y0088324D01*
X0133085Y0088486D01*
X0133026Y0088646D01*
X0132964Y0088805D01*
X0132898Y0088963D01*
X0132828Y0089119D01*
X0132754Y0089273D01*
X0132676Y0089425D01*
X0132595Y0089575D01*
X0132510Y0089724D01*
X0132422Y0089870D01*
X0132330Y0090014D01*
X0132234Y0090156D01*
X0132136Y0090295D01*
X0132033Y0090432D01*
X0131928Y0090567D01*
X0131819Y0090699D01*
X0131708Y0090828D01*
X0131593Y0090954D01*
X0131475Y0091078D01*
X0131354Y0091199D01*
X0131230Y0091317D01*
X0131104Y0091432D01*
X0130975Y0091543D01*
X0130843Y0091652D01*
X0130708Y0091757D01*
X0130571Y0091860D01*
X0130432Y0091958D01*
X0130290Y0092054D01*
X0130146Y0092146D01*
X0130000Y0092234D01*
X0129851Y0092319D01*
X0129701Y0092400D01*
X0129549Y0092478D01*
X0129395Y0092552D01*
X0129239Y0092622D01*
X0129081Y0092688D01*
X0128922Y0092750D01*
X0128762Y0092809D01*
X0128600Y0092864D01*
X0128437Y0092915D01*
X0128273Y0092962D01*
X0128107Y0093005D01*
X0127941Y0093043D01*
X0127774Y0093078D01*
X0127605Y0093109D01*
X0127437Y0093136D01*
X0127267Y0093158D01*
X0127097Y0093177D01*
X0126927Y0093191D01*
X0126757Y0093202D01*
X0126586Y0093208D01*
X0126415Y0093210D01*
X0080291Y0093210D01*
X0080102Y0093208D01*
X0079913Y0093201D01*
X0079724Y0093189D01*
X0079535Y0093173D01*
X0079347Y0093153D01*
X0079160Y0093128D01*
X0078973Y0093098D01*
X0078787Y0093064D01*
X0078602Y0093026D01*
X0078418Y0092983D01*
X0078235Y0092935D01*
X0078053Y0092883D01*
X0077872Y0092827D01*
X0077693Y0092766D01*
X0077515Y0092701D01*
X0077339Y0092632D01*
X0077165Y0092559D01*
X0076992Y0092481D01*
X0076822Y0092399D01*
X0076653Y0092313D01*
X0076487Y0092223D01*
X0076323Y0092129D01*
X0076161Y0092032D01*
X0076001Y0091930D01*
X0075844Y0091824D01*
X0075690Y0091715D01*
X0075538Y0091602D01*
X0075389Y0091485D01*
X0075243Y0091365D01*
X0075100Y0091241D01*
X0074960Y0091114D01*
X0074823Y0090984D01*
X0074689Y0090850D01*
X0074559Y0090713D01*
X0074432Y0090573D01*
X0074308Y0090430D01*
X0074188Y0090284D01*
X0074071Y0090135D01*
X0073958Y0089983D01*
X0073849Y0089829D01*
X0073743Y0089672D01*
X0073641Y0089512D01*
X0073544Y0089350D01*
X0073450Y0089186D01*
X0073360Y0089020D01*
X0073274Y0088851D01*
X0073192Y0088681D01*
X0073114Y0088508D01*
X0073041Y0088334D01*
X0072972Y0088158D01*
X0072907Y0087980D01*
X0072846Y0087801D01*
X0072790Y0087620D01*
X0072738Y0087438D01*
X0072690Y0087255D01*
X0072647Y0087071D01*
X0072609Y0086886D01*
X0072575Y0086700D01*
X0072545Y0086513D01*
X0072520Y0086326D01*
X0072500Y0086138D01*
X0072484Y0085949D01*
X0072472Y0085760D01*
X0072465Y0085571D01*
X0072463Y0085382D01*
X0072508Y0086242D02*
X0072203Y0086238D01*
X0071899Y0086227D01*
X0071595Y0086209D01*
X0071291Y0086183D01*
X0070989Y0086150D01*
X0070687Y0086110D01*
X0070386Y0086062D01*
X0070086Y0086007D01*
X0069788Y0085945D01*
X0069491Y0085876D01*
X0069197Y0085799D01*
X0068904Y0085716D01*
X0068613Y0085625D01*
X0068324Y0085527D01*
X0068038Y0085423D01*
X0067755Y0085311D01*
X0067474Y0085193D01*
X0067196Y0085068D01*
X0066922Y0084936D01*
X0066650Y0084798D01*
X0066382Y0084653D01*
X0066118Y0084502D01*
X0065857Y0084345D01*
X0065600Y0084181D01*
X0065348Y0084011D01*
X0065099Y0083835D01*
X0064855Y0083653D01*
X0064615Y0083465D01*
X0064380Y0083271D01*
X0064149Y0083072D01*
X0063924Y0082867D01*
X0063703Y0082657D01*
X0063488Y0082442D01*
X0063278Y0082221D01*
X0063073Y0081996D01*
X0062874Y0081765D01*
X0062680Y0081530D01*
X0062492Y0081290D01*
X0062310Y0081046D01*
X0062134Y0080797D01*
X0061964Y0080545D01*
X0061800Y0080288D01*
X0061643Y0080027D01*
X0061492Y0079763D01*
X0061347Y0079495D01*
X0061209Y0079223D01*
X0061077Y0078949D01*
X0060952Y0078671D01*
X0060834Y0078390D01*
X0060722Y0078107D01*
X0060618Y0077821D01*
X0060520Y0077532D01*
X0060429Y0077241D01*
X0060346Y0076948D01*
X0060269Y0076654D01*
X0060200Y0076357D01*
X0060138Y0076059D01*
X0060083Y0075759D01*
X0060035Y0075458D01*
X0059995Y0075156D01*
X0059962Y0074854D01*
X0059936Y0074550D01*
X0059918Y0074246D01*
X0059907Y0073942D01*
X0059903Y0073637D01*
X0093475Y0047935D02*
X0093478Y0048192D01*
X0093488Y0048449D01*
X0093503Y0048706D01*
X0093525Y0048963D01*
X0093554Y0049218D01*
X0093588Y0049473D01*
X0093629Y0049727D01*
X0093676Y0049980D01*
X0093730Y0050232D01*
X0093789Y0050482D01*
X0093855Y0050731D01*
X0093926Y0050978D01*
X0094004Y0051223D01*
X0094088Y0051467D01*
X0094177Y0051708D01*
X0094273Y0051947D01*
X0094374Y0052183D01*
X0094481Y0052417D01*
X0094594Y0052648D01*
X0094713Y0052877D01*
X0094837Y0053102D01*
X0094966Y0053324D01*
X0095101Y0053543D01*
X0095242Y0053759D01*
X0095387Y0053971D01*
X0095538Y0054180D01*
X0095694Y0054384D01*
X0095855Y0054585D01*
X0096020Y0054782D01*
X0096191Y0054975D01*
X0096366Y0055163D01*
X0096545Y0055348D01*
X0096730Y0055527D01*
X0096918Y0055702D01*
X0097111Y0055873D01*
X0097308Y0056038D01*
X0097509Y0056199D01*
X0097713Y0056355D01*
X0097922Y0056506D01*
X0098134Y0056651D01*
X0098350Y0056792D01*
X0098569Y0056927D01*
X0098791Y0057056D01*
X0099016Y0057180D01*
X0099245Y0057299D01*
X0099476Y0057412D01*
X0099710Y0057519D01*
X0099946Y0057620D01*
X0100185Y0057716D01*
X0100426Y0057805D01*
X0100670Y0057889D01*
X0100915Y0057967D01*
X0101162Y0058038D01*
X0101411Y0058104D01*
X0101661Y0058163D01*
X0101913Y0058217D01*
X0102166Y0058264D01*
X0102420Y0058305D01*
X0102675Y0058339D01*
X0102930Y0058368D01*
X0103187Y0058390D01*
X0103444Y0058405D01*
X0103701Y0058415D01*
X0103958Y0058418D01*
X0104215Y0058415D01*
X0104472Y0058405D01*
X0104729Y0058390D01*
X0104986Y0058368D01*
X0105241Y0058339D01*
X0105496Y0058305D01*
X0105750Y0058264D01*
X0106003Y0058217D01*
X0106255Y0058163D01*
X0106505Y0058104D01*
X0106754Y0058038D01*
X0107001Y0057967D01*
X0107246Y0057889D01*
X0107490Y0057805D01*
X0107731Y0057716D01*
X0107970Y0057620D01*
X0108206Y0057519D01*
X0108440Y0057412D01*
X0108671Y0057299D01*
X0108900Y0057180D01*
X0109125Y0057056D01*
X0109347Y0056927D01*
X0109566Y0056792D01*
X0109782Y0056651D01*
X0109994Y0056506D01*
X0110203Y0056355D01*
X0110407Y0056199D01*
X0110608Y0056038D01*
X0110805Y0055873D01*
X0110998Y0055702D01*
X0111186Y0055527D01*
X0111371Y0055348D01*
X0111550Y0055163D01*
X0111725Y0054975D01*
X0111896Y0054782D01*
X0112061Y0054585D01*
X0112222Y0054384D01*
X0112378Y0054180D01*
X0112529Y0053971D01*
X0112674Y0053759D01*
X0112815Y0053543D01*
X0112950Y0053324D01*
X0113079Y0053102D01*
X0113203Y0052877D01*
X0113322Y0052648D01*
X0113435Y0052417D01*
X0113542Y0052183D01*
X0113643Y0051947D01*
X0113739Y0051708D01*
X0113828Y0051467D01*
X0113912Y0051223D01*
X0113990Y0050978D01*
X0114061Y0050731D01*
X0114127Y0050482D01*
X0114186Y0050232D01*
X0114240Y0049980D01*
X0114287Y0049727D01*
X0114328Y0049473D01*
X0114362Y0049218D01*
X0114391Y0048963D01*
X0114413Y0048706D01*
X0114428Y0048449D01*
X0114438Y0048192D01*
X0114441Y0047935D01*
X0114438Y0047678D01*
X0114428Y0047421D01*
X0114413Y0047164D01*
X0114391Y0046907D01*
X0114362Y0046652D01*
X0114328Y0046397D01*
X0114287Y0046143D01*
X0114240Y0045890D01*
X0114186Y0045638D01*
X0114127Y0045388D01*
X0114061Y0045139D01*
X0113990Y0044892D01*
X0113912Y0044647D01*
X0113828Y0044403D01*
X0113739Y0044162D01*
X0113643Y0043923D01*
X0113542Y0043687D01*
X0113435Y0043453D01*
X0113322Y0043222D01*
X0113203Y0042993D01*
X0113079Y0042768D01*
X0112950Y0042546D01*
X0112815Y0042327D01*
X0112674Y0042111D01*
X0112529Y0041899D01*
X0112378Y0041690D01*
X0112222Y0041486D01*
X0112061Y0041285D01*
X0111896Y0041088D01*
X0111725Y0040895D01*
X0111550Y0040707D01*
X0111371Y0040522D01*
X0111186Y0040343D01*
X0110998Y0040168D01*
X0110805Y0039997D01*
X0110608Y0039832D01*
X0110407Y0039671D01*
X0110203Y0039515D01*
X0109994Y0039364D01*
X0109782Y0039219D01*
X0109566Y0039078D01*
X0109347Y0038943D01*
X0109125Y0038814D01*
X0108900Y0038690D01*
X0108671Y0038571D01*
X0108440Y0038458D01*
X0108206Y0038351D01*
X0107970Y0038250D01*
X0107731Y0038154D01*
X0107490Y0038065D01*
X0107246Y0037981D01*
X0107001Y0037903D01*
X0106754Y0037832D01*
X0106505Y0037766D01*
X0106255Y0037707D01*
X0106003Y0037653D01*
X0105750Y0037606D01*
X0105496Y0037565D01*
X0105241Y0037531D01*
X0104986Y0037502D01*
X0104729Y0037480D01*
X0104472Y0037465D01*
X0104215Y0037455D01*
X0103958Y0037452D01*
X0103701Y0037455D01*
X0103444Y0037465D01*
X0103187Y0037480D01*
X0102930Y0037502D01*
X0102675Y0037531D01*
X0102420Y0037565D01*
X0102166Y0037606D01*
X0101913Y0037653D01*
X0101661Y0037707D01*
X0101411Y0037766D01*
X0101162Y0037832D01*
X0100915Y0037903D01*
X0100670Y0037981D01*
X0100426Y0038065D01*
X0100185Y0038154D01*
X0099946Y0038250D01*
X0099710Y0038351D01*
X0099476Y0038458D01*
X0099245Y0038571D01*
X0099016Y0038690D01*
X0098791Y0038814D01*
X0098569Y0038943D01*
X0098350Y0039078D01*
X0098134Y0039219D01*
X0097922Y0039364D01*
X0097713Y0039515D01*
X0097509Y0039671D01*
X0097308Y0039832D01*
X0097111Y0039997D01*
X0096918Y0040168D01*
X0096730Y0040343D01*
X0096545Y0040522D01*
X0096366Y0040707D01*
X0096191Y0040895D01*
X0096020Y0041088D01*
X0095855Y0041285D01*
X0095694Y0041486D01*
X0095538Y0041690D01*
X0095387Y0041899D01*
X0095242Y0042111D01*
X0095101Y0042327D01*
X0094966Y0042546D01*
X0094837Y0042768D01*
X0094713Y0042993D01*
X0094594Y0043222D01*
X0094481Y0043453D01*
X0094374Y0043687D01*
X0094273Y0043923D01*
X0094177Y0044162D01*
X0094088Y0044403D01*
X0094004Y0044647D01*
X0093926Y0044892D01*
X0093855Y0045139D01*
X0093789Y0045388D01*
X0093730Y0045638D01*
X0093676Y0045890D01*
X0093629Y0046143D01*
X0093588Y0046397D01*
X0093554Y0046652D01*
X0093525Y0046907D01*
X0093503Y0047164D01*
X0093488Y0047421D01*
X0093478Y0047678D01*
X0093475Y0047935D01*
X0093908Y0044116D02*
X0093911Y0044373D01*
X0093921Y0044630D01*
X0093936Y0044887D01*
X0093958Y0045144D01*
X0093987Y0045399D01*
X0094021Y0045654D01*
X0094062Y0045908D01*
X0094109Y0046161D01*
X0094163Y0046413D01*
X0094222Y0046663D01*
X0094288Y0046912D01*
X0094359Y0047159D01*
X0094437Y0047404D01*
X0094521Y0047648D01*
X0094610Y0047889D01*
X0094706Y0048128D01*
X0094807Y0048364D01*
X0094914Y0048598D01*
X0095027Y0048829D01*
X0095146Y0049058D01*
X0095270Y0049283D01*
X0095399Y0049505D01*
X0095534Y0049724D01*
X0095675Y0049940D01*
X0095820Y0050152D01*
X0095971Y0050361D01*
X0096127Y0050565D01*
X0096288Y0050766D01*
X0096453Y0050963D01*
X0096624Y0051156D01*
X0096799Y0051344D01*
X0096978Y0051529D01*
X0097163Y0051708D01*
X0097351Y0051883D01*
X0097544Y0052054D01*
X0097741Y0052219D01*
X0097942Y0052380D01*
X0098146Y0052536D01*
X0098355Y0052687D01*
X0098567Y0052832D01*
X0098783Y0052973D01*
X0099002Y0053108D01*
X0099224Y0053237D01*
X0099449Y0053361D01*
X0099678Y0053480D01*
X0099909Y0053593D01*
X0100143Y0053700D01*
X0100379Y0053801D01*
X0100618Y0053897D01*
X0100859Y0053986D01*
X0101103Y0054070D01*
X0101348Y0054148D01*
X0101595Y0054219D01*
X0101844Y0054285D01*
X0102094Y0054344D01*
X0102346Y0054398D01*
X0102599Y0054445D01*
X0102853Y0054486D01*
X0103108Y0054520D01*
X0103363Y0054549D01*
X0103620Y0054571D01*
X0103877Y0054586D01*
X0104134Y0054596D01*
X0104391Y0054599D01*
X0104648Y0054596D01*
X0104905Y0054586D01*
X0105162Y0054571D01*
X0105419Y0054549D01*
X0105674Y0054520D01*
X0105929Y0054486D01*
X0106183Y0054445D01*
X0106436Y0054398D01*
X0106688Y0054344D01*
X0106938Y0054285D01*
X0107187Y0054219D01*
X0107434Y0054148D01*
X0107679Y0054070D01*
X0107923Y0053986D01*
X0108164Y0053897D01*
X0108403Y0053801D01*
X0108639Y0053700D01*
X0108873Y0053593D01*
X0109104Y0053480D01*
X0109333Y0053361D01*
X0109558Y0053237D01*
X0109780Y0053108D01*
X0109999Y0052973D01*
X0110215Y0052832D01*
X0110427Y0052687D01*
X0110636Y0052536D01*
X0110840Y0052380D01*
X0111041Y0052219D01*
X0111238Y0052054D01*
X0111431Y0051883D01*
X0111619Y0051708D01*
X0111804Y0051529D01*
X0111983Y0051344D01*
X0112158Y0051156D01*
X0112329Y0050963D01*
X0112494Y0050766D01*
X0112655Y0050565D01*
X0112811Y0050361D01*
X0112962Y0050152D01*
X0113107Y0049940D01*
X0113248Y0049724D01*
X0113383Y0049505D01*
X0113512Y0049283D01*
X0113636Y0049058D01*
X0113755Y0048829D01*
X0113868Y0048598D01*
X0113975Y0048364D01*
X0114076Y0048128D01*
X0114172Y0047889D01*
X0114261Y0047648D01*
X0114345Y0047404D01*
X0114423Y0047159D01*
X0114494Y0046912D01*
X0114560Y0046663D01*
X0114619Y0046413D01*
X0114673Y0046161D01*
X0114720Y0045908D01*
X0114761Y0045654D01*
X0114795Y0045399D01*
X0114824Y0045144D01*
X0114846Y0044887D01*
X0114861Y0044630D01*
X0114871Y0044373D01*
X0114874Y0044116D01*
X0114871Y0043859D01*
X0114861Y0043602D01*
X0114846Y0043345D01*
X0114824Y0043088D01*
X0114795Y0042833D01*
X0114761Y0042578D01*
X0114720Y0042324D01*
X0114673Y0042071D01*
X0114619Y0041819D01*
X0114560Y0041569D01*
X0114494Y0041320D01*
X0114423Y0041073D01*
X0114345Y0040828D01*
X0114261Y0040584D01*
X0114172Y0040343D01*
X0114076Y0040104D01*
X0113975Y0039868D01*
X0113868Y0039634D01*
X0113755Y0039403D01*
X0113636Y0039174D01*
X0113512Y0038949D01*
X0113383Y0038727D01*
X0113248Y0038508D01*
X0113107Y0038292D01*
X0112962Y0038080D01*
X0112811Y0037871D01*
X0112655Y0037667D01*
X0112494Y0037466D01*
X0112329Y0037269D01*
X0112158Y0037076D01*
X0111983Y0036888D01*
X0111804Y0036703D01*
X0111619Y0036524D01*
X0111431Y0036349D01*
X0111238Y0036178D01*
X0111041Y0036013D01*
X0110840Y0035852D01*
X0110636Y0035696D01*
X0110427Y0035545D01*
X0110215Y0035400D01*
X0109999Y0035259D01*
X0109780Y0035124D01*
X0109558Y0034995D01*
X0109333Y0034871D01*
X0109104Y0034752D01*
X0108873Y0034639D01*
X0108639Y0034532D01*
X0108403Y0034431D01*
X0108164Y0034335D01*
X0107923Y0034246D01*
X0107679Y0034162D01*
X0107434Y0034084D01*
X0107187Y0034013D01*
X0106938Y0033947D01*
X0106688Y0033888D01*
X0106436Y0033834D01*
X0106183Y0033787D01*
X0105929Y0033746D01*
X0105674Y0033712D01*
X0105419Y0033683D01*
X0105162Y0033661D01*
X0104905Y0033646D01*
X0104648Y0033636D01*
X0104391Y0033633D01*
X0104134Y0033636D01*
X0103877Y0033646D01*
X0103620Y0033661D01*
X0103363Y0033683D01*
X0103108Y0033712D01*
X0102853Y0033746D01*
X0102599Y0033787D01*
X0102346Y0033834D01*
X0102094Y0033888D01*
X0101844Y0033947D01*
X0101595Y0034013D01*
X0101348Y0034084D01*
X0101103Y0034162D01*
X0100859Y0034246D01*
X0100618Y0034335D01*
X0100379Y0034431D01*
X0100143Y0034532D01*
X0099909Y0034639D01*
X0099678Y0034752D01*
X0099449Y0034871D01*
X0099224Y0034995D01*
X0099002Y0035124D01*
X0098783Y0035259D01*
X0098567Y0035400D01*
X0098355Y0035545D01*
X0098146Y0035696D01*
X0097942Y0035852D01*
X0097741Y0036013D01*
X0097544Y0036178D01*
X0097351Y0036349D01*
X0097163Y0036524D01*
X0096978Y0036703D01*
X0096799Y0036888D01*
X0096624Y0037076D01*
X0096453Y0037269D01*
X0096288Y0037466D01*
X0096127Y0037667D01*
X0095971Y0037871D01*
X0095820Y0038080D01*
X0095675Y0038292D01*
X0095534Y0038508D01*
X0095399Y0038727D01*
X0095270Y0038949D01*
X0095146Y0039174D01*
X0095027Y0039403D01*
X0094914Y0039634D01*
X0094807Y0039868D01*
X0094706Y0040104D01*
X0094610Y0040343D01*
X0094521Y0040584D01*
X0094437Y0040828D01*
X0094359Y0041073D01*
X0094288Y0041320D01*
X0094222Y0041569D01*
X0094163Y0041819D01*
X0094109Y0042071D01*
X0094062Y0042324D01*
X0094021Y0042578D01*
X0093987Y0042833D01*
X0093958Y0043088D01*
X0093936Y0043345D01*
X0093921Y0043602D01*
X0093911Y0043859D01*
X0093908Y0044116D01*
X0111832Y0028250D02*
X0121675Y0028250D01*
X0148486Y0014801D02*
X0148486Y0072047D01*
X0133486Y0010130D02*
X0133484Y0009949D01*
X0133477Y0009769D01*
X0133466Y0009589D01*
X0133451Y0009409D01*
X0133432Y0009229D01*
X0133408Y0009051D01*
X0133379Y0008872D01*
X0133347Y0008695D01*
X0133310Y0008518D01*
X0133269Y0008342D01*
X0133224Y0008167D01*
X0133174Y0007994D01*
X0133120Y0007821D01*
X0133062Y0007650D01*
X0133001Y0007481D01*
X0132934Y0007313D01*
X0132864Y0007146D01*
X0132790Y0006982D01*
X0132712Y0006819D01*
X0132630Y0006658D01*
X0132544Y0006499D01*
X0132455Y0006343D01*
X0132361Y0006188D01*
X0132264Y0006036D01*
X0132164Y0005886D01*
X0132059Y0005739D01*
X0131951Y0005594D01*
X0131840Y0005452D01*
X0131725Y0005312D01*
X0131607Y0005176D01*
X0131486Y0005042D01*
X0131361Y0004911D01*
X0131234Y0004784D01*
X0131103Y0004659D01*
X0130969Y0004538D01*
X0130833Y0004420D01*
X0130693Y0004305D01*
X0130551Y0004194D01*
X0130406Y0004086D01*
X0130259Y0003981D01*
X0130109Y0003881D01*
X0129957Y0003784D01*
X0129802Y0003690D01*
X0129646Y0003601D01*
X0129487Y0003515D01*
X0129326Y0003433D01*
X0129163Y0003355D01*
X0128999Y0003281D01*
X0128832Y0003211D01*
X0128664Y0003144D01*
X0128495Y0003083D01*
X0128324Y0003025D01*
X0128151Y0002971D01*
X0127978Y0002921D01*
X0127803Y0002876D01*
X0127627Y0002835D01*
X0127450Y0002798D01*
X0127273Y0002766D01*
X0127094Y0002737D01*
X0126916Y0002713D01*
X0126736Y0002694D01*
X0126556Y0002679D01*
X0126376Y0002668D01*
X0126196Y0002661D01*
X0126015Y0002659D01*
D14*
X0056970Y0043428D02*
X0054470Y0043428D01*
X0051970Y0043428D01*
X0051970Y0045928D02*
X0054470Y0045928D01*
X0056970Y0045928D01*
X0151183Y0045160D02*
X0153683Y0045160D01*
X0156183Y0045160D01*
X0156183Y0047660D02*
X0153683Y0047660D01*
X0151183Y0047660D01*
D15*
X0015100Y0004600D02*
X0015100Y0003600D01*
X0015100Y0025600D02*
X0015100Y0026600D01*
X0015100Y0066592D02*
X0015100Y0067592D01*
X0015100Y0088592D02*
X0015100Y0089592D01*
X0194234Y0089592D02*
X0194234Y0088592D01*
X0194234Y0067592D02*
X0194234Y0066592D01*
X0194234Y0026600D02*
X0194234Y0025600D01*
X0194234Y0004600D02*
X0194234Y0003600D01*
D16*
X0188328Y0015100D02*
X0188330Y0015253D01*
X0188336Y0015407D01*
X0188346Y0015560D01*
X0188360Y0015712D01*
X0188378Y0015865D01*
X0188400Y0016016D01*
X0188425Y0016167D01*
X0188455Y0016318D01*
X0188489Y0016468D01*
X0188526Y0016616D01*
X0188567Y0016764D01*
X0188612Y0016910D01*
X0188661Y0017056D01*
X0188714Y0017200D01*
X0188770Y0017342D01*
X0188830Y0017483D01*
X0188894Y0017623D01*
X0188961Y0017761D01*
X0189032Y0017897D01*
X0189107Y0018031D01*
X0189184Y0018163D01*
X0189266Y0018293D01*
X0189350Y0018421D01*
X0189438Y0018547D01*
X0189529Y0018670D01*
X0189623Y0018791D01*
X0189721Y0018909D01*
X0189821Y0019025D01*
X0189925Y0019138D01*
X0190031Y0019249D01*
X0190140Y0019357D01*
X0190252Y0019462D01*
X0190366Y0019563D01*
X0190484Y0019662D01*
X0190603Y0019758D01*
X0190725Y0019851D01*
X0190850Y0019940D01*
X0190977Y0020027D01*
X0191106Y0020109D01*
X0191237Y0020189D01*
X0191370Y0020265D01*
X0191505Y0020338D01*
X0191642Y0020407D01*
X0191781Y0020472D01*
X0191921Y0020534D01*
X0192063Y0020592D01*
X0192206Y0020647D01*
X0192351Y0020698D01*
X0192497Y0020745D01*
X0192644Y0020788D01*
X0192792Y0020827D01*
X0192941Y0020863D01*
X0193091Y0020894D01*
X0193242Y0020922D01*
X0193393Y0020946D01*
X0193546Y0020966D01*
X0193698Y0020982D01*
X0193851Y0020994D01*
X0194004Y0021002D01*
X0194157Y0021006D01*
X0194311Y0021006D01*
X0194464Y0021002D01*
X0194617Y0020994D01*
X0194770Y0020982D01*
X0194922Y0020966D01*
X0195075Y0020946D01*
X0195226Y0020922D01*
X0195377Y0020894D01*
X0195527Y0020863D01*
X0195676Y0020827D01*
X0195824Y0020788D01*
X0195971Y0020745D01*
X0196117Y0020698D01*
X0196262Y0020647D01*
X0196405Y0020592D01*
X0196547Y0020534D01*
X0196687Y0020472D01*
X0196826Y0020407D01*
X0196963Y0020338D01*
X0197098Y0020265D01*
X0197231Y0020189D01*
X0197362Y0020109D01*
X0197491Y0020027D01*
X0197618Y0019940D01*
X0197743Y0019851D01*
X0197865Y0019758D01*
X0197984Y0019662D01*
X0198102Y0019563D01*
X0198216Y0019462D01*
X0198328Y0019357D01*
X0198437Y0019249D01*
X0198543Y0019138D01*
X0198647Y0019025D01*
X0198747Y0018909D01*
X0198845Y0018791D01*
X0198939Y0018670D01*
X0199030Y0018547D01*
X0199118Y0018421D01*
X0199202Y0018293D01*
X0199284Y0018163D01*
X0199361Y0018031D01*
X0199436Y0017897D01*
X0199507Y0017761D01*
X0199574Y0017623D01*
X0199638Y0017483D01*
X0199698Y0017342D01*
X0199754Y0017200D01*
X0199807Y0017056D01*
X0199856Y0016910D01*
X0199901Y0016764D01*
X0199942Y0016616D01*
X0199979Y0016468D01*
X0200013Y0016318D01*
X0200043Y0016167D01*
X0200068Y0016016D01*
X0200090Y0015865D01*
X0200108Y0015712D01*
X0200122Y0015560D01*
X0200132Y0015407D01*
X0200138Y0015253D01*
X0200140Y0015100D01*
X0200138Y0014947D01*
X0200132Y0014793D01*
X0200122Y0014640D01*
X0200108Y0014488D01*
X0200090Y0014335D01*
X0200068Y0014184D01*
X0200043Y0014033D01*
X0200013Y0013882D01*
X0199979Y0013732D01*
X0199942Y0013584D01*
X0199901Y0013436D01*
X0199856Y0013290D01*
X0199807Y0013144D01*
X0199754Y0013000D01*
X0199698Y0012858D01*
X0199638Y0012717D01*
X0199574Y0012577D01*
X0199507Y0012439D01*
X0199436Y0012303D01*
X0199361Y0012169D01*
X0199284Y0012037D01*
X0199202Y0011907D01*
X0199118Y0011779D01*
X0199030Y0011653D01*
X0198939Y0011530D01*
X0198845Y0011409D01*
X0198747Y0011291D01*
X0198647Y0011175D01*
X0198543Y0011062D01*
X0198437Y0010951D01*
X0198328Y0010843D01*
X0198216Y0010738D01*
X0198102Y0010637D01*
X0197984Y0010538D01*
X0197865Y0010442D01*
X0197743Y0010349D01*
X0197618Y0010260D01*
X0197491Y0010173D01*
X0197362Y0010091D01*
X0197231Y0010011D01*
X0197098Y0009935D01*
X0196963Y0009862D01*
X0196826Y0009793D01*
X0196687Y0009728D01*
X0196547Y0009666D01*
X0196405Y0009608D01*
X0196262Y0009553D01*
X0196117Y0009502D01*
X0195971Y0009455D01*
X0195824Y0009412D01*
X0195676Y0009373D01*
X0195527Y0009337D01*
X0195377Y0009306D01*
X0195226Y0009278D01*
X0195075Y0009254D01*
X0194922Y0009234D01*
X0194770Y0009218D01*
X0194617Y0009206D01*
X0194464Y0009198D01*
X0194311Y0009194D01*
X0194157Y0009194D01*
X0194004Y0009198D01*
X0193851Y0009206D01*
X0193698Y0009218D01*
X0193546Y0009234D01*
X0193393Y0009254D01*
X0193242Y0009278D01*
X0193091Y0009306D01*
X0192941Y0009337D01*
X0192792Y0009373D01*
X0192644Y0009412D01*
X0192497Y0009455D01*
X0192351Y0009502D01*
X0192206Y0009553D01*
X0192063Y0009608D01*
X0191921Y0009666D01*
X0191781Y0009728D01*
X0191642Y0009793D01*
X0191505Y0009862D01*
X0191370Y0009935D01*
X0191237Y0010011D01*
X0191106Y0010091D01*
X0190977Y0010173D01*
X0190850Y0010260D01*
X0190725Y0010349D01*
X0190603Y0010442D01*
X0190484Y0010538D01*
X0190366Y0010637D01*
X0190252Y0010738D01*
X0190140Y0010843D01*
X0190031Y0010951D01*
X0189925Y0011062D01*
X0189821Y0011175D01*
X0189721Y0011291D01*
X0189623Y0011409D01*
X0189529Y0011530D01*
X0189438Y0011653D01*
X0189350Y0011779D01*
X0189266Y0011907D01*
X0189184Y0012037D01*
X0189107Y0012169D01*
X0189032Y0012303D01*
X0188961Y0012439D01*
X0188894Y0012577D01*
X0188830Y0012717D01*
X0188770Y0012858D01*
X0188714Y0013000D01*
X0188661Y0013144D01*
X0188612Y0013290D01*
X0188567Y0013436D01*
X0188526Y0013584D01*
X0188489Y0013732D01*
X0188455Y0013882D01*
X0188425Y0014033D01*
X0188400Y0014184D01*
X0188378Y0014335D01*
X0188360Y0014488D01*
X0188346Y0014640D01*
X0188336Y0014793D01*
X0188330Y0014947D01*
X0188328Y0015100D01*
X0188328Y0078092D02*
X0188330Y0078245D01*
X0188336Y0078399D01*
X0188346Y0078552D01*
X0188360Y0078704D01*
X0188378Y0078857D01*
X0188400Y0079008D01*
X0188425Y0079159D01*
X0188455Y0079310D01*
X0188489Y0079460D01*
X0188526Y0079608D01*
X0188567Y0079756D01*
X0188612Y0079902D01*
X0188661Y0080048D01*
X0188714Y0080192D01*
X0188770Y0080334D01*
X0188830Y0080475D01*
X0188894Y0080615D01*
X0188961Y0080753D01*
X0189032Y0080889D01*
X0189107Y0081023D01*
X0189184Y0081155D01*
X0189266Y0081285D01*
X0189350Y0081413D01*
X0189438Y0081539D01*
X0189529Y0081662D01*
X0189623Y0081783D01*
X0189721Y0081901D01*
X0189821Y0082017D01*
X0189925Y0082130D01*
X0190031Y0082241D01*
X0190140Y0082349D01*
X0190252Y0082454D01*
X0190366Y0082555D01*
X0190484Y0082654D01*
X0190603Y0082750D01*
X0190725Y0082843D01*
X0190850Y0082932D01*
X0190977Y0083019D01*
X0191106Y0083101D01*
X0191237Y0083181D01*
X0191370Y0083257D01*
X0191505Y0083330D01*
X0191642Y0083399D01*
X0191781Y0083464D01*
X0191921Y0083526D01*
X0192063Y0083584D01*
X0192206Y0083639D01*
X0192351Y0083690D01*
X0192497Y0083737D01*
X0192644Y0083780D01*
X0192792Y0083819D01*
X0192941Y0083855D01*
X0193091Y0083886D01*
X0193242Y0083914D01*
X0193393Y0083938D01*
X0193546Y0083958D01*
X0193698Y0083974D01*
X0193851Y0083986D01*
X0194004Y0083994D01*
X0194157Y0083998D01*
X0194311Y0083998D01*
X0194464Y0083994D01*
X0194617Y0083986D01*
X0194770Y0083974D01*
X0194922Y0083958D01*
X0195075Y0083938D01*
X0195226Y0083914D01*
X0195377Y0083886D01*
X0195527Y0083855D01*
X0195676Y0083819D01*
X0195824Y0083780D01*
X0195971Y0083737D01*
X0196117Y0083690D01*
X0196262Y0083639D01*
X0196405Y0083584D01*
X0196547Y0083526D01*
X0196687Y0083464D01*
X0196826Y0083399D01*
X0196963Y0083330D01*
X0197098Y0083257D01*
X0197231Y0083181D01*
X0197362Y0083101D01*
X0197491Y0083019D01*
X0197618Y0082932D01*
X0197743Y0082843D01*
X0197865Y0082750D01*
X0197984Y0082654D01*
X0198102Y0082555D01*
X0198216Y0082454D01*
X0198328Y0082349D01*
X0198437Y0082241D01*
X0198543Y0082130D01*
X0198647Y0082017D01*
X0198747Y0081901D01*
X0198845Y0081783D01*
X0198939Y0081662D01*
X0199030Y0081539D01*
X0199118Y0081413D01*
X0199202Y0081285D01*
X0199284Y0081155D01*
X0199361Y0081023D01*
X0199436Y0080889D01*
X0199507Y0080753D01*
X0199574Y0080615D01*
X0199638Y0080475D01*
X0199698Y0080334D01*
X0199754Y0080192D01*
X0199807Y0080048D01*
X0199856Y0079902D01*
X0199901Y0079756D01*
X0199942Y0079608D01*
X0199979Y0079460D01*
X0200013Y0079310D01*
X0200043Y0079159D01*
X0200068Y0079008D01*
X0200090Y0078857D01*
X0200108Y0078704D01*
X0200122Y0078552D01*
X0200132Y0078399D01*
X0200138Y0078245D01*
X0200140Y0078092D01*
X0200138Y0077939D01*
X0200132Y0077785D01*
X0200122Y0077632D01*
X0200108Y0077480D01*
X0200090Y0077327D01*
X0200068Y0077176D01*
X0200043Y0077025D01*
X0200013Y0076874D01*
X0199979Y0076724D01*
X0199942Y0076576D01*
X0199901Y0076428D01*
X0199856Y0076282D01*
X0199807Y0076136D01*
X0199754Y0075992D01*
X0199698Y0075850D01*
X0199638Y0075709D01*
X0199574Y0075569D01*
X0199507Y0075431D01*
X0199436Y0075295D01*
X0199361Y0075161D01*
X0199284Y0075029D01*
X0199202Y0074899D01*
X0199118Y0074771D01*
X0199030Y0074645D01*
X0198939Y0074522D01*
X0198845Y0074401D01*
X0198747Y0074283D01*
X0198647Y0074167D01*
X0198543Y0074054D01*
X0198437Y0073943D01*
X0198328Y0073835D01*
X0198216Y0073730D01*
X0198102Y0073629D01*
X0197984Y0073530D01*
X0197865Y0073434D01*
X0197743Y0073341D01*
X0197618Y0073252D01*
X0197491Y0073165D01*
X0197362Y0073083D01*
X0197231Y0073003D01*
X0197098Y0072927D01*
X0196963Y0072854D01*
X0196826Y0072785D01*
X0196687Y0072720D01*
X0196547Y0072658D01*
X0196405Y0072600D01*
X0196262Y0072545D01*
X0196117Y0072494D01*
X0195971Y0072447D01*
X0195824Y0072404D01*
X0195676Y0072365D01*
X0195527Y0072329D01*
X0195377Y0072298D01*
X0195226Y0072270D01*
X0195075Y0072246D01*
X0194922Y0072226D01*
X0194770Y0072210D01*
X0194617Y0072198D01*
X0194464Y0072190D01*
X0194311Y0072186D01*
X0194157Y0072186D01*
X0194004Y0072190D01*
X0193851Y0072198D01*
X0193698Y0072210D01*
X0193546Y0072226D01*
X0193393Y0072246D01*
X0193242Y0072270D01*
X0193091Y0072298D01*
X0192941Y0072329D01*
X0192792Y0072365D01*
X0192644Y0072404D01*
X0192497Y0072447D01*
X0192351Y0072494D01*
X0192206Y0072545D01*
X0192063Y0072600D01*
X0191921Y0072658D01*
X0191781Y0072720D01*
X0191642Y0072785D01*
X0191505Y0072854D01*
X0191370Y0072927D01*
X0191237Y0073003D01*
X0191106Y0073083D01*
X0190977Y0073165D01*
X0190850Y0073252D01*
X0190725Y0073341D01*
X0190603Y0073434D01*
X0190484Y0073530D01*
X0190366Y0073629D01*
X0190252Y0073730D01*
X0190140Y0073835D01*
X0190031Y0073943D01*
X0189925Y0074054D01*
X0189821Y0074167D01*
X0189721Y0074283D01*
X0189623Y0074401D01*
X0189529Y0074522D01*
X0189438Y0074645D01*
X0189350Y0074771D01*
X0189266Y0074899D01*
X0189184Y0075029D01*
X0189107Y0075161D01*
X0189032Y0075295D01*
X0188961Y0075431D01*
X0188894Y0075569D01*
X0188830Y0075709D01*
X0188770Y0075850D01*
X0188714Y0075992D01*
X0188661Y0076136D01*
X0188612Y0076282D01*
X0188567Y0076428D01*
X0188526Y0076576D01*
X0188489Y0076724D01*
X0188455Y0076874D01*
X0188425Y0077025D01*
X0188400Y0077176D01*
X0188378Y0077327D01*
X0188360Y0077480D01*
X0188346Y0077632D01*
X0188336Y0077785D01*
X0188330Y0077939D01*
X0188328Y0078092D01*
X0009194Y0078092D02*
X0009196Y0078245D01*
X0009202Y0078399D01*
X0009212Y0078552D01*
X0009226Y0078704D01*
X0009244Y0078857D01*
X0009266Y0079008D01*
X0009291Y0079159D01*
X0009321Y0079310D01*
X0009355Y0079460D01*
X0009392Y0079608D01*
X0009433Y0079756D01*
X0009478Y0079902D01*
X0009527Y0080048D01*
X0009580Y0080192D01*
X0009636Y0080334D01*
X0009696Y0080475D01*
X0009760Y0080615D01*
X0009827Y0080753D01*
X0009898Y0080889D01*
X0009973Y0081023D01*
X0010050Y0081155D01*
X0010132Y0081285D01*
X0010216Y0081413D01*
X0010304Y0081539D01*
X0010395Y0081662D01*
X0010489Y0081783D01*
X0010587Y0081901D01*
X0010687Y0082017D01*
X0010791Y0082130D01*
X0010897Y0082241D01*
X0011006Y0082349D01*
X0011118Y0082454D01*
X0011232Y0082555D01*
X0011350Y0082654D01*
X0011469Y0082750D01*
X0011591Y0082843D01*
X0011716Y0082932D01*
X0011843Y0083019D01*
X0011972Y0083101D01*
X0012103Y0083181D01*
X0012236Y0083257D01*
X0012371Y0083330D01*
X0012508Y0083399D01*
X0012647Y0083464D01*
X0012787Y0083526D01*
X0012929Y0083584D01*
X0013072Y0083639D01*
X0013217Y0083690D01*
X0013363Y0083737D01*
X0013510Y0083780D01*
X0013658Y0083819D01*
X0013807Y0083855D01*
X0013957Y0083886D01*
X0014108Y0083914D01*
X0014259Y0083938D01*
X0014412Y0083958D01*
X0014564Y0083974D01*
X0014717Y0083986D01*
X0014870Y0083994D01*
X0015023Y0083998D01*
X0015177Y0083998D01*
X0015330Y0083994D01*
X0015483Y0083986D01*
X0015636Y0083974D01*
X0015788Y0083958D01*
X0015941Y0083938D01*
X0016092Y0083914D01*
X0016243Y0083886D01*
X0016393Y0083855D01*
X0016542Y0083819D01*
X0016690Y0083780D01*
X0016837Y0083737D01*
X0016983Y0083690D01*
X0017128Y0083639D01*
X0017271Y0083584D01*
X0017413Y0083526D01*
X0017553Y0083464D01*
X0017692Y0083399D01*
X0017829Y0083330D01*
X0017964Y0083257D01*
X0018097Y0083181D01*
X0018228Y0083101D01*
X0018357Y0083019D01*
X0018484Y0082932D01*
X0018609Y0082843D01*
X0018731Y0082750D01*
X0018850Y0082654D01*
X0018968Y0082555D01*
X0019082Y0082454D01*
X0019194Y0082349D01*
X0019303Y0082241D01*
X0019409Y0082130D01*
X0019513Y0082017D01*
X0019613Y0081901D01*
X0019711Y0081783D01*
X0019805Y0081662D01*
X0019896Y0081539D01*
X0019984Y0081413D01*
X0020068Y0081285D01*
X0020150Y0081155D01*
X0020227Y0081023D01*
X0020302Y0080889D01*
X0020373Y0080753D01*
X0020440Y0080615D01*
X0020504Y0080475D01*
X0020564Y0080334D01*
X0020620Y0080192D01*
X0020673Y0080048D01*
X0020722Y0079902D01*
X0020767Y0079756D01*
X0020808Y0079608D01*
X0020845Y0079460D01*
X0020879Y0079310D01*
X0020909Y0079159D01*
X0020934Y0079008D01*
X0020956Y0078857D01*
X0020974Y0078704D01*
X0020988Y0078552D01*
X0020998Y0078399D01*
X0021004Y0078245D01*
X0021006Y0078092D01*
X0021004Y0077939D01*
X0020998Y0077785D01*
X0020988Y0077632D01*
X0020974Y0077480D01*
X0020956Y0077327D01*
X0020934Y0077176D01*
X0020909Y0077025D01*
X0020879Y0076874D01*
X0020845Y0076724D01*
X0020808Y0076576D01*
X0020767Y0076428D01*
X0020722Y0076282D01*
X0020673Y0076136D01*
X0020620Y0075992D01*
X0020564Y0075850D01*
X0020504Y0075709D01*
X0020440Y0075569D01*
X0020373Y0075431D01*
X0020302Y0075295D01*
X0020227Y0075161D01*
X0020150Y0075029D01*
X0020068Y0074899D01*
X0019984Y0074771D01*
X0019896Y0074645D01*
X0019805Y0074522D01*
X0019711Y0074401D01*
X0019613Y0074283D01*
X0019513Y0074167D01*
X0019409Y0074054D01*
X0019303Y0073943D01*
X0019194Y0073835D01*
X0019082Y0073730D01*
X0018968Y0073629D01*
X0018850Y0073530D01*
X0018731Y0073434D01*
X0018609Y0073341D01*
X0018484Y0073252D01*
X0018357Y0073165D01*
X0018228Y0073083D01*
X0018097Y0073003D01*
X0017964Y0072927D01*
X0017829Y0072854D01*
X0017692Y0072785D01*
X0017553Y0072720D01*
X0017413Y0072658D01*
X0017271Y0072600D01*
X0017128Y0072545D01*
X0016983Y0072494D01*
X0016837Y0072447D01*
X0016690Y0072404D01*
X0016542Y0072365D01*
X0016393Y0072329D01*
X0016243Y0072298D01*
X0016092Y0072270D01*
X0015941Y0072246D01*
X0015788Y0072226D01*
X0015636Y0072210D01*
X0015483Y0072198D01*
X0015330Y0072190D01*
X0015177Y0072186D01*
X0015023Y0072186D01*
X0014870Y0072190D01*
X0014717Y0072198D01*
X0014564Y0072210D01*
X0014412Y0072226D01*
X0014259Y0072246D01*
X0014108Y0072270D01*
X0013957Y0072298D01*
X0013807Y0072329D01*
X0013658Y0072365D01*
X0013510Y0072404D01*
X0013363Y0072447D01*
X0013217Y0072494D01*
X0013072Y0072545D01*
X0012929Y0072600D01*
X0012787Y0072658D01*
X0012647Y0072720D01*
X0012508Y0072785D01*
X0012371Y0072854D01*
X0012236Y0072927D01*
X0012103Y0073003D01*
X0011972Y0073083D01*
X0011843Y0073165D01*
X0011716Y0073252D01*
X0011591Y0073341D01*
X0011469Y0073434D01*
X0011350Y0073530D01*
X0011232Y0073629D01*
X0011118Y0073730D01*
X0011006Y0073835D01*
X0010897Y0073943D01*
X0010791Y0074054D01*
X0010687Y0074167D01*
X0010587Y0074283D01*
X0010489Y0074401D01*
X0010395Y0074522D01*
X0010304Y0074645D01*
X0010216Y0074771D01*
X0010132Y0074899D01*
X0010050Y0075029D01*
X0009973Y0075161D01*
X0009898Y0075295D01*
X0009827Y0075431D01*
X0009760Y0075569D01*
X0009696Y0075709D01*
X0009636Y0075850D01*
X0009580Y0075992D01*
X0009527Y0076136D01*
X0009478Y0076282D01*
X0009433Y0076428D01*
X0009392Y0076576D01*
X0009355Y0076724D01*
X0009321Y0076874D01*
X0009291Y0077025D01*
X0009266Y0077176D01*
X0009244Y0077327D01*
X0009226Y0077480D01*
X0009212Y0077632D01*
X0009202Y0077785D01*
X0009196Y0077939D01*
X0009194Y0078092D01*
X0009194Y0015100D02*
X0009196Y0015253D01*
X0009202Y0015407D01*
X0009212Y0015560D01*
X0009226Y0015712D01*
X0009244Y0015865D01*
X0009266Y0016016D01*
X0009291Y0016167D01*
X0009321Y0016318D01*
X0009355Y0016468D01*
X0009392Y0016616D01*
X0009433Y0016764D01*
X0009478Y0016910D01*
X0009527Y0017056D01*
X0009580Y0017200D01*
X0009636Y0017342D01*
X0009696Y0017483D01*
X0009760Y0017623D01*
X0009827Y0017761D01*
X0009898Y0017897D01*
X0009973Y0018031D01*
X0010050Y0018163D01*
X0010132Y0018293D01*
X0010216Y0018421D01*
X0010304Y0018547D01*
X0010395Y0018670D01*
X0010489Y0018791D01*
X0010587Y0018909D01*
X0010687Y0019025D01*
X0010791Y0019138D01*
X0010897Y0019249D01*
X0011006Y0019357D01*
X0011118Y0019462D01*
X0011232Y0019563D01*
X0011350Y0019662D01*
X0011469Y0019758D01*
X0011591Y0019851D01*
X0011716Y0019940D01*
X0011843Y0020027D01*
X0011972Y0020109D01*
X0012103Y0020189D01*
X0012236Y0020265D01*
X0012371Y0020338D01*
X0012508Y0020407D01*
X0012647Y0020472D01*
X0012787Y0020534D01*
X0012929Y0020592D01*
X0013072Y0020647D01*
X0013217Y0020698D01*
X0013363Y0020745D01*
X0013510Y0020788D01*
X0013658Y0020827D01*
X0013807Y0020863D01*
X0013957Y0020894D01*
X0014108Y0020922D01*
X0014259Y0020946D01*
X0014412Y0020966D01*
X0014564Y0020982D01*
X0014717Y0020994D01*
X0014870Y0021002D01*
X0015023Y0021006D01*
X0015177Y0021006D01*
X0015330Y0021002D01*
X0015483Y0020994D01*
X0015636Y0020982D01*
X0015788Y0020966D01*
X0015941Y0020946D01*
X0016092Y0020922D01*
X0016243Y0020894D01*
X0016393Y0020863D01*
X0016542Y0020827D01*
X0016690Y0020788D01*
X0016837Y0020745D01*
X0016983Y0020698D01*
X0017128Y0020647D01*
X0017271Y0020592D01*
X0017413Y0020534D01*
X0017553Y0020472D01*
X0017692Y0020407D01*
X0017829Y0020338D01*
X0017964Y0020265D01*
X0018097Y0020189D01*
X0018228Y0020109D01*
X0018357Y0020027D01*
X0018484Y0019940D01*
X0018609Y0019851D01*
X0018731Y0019758D01*
X0018850Y0019662D01*
X0018968Y0019563D01*
X0019082Y0019462D01*
X0019194Y0019357D01*
X0019303Y0019249D01*
X0019409Y0019138D01*
X0019513Y0019025D01*
X0019613Y0018909D01*
X0019711Y0018791D01*
X0019805Y0018670D01*
X0019896Y0018547D01*
X0019984Y0018421D01*
X0020068Y0018293D01*
X0020150Y0018163D01*
X0020227Y0018031D01*
X0020302Y0017897D01*
X0020373Y0017761D01*
X0020440Y0017623D01*
X0020504Y0017483D01*
X0020564Y0017342D01*
X0020620Y0017200D01*
X0020673Y0017056D01*
X0020722Y0016910D01*
X0020767Y0016764D01*
X0020808Y0016616D01*
X0020845Y0016468D01*
X0020879Y0016318D01*
X0020909Y0016167D01*
X0020934Y0016016D01*
X0020956Y0015865D01*
X0020974Y0015712D01*
X0020988Y0015560D01*
X0020998Y0015407D01*
X0021004Y0015253D01*
X0021006Y0015100D01*
X0021004Y0014947D01*
X0020998Y0014793D01*
X0020988Y0014640D01*
X0020974Y0014488D01*
X0020956Y0014335D01*
X0020934Y0014184D01*
X0020909Y0014033D01*
X0020879Y0013882D01*
X0020845Y0013732D01*
X0020808Y0013584D01*
X0020767Y0013436D01*
X0020722Y0013290D01*
X0020673Y0013144D01*
X0020620Y0013000D01*
X0020564Y0012858D01*
X0020504Y0012717D01*
X0020440Y0012577D01*
X0020373Y0012439D01*
X0020302Y0012303D01*
X0020227Y0012169D01*
X0020150Y0012037D01*
X0020068Y0011907D01*
X0019984Y0011779D01*
X0019896Y0011653D01*
X0019805Y0011530D01*
X0019711Y0011409D01*
X0019613Y0011291D01*
X0019513Y0011175D01*
X0019409Y0011062D01*
X0019303Y0010951D01*
X0019194Y0010843D01*
X0019082Y0010738D01*
X0018968Y0010637D01*
X0018850Y0010538D01*
X0018731Y0010442D01*
X0018609Y0010349D01*
X0018484Y0010260D01*
X0018357Y0010173D01*
X0018228Y0010091D01*
X0018097Y0010011D01*
X0017964Y0009935D01*
X0017829Y0009862D01*
X0017692Y0009793D01*
X0017553Y0009728D01*
X0017413Y0009666D01*
X0017271Y0009608D01*
X0017128Y0009553D01*
X0016983Y0009502D01*
X0016837Y0009455D01*
X0016690Y0009412D01*
X0016542Y0009373D01*
X0016393Y0009337D01*
X0016243Y0009306D01*
X0016092Y0009278D01*
X0015941Y0009254D01*
X0015788Y0009234D01*
X0015636Y0009218D01*
X0015483Y0009206D01*
X0015330Y0009198D01*
X0015177Y0009194D01*
X0015023Y0009194D01*
X0014870Y0009198D01*
X0014717Y0009206D01*
X0014564Y0009218D01*
X0014412Y0009234D01*
X0014259Y0009254D01*
X0014108Y0009278D01*
X0013957Y0009306D01*
X0013807Y0009337D01*
X0013658Y0009373D01*
X0013510Y0009412D01*
X0013363Y0009455D01*
X0013217Y0009502D01*
X0013072Y0009553D01*
X0012929Y0009608D01*
X0012787Y0009666D01*
X0012647Y0009728D01*
X0012508Y0009793D01*
X0012371Y0009862D01*
X0012236Y0009935D01*
X0012103Y0010011D01*
X0011972Y0010091D01*
X0011843Y0010173D01*
X0011716Y0010260D01*
X0011591Y0010349D01*
X0011469Y0010442D01*
X0011350Y0010538D01*
X0011232Y0010637D01*
X0011118Y0010738D01*
X0011006Y0010843D01*
X0010897Y0010951D01*
X0010791Y0011062D01*
X0010687Y0011175D01*
X0010587Y0011291D01*
X0010489Y0011409D01*
X0010395Y0011530D01*
X0010304Y0011653D01*
X0010216Y0011779D01*
X0010132Y0011907D01*
X0010050Y0012037D01*
X0009973Y0012169D01*
X0009898Y0012303D01*
X0009827Y0012439D01*
X0009760Y0012577D01*
X0009696Y0012717D01*
X0009636Y0012858D01*
X0009580Y0013000D01*
X0009527Y0013144D01*
X0009478Y0013290D01*
X0009433Y0013436D01*
X0009392Y0013584D01*
X0009355Y0013732D01*
X0009321Y0013882D01*
X0009291Y0014033D01*
X0009266Y0014184D01*
X0009244Y0014335D01*
X0009226Y0014488D01*
X0009212Y0014640D01*
X0009202Y0014793D01*
X0009196Y0014947D01*
X0009194Y0015100D01*
M02*
