G04 EAGLE Gerber RS-274X export*
G75*
%MOMM*%
%FSLAX34Y34*%
%LPD*%
%INBottom solder paste for stencil*%
%IPPOS*%
%AMOC8*
5,1,8,0,0,1.08239X$1,22.5*%
G01*
%ADD10C,0.000000*%


D10*
X25320Y0D02*
X674680Y0D01*
X674680Y235000D01*
X25320Y235000D01*
X25320Y0D01*
X99000Y115000D02*
X99005Y115393D01*
X99019Y115785D01*
X99043Y116177D01*
X99077Y116568D01*
X99120Y116959D01*
X99173Y117348D01*
X99236Y117735D01*
X99307Y118121D01*
X99389Y118506D01*
X99479Y118888D01*
X99580Y119267D01*
X99689Y119645D01*
X99808Y120019D01*
X99935Y120390D01*
X100072Y120758D01*
X100218Y121123D01*
X100373Y121484D01*
X100536Y121841D01*
X100708Y122194D01*
X100889Y122542D01*
X101079Y122886D01*
X101276Y123226D01*
X101482Y123560D01*
X101696Y123889D01*
X101919Y124213D01*
X102149Y124531D01*
X102386Y124844D01*
X102632Y125150D01*
X102885Y125451D01*
X103145Y125745D01*
X103412Y126033D01*
X103686Y126314D01*
X103967Y126588D01*
X104255Y126855D01*
X104549Y127115D01*
X104850Y127368D01*
X105156Y127614D01*
X105469Y127851D01*
X105787Y128081D01*
X106111Y128304D01*
X106440Y128518D01*
X106774Y128724D01*
X107114Y128921D01*
X107458Y129111D01*
X107806Y129292D01*
X108159Y129464D01*
X108516Y129627D01*
X108877Y129782D01*
X109242Y129928D01*
X109610Y130065D01*
X109981Y130192D01*
X110355Y130311D01*
X110733Y130420D01*
X111112Y130521D01*
X111494Y130611D01*
X111879Y130693D01*
X112265Y130764D01*
X112652Y130827D01*
X113041Y130880D01*
X113432Y130923D01*
X113823Y130957D01*
X114215Y130981D01*
X114607Y130995D01*
X115000Y131000D01*
X115393Y130995D01*
X115785Y130981D01*
X116177Y130957D01*
X116568Y130923D01*
X116959Y130880D01*
X117348Y130827D01*
X117735Y130764D01*
X118121Y130693D01*
X118506Y130611D01*
X118888Y130521D01*
X119267Y130420D01*
X119645Y130311D01*
X120019Y130192D01*
X120390Y130065D01*
X120758Y129928D01*
X121123Y129782D01*
X121484Y129627D01*
X121841Y129464D01*
X122194Y129292D01*
X122542Y129111D01*
X122886Y128921D01*
X123226Y128724D01*
X123560Y128518D01*
X123889Y128304D01*
X124213Y128081D01*
X124531Y127851D01*
X124844Y127614D01*
X125150Y127368D01*
X125451Y127115D01*
X125745Y126855D01*
X126033Y126588D01*
X126314Y126314D01*
X126588Y126033D01*
X126855Y125745D01*
X127115Y125451D01*
X127368Y125150D01*
X127614Y124844D01*
X127851Y124531D01*
X128081Y124213D01*
X128304Y123889D01*
X128518Y123560D01*
X128724Y123226D01*
X128921Y122886D01*
X129111Y122542D01*
X129292Y122194D01*
X129464Y121841D01*
X129627Y121484D01*
X129782Y121123D01*
X129928Y120758D01*
X130065Y120390D01*
X130192Y120019D01*
X130311Y119645D01*
X130420Y119267D01*
X130521Y118888D01*
X130611Y118506D01*
X130693Y118121D01*
X130764Y117735D01*
X130827Y117348D01*
X130880Y116959D01*
X130923Y116568D01*
X130957Y116177D01*
X130981Y115785D01*
X130995Y115393D01*
X131000Y115000D01*
X130995Y114607D01*
X130981Y114215D01*
X130957Y113823D01*
X130923Y113432D01*
X130880Y113041D01*
X130827Y112652D01*
X130764Y112265D01*
X130693Y111879D01*
X130611Y111494D01*
X130521Y111112D01*
X130420Y110733D01*
X130311Y110355D01*
X130192Y109981D01*
X130065Y109610D01*
X129928Y109242D01*
X129782Y108877D01*
X129627Y108516D01*
X129464Y108159D01*
X129292Y107806D01*
X129111Y107458D01*
X128921Y107114D01*
X128724Y106774D01*
X128518Y106440D01*
X128304Y106111D01*
X128081Y105787D01*
X127851Y105469D01*
X127614Y105156D01*
X127368Y104850D01*
X127115Y104549D01*
X126855Y104255D01*
X126588Y103967D01*
X126314Y103686D01*
X126033Y103412D01*
X125745Y103145D01*
X125451Y102885D01*
X125150Y102632D01*
X124844Y102386D01*
X124531Y102149D01*
X124213Y101919D01*
X123889Y101696D01*
X123560Y101482D01*
X123226Y101276D01*
X122886Y101079D01*
X122542Y100889D01*
X122194Y100708D01*
X121841Y100536D01*
X121484Y100373D01*
X121123Y100218D01*
X120758Y100072D01*
X120390Y99935D01*
X120019Y99808D01*
X119645Y99689D01*
X119267Y99580D01*
X118888Y99479D01*
X118506Y99389D01*
X118121Y99307D01*
X117735Y99236D01*
X117348Y99173D01*
X116959Y99120D01*
X116568Y99077D01*
X116177Y99043D01*
X115785Y99019D01*
X115393Y99005D01*
X115000Y99000D01*
X114607Y99005D01*
X114215Y99019D01*
X113823Y99043D01*
X113432Y99077D01*
X113041Y99120D01*
X112652Y99173D01*
X112265Y99236D01*
X111879Y99307D01*
X111494Y99389D01*
X111112Y99479D01*
X110733Y99580D01*
X110355Y99689D01*
X109981Y99808D01*
X109610Y99935D01*
X109242Y100072D01*
X108877Y100218D01*
X108516Y100373D01*
X108159Y100536D01*
X107806Y100708D01*
X107458Y100889D01*
X107114Y101079D01*
X106774Y101276D01*
X106440Y101482D01*
X106111Y101696D01*
X105787Y101919D01*
X105469Y102149D01*
X105156Y102386D01*
X104850Y102632D01*
X104549Y102885D01*
X104255Y103145D01*
X103967Y103412D01*
X103686Y103686D01*
X103412Y103967D01*
X103145Y104255D01*
X102885Y104549D01*
X102632Y104850D01*
X102386Y105156D01*
X102149Y105469D01*
X101919Y105787D01*
X101696Y106111D01*
X101482Y106440D01*
X101276Y106774D01*
X101079Y107114D01*
X100889Y107458D01*
X100708Y107806D01*
X100536Y108159D01*
X100373Y108516D01*
X100218Y108877D01*
X100072Y109242D01*
X99935Y109610D01*
X99808Y109981D01*
X99689Y110355D01*
X99580Y110733D01*
X99479Y111112D01*
X99389Y111494D01*
X99307Y111879D01*
X99236Y112265D01*
X99173Y112652D01*
X99120Y113041D01*
X99077Y113432D01*
X99043Y113823D01*
X99019Y114215D01*
X99005Y114607D01*
X99000Y115000D01*
X474000Y115000D02*
X474005Y115393D01*
X474019Y115785D01*
X474043Y116177D01*
X474077Y116568D01*
X474120Y116959D01*
X474173Y117348D01*
X474236Y117735D01*
X474307Y118121D01*
X474389Y118506D01*
X474479Y118888D01*
X474580Y119267D01*
X474689Y119645D01*
X474808Y120019D01*
X474935Y120390D01*
X475072Y120758D01*
X475218Y121123D01*
X475373Y121484D01*
X475536Y121841D01*
X475708Y122194D01*
X475889Y122542D01*
X476079Y122886D01*
X476276Y123226D01*
X476482Y123560D01*
X476696Y123889D01*
X476919Y124213D01*
X477149Y124531D01*
X477386Y124844D01*
X477632Y125150D01*
X477885Y125451D01*
X478145Y125745D01*
X478412Y126033D01*
X478686Y126314D01*
X478967Y126588D01*
X479255Y126855D01*
X479549Y127115D01*
X479850Y127368D01*
X480156Y127614D01*
X480469Y127851D01*
X480787Y128081D01*
X481111Y128304D01*
X481440Y128518D01*
X481774Y128724D01*
X482114Y128921D01*
X482458Y129111D01*
X482806Y129292D01*
X483159Y129464D01*
X483516Y129627D01*
X483877Y129782D01*
X484242Y129928D01*
X484610Y130065D01*
X484981Y130192D01*
X485355Y130311D01*
X485733Y130420D01*
X486112Y130521D01*
X486494Y130611D01*
X486879Y130693D01*
X487265Y130764D01*
X487652Y130827D01*
X488041Y130880D01*
X488432Y130923D01*
X488823Y130957D01*
X489215Y130981D01*
X489607Y130995D01*
X490000Y131000D01*
X490393Y130995D01*
X490785Y130981D01*
X491177Y130957D01*
X491568Y130923D01*
X491959Y130880D01*
X492348Y130827D01*
X492735Y130764D01*
X493121Y130693D01*
X493506Y130611D01*
X493888Y130521D01*
X494267Y130420D01*
X494645Y130311D01*
X495019Y130192D01*
X495390Y130065D01*
X495758Y129928D01*
X496123Y129782D01*
X496484Y129627D01*
X496841Y129464D01*
X497194Y129292D01*
X497542Y129111D01*
X497886Y128921D01*
X498226Y128724D01*
X498560Y128518D01*
X498889Y128304D01*
X499213Y128081D01*
X499531Y127851D01*
X499844Y127614D01*
X500150Y127368D01*
X500451Y127115D01*
X500745Y126855D01*
X501033Y126588D01*
X501314Y126314D01*
X501588Y126033D01*
X501855Y125745D01*
X502115Y125451D01*
X502368Y125150D01*
X502614Y124844D01*
X502851Y124531D01*
X503081Y124213D01*
X503304Y123889D01*
X503518Y123560D01*
X503724Y123226D01*
X503921Y122886D01*
X504111Y122542D01*
X504292Y122194D01*
X504464Y121841D01*
X504627Y121484D01*
X504782Y121123D01*
X504928Y120758D01*
X505065Y120390D01*
X505192Y120019D01*
X505311Y119645D01*
X505420Y119267D01*
X505521Y118888D01*
X505611Y118506D01*
X505693Y118121D01*
X505764Y117735D01*
X505827Y117348D01*
X505880Y116959D01*
X505923Y116568D01*
X505957Y116177D01*
X505981Y115785D01*
X505995Y115393D01*
X506000Y115000D01*
X505995Y114607D01*
X505981Y114215D01*
X505957Y113823D01*
X505923Y113432D01*
X505880Y113041D01*
X505827Y112652D01*
X505764Y112265D01*
X505693Y111879D01*
X505611Y111494D01*
X505521Y111112D01*
X505420Y110733D01*
X505311Y110355D01*
X505192Y109981D01*
X505065Y109610D01*
X504928Y109242D01*
X504782Y108877D01*
X504627Y108516D01*
X504464Y108159D01*
X504292Y107806D01*
X504111Y107458D01*
X503921Y107114D01*
X503724Y106774D01*
X503518Y106440D01*
X503304Y106111D01*
X503081Y105787D01*
X502851Y105469D01*
X502614Y105156D01*
X502368Y104850D01*
X502115Y104549D01*
X501855Y104255D01*
X501588Y103967D01*
X501314Y103686D01*
X501033Y103412D01*
X500745Y103145D01*
X500451Y102885D01*
X500150Y102632D01*
X499844Y102386D01*
X499531Y102149D01*
X499213Y101919D01*
X498889Y101696D01*
X498560Y101482D01*
X498226Y101276D01*
X497886Y101079D01*
X497542Y100889D01*
X497194Y100708D01*
X496841Y100536D01*
X496484Y100373D01*
X496123Y100218D01*
X495758Y100072D01*
X495390Y99935D01*
X495019Y99808D01*
X494645Y99689D01*
X494267Y99580D01*
X493888Y99479D01*
X493506Y99389D01*
X493121Y99307D01*
X492735Y99236D01*
X492348Y99173D01*
X491959Y99120D01*
X491568Y99077D01*
X491177Y99043D01*
X490785Y99019D01*
X490393Y99005D01*
X490000Y99000D01*
X489607Y99005D01*
X489215Y99019D01*
X488823Y99043D01*
X488432Y99077D01*
X488041Y99120D01*
X487652Y99173D01*
X487265Y99236D01*
X486879Y99307D01*
X486494Y99389D01*
X486112Y99479D01*
X485733Y99580D01*
X485355Y99689D01*
X484981Y99808D01*
X484610Y99935D01*
X484242Y100072D01*
X483877Y100218D01*
X483516Y100373D01*
X483159Y100536D01*
X482806Y100708D01*
X482458Y100889D01*
X482114Y101079D01*
X481774Y101276D01*
X481440Y101482D01*
X481111Y101696D01*
X480787Y101919D01*
X480469Y102149D01*
X480156Y102386D01*
X479850Y102632D01*
X479549Y102885D01*
X479255Y103145D01*
X478967Y103412D01*
X478686Y103686D01*
X478412Y103967D01*
X478145Y104255D01*
X477885Y104549D01*
X477632Y104850D01*
X477386Y105156D01*
X477149Y105469D01*
X476919Y105787D01*
X476696Y106111D01*
X476482Y106440D01*
X476276Y106774D01*
X476079Y107114D01*
X475889Y107458D01*
X475708Y107806D01*
X475536Y108159D01*
X475373Y108516D01*
X475218Y108877D01*
X475072Y109242D01*
X474935Y109610D01*
X474808Y109981D01*
X474689Y110355D01*
X474580Y110733D01*
X474479Y111112D01*
X474389Y111494D01*
X474307Y111879D01*
X474236Y112265D01*
X474173Y112652D01*
X474120Y113041D01*
X474077Y113432D01*
X474043Y113823D01*
X474019Y114215D01*
X474005Y114607D01*
X474000Y115000D01*
X560030Y198000D02*
X560034Y198343D01*
X560047Y198685D01*
X560068Y199028D01*
X560097Y199369D01*
X560135Y199710D01*
X560181Y200050D01*
X560236Y200388D01*
X560298Y200725D01*
X560369Y201061D01*
X560449Y201394D01*
X560536Y201726D01*
X560632Y202055D01*
X560735Y202382D01*
X560847Y202706D01*
X560966Y203028D01*
X561093Y203346D01*
X561228Y203661D01*
X561371Y203973D01*
X561522Y204281D01*
X561680Y204585D01*
X561845Y204886D01*
X562018Y205182D01*
X562197Y205474D01*
X562384Y205761D01*
X562578Y206044D01*
X562779Y206322D01*
X562987Y206595D01*
X563201Y206862D01*
X563422Y207125D01*
X563649Y207382D01*
X563882Y207633D01*
X564122Y207878D01*
X564367Y208118D01*
X564618Y208351D01*
X564875Y208578D01*
X565138Y208799D01*
X565405Y209013D01*
X565678Y209221D01*
X565956Y209422D01*
X566239Y209616D01*
X566526Y209803D01*
X566818Y209982D01*
X567114Y210155D01*
X567415Y210320D01*
X567719Y210478D01*
X568027Y210629D01*
X568339Y210772D01*
X568654Y210907D01*
X568972Y211034D01*
X569294Y211153D01*
X569618Y211265D01*
X569945Y211368D01*
X570274Y211464D01*
X570606Y211551D01*
X570939Y211631D01*
X571275Y211702D01*
X571612Y211764D01*
X571950Y211819D01*
X572290Y211865D01*
X572631Y211903D01*
X572972Y211932D01*
X573315Y211953D01*
X573657Y211966D01*
X574000Y211970D01*
X574343Y211966D01*
X574685Y211953D01*
X575028Y211932D01*
X575369Y211903D01*
X575710Y211865D01*
X576050Y211819D01*
X576388Y211764D01*
X576725Y211702D01*
X577061Y211631D01*
X577394Y211551D01*
X577726Y211464D01*
X578055Y211368D01*
X578382Y211265D01*
X578706Y211153D01*
X579028Y211034D01*
X579346Y210907D01*
X579661Y210772D01*
X579973Y210629D01*
X580281Y210478D01*
X580585Y210320D01*
X580886Y210155D01*
X581182Y209982D01*
X581474Y209803D01*
X581761Y209616D01*
X582044Y209422D01*
X582322Y209221D01*
X582595Y209013D01*
X582862Y208799D01*
X583125Y208578D01*
X583382Y208351D01*
X583633Y208118D01*
X583878Y207878D01*
X584118Y207633D01*
X584351Y207382D01*
X584578Y207125D01*
X584799Y206862D01*
X585013Y206595D01*
X585221Y206322D01*
X585422Y206044D01*
X585616Y205761D01*
X585803Y205474D01*
X585982Y205182D01*
X586155Y204886D01*
X586320Y204585D01*
X586478Y204281D01*
X586629Y203973D01*
X586772Y203661D01*
X586907Y203346D01*
X587034Y203028D01*
X587153Y202706D01*
X587265Y202382D01*
X587368Y202055D01*
X587464Y201726D01*
X587551Y201394D01*
X587631Y201061D01*
X587702Y200725D01*
X587764Y200388D01*
X587819Y200050D01*
X587865Y199710D01*
X587903Y199369D01*
X587932Y199028D01*
X587953Y198685D01*
X587966Y198343D01*
X587970Y198000D01*
X587966Y197657D01*
X587953Y197315D01*
X587932Y196972D01*
X587903Y196631D01*
X587865Y196290D01*
X587819Y195950D01*
X587764Y195612D01*
X587702Y195275D01*
X587631Y194939D01*
X587551Y194606D01*
X587464Y194274D01*
X587368Y193945D01*
X587265Y193618D01*
X587153Y193294D01*
X587034Y192972D01*
X586907Y192654D01*
X586772Y192339D01*
X586629Y192027D01*
X586478Y191719D01*
X586320Y191415D01*
X586155Y191114D01*
X585982Y190818D01*
X585803Y190526D01*
X585616Y190239D01*
X585422Y189956D01*
X585221Y189678D01*
X585013Y189405D01*
X584799Y189138D01*
X584578Y188875D01*
X584351Y188618D01*
X584118Y188367D01*
X583878Y188122D01*
X583633Y187882D01*
X583382Y187649D01*
X583125Y187422D01*
X582862Y187201D01*
X582595Y186987D01*
X582322Y186779D01*
X582044Y186578D01*
X581761Y186384D01*
X581474Y186197D01*
X581182Y186018D01*
X580886Y185845D01*
X580585Y185680D01*
X580281Y185522D01*
X579973Y185371D01*
X579661Y185228D01*
X579346Y185093D01*
X579028Y184966D01*
X578706Y184847D01*
X578382Y184735D01*
X578055Y184632D01*
X577726Y184536D01*
X577394Y184449D01*
X577061Y184369D01*
X576725Y184298D01*
X576388Y184236D01*
X576050Y184181D01*
X575710Y184135D01*
X575369Y184097D01*
X575028Y184068D01*
X574685Y184047D01*
X574343Y184034D01*
X574000Y184030D01*
X573657Y184034D01*
X573315Y184047D01*
X572972Y184068D01*
X572631Y184097D01*
X572290Y184135D01*
X571950Y184181D01*
X571612Y184236D01*
X571275Y184298D01*
X570939Y184369D01*
X570606Y184449D01*
X570274Y184536D01*
X569945Y184632D01*
X569618Y184735D01*
X569294Y184847D01*
X568972Y184966D01*
X568654Y185093D01*
X568339Y185228D01*
X568027Y185371D01*
X567719Y185522D01*
X567415Y185680D01*
X567114Y185845D01*
X566818Y186018D01*
X566526Y186197D01*
X566239Y186384D01*
X565956Y186578D01*
X565678Y186779D01*
X565405Y186987D01*
X565138Y187201D01*
X564875Y187422D01*
X564618Y187649D01*
X564367Y187882D01*
X564122Y188122D01*
X563882Y188367D01*
X563649Y188618D01*
X563422Y188875D01*
X563201Y189138D01*
X562987Y189405D01*
X562779Y189678D01*
X562578Y189956D01*
X562384Y190239D01*
X562197Y190526D01*
X562018Y190818D01*
X561845Y191114D01*
X561680Y191415D01*
X561522Y191719D01*
X561371Y192027D01*
X561228Y192339D01*
X561093Y192654D01*
X560966Y192972D01*
X560847Y193294D01*
X560735Y193618D01*
X560632Y193945D01*
X560536Y194274D01*
X560449Y194606D01*
X560369Y194939D01*
X560298Y195275D01*
X560236Y195612D01*
X560181Y195950D01*
X560135Y196290D01*
X560097Y196631D01*
X560068Y196972D01*
X560047Y197315D01*
X560034Y197657D01*
X560030Y198000D01*
M02*
