G04 EAGLE Gerber RS-274X export*
G75*
%MOMM*%
%FSLAX34Y34*%
%LPD*%
%INTop silk*%
%IPPOS*%
%AMOC8*
5,1,8,0,0,1.08239X$1,22.5*%
G01*
%ADD10C,0.000000*%
%ADD11C,0.177800*%
%ADD12C,0.228600*%
%ADD13C,0.457200*%
%ADD14C,0.127000*%
%ADD15C,0.304800*%
%ADD16C,0.152400*%
%ADD17C,0.050800*%
%ADD18R,10.160000X0.508000*%
%ADD19R,0.635000X1.651000*%
%ADD20R,0.254000X4.064000*%
%ADD21R,4.826000X1.143000*%
%ADD22R,1.016000X0.762000*%
%ADD23R,1.016000X0.127000*%
%ADD24R,1.778000X0.127000*%


D10*
X25320Y0D02*
X674680Y0D01*
X674680Y235000D01*
X25320Y235000D01*
X25320Y0D01*
D11*
X260889Y197287D02*
X260889Y204278D01*
X260889Y197287D02*
X262287Y195889D01*
X265084Y195889D01*
X266482Y197287D01*
X266482Y204278D01*
X270244Y195889D02*
X275837Y195889D01*
X270244Y195889D02*
X275837Y201482D01*
X275837Y202880D01*
X274439Y204278D01*
X271642Y204278D01*
X270244Y202880D01*
X288955Y204278D02*
X288955Y195889D01*
X288955Y204278D02*
X293149Y204278D01*
X294547Y202880D01*
X294547Y200084D01*
X293149Y198685D01*
X288955Y198685D01*
X291751Y198685D02*
X294547Y195889D01*
X298310Y195889D02*
X298310Y204278D01*
X303903Y195889D01*
X303903Y204278D01*
X307665Y195889D02*
X313258Y195889D01*
X307665Y195889D02*
X313258Y201482D01*
X313258Y202880D01*
X311860Y204278D01*
X309063Y204278D01*
X307665Y202880D01*
X317020Y201482D02*
X319817Y204278D01*
X319817Y195889D01*
X322613Y195889D02*
X317020Y195889D01*
X330570Y195889D02*
X330570Y204278D01*
X326375Y200084D01*
X331968Y200084D01*
D10*
X99000Y115000D02*
X99005Y115393D01*
X99019Y115785D01*
X99043Y116177D01*
X99077Y116568D01*
X99120Y116959D01*
X99173Y117348D01*
X99236Y117735D01*
X99307Y118121D01*
X99389Y118506D01*
X99479Y118888D01*
X99580Y119267D01*
X99689Y119645D01*
X99808Y120019D01*
X99935Y120390D01*
X100072Y120758D01*
X100218Y121123D01*
X100373Y121484D01*
X100536Y121841D01*
X100708Y122194D01*
X100889Y122542D01*
X101079Y122886D01*
X101276Y123226D01*
X101482Y123560D01*
X101696Y123889D01*
X101919Y124213D01*
X102149Y124531D01*
X102386Y124844D01*
X102632Y125150D01*
X102885Y125451D01*
X103145Y125745D01*
X103412Y126033D01*
X103686Y126314D01*
X103967Y126588D01*
X104255Y126855D01*
X104549Y127115D01*
X104850Y127368D01*
X105156Y127614D01*
X105469Y127851D01*
X105787Y128081D01*
X106111Y128304D01*
X106440Y128518D01*
X106774Y128724D01*
X107114Y128921D01*
X107458Y129111D01*
X107806Y129292D01*
X108159Y129464D01*
X108516Y129627D01*
X108877Y129782D01*
X109242Y129928D01*
X109610Y130065D01*
X109981Y130192D01*
X110355Y130311D01*
X110733Y130420D01*
X111112Y130521D01*
X111494Y130611D01*
X111879Y130693D01*
X112265Y130764D01*
X112652Y130827D01*
X113041Y130880D01*
X113432Y130923D01*
X113823Y130957D01*
X114215Y130981D01*
X114607Y130995D01*
X115000Y131000D01*
X115393Y130995D01*
X115785Y130981D01*
X116177Y130957D01*
X116568Y130923D01*
X116959Y130880D01*
X117348Y130827D01*
X117735Y130764D01*
X118121Y130693D01*
X118506Y130611D01*
X118888Y130521D01*
X119267Y130420D01*
X119645Y130311D01*
X120019Y130192D01*
X120390Y130065D01*
X120758Y129928D01*
X121123Y129782D01*
X121484Y129627D01*
X121841Y129464D01*
X122194Y129292D01*
X122542Y129111D01*
X122886Y128921D01*
X123226Y128724D01*
X123560Y128518D01*
X123889Y128304D01*
X124213Y128081D01*
X124531Y127851D01*
X124844Y127614D01*
X125150Y127368D01*
X125451Y127115D01*
X125745Y126855D01*
X126033Y126588D01*
X126314Y126314D01*
X126588Y126033D01*
X126855Y125745D01*
X127115Y125451D01*
X127368Y125150D01*
X127614Y124844D01*
X127851Y124531D01*
X128081Y124213D01*
X128304Y123889D01*
X128518Y123560D01*
X128724Y123226D01*
X128921Y122886D01*
X129111Y122542D01*
X129292Y122194D01*
X129464Y121841D01*
X129627Y121484D01*
X129782Y121123D01*
X129928Y120758D01*
X130065Y120390D01*
X130192Y120019D01*
X130311Y119645D01*
X130420Y119267D01*
X130521Y118888D01*
X130611Y118506D01*
X130693Y118121D01*
X130764Y117735D01*
X130827Y117348D01*
X130880Y116959D01*
X130923Y116568D01*
X130957Y116177D01*
X130981Y115785D01*
X130995Y115393D01*
X131000Y115000D01*
X130995Y114607D01*
X130981Y114215D01*
X130957Y113823D01*
X130923Y113432D01*
X130880Y113041D01*
X130827Y112652D01*
X130764Y112265D01*
X130693Y111879D01*
X130611Y111494D01*
X130521Y111112D01*
X130420Y110733D01*
X130311Y110355D01*
X130192Y109981D01*
X130065Y109610D01*
X129928Y109242D01*
X129782Y108877D01*
X129627Y108516D01*
X129464Y108159D01*
X129292Y107806D01*
X129111Y107458D01*
X128921Y107114D01*
X128724Y106774D01*
X128518Y106440D01*
X128304Y106111D01*
X128081Y105787D01*
X127851Y105469D01*
X127614Y105156D01*
X127368Y104850D01*
X127115Y104549D01*
X126855Y104255D01*
X126588Y103967D01*
X126314Y103686D01*
X126033Y103412D01*
X125745Y103145D01*
X125451Y102885D01*
X125150Y102632D01*
X124844Y102386D01*
X124531Y102149D01*
X124213Y101919D01*
X123889Y101696D01*
X123560Y101482D01*
X123226Y101276D01*
X122886Y101079D01*
X122542Y100889D01*
X122194Y100708D01*
X121841Y100536D01*
X121484Y100373D01*
X121123Y100218D01*
X120758Y100072D01*
X120390Y99935D01*
X120019Y99808D01*
X119645Y99689D01*
X119267Y99580D01*
X118888Y99479D01*
X118506Y99389D01*
X118121Y99307D01*
X117735Y99236D01*
X117348Y99173D01*
X116959Y99120D01*
X116568Y99077D01*
X116177Y99043D01*
X115785Y99019D01*
X115393Y99005D01*
X115000Y99000D01*
X114607Y99005D01*
X114215Y99019D01*
X113823Y99043D01*
X113432Y99077D01*
X113041Y99120D01*
X112652Y99173D01*
X112265Y99236D01*
X111879Y99307D01*
X111494Y99389D01*
X111112Y99479D01*
X110733Y99580D01*
X110355Y99689D01*
X109981Y99808D01*
X109610Y99935D01*
X109242Y100072D01*
X108877Y100218D01*
X108516Y100373D01*
X108159Y100536D01*
X107806Y100708D01*
X107458Y100889D01*
X107114Y101079D01*
X106774Y101276D01*
X106440Y101482D01*
X106111Y101696D01*
X105787Y101919D01*
X105469Y102149D01*
X105156Y102386D01*
X104850Y102632D01*
X104549Y102885D01*
X104255Y103145D01*
X103967Y103412D01*
X103686Y103686D01*
X103412Y103967D01*
X103145Y104255D01*
X102885Y104549D01*
X102632Y104850D01*
X102386Y105156D01*
X102149Y105469D01*
X101919Y105787D01*
X101696Y106111D01*
X101482Y106440D01*
X101276Y106774D01*
X101079Y107114D01*
X100889Y107458D01*
X100708Y107806D01*
X100536Y108159D01*
X100373Y108516D01*
X100218Y108877D01*
X100072Y109242D01*
X99935Y109610D01*
X99808Y109981D01*
X99689Y110355D01*
X99580Y110733D01*
X99479Y111112D01*
X99389Y111494D01*
X99307Y111879D01*
X99236Y112265D01*
X99173Y112652D01*
X99120Y113041D01*
X99077Y113432D01*
X99043Y113823D01*
X99019Y114215D01*
X99005Y114607D01*
X99000Y115000D01*
X474000Y115000D02*
X474005Y115393D01*
X474019Y115785D01*
X474043Y116177D01*
X474077Y116568D01*
X474120Y116959D01*
X474173Y117348D01*
X474236Y117735D01*
X474307Y118121D01*
X474389Y118506D01*
X474479Y118888D01*
X474580Y119267D01*
X474689Y119645D01*
X474808Y120019D01*
X474935Y120390D01*
X475072Y120758D01*
X475218Y121123D01*
X475373Y121484D01*
X475536Y121841D01*
X475708Y122194D01*
X475889Y122542D01*
X476079Y122886D01*
X476276Y123226D01*
X476482Y123560D01*
X476696Y123889D01*
X476919Y124213D01*
X477149Y124531D01*
X477386Y124844D01*
X477632Y125150D01*
X477885Y125451D01*
X478145Y125745D01*
X478412Y126033D01*
X478686Y126314D01*
X478967Y126588D01*
X479255Y126855D01*
X479549Y127115D01*
X479850Y127368D01*
X480156Y127614D01*
X480469Y127851D01*
X480787Y128081D01*
X481111Y128304D01*
X481440Y128518D01*
X481774Y128724D01*
X482114Y128921D01*
X482458Y129111D01*
X482806Y129292D01*
X483159Y129464D01*
X483516Y129627D01*
X483877Y129782D01*
X484242Y129928D01*
X484610Y130065D01*
X484981Y130192D01*
X485355Y130311D01*
X485733Y130420D01*
X486112Y130521D01*
X486494Y130611D01*
X486879Y130693D01*
X487265Y130764D01*
X487652Y130827D01*
X488041Y130880D01*
X488432Y130923D01*
X488823Y130957D01*
X489215Y130981D01*
X489607Y130995D01*
X490000Y131000D01*
X490393Y130995D01*
X490785Y130981D01*
X491177Y130957D01*
X491568Y130923D01*
X491959Y130880D01*
X492348Y130827D01*
X492735Y130764D01*
X493121Y130693D01*
X493506Y130611D01*
X493888Y130521D01*
X494267Y130420D01*
X494645Y130311D01*
X495019Y130192D01*
X495390Y130065D01*
X495758Y129928D01*
X496123Y129782D01*
X496484Y129627D01*
X496841Y129464D01*
X497194Y129292D01*
X497542Y129111D01*
X497886Y128921D01*
X498226Y128724D01*
X498560Y128518D01*
X498889Y128304D01*
X499213Y128081D01*
X499531Y127851D01*
X499844Y127614D01*
X500150Y127368D01*
X500451Y127115D01*
X500745Y126855D01*
X501033Y126588D01*
X501314Y126314D01*
X501588Y126033D01*
X501855Y125745D01*
X502115Y125451D01*
X502368Y125150D01*
X502614Y124844D01*
X502851Y124531D01*
X503081Y124213D01*
X503304Y123889D01*
X503518Y123560D01*
X503724Y123226D01*
X503921Y122886D01*
X504111Y122542D01*
X504292Y122194D01*
X504464Y121841D01*
X504627Y121484D01*
X504782Y121123D01*
X504928Y120758D01*
X505065Y120390D01*
X505192Y120019D01*
X505311Y119645D01*
X505420Y119267D01*
X505521Y118888D01*
X505611Y118506D01*
X505693Y118121D01*
X505764Y117735D01*
X505827Y117348D01*
X505880Y116959D01*
X505923Y116568D01*
X505957Y116177D01*
X505981Y115785D01*
X505995Y115393D01*
X506000Y115000D01*
X505995Y114607D01*
X505981Y114215D01*
X505957Y113823D01*
X505923Y113432D01*
X505880Y113041D01*
X505827Y112652D01*
X505764Y112265D01*
X505693Y111879D01*
X505611Y111494D01*
X505521Y111112D01*
X505420Y110733D01*
X505311Y110355D01*
X505192Y109981D01*
X505065Y109610D01*
X504928Y109242D01*
X504782Y108877D01*
X504627Y108516D01*
X504464Y108159D01*
X504292Y107806D01*
X504111Y107458D01*
X503921Y107114D01*
X503724Y106774D01*
X503518Y106440D01*
X503304Y106111D01*
X503081Y105787D01*
X502851Y105469D01*
X502614Y105156D01*
X502368Y104850D01*
X502115Y104549D01*
X501855Y104255D01*
X501588Y103967D01*
X501314Y103686D01*
X501033Y103412D01*
X500745Y103145D01*
X500451Y102885D01*
X500150Y102632D01*
X499844Y102386D01*
X499531Y102149D01*
X499213Y101919D01*
X498889Y101696D01*
X498560Y101482D01*
X498226Y101276D01*
X497886Y101079D01*
X497542Y100889D01*
X497194Y100708D01*
X496841Y100536D01*
X496484Y100373D01*
X496123Y100218D01*
X495758Y100072D01*
X495390Y99935D01*
X495019Y99808D01*
X494645Y99689D01*
X494267Y99580D01*
X493888Y99479D01*
X493506Y99389D01*
X493121Y99307D01*
X492735Y99236D01*
X492348Y99173D01*
X491959Y99120D01*
X491568Y99077D01*
X491177Y99043D01*
X490785Y99019D01*
X490393Y99005D01*
X490000Y99000D01*
X489607Y99005D01*
X489215Y99019D01*
X488823Y99043D01*
X488432Y99077D01*
X488041Y99120D01*
X487652Y99173D01*
X487265Y99236D01*
X486879Y99307D01*
X486494Y99389D01*
X486112Y99479D01*
X485733Y99580D01*
X485355Y99689D01*
X484981Y99808D01*
X484610Y99935D01*
X484242Y100072D01*
X483877Y100218D01*
X483516Y100373D01*
X483159Y100536D01*
X482806Y100708D01*
X482458Y100889D01*
X482114Y101079D01*
X481774Y101276D01*
X481440Y101482D01*
X481111Y101696D01*
X480787Y101919D01*
X480469Y102149D01*
X480156Y102386D01*
X479850Y102632D01*
X479549Y102885D01*
X479255Y103145D01*
X478967Y103412D01*
X478686Y103686D01*
X478412Y103967D01*
X478145Y104255D01*
X477885Y104549D01*
X477632Y104850D01*
X477386Y105156D01*
X477149Y105469D01*
X476919Y105787D01*
X476696Y106111D01*
X476482Y106440D01*
X476276Y106774D01*
X476079Y107114D01*
X475889Y107458D01*
X475708Y107806D01*
X475536Y108159D01*
X475373Y108516D01*
X475218Y108877D01*
X475072Y109242D01*
X474935Y109610D01*
X474808Y109981D01*
X474689Y110355D01*
X474580Y110733D01*
X474479Y111112D01*
X474389Y111494D01*
X474307Y111879D01*
X474236Y112265D01*
X474173Y112652D01*
X474120Y113041D01*
X474077Y113432D01*
X474043Y113823D01*
X474019Y114215D01*
X474005Y114607D01*
X474000Y115000D01*
D12*
X51594Y58876D02*
X48120Y58876D01*
X46383Y57139D01*
X46383Y50190D01*
X48120Y48453D01*
X51594Y48453D01*
X53332Y50190D01*
X53332Y57139D01*
X51594Y58876D01*
X58077Y55402D02*
X58077Y44979D01*
X58077Y55402D02*
X63288Y55402D01*
X65026Y53664D01*
X65026Y50190D01*
X63288Y48453D01*
X58077Y48453D01*
X71508Y48453D02*
X74982Y48453D01*
X71508Y48453D02*
X69771Y50190D01*
X69771Y53664D01*
X71508Y55402D01*
X74982Y55402D01*
X76720Y53664D01*
X76720Y51927D01*
X69771Y51927D01*
X81465Y48453D02*
X81465Y55402D01*
X86676Y55402D01*
X88414Y53664D01*
X88414Y48453D01*
X93159Y58876D02*
X100107Y58876D01*
X93159Y58876D02*
X93159Y48453D01*
X100107Y48453D01*
X96633Y53664D02*
X93159Y53664D01*
X104853Y51927D02*
X104853Y58876D01*
X104853Y51927D02*
X108327Y48453D01*
X111801Y51927D01*
X111801Y58876D01*
X121758Y58876D02*
X123495Y57139D01*
X121758Y58876D02*
X118284Y58876D01*
X116547Y57139D01*
X116547Y55402D01*
X118284Y53664D01*
X121758Y53664D01*
X123495Y51927D01*
X123495Y50190D01*
X121758Y48453D01*
X118284Y48453D01*
X116547Y50190D01*
X128241Y58876D02*
X135189Y58876D01*
X128241Y58876D02*
X128241Y48453D01*
X135189Y48453D01*
X131715Y53664D02*
X128241Y53664D01*
X46383Y36352D02*
X46383Y29403D01*
X46383Y36352D02*
X49857Y39826D01*
X53332Y36352D01*
X53332Y29403D01*
X53332Y34614D02*
X46383Y34614D01*
X63288Y39826D02*
X65026Y38089D01*
X63288Y39826D02*
X59814Y39826D01*
X58077Y38089D01*
X58077Y31140D01*
X59814Y29403D01*
X63288Y29403D01*
X65026Y31140D01*
X81465Y29403D02*
X81465Y39826D01*
X88414Y39826D01*
X84939Y34614D02*
X81465Y34614D01*
X93159Y36352D02*
X94896Y36352D01*
X94896Y29403D01*
X93159Y29403D02*
X96633Y29403D01*
X94896Y39826D02*
X94896Y41563D01*
X100955Y39826D02*
X102692Y39826D01*
X102692Y29403D01*
X100955Y29403D02*
X104429Y29403D01*
X110488Y31140D02*
X110488Y38089D01*
X110488Y31140D02*
X112225Y29403D01*
X112225Y36352D02*
X108751Y36352D01*
X118284Y29403D02*
X121758Y29403D01*
X118284Y29403D02*
X116547Y31140D01*
X116547Y34614D01*
X118284Y36352D01*
X121758Y36352D01*
X123495Y34614D01*
X123495Y32877D01*
X116547Y32877D01*
X128241Y29403D02*
X128241Y36352D01*
X131715Y36352D02*
X128241Y32877D01*
X131715Y36352D02*
X133452Y36352D01*
X46383Y20776D02*
X46383Y13827D01*
X49857Y10353D01*
X53332Y13827D01*
X53332Y20776D01*
X58077Y10353D02*
X65026Y10353D01*
X58077Y10353D02*
X65026Y17302D01*
X65026Y19039D01*
X63288Y20776D01*
X59814Y20776D01*
X58077Y19039D01*
X69771Y12090D02*
X69771Y10353D01*
X69771Y12090D02*
X71508Y12090D01*
X71508Y10353D01*
X69771Y10353D01*
X75618Y12090D02*
X75618Y19039D01*
X77355Y20776D01*
X80829Y20776D01*
X82567Y19039D01*
X82567Y12090D01*
X80829Y10353D01*
X77355Y10353D01*
X75618Y12090D01*
X82567Y19039D01*
X141143Y140193D02*
X141143Y150616D01*
X141143Y140193D02*
X148092Y140193D01*
X152837Y147142D02*
X156311Y150616D01*
X156311Y140193D01*
X152837Y140193D02*
X159786Y140193D01*
X576143Y40616D02*
X576143Y30193D01*
X583092Y30193D01*
X587837Y37142D02*
X591311Y40616D01*
X591311Y30193D01*
X587837Y30193D02*
X594786Y30193D01*
X576143Y21566D02*
X576143Y11143D01*
X576143Y21566D02*
X581354Y21566D01*
X583092Y19829D01*
X583092Y18092D01*
X581354Y16354D01*
X583092Y14617D01*
X583092Y12880D01*
X581354Y11143D01*
X576143Y11143D01*
X576143Y16354D02*
X581354Y16354D01*
X587837Y11143D02*
X587837Y21566D01*
X593048Y21566D01*
X594786Y19829D01*
X594786Y16354D01*
X593048Y14617D01*
X587837Y14617D01*
X591311Y14617D02*
X594786Y11143D01*
X601268Y21566D02*
X604742Y21566D01*
X601268Y21566D02*
X599531Y19829D01*
X599531Y12880D01*
X601268Y11143D01*
X604742Y11143D01*
X606480Y12880D01*
X606480Y19829D01*
X604742Y21566D01*
X611225Y21566D02*
X611225Y11143D01*
X614699Y14617D01*
X618174Y11143D01*
X618174Y21566D01*
X622919Y21566D02*
X622919Y11143D01*
X629867Y11143D02*
X622919Y21566D01*
X629867Y21566D02*
X629867Y11143D01*
X41143Y136143D02*
X41143Y146566D01*
X48092Y136143D01*
X48092Y146566D01*
X446143Y105616D02*
X446143Y95193D01*
X453092Y95193D02*
X446143Y105616D01*
X453092Y105616D02*
X453092Y95193D01*
X446143Y86566D02*
X446143Y76143D01*
X446143Y86566D02*
X451354Y86566D01*
X453092Y84829D01*
X453092Y83092D01*
X451354Y81354D01*
X453092Y79617D01*
X453092Y77880D01*
X451354Y76143D01*
X446143Y76143D01*
X446143Y81354D02*
X451354Y81354D01*
X457837Y76143D02*
X457837Y86566D01*
X457837Y76143D02*
X464786Y76143D01*
X469531Y77880D02*
X469531Y86566D01*
X469531Y77880D02*
X471268Y76143D01*
X474742Y76143D01*
X476480Y77880D01*
X476480Y86566D01*
X481225Y86566D02*
X488174Y86566D01*
X481225Y86566D02*
X481225Y76143D01*
X488174Y76143D01*
X484699Y81354D02*
X481225Y81354D01*
D13*
X47709Y93132D02*
X40760Y93132D01*
X37286Y89658D01*
X37286Y75760D01*
X40760Y72286D01*
X47709Y72286D01*
X51183Y75760D01*
X51183Y89658D01*
X47709Y93132D01*
X60674Y93132D02*
X60674Y75760D01*
X64148Y72286D01*
X71097Y72286D01*
X74571Y75760D01*
X74571Y93132D01*
X91011Y93132D02*
X91011Y72286D01*
X84062Y93132D02*
X97959Y93132D01*
X617286Y102286D02*
X624235Y102286D01*
X620760Y102286D02*
X620760Y123132D01*
X617286Y123132D02*
X624235Y123132D01*
X632878Y123132D02*
X632878Y102286D01*
X646775Y102286D02*
X632878Y123132D01*
X646775Y123132D02*
X646775Y102286D01*
D12*
X91143Y136143D02*
X91143Y146566D01*
X98092Y136143D01*
X98092Y146566D01*
X108048Y146566D02*
X109786Y144829D01*
X108048Y146566D02*
X104574Y146566D01*
X102837Y144829D01*
X102837Y137880D01*
X104574Y136143D01*
X108048Y136143D01*
X109786Y137880D01*
X501143Y86566D02*
X501143Y76143D01*
X508092Y76143D02*
X501143Y86566D01*
X508092Y86566D02*
X508092Y76143D01*
X518048Y86566D02*
X519786Y84829D01*
X518048Y86566D02*
X514574Y86566D01*
X512837Y84829D01*
X512837Y77880D01*
X514574Y76143D01*
X518048Y76143D01*
X519786Y77880D01*
D14*
X377745Y215700D02*
X220816Y215700D01*
X377745Y215701D02*
X378616Y215690D01*
X379487Y215659D01*
X380357Y215606D01*
X381225Y215533D01*
X382091Y215438D01*
X382955Y215323D01*
X383815Y215186D01*
X384672Y215029D01*
X385525Y214852D01*
X386374Y214653D01*
X387217Y214435D01*
X388055Y214196D01*
X388887Y213936D01*
X389712Y213657D01*
X390531Y213358D01*
X391342Y213039D01*
X392144Y212701D01*
X392939Y212343D01*
X393725Y211967D01*
X394501Y211571D01*
X395268Y211157D01*
X396024Y210724D01*
X396770Y210273D01*
X397504Y209805D01*
X398227Y209319D01*
X398938Y208815D01*
X399637Y208294D01*
X400323Y207757D01*
X400995Y207203D01*
X401655Y206633D01*
X402300Y206048D01*
X402931Y205447D01*
X403547Y204831D01*
X404148Y204200D01*
X404733Y203555D01*
X405303Y202895D01*
X405857Y202223D01*
X406394Y201537D01*
X406915Y200838D01*
X407419Y200127D01*
X407905Y199404D01*
X408373Y198670D01*
X408824Y197924D01*
X409257Y197168D01*
X409671Y196401D01*
X410067Y195625D01*
X410443Y194839D01*
X410801Y194044D01*
X411139Y193242D01*
X411458Y192431D01*
X411757Y191612D01*
X412036Y190787D01*
X412296Y189955D01*
X412535Y189117D01*
X412753Y188274D01*
X412952Y187425D01*
X413129Y186572D01*
X413286Y185715D01*
X413423Y184855D01*
X413538Y183991D01*
X413633Y183125D01*
X413706Y182257D01*
X413759Y181387D01*
X413790Y180516D01*
X413801Y179645D01*
X413800Y179645D02*
X413800Y34241D01*
X413790Y33431D01*
X413761Y32621D01*
X413712Y31811D01*
X413643Y31004D01*
X413555Y30198D01*
X413448Y29395D01*
X413321Y28594D01*
X413175Y27797D01*
X413010Y27003D01*
X412825Y26214D01*
X412622Y25430D01*
X412400Y24650D01*
X412158Y23876D01*
X411899Y23108D01*
X411620Y22347D01*
X411324Y21593D01*
X411009Y20846D01*
X410676Y20107D01*
X410326Y19376D01*
X409958Y18654D01*
X409573Y17941D01*
X409170Y17237D01*
X408751Y16543D01*
X408315Y15860D01*
X407863Y15188D01*
X407394Y14526D01*
X406910Y13876D01*
X406410Y13238D01*
X405895Y12612D01*
X405365Y11999D01*
X404820Y11399D01*
X404261Y10812D01*
X403688Y10239D01*
X403101Y9680D01*
X402501Y9135D01*
X401888Y8605D01*
X401262Y8090D01*
X400624Y7590D01*
X399974Y7106D01*
X399312Y6637D01*
X398640Y6185D01*
X397957Y5749D01*
X397263Y5330D01*
X396559Y4927D01*
X395846Y4542D01*
X395124Y4174D01*
X394393Y3824D01*
X393654Y3491D01*
X392907Y3176D01*
X392153Y2880D01*
X391392Y2601D01*
X390624Y2342D01*
X389850Y2100D01*
X389070Y1878D01*
X388286Y1675D01*
X387497Y1490D01*
X386703Y1325D01*
X385906Y1179D01*
X385105Y1052D01*
X384302Y945D01*
X383496Y857D01*
X382689Y788D01*
X381879Y739D01*
X381069Y710D01*
X380259Y700D01*
X224155Y700D01*
X223301Y710D01*
X222447Y741D01*
X221594Y793D01*
X220743Y865D01*
X219893Y958D01*
X219047Y1071D01*
X218203Y1205D01*
X217362Y1359D01*
X216526Y1533D01*
X215694Y1727D01*
X214867Y1942D01*
X214045Y2176D01*
X213230Y2430D01*
X212420Y2704D01*
X211618Y2998D01*
X210823Y3310D01*
X210035Y3642D01*
X209256Y3992D01*
X208486Y4362D01*
X207725Y4750D01*
X206973Y5156D01*
X206231Y5580D01*
X205500Y6022D01*
X204780Y6482D01*
X204071Y6958D01*
X203374Y7452D01*
X202689Y7963D01*
X202016Y8490D01*
X201357Y9033D01*
X200710Y9591D01*
X200078Y10166D01*
X199459Y10755D01*
X198855Y11359D01*
X198266Y11978D01*
X197691Y12610D01*
X197133Y13257D01*
X196590Y13916D01*
X196063Y14589D01*
X195552Y15274D01*
X195058Y15971D01*
X194582Y16680D01*
X194122Y17400D01*
X193680Y18131D01*
X193256Y18873D01*
X192850Y19625D01*
X192462Y20386D01*
X192092Y21156D01*
X191742Y21935D01*
X191410Y22723D01*
X191098Y23518D01*
X190804Y24320D01*
X190530Y25130D01*
X190276Y25945D01*
X190042Y26767D01*
X189827Y27594D01*
X189633Y28426D01*
X189459Y29262D01*
X189305Y30103D01*
X189171Y30947D01*
X189058Y31793D01*
X188965Y32643D01*
X188893Y33494D01*
X188841Y34347D01*
X188810Y35201D01*
X188800Y36055D01*
X188800Y183684D01*
X188809Y184458D01*
X188837Y185231D01*
X188884Y186003D01*
X188949Y186774D01*
X189033Y187543D01*
X189136Y188310D01*
X189257Y189074D01*
X189396Y189835D01*
X189554Y190593D01*
X189730Y191346D01*
X189925Y192095D01*
X190137Y192839D01*
X190367Y193577D01*
X190615Y194310D01*
X190881Y195037D01*
X191164Y195757D01*
X191464Y196470D01*
X191782Y197176D01*
X192116Y197873D01*
X192467Y198563D01*
X192835Y199243D01*
X193219Y199915D01*
X193619Y200577D01*
X194036Y201229D01*
X194467Y201871D01*
X194915Y202503D01*
X195377Y203123D01*
X195854Y203732D01*
X196346Y204329D01*
X196852Y204915D01*
X197372Y205487D01*
X197905Y206048D01*
X198452Y206595D01*
X199013Y207128D01*
X199585Y207648D01*
X200171Y208154D01*
X200768Y208646D01*
X201377Y209123D01*
X201997Y209585D01*
X202629Y210033D01*
X203271Y210464D01*
X203923Y210881D01*
X204585Y211281D01*
X205257Y211665D01*
X205937Y212033D01*
X206627Y212384D01*
X207324Y212718D01*
X208030Y213036D01*
X208743Y213336D01*
X209463Y213619D01*
X210190Y213885D01*
X210923Y214133D01*
X211661Y214363D01*
X212405Y214575D01*
X213154Y214770D01*
X213907Y214946D01*
X214665Y215104D01*
X215426Y215243D01*
X216190Y215364D01*
X216957Y215467D01*
X217726Y215551D01*
X218497Y215616D01*
X219269Y215663D01*
X220042Y215691D01*
X220816Y215700D01*
X275173Y108700D02*
X275181Y109353D01*
X275205Y110007D01*
X275245Y110659D01*
X275301Y111310D01*
X275373Y111959D01*
X275461Y112607D01*
X275565Y113252D01*
X275685Y113895D01*
X275820Y114534D01*
X275971Y115170D01*
X276138Y115802D01*
X276320Y116429D01*
X276517Y117052D01*
X276730Y117670D01*
X276957Y118283D01*
X277200Y118890D01*
X277457Y119490D01*
X277729Y120085D01*
X278016Y120672D01*
X278317Y121252D01*
X278632Y121824D01*
X278961Y122389D01*
X279304Y122945D01*
X279660Y123493D01*
X280030Y124032D01*
X280413Y124562D01*
X280809Y125082D01*
X281217Y125592D01*
X281638Y126092D01*
X282071Y126582D01*
X282515Y127060D01*
X282972Y127528D01*
X283440Y127985D01*
X283918Y128429D01*
X284408Y128862D01*
X284908Y129283D01*
X285418Y129691D01*
X285938Y130087D01*
X286468Y130470D01*
X287007Y130840D01*
X287555Y131196D01*
X288111Y131539D01*
X288676Y131868D01*
X289248Y132183D01*
X289828Y132484D01*
X290415Y132771D01*
X291010Y133043D01*
X291610Y133300D01*
X292217Y133543D01*
X292830Y133770D01*
X293448Y133983D01*
X294071Y134180D01*
X294698Y134362D01*
X295330Y134529D01*
X295966Y134680D01*
X296605Y134815D01*
X297248Y134935D01*
X297893Y135039D01*
X298541Y135127D01*
X299190Y135199D01*
X299841Y135255D01*
X300493Y135295D01*
X301147Y135319D01*
X301800Y135327D01*
X302453Y135319D01*
X303107Y135295D01*
X303759Y135255D01*
X304410Y135199D01*
X305059Y135127D01*
X305707Y135039D01*
X306352Y134935D01*
X306995Y134815D01*
X307634Y134680D01*
X308270Y134529D01*
X308902Y134362D01*
X309529Y134180D01*
X310152Y133983D01*
X310770Y133770D01*
X311383Y133543D01*
X311990Y133300D01*
X312590Y133043D01*
X313185Y132771D01*
X313772Y132484D01*
X314352Y132183D01*
X314924Y131868D01*
X315489Y131539D01*
X316045Y131196D01*
X316593Y130840D01*
X317132Y130470D01*
X317662Y130087D01*
X318182Y129691D01*
X318692Y129283D01*
X319192Y128862D01*
X319682Y128429D01*
X320160Y127985D01*
X320628Y127528D01*
X321085Y127060D01*
X321529Y126582D01*
X321962Y126092D01*
X322383Y125592D01*
X322791Y125082D01*
X323187Y124562D01*
X323570Y124032D01*
X323940Y123493D01*
X324296Y122945D01*
X324639Y122389D01*
X324968Y121824D01*
X325283Y121252D01*
X325584Y120672D01*
X325871Y120085D01*
X326143Y119490D01*
X326400Y118890D01*
X326643Y118283D01*
X326870Y117670D01*
X327083Y117052D01*
X327280Y116429D01*
X327462Y115802D01*
X327629Y115170D01*
X327780Y114534D01*
X327915Y113895D01*
X328035Y113252D01*
X328139Y112607D01*
X328227Y111959D01*
X328299Y111310D01*
X328355Y110659D01*
X328395Y110007D01*
X328419Y109353D01*
X328427Y108700D01*
X328419Y108047D01*
X328395Y107393D01*
X328355Y106741D01*
X328299Y106090D01*
X328227Y105441D01*
X328139Y104793D01*
X328035Y104148D01*
X327915Y103505D01*
X327780Y102866D01*
X327629Y102230D01*
X327462Y101598D01*
X327280Y100971D01*
X327083Y100348D01*
X326870Y99730D01*
X326643Y99117D01*
X326400Y98510D01*
X326143Y97910D01*
X325871Y97315D01*
X325584Y96728D01*
X325283Y96148D01*
X324968Y95576D01*
X324639Y95011D01*
X324296Y94455D01*
X323940Y93907D01*
X323570Y93368D01*
X323187Y92838D01*
X322791Y92318D01*
X322383Y91808D01*
X321962Y91308D01*
X321529Y90818D01*
X321085Y90340D01*
X320628Y89872D01*
X320160Y89415D01*
X319682Y88971D01*
X319192Y88538D01*
X318692Y88117D01*
X318182Y87709D01*
X317662Y87313D01*
X317132Y86930D01*
X316593Y86560D01*
X316045Y86204D01*
X315489Y85861D01*
X314924Y85532D01*
X314352Y85217D01*
X313772Y84916D01*
X313185Y84629D01*
X312590Y84357D01*
X311990Y84100D01*
X311383Y83857D01*
X310770Y83630D01*
X310152Y83417D01*
X309529Y83220D01*
X308902Y83038D01*
X308270Y82871D01*
X307634Y82720D01*
X306995Y82585D01*
X306352Y82465D01*
X305707Y82361D01*
X305059Y82273D01*
X304410Y82201D01*
X303759Y82145D01*
X303107Y82105D01*
X302453Y82081D01*
X301800Y82073D01*
X301147Y82081D01*
X300493Y82105D01*
X299841Y82145D01*
X299190Y82201D01*
X298541Y82273D01*
X297893Y82361D01*
X297248Y82465D01*
X296605Y82585D01*
X295966Y82720D01*
X295330Y82871D01*
X294698Y83038D01*
X294071Y83220D01*
X293448Y83417D01*
X292830Y83630D01*
X292217Y83857D01*
X291610Y84100D01*
X291010Y84357D01*
X290415Y84629D01*
X289828Y84916D01*
X289248Y85217D01*
X288676Y85532D01*
X288111Y85861D01*
X287555Y86204D01*
X287007Y86560D01*
X286468Y86930D01*
X285938Y87313D01*
X285418Y87709D01*
X284908Y88117D01*
X284408Y88538D01*
X283918Y88971D01*
X283440Y89415D01*
X282972Y89872D01*
X282515Y90340D01*
X282071Y90818D01*
X281638Y91308D01*
X281217Y91808D01*
X280809Y92318D01*
X280413Y92838D01*
X280030Y93368D01*
X279660Y93907D01*
X279304Y94455D01*
X278961Y95011D01*
X278632Y95576D01*
X278317Y96148D01*
X278016Y96728D01*
X277729Y97315D01*
X277457Y97910D01*
X277200Y98510D01*
X276957Y99117D01*
X276730Y99730D01*
X276517Y100348D01*
X276320Y100971D01*
X276138Y101598D01*
X275971Y102230D01*
X275820Y102866D01*
X275685Y103505D01*
X275565Y104148D01*
X275461Y104793D01*
X275373Y105441D01*
X275301Y106090D01*
X275245Y106741D01*
X275205Y107393D01*
X275181Y108047D01*
X275173Y108700D01*
X328800Y170700D02*
X388800Y170700D01*
X328800Y170700D02*
X328800Y160700D01*
X328800Y170700D02*
X328800Y180700D01*
X273800Y180700D01*
X273800Y170700D01*
X273800Y160700D01*
X328800Y160700D01*
X273800Y170700D02*
X213800Y170700D01*
X328800Y45700D02*
X388800Y45700D01*
X328800Y45700D02*
X328800Y35700D01*
X328800Y45700D02*
X328800Y55700D01*
X273800Y55700D01*
X273800Y45700D01*
X273800Y35700D01*
X328800Y35700D01*
X273800Y45700D02*
X213800Y45700D01*
X375700Y22376D02*
X375700Y215440D01*
X375700Y22376D02*
X375694Y21917D01*
X375678Y21459D01*
X375650Y21001D01*
X375611Y20545D01*
X375562Y20089D01*
X375501Y19634D01*
X375429Y19181D01*
X375346Y18730D01*
X375253Y18281D01*
X375149Y17835D01*
X375033Y17391D01*
X374908Y16950D01*
X374771Y16512D01*
X374624Y16078D01*
X374467Y15647D01*
X374299Y15220D01*
X374121Y14798D01*
X373933Y14379D01*
X373735Y13966D01*
X373526Y13557D01*
X373308Y13154D01*
X373081Y12756D01*
X372844Y12363D01*
X372597Y11977D01*
X372341Y11596D01*
X372076Y11222D01*
X371802Y10854D01*
X371519Y10494D01*
X371228Y10139D01*
X370928Y9793D01*
X370620Y9453D01*
X370303Y9121D01*
X369979Y8797D01*
X369647Y8480D01*
X369307Y8172D01*
X368961Y7872D01*
X368606Y7581D01*
X368246Y7298D01*
X367878Y7024D01*
X367504Y6759D01*
X367123Y6503D01*
X366737Y6256D01*
X366344Y6019D01*
X365946Y5792D01*
X365543Y5574D01*
X365134Y5365D01*
X364721Y5167D01*
X364302Y4979D01*
X363880Y4801D01*
X363453Y4633D01*
X363022Y4476D01*
X362588Y4329D01*
X362150Y4192D01*
X361709Y4067D01*
X361265Y3951D01*
X360819Y3847D01*
X360370Y3754D01*
X359919Y3671D01*
X359466Y3599D01*
X359011Y3538D01*
X358555Y3489D01*
X358099Y3450D01*
X357641Y3422D01*
X357183Y3406D01*
X356724Y3400D01*
X241506Y3400D01*
X241003Y3406D01*
X240501Y3424D01*
X239999Y3455D01*
X239498Y3497D01*
X238998Y3552D01*
X238500Y3618D01*
X238003Y3697D01*
X237509Y3788D01*
X237016Y3890D01*
X236527Y4005D01*
X236040Y4131D01*
X235557Y4269D01*
X235077Y4418D01*
X234600Y4579D01*
X234128Y4752D01*
X233660Y4936D01*
X233197Y5131D01*
X232738Y5338D01*
X232285Y5555D01*
X231837Y5783D01*
X231395Y6022D01*
X230958Y6272D01*
X230528Y6532D01*
X230104Y6802D01*
X229687Y7083D01*
X229277Y7374D01*
X228873Y7674D01*
X228478Y7984D01*
X228089Y8304D01*
X227709Y8632D01*
X227337Y8970D01*
X226973Y9317D01*
X226617Y9673D01*
X226270Y10037D01*
X225932Y10409D01*
X225604Y10789D01*
X225284Y11178D01*
X224974Y11573D01*
X224674Y11977D01*
X224383Y12387D01*
X224102Y12804D01*
X223832Y13228D01*
X223572Y13658D01*
X223322Y14095D01*
X223083Y14537D01*
X222855Y14985D01*
X222638Y15438D01*
X222431Y15897D01*
X222236Y16360D01*
X222052Y16828D01*
X221879Y17300D01*
X221718Y17777D01*
X221569Y18257D01*
X221431Y18740D01*
X221305Y19227D01*
X221190Y19716D01*
X221088Y20209D01*
X220997Y20703D01*
X220918Y21200D01*
X220852Y21698D01*
X220797Y22198D01*
X220755Y22699D01*
X220724Y23201D01*
X220706Y23703D01*
X220700Y24206D01*
X220700Y213516D01*
X220706Y213996D01*
X220723Y214477D01*
X220752Y214956D01*
X220793Y215435D01*
X220845Y215913D01*
X220909Y216389D01*
X220984Y216864D01*
X221070Y217336D01*
X221168Y217807D01*
X221278Y218275D01*
X221398Y218740D01*
X221530Y219202D01*
X221673Y219660D01*
X221827Y220116D01*
X221992Y220567D01*
X222168Y221014D01*
X222355Y221457D01*
X222552Y221895D01*
X222759Y222328D01*
X222978Y222757D01*
X223206Y223179D01*
X223445Y223596D01*
X223693Y224008D01*
X223952Y224413D01*
X224220Y224811D01*
X224498Y225204D01*
X224785Y225589D01*
X225081Y225967D01*
X225386Y226338D01*
X225701Y226702D01*
X226024Y227057D01*
X226355Y227405D01*
X226695Y227745D01*
X227043Y228076D01*
X227398Y228399D01*
X227762Y228714D01*
X228133Y229019D01*
X228511Y229315D01*
X228896Y229602D01*
X229289Y229880D01*
X229687Y230148D01*
X230092Y230407D01*
X230504Y230655D01*
X230921Y230894D01*
X231343Y231122D01*
X231772Y231341D01*
X232205Y231548D01*
X232643Y231745D01*
X233086Y231932D01*
X233533Y232108D01*
X233984Y232273D01*
X234440Y232427D01*
X234898Y232570D01*
X235360Y232702D01*
X235825Y232822D01*
X236293Y232932D01*
X236764Y233030D01*
X237236Y233116D01*
X237711Y233191D01*
X238187Y233255D01*
X238665Y233307D01*
X239144Y233348D01*
X239623Y233377D01*
X240104Y233394D01*
X240584Y233400D01*
X357740Y233400D01*
X357740Y233401D02*
X358174Y233396D01*
X358608Y233380D01*
X359041Y233354D01*
X359473Y233317D01*
X359905Y233270D01*
X360335Y233213D01*
X360764Y233145D01*
X361191Y233066D01*
X361616Y232978D01*
X362038Y232879D01*
X362458Y232770D01*
X362876Y232651D01*
X363290Y232522D01*
X363701Y232383D01*
X364109Y232234D01*
X364513Y232075D01*
X364913Y231907D01*
X365309Y231728D01*
X365700Y231541D01*
X366087Y231344D01*
X366469Y231137D01*
X366846Y230922D01*
X367217Y230697D01*
X367583Y230464D01*
X367943Y230222D01*
X368297Y229971D01*
X368645Y229711D01*
X368987Y229444D01*
X369322Y229168D01*
X369650Y228884D01*
X369972Y228592D01*
X370286Y228293D01*
X370593Y227986D01*
X370892Y227672D01*
X371184Y227350D01*
X371468Y227022D01*
X371744Y226687D01*
X372011Y226345D01*
X372271Y225997D01*
X372522Y225643D01*
X372764Y225283D01*
X372997Y224917D01*
X373222Y224546D01*
X373437Y224169D01*
X373644Y223787D01*
X373841Y223400D01*
X374028Y223009D01*
X374207Y222613D01*
X374375Y222213D01*
X374534Y221809D01*
X374683Y221401D01*
X374822Y220990D01*
X374951Y220576D01*
X375070Y220158D01*
X375179Y219738D01*
X375278Y219316D01*
X375366Y218891D01*
X375445Y218464D01*
X375513Y218035D01*
X375570Y217605D01*
X375617Y217173D01*
X375654Y216741D01*
X375680Y216308D01*
X375696Y215874D01*
X375701Y215440D01*
X274073Y118400D02*
X274081Y119053D01*
X274105Y119707D01*
X274145Y120359D01*
X274201Y121010D01*
X274273Y121659D01*
X274361Y122307D01*
X274465Y122952D01*
X274585Y123595D01*
X274720Y124234D01*
X274871Y124870D01*
X275038Y125502D01*
X275220Y126129D01*
X275417Y126752D01*
X275630Y127370D01*
X275857Y127983D01*
X276100Y128590D01*
X276357Y129190D01*
X276629Y129785D01*
X276916Y130372D01*
X277217Y130952D01*
X277532Y131524D01*
X277861Y132089D01*
X278204Y132645D01*
X278560Y133193D01*
X278930Y133732D01*
X279313Y134262D01*
X279709Y134782D01*
X280117Y135292D01*
X280538Y135792D01*
X280971Y136282D01*
X281415Y136760D01*
X281872Y137228D01*
X282340Y137685D01*
X282818Y138129D01*
X283308Y138562D01*
X283808Y138983D01*
X284318Y139391D01*
X284838Y139787D01*
X285368Y140170D01*
X285907Y140540D01*
X286455Y140896D01*
X287011Y141239D01*
X287576Y141568D01*
X288148Y141883D01*
X288728Y142184D01*
X289315Y142471D01*
X289910Y142743D01*
X290510Y143000D01*
X291117Y143243D01*
X291730Y143470D01*
X292348Y143683D01*
X292971Y143880D01*
X293598Y144062D01*
X294230Y144229D01*
X294866Y144380D01*
X295505Y144515D01*
X296148Y144635D01*
X296793Y144739D01*
X297441Y144827D01*
X298090Y144899D01*
X298741Y144955D01*
X299393Y144995D01*
X300047Y145019D01*
X300700Y145027D01*
X301353Y145019D01*
X302007Y144995D01*
X302659Y144955D01*
X303310Y144899D01*
X303959Y144827D01*
X304607Y144739D01*
X305252Y144635D01*
X305895Y144515D01*
X306534Y144380D01*
X307170Y144229D01*
X307802Y144062D01*
X308429Y143880D01*
X309052Y143683D01*
X309670Y143470D01*
X310283Y143243D01*
X310890Y143000D01*
X311490Y142743D01*
X312085Y142471D01*
X312672Y142184D01*
X313252Y141883D01*
X313824Y141568D01*
X314389Y141239D01*
X314945Y140896D01*
X315493Y140540D01*
X316032Y140170D01*
X316562Y139787D01*
X317082Y139391D01*
X317592Y138983D01*
X318092Y138562D01*
X318582Y138129D01*
X319060Y137685D01*
X319528Y137228D01*
X319985Y136760D01*
X320429Y136282D01*
X320862Y135792D01*
X321283Y135292D01*
X321691Y134782D01*
X322087Y134262D01*
X322470Y133732D01*
X322840Y133193D01*
X323196Y132645D01*
X323539Y132089D01*
X323868Y131524D01*
X324183Y130952D01*
X324484Y130372D01*
X324771Y129785D01*
X325043Y129190D01*
X325300Y128590D01*
X325543Y127983D01*
X325770Y127370D01*
X325983Y126752D01*
X326180Y126129D01*
X326362Y125502D01*
X326529Y124870D01*
X326680Y124234D01*
X326815Y123595D01*
X326935Y122952D01*
X327039Y122307D01*
X327127Y121659D01*
X327199Y121010D01*
X327255Y120359D01*
X327295Y119707D01*
X327319Y119053D01*
X327327Y118400D01*
X327319Y117747D01*
X327295Y117093D01*
X327255Y116441D01*
X327199Y115790D01*
X327127Y115141D01*
X327039Y114493D01*
X326935Y113848D01*
X326815Y113205D01*
X326680Y112566D01*
X326529Y111930D01*
X326362Y111298D01*
X326180Y110671D01*
X325983Y110048D01*
X325770Y109430D01*
X325543Y108817D01*
X325300Y108210D01*
X325043Y107610D01*
X324771Y107015D01*
X324484Y106428D01*
X324183Y105848D01*
X323868Y105276D01*
X323539Y104711D01*
X323196Y104155D01*
X322840Y103607D01*
X322470Y103068D01*
X322087Y102538D01*
X321691Y102018D01*
X321283Y101508D01*
X320862Y101008D01*
X320429Y100518D01*
X319985Y100040D01*
X319528Y99572D01*
X319060Y99115D01*
X318582Y98671D01*
X318092Y98238D01*
X317592Y97817D01*
X317082Y97409D01*
X316562Y97013D01*
X316032Y96630D01*
X315493Y96260D01*
X314945Y95904D01*
X314389Y95561D01*
X313824Y95232D01*
X313252Y94917D01*
X312672Y94616D01*
X312085Y94329D01*
X311490Y94057D01*
X310890Y93800D01*
X310283Y93557D01*
X309670Y93330D01*
X309052Y93117D01*
X308429Y92920D01*
X307802Y92738D01*
X307170Y92571D01*
X306534Y92420D01*
X305895Y92285D01*
X305252Y92165D01*
X304607Y92061D01*
X303959Y91973D01*
X303310Y91901D01*
X302659Y91845D01*
X302007Y91805D01*
X301353Y91781D01*
X300700Y91773D01*
X300047Y91781D01*
X299393Y91805D01*
X298741Y91845D01*
X298090Y91901D01*
X297441Y91973D01*
X296793Y92061D01*
X296148Y92165D01*
X295505Y92285D01*
X294866Y92420D01*
X294230Y92571D01*
X293598Y92738D01*
X292971Y92920D01*
X292348Y93117D01*
X291730Y93330D01*
X291117Y93557D01*
X290510Y93800D01*
X289910Y94057D01*
X289315Y94329D01*
X288728Y94616D01*
X288148Y94917D01*
X287576Y95232D01*
X287011Y95561D01*
X286455Y95904D01*
X285907Y96260D01*
X285368Y96630D01*
X284838Y97013D01*
X284318Y97409D01*
X283808Y97817D01*
X283308Y98238D01*
X282818Y98671D01*
X282340Y99115D01*
X281872Y99572D01*
X281415Y100040D01*
X280971Y100518D01*
X280538Y101008D01*
X280117Y101508D01*
X279709Y102018D01*
X279313Y102538D01*
X278930Y103068D01*
X278560Y103607D01*
X278204Y104155D01*
X277861Y104711D01*
X277532Y105276D01*
X277217Y105848D01*
X276916Y106428D01*
X276629Y107015D01*
X276357Y107610D01*
X276100Y108210D01*
X275857Y108817D01*
X275630Y109430D01*
X275417Y110048D01*
X275220Y110671D01*
X275038Y111298D01*
X274871Y111930D01*
X274720Y112566D01*
X274585Y113205D01*
X274465Y113848D01*
X274361Y114493D01*
X274273Y115141D01*
X274201Y115790D01*
X274145Y116441D01*
X274105Y117093D01*
X274081Y117747D01*
X274073Y118400D01*
X235700Y73400D02*
X235700Y63400D01*
X320700Y168400D02*
X345700Y168400D01*
X320700Y168400D02*
X320700Y158400D01*
X320700Y168400D02*
X320700Y178400D01*
X275700Y178400D01*
X275700Y158400D01*
X320700Y158400D01*
X275700Y168400D02*
X250700Y168400D01*
X320700Y68400D02*
X345700Y68400D01*
X320700Y68400D02*
X320700Y58400D01*
X320700Y68400D02*
X320700Y78400D01*
X275700Y78400D01*
X275700Y58400D01*
X320700Y58400D01*
X275700Y68400D02*
X250700Y68400D01*
D15*
X420650Y111352D02*
X427000Y111352D01*
X433350Y111352D01*
D16*
X427000Y111352D02*
X427000Y99160D01*
D15*
X427000Y117702D02*
X420650Y117702D01*
X427000Y117702D02*
X433350Y117702D01*
D16*
X427000Y117702D02*
X427000Y129640D01*
X416840Y77570D02*
X437160Y77570D01*
X439700Y80110D02*
X439700Y148690D01*
X437160Y151230D02*
X416840Y151230D01*
X414300Y148690D02*
X414300Y80110D01*
X414300Y148690D02*
X414302Y148790D01*
X414308Y148889D01*
X414318Y148989D01*
X414331Y149087D01*
X414349Y149186D01*
X414370Y149283D01*
X414395Y149379D01*
X414424Y149475D01*
X414457Y149569D01*
X414493Y149662D01*
X414533Y149753D01*
X414577Y149843D01*
X414624Y149931D01*
X414674Y150017D01*
X414728Y150101D01*
X414785Y150183D01*
X414845Y150262D01*
X414909Y150340D01*
X414975Y150414D01*
X415044Y150486D01*
X415116Y150555D01*
X415190Y150621D01*
X415268Y150685D01*
X415347Y150745D01*
X415429Y150802D01*
X415513Y150856D01*
X415599Y150906D01*
X415687Y150953D01*
X415777Y150997D01*
X415868Y151037D01*
X415961Y151073D01*
X416055Y151106D01*
X416151Y151135D01*
X416247Y151160D01*
X416344Y151181D01*
X416443Y151199D01*
X416541Y151212D01*
X416641Y151222D01*
X416740Y151228D01*
X416840Y151230D01*
X437160Y151230D02*
X437260Y151228D01*
X437359Y151222D01*
X437459Y151212D01*
X437557Y151199D01*
X437656Y151181D01*
X437753Y151160D01*
X437849Y151135D01*
X437945Y151106D01*
X438039Y151073D01*
X438132Y151037D01*
X438223Y150997D01*
X438313Y150953D01*
X438401Y150906D01*
X438487Y150856D01*
X438571Y150802D01*
X438653Y150745D01*
X438732Y150685D01*
X438810Y150621D01*
X438884Y150555D01*
X438956Y150486D01*
X439025Y150414D01*
X439091Y150340D01*
X439155Y150262D01*
X439215Y150183D01*
X439272Y150101D01*
X439326Y150017D01*
X439376Y149931D01*
X439423Y149843D01*
X439467Y149753D01*
X439507Y149662D01*
X439543Y149569D01*
X439576Y149475D01*
X439605Y149379D01*
X439630Y149283D01*
X439651Y149186D01*
X439669Y149087D01*
X439682Y148989D01*
X439692Y148889D01*
X439698Y148790D01*
X439700Y148690D01*
X439700Y80110D02*
X439698Y80010D01*
X439692Y79911D01*
X439682Y79811D01*
X439669Y79713D01*
X439651Y79614D01*
X439630Y79517D01*
X439605Y79421D01*
X439576Y79325D01*
X439543Y79231D01*
X439507Y79138D01*
X439467Y79047D01*
X439423Y78957D01*
X439376Y78869D01*
X439326Y78783D01*
X439272Y78699D01*
X439215Y78617D01*
X439155Y78538D01*
X439091Y78460D01*
X439025Y78386D01*
X438956Y78314D01*
X438884Y78245D01*
X438810Y78179D01*
X438732Y78115D01*
X438653Y78055D01*
X438571Y77998D01*
X438487Y77944D01*
X438401Y77894D01*
X438313Y77847D01*
X438223Y77803D01*
X438132Y77763D01*
X438039Y77727D01*
X437945Y77694D01*
X437849Y77665D01*
X437753Y77640D01*
X437656Y77619D01*
X437557Y77601D01*
X437459Y77588D01*
X437359Y77578D01*
X437260Y77572D01*
X437160Y77570D01*
X416840Y77570D02*
X416740Y77572D01*
X416641Y77578D01*
X416541Y77588D01*
X416443Y77601D01*
X416344Y77619D01*
X416247Y77640D01*
X416151Y77665D01*
X416055Y77694D01*
X415961Y77727D01*
X415868Y77763D01*
X415777Y77803D01*
X415687Y77847D01*
X415599Y77894D01*
X415513Y77944D01*
X415429Y77998D01*
X415347Y78055D01*
X415268Y78115D01*
X415190Y78179D01*
X415116Y78245D01*
X415044Y78314D01*
X414975Y78386D01*
X414909Y78460D01*
X414845Y78538D01*
X414785Y78617D01*
X414728Y78699D01*
X414674Y78783D01*
X414624Y78869D01*
X414577Y78957D01*
X414533Y79047D01*
X414493Y79138D01*
X414457Y79231D01*
X414424Y79325D01*
X414395Y79421D01*
X414370Y79517D01*
X414349Y79614D01*
X414331Y79713D01*
X414318Y79811D01*
X414308Y79911D01*
X414302Y80010D01*
X414300Y80110D01*
D12*
X435624Y163889D02*
X433886Y165626D01*
X430412Y165626D01*
X428675Y163889D01*
X428675Y156940D01*
X430412Y155203D01*
X433886Y155203D01*
X435624Y156940D01*
X440369Y162152D02*
X443843Y165626D01*
X443843Y155203D01*
X440369Y155203D02*
X447318Y155203D01*
D15*
X175000Y106952D02*
X168650Y106952D01*
X175000Y106952D02*
X181350Y106952D01*
D16*
X175000Y106952D02*
X175000Y94760D01*
D15*
X175000Y113302D02*
X168650Y113302D01*
X175000Y113302D02*
X181350Y113302D01*
D16*
X175000Y113302D02*
X175000Y125240D01*
X164840Y73170D02*
X185160Y73170D01*
X187700Y75710D02*
X187700Y144290D01*
X185160Y146830D02*
X164840Y146830D01*
X162300Y144290D02*
X162300Y75710D01*
X162300Y144290D02*
X162302Y144390D01*
X162308Y144489D01*
X162318Y144589D01*
X162331Y144687D01*
X162349Y144786D01*
X162370Y144883D01*
X162395Y144979D01*
X162424Y145075D01*
X162457Y145169D01*
X162493Y145262D01*
X162533Y145353D01*
X162577Y145443D01*
X162624Y145531D01*
X162674Y145617D01*
X162728Y145701D01*
X162785Y145783D01*
X162845Y145862D01*
X162909Y145940D01*
X162975Y146014D01*
X163044Y146086D01*
X163116Y146155D01*
X163190Y146221D01*
X163268Y146285D01*
X163347Y146345D01*
X163429Y146402D01*
X163513Y146456D01*
X163599Y146506D01*
X163687Y146553D01*
X163777Y146597D01*
X163868Y146637D01*
X163961Y146673D01*
X164055Y146706D01*
X164151Y146735D01*
X164247Y146760D01*
X164344Y146781D01*
X164443Y146799D01*
X164541Y146812D01*
X164641Y146822D01*
X164740Y146828D01*
X164840Y146830D01*
X185160Y146830D02*
X185260Y146828D01*
X185359Y146822D01*
X185459Y146812D01*
X185557Y146799D01*
X185656Y146781D01*
X185753Y146760D01*
X185849Y146735D01*
X185945Y146706D01*
X186039Y146673D01*
X186132Y146637D01*
X186223Y146597D01*
X186313Y146553D01*
X186401Y146506D01*
X186487Y146456D01*
X186571Y146402D01*
X186653Y146345D01*
X186732Y146285D01*
X186810Y146221D01*
X186884Y146155D01*
X186956Y146086D01*
X187025Y146014D01*
X187091Y145940D01*
X187155Y145862D01*
X187215Y145783D01*
X187272Y145701D01*
X187326Y145617D01*
X187376Y145531D01*
X187423Y145443D01*
X187467Y145353D01*
X187507Y145262D01*
X187543Y145169D01*
X187576Y145075D01*
X187605Y144979D01*
X187630Y144883D01*
X187651Y144786D01*
X187669Y144687D01*
X187682Y144589D01*
X187692Y144489D01*
X187698Y144390D01*
X187700Y144290D01*
X187700Y75710D02*
X187698Y75610D01*
X187692Y75511D01*
X187682Y75411D01*
X187669Y75313D01*
X187651Y75214D01*
X187630Y75117D01*
X187605Y75021D01*
X187576Y74925D01*
X187543Y74831D01*
X187507Y74738D01*
X187467Y74647D01*
X187423Y74557D01*
X187376Y74469D01*
X187326Y74383D01*
X187272Y74299D01*
X187215Y74217D01*
X187155Y74138D01*
X187091Y74060D01*
X187025Y73986D01*
X186956Y73914D01*
X186884Y73845D01*
X186810Y73779D01*
X186732Y73715D01*
X186653Y73655D01*
X186571Y73598D01*
X186487Y73544D01*
X186401Y73494D01*
X186313Y73447D01*
X186223Y73403D01*
X186132Y73363D01*
X186039Y73327D01*
X185945Y73294D01*
X185849Y73265D01*
X185753Y73240D01*
X185656Y73219D01*
X185557Y73201D01*
X185459Y73188D01*
X185359Y73178D01*
X185260Y73172D01*
X185160Y73170D01*
X164840Y73170D02*
X164740Y73172D01*
X164641Y73178D01*
X164541Y73188D01*
X164443Y73201D01*
X164344Y73219D01*
X164247Y73240D01*
X164151Y73265D01*
X164055Y73294D01*
X163961Y73327D01*
X163868Y73363D01*
X163777Y73403D01*
X163687Y73447D01*
X163599Y73494D01*
X163513Y73544D01*
X163429Y73598D01*
X163347Y73655D01*
X163268Y73715D01*
X163190Y73779D01*
X163116Y73845D01*
X163044Y73914D01*
X162975Y73986D01*
X162909Y74060D01*
X162845Y74138D01*
X162785Y74217D01*
X162728Y74299D01*
X162674Y74383D01*
X162624Y74469D01*
X162577Y74557D01*
X162533Y74647D01*
X162493Y74738D01*
X162457Y74831D01*
X162424Y74925D01*
X162395Y75021D01*
X162370Y75117D01*
X162349Y75214D01*
X162331Y75313D01*
X162318Y75411D01*
X162308Y75511D01*
X162302Y75610D01*
X162300Y75710D01*
D12*
X168286Y63626D02*
X170024Y61889D01*
X168286Y63626D02*
X164812Y63626D01*
X163075Y61889D01*
X163075Y54940D01*
X164812Y53203D01*
X168286Y53203D01*
X170024Y54940D01*
X174769Y53203D02*
X181718Y53203D01*
X174769Y53203D02*
X181718Y60152D01*
X181718Y61889D01*
X179980Y63626D01*
X176506Y63626D01*
X174769Y61889D01*
D16*
X421630Y-18530D02*
X571490Y-18530D01*
X571490Y71390D02*
X571490Y73420D01*
X421630Y73420D01*
X421630Y5350D02*
X421630Y-18530D01*
X421630Y5350D02*
X437630Y5350D01*
X455410Y5350D02*
X487670Y5350D01*
X505450Y5350D02*
X537710Y5350D01*
X555490Y5350D02*
X571490Y5350D01*
X421630Y5350D02*
X421630Y71390D01*
X571490Y5350D02*
X571490Y-18530D01*
X571490Y71390D02*
X421630Y71390D01*
X571490Y71390D02*
X571490Y5350D01*
X421630Y71390D02*
X421630Y73420D01*
X441440Y58178D02*
X441442Y58320D01*
X441448Y58463D01*
X441458Y58605D01*
X441472Y58747D01*
X441490Y58888D01*
X441512Y59029D01*
X441538Y59169D01*
X441567Y59308D01*
X441601Y59447D01*
X441639Y59584D01*
X441680Y59721D01*
X441725Y59856D01*
X441774Y59990D01*
X441827Y60122D01*
X441883Y60253D01*
X441943Y60382D01*
X442007Y60510D01*
X442074Y60635D01*
X442145Y60759D01*
X442219Y60881D01*
X442296Y61000D01*
X442377Y61118D01*
X442461Y61233D01*
X442548Y61345D01*
X442639Y61455D01*
X442732Y61563D01*
X442829Y61668D01*
X442928Y61770D01*
X443030Y61869D01*
X443135Y61966D01*
X443243Y62059D01*
X443353Y62150D01*
X443465Y62237D01*
X443580Y62321D01*
X443698Y62402D01*
X443817Y62479D01*
X443939Y62553D01*
X444063Y62624D01*
X444188Y62691D01*
X444316Y62755D01*
X444445Y62815D01*
X444576Y62871D01*
X444708Y62924D01*
X444842Y62973D01*
X444977Y63018D01*
X445114Y63059D01*
X445251Y63097D01*
X445390Y63131D01*
X445529Y63160D01*
X445669Y63186D01*
X445810Y63208D01*
X445951Y63226D01*
X446093Y63240D01*
X446235Y63250D01*
X446378Y63256D01*
X446520Y63258D01*
X446662Y63256D01*
X446805Y63250D01*
X446947Y63240D01*
X447089Y63226D01*
X447230Y63208D01*
X447371Y63186D01*
X447511Y63160D01*
X447650Y63131D01*
X447789Y63097D01*
X447926Y63059D01*
X448063Y63018D01*
X448198Y62973D01*
X448332Y62924D01*
X448464Y62871D01*
X448595Y62815D01*
X448724Y62755D01*
X448852Y62691D01*
X448977Y62624D01*
X449101Y62553D01*
X449223Y62479D01*
X449342Y62402D01*
X449460Y62321D01*
X449575Y62237D01*
X449687Y62150D01*
X449797Y62059D01*
X449905Y61966D01*
X450010Y61869D01*
X450112Y61770D01*
X450211Y61668D01*
X450308Y61563D01*
X450401Y61455D01*
X450492Y61345D01*
X450579Y61233D01*
X450663Y61118D01*
X450744Y61000D01*
X450821Y60881D01*
X450895Y60759D01*
X450966Y60635D01*
X451033Y60510D01*
X451097Y60382D01*
X451157Y60253D01*
X451213Y60122D01*
X451266Y59990D01*
X451315Y59856D01*
X451360Y59721D01*
X451401Y59584D01*
X451439Y59447D01*
X451473Y59308D01*
X451502Y59169D01*
X451528Y59029D01*
X451550Y58888D01*
X451568Y58747D01*
X451582Y58605D01*
X451592Y58463D01*
X451598Y58320D01*
X451600Y58178D01*
X451598Y58036D01*
X451592Y57893D01*
X451582Y57751D01*
X451568Y57609D01*
X451550Y57468D01*
X451528Y57327D01*
X451502Y57187D01*
X451473Y57048D01*
X451439Y56909D01*
X451401Y56772D01*
X451360Y56635D01*
X451315Y56500D01*
X451266Y56366D01*
X451213Y56234D01*
X451157Y56103D01*
X451097Y55974D01*
X451033Y55846D01*
X450966Y55721D01*
X450895Y55597D01*
X450821Y55475D01*
X450744Y55356D01*
X450663Y55238D01*
X450579Y55123D01*
X450492Y55011D01*
X450401Y54901D01*
X450308Y54793D01*
X450211Y54688D01*
X450112Y54586D01*
X450010Y54487D01*
X449905Y54390D01*
X449797Y54297D01*
X449687Y54206D01*
X449575Y54119D01*
X449460Y54035D01*
X449342Y53954D01*
X449223Y53877D01*
X449101Y53803D01*
X448977Y53732D01*
X448852Y53665D01*
X448724Y53601D01*
X448595Y53541D01*
X448464Y53485D01*
X448332Y53432D01*
X448198Y53383D01*
X448063Y53338D01*
X447926Y53297D01*
X447789Y53259D01*
X447650Y53225D01*
X447511Y53196D01*
X447371Y53170D01*
X447230Y53148D01*
X447089Y53130D01*
X446947Y53116D01*
X446805Y53106D01*
X446662Y53100D01*
X446520Y53098D01*
X446378Y53100D01*
X446235Y53106D01*
X446093Y53116D01*
X445951Y53130D01*
X445810Y53148D01*
X445669Y53170D01*
X445529Y53196D01*
X445390Y53225D01*
X445251Y53259D01*
X445114Y53297D01*
X444977Y53338D01*
X444842Y53383D01*
X444708Y53432D01*
X444576Y53485D01*
X444445Y53541D01*
X444316Y53601D01*
X444188Y53665D01*
X444063Y53732D01*
X443939Y53803D01*
X443817Y53877D01*
X443698Y53954D01*
X443580Y54035D01*
X443465Y54119D01*
X443353Y54206D01*
X443243Y54297D01*
X443135Y54390D01*
X443030Y54487D01*
X442928Y54586D01*
X442829Y54688D01*
X442732Y54793D01*
X442639Y54901D01*
X442548Y55011D01*
X442461Y55123D01*
X442377Y55238D01*
X442296Y55356D01*
X442219Y55475D01*
X442145Y55597D01*
X442074Y55721D01*
X442007Y55846D01*
X441943Y55974D01*
X441883Y56103D01*
X441827Y56234D01*
X441774Y56366D01*
X441725Y56500D01*
X441680Y56635D01*
X441639Y56772D01*
X441601Y56909D01*
X441567Y57048D01*
X441538Y57187D01*
X441512Y57327D01*
X441490Y57468D01*
X441472Y57609D01*
X441458Y57751D01*
X441448Y57893D01*
X441442Y58036D01*
X441440Y58178D01*
X541516Y58178D02*
X541518Y58320D01*
X541524Y58463D01*
X541534Y58605D01*
X541548Y58747D01*
X541566Y58888D01*
X541588Y59029D01*
X541614Y59169D01*
X541643Y59308D01*
X541677Y59447D01*
X541715Y59584D01*
X541756Y59721D01*
X541801Y59856D01*
X541850Y59990D01*
X541903Y60122D01*
X541959Y60253D01*
X542019Y60382D01*
X542083Y60510D01*
X542150Y60635D01*
X542221Y60759D01*
X542295Y60881D01*
X542372Y61000D01*
X542453Y61118D01*
X542537Y61233D01*
X542624Y61345D01*
X542715Y61455D01*
X542808Y61563D01*
X542905Y61668D01*
X543004Y61770D01*
X543106Y61869D01*
X543211Y61966D01*
X543319Y62059D01*
X543429Y62150D01*
X543541Y62237D01*
X543656Y62321D01*
X543774Y62402D01*
X543893Y62479D01*
X544015Y62553D01*
X544139Y62624D01*
X544264Y62691D01*
X544392Y62755D01*
X544521Y62815D01*
X544652Y62871D01*
X544784Y62924D01*
X544918Y62973D01*
X545053Y63018D01*
X545190Y63059D01*
X545327Y63097D01*
X545466Y63131D01*
X545605Y63160D01*
X545745Y63186D01*
X545886Y63208D01*
X546027Y63226D01*
X546169Y63240D01*
X546311Y63250D01*
X546454Y63256D01*
X546596Y63258D01*
X546738Y63256D01*
X546881Y63250D01*
X547023Y63240D01*
X547165Y63226D01*
X547306Y63208D01*
X547447Y63186D01*
X547587Y63160D01*
X547726Y63131D01*
X547865Y63097D01*
X548002Y63059D01*
X548139Y63018D01*
X548274Y62973D01*
X548408Y62924D01*
X548540Y62871D01*
X548671Y62815D01*
X548800Y62755D01*
X548928Y62691D01*
X549053Y62624D01*
X549177Y62553D01*
X549299Y62479D01*
X549418Y62402D01*
X549536Y62321D01*
X549651Y62237D01*
X549763Y62150D01*
X549873Y62059D01*
X549981Y61966D01*
X550086Y61869D01*
X550188Y61770D01*
X550287Y61668D01*
X550384Y61563D01*
X550477Y61455D01*
X550568Y61345D01*
X550655Y61233D01*
X550739Y61118D01*
X550820Y61000D01*
X550897Y60881D01*
X550971Y60759D01*
X551042Y60635D01*
X551109Y60510D01*
X551173Y60382D01*
X551233Y60253D01*
X551289Y60122D01*
X551342Y59990D01*
X551391Y59856D01*
X551436Y59721D01*
X551477Y59584D01*
X551515Y59447D01*
X551549Y59308D01*
X551578Y59169D01*
X551604Y59029D01*
X551626Y58888D01*
X551644Y58747D01*
X551658Y58605D01*
X551668Y58463D01*
X551674Y58320D01*
X551676Y58178D01*
X551674Y58036D01*
X551668Y57893D01*
X551658Y57751D01*
X551644Y57609D01*
X551626Y57468D01*
X551604Y57327D01*
X551578Y57187D01*
X551549Y57048D01*
X551515Y56909D01*
X551477Y56772D01*
X551436Y56635D01*
X551391Y56500D01*
X551342Y56366D01*
X551289Y56234D01*
X551233Y56103D01*
X551173Y55974D01*
X551109Y55846D01*
X551042Y55721D01*
X550971Y55597D01*
X550897Y55475D01*
X550820Y55356D01*
X550739Y55238D01*
X550655Y55123D01*
X550568Y55011D01*
X550477Y54901D01*
X550384Y54793D01*
X550287Y54688D01*
X550188Y54586D01*
X550086Y54487D01*
X549981Y54390D01*
X549873Y54297D01*
X549763Y54206D01*
X549651Y54119D01*
X549536Y54035D01*
X549418Y53954D01*
X549299Y53877D01*
X549177Y53803D01*
X549053Y53732D01*
X548928Y53665D01*
X548800Y53601D01*
X548671Y53541D01*
X548540Y53485D01*
X548408Y53432D01*
X548274Y53383D01*
X548139Y53338D01*
X548002Y53297D01*
X547865Y53259D01*
X547726Y53225D01*
X547587Y53196D01*
X547447Y53170D01*
X547306Y53148D01*
X547165Y53130D01*
X547023Y53116D01*
X546881Y53106D01*
X546738Y53100D01*
X546596Y53098D01*
X546454Y53100D01*
X546311Y53106D01*
X546169Y53116D01*
X546027Y53130D01*
X545886Y53148D01*
X545745Y53170D01*
X545605Y53196D01*
X545466Y53225D01*
X545327Y53259D01*
X545190Y53297D01*
X545053Y53338D01*
X544918Y53383D01*
X544784Y53432D01*
X544652Y53485D01*
X544521Y53541D01*
X544392Y53601D01*
X544264Y53665D01*
X544139Y53732D01*
X544015Y53803D01*
X543893Y53877D01*
X543774Y53954D01*
X543656Y54035D01*
X543541Y54119D01*
X543429Y54206D01*
X543319Y54297D01*
X543211Y54390D01*
X543106Y54487D01*
X543004Y54586D01*
X542905Y54688D01*
X542808Y54793D01*
X542715Y54901D01*
X542624Y55011D01*
X542537Y55123D01*
X542453Y55238D01*
X542372Y55356D01*
X542295Y55475D01*
X542221Y55597D01*
X542150Y55721D01*
X542083Y55846D01*
X542019Y55974D01*
X541959Y56103D01*
X541903Y56234D01*
X541850Y56366D01*
X541801Y56500D01*
X541756Y56635D01*
X541715Y56772D01*
X541677Y56909D01*
X541643Y57048D01*
X541614Y57187D01*
X541588Y57327D01*
X541566Y57468D01*
X541548Y57609D01*
X541534Y57751D01*
X541524Y57893D01*
X541518Y58036D01*
X541516Y58178D01*
X491478Y58178D02*
X491480Y58320D01*
X491486Y58463D01*
X491496Y58605D01*
X491510Y58747D01*
X491528Y58888D01*
X491550Y59029D01*
X491576Y59169D01*
X491605Y59308D01*
X491639Y59447D01*
X491677Y59584D01*
X491718Y59721D01*
X491763Y59856D01*
X491812Y59990D01*
X491865Y60122D01*
X491921Y60253D01*
X491981Y60382D01*
X492045Y60510D01*
X492112Y60635D01*
X492183Y60759D01*
X492257Y60881D01*
X492334Y61000D01*
X492415Y61118D01*
X492499Y61233D01*
X492586Y61345D01*
X492677Y61455D01*
X492770Y61563D01*
X492867Y61668D01*
X492966Y61770D01*
X493068Y61869D01*
X493173Y61966D01*
X493281Y62059D01*
X493391Y62150D01*
X493503Y62237D01*
X493618Y62321D01*
X493736Y62402D01*
X493855Y62479D01*
X493977Y62553D01*
X494101Y62624D01*
X494226Y62691D01*
X494354Y62755D01*
X494483Y62815D01*
X494614Y62871D01*
X494746Y62924D01*
X494880Y62973D01*
X495015Y63018D01*
X495152Y63059D01*
X495289Y63097D01*
X495428Y63131D01*
X495567Y63160D01*
X495707Y63186D01*
X495848Y63208D01*
X495989Y63226D01*
X496131Y63240D01*
X496273Y63250D01*
X496416Y63256D01*
X496558Y63258D01*
X496700Y63256D01*
X496843Y63250D01*
X496985Y63240D01*
X497127Y63226D01*
X497268Y63208D01*
X497409Y63186D01*
X497549Y63160D01*
X497688Y63131D01*
X497827Y63097D01*
X497964Y63059D01*
X498101Y63018D01*
X498236Y62973D01*
X498370Y62924D01*
X498502Y62871D01*
X498633Y62815D01*
X498762Y62755D01*
X498890Y62691D01*
X499015Y62624D01*
X499139Y62553D01*
X499261Y62479D01*
X499380Y62402D01*
X499498Y62321D01*
X499613Y62237D01*
X499725Y62150D01*
X499835Y62059D01*
X499943Y61966D01*
X500048Y61869D01*
X500150Y61770D01*
X500249Y61668D01*
X500346Y61563D01*
X500439Y61455D01*
X500530Y61345D01*
X500617Y61233D01*
X500701Y61118D01*
X500782Y61000D01*
X500859Y60881D01*
X500933Y60759D01*
X501004Y60635D01*
X501071Y60510D01*
X501135Y60382D01*
X501195Y60253D01*
X501251Y60122D01*
X501304Y59990D01*
X501353Y59856D01*
X501398Y59721D01*
X501439Y59584D01*
X501477Y59447D01*
X501511Y59308D01*
X501540Y59169D01*
X501566Y59029D01*
X501588Y58888D01*
X501606Y58747D01*
X501620Y58605D01*
X501630Y58463D01*
X501636Y58320D01*
X501638Y58178D01*
X501636Y58036D01*
X501630Y57893D01*
X501620Y57751D01*
X501606Y57609D01*
X501588Y57468D01*
X501566Y57327D01*
X501540Y57187D01*
X501511Y57048D01*
X501477Y56909D01*
X501439Y56772D01*
X501398Y56635D01*
X501353Y56500D01*
X501304Y56366D01*
X501251Y56234D01*
X501195Y56103D01*
X501135Y55974D01*
X501071Y55846D01*
X501004Y55721D01*
X500933Y55597D01*
X500859Y55475D01*
X500782Y55356D01*
X500701Y55238D01*
X500617Y55123D01*
X500530Y55011D01*
X500439Y54901D01*
X500346Y54793D01*
X500249Y54688D01*
X500150Y54586D01*
X500048Y54487D01*
X499943Y54390D01*
X499835Y54297D01*
X499725Y54206D01*
X499613Y54119D01*
X499498Y54035D01*
X499380Y53954D01*
X499261Y53877D01*
X499139Y53803D01*
X499015Y53732D01*
X498890Y53665D01*
X498762Y53601D01*
X498633Y53541D01*
X498502Y53485D01*
X498370Y53432D01*
X498236Y53383D01*
X498101Y53338D01*
X497964Y53297D01*
X497827Y53259D01*
X497688Y53225D01*
X497549Y53196D01*
X497409Y53170D01*
X497268Y53148D01*
X497127Y53130D01*
X496985Y53116D01*
X496843Y53106D01*
X496700Y53100D01*
X496558Y53098D01*
X496416Y53100D01*
X496273Y53106D01*
X496131Y53116D01*
X495989Y53130D01*
X495848Y53148D01*
X495707Y53170D01*
X495567Y53196D01*
X495428Y53225D01*
X495289Y53259D01*
X495152Y53297D01*
X495015Y53338D01*
X494880Y53383D01*
X494746Y53432D01*
X494614Y53485D01*
X494483Y53541D01*
X494354Y53601D01*
X494226Y53665D01*
X494101Y53732D01*
X493977Y53803D01*
X493855Y53877D01*
X493736Y53954D01*
X493618Y54035D01*
X493503Y54119D01*
X493391Y54206D01*
X493281Y54297D01*
X493173Y54390D01*
X493068Y54487D01*
X492966Y54586D01*
X492867Y54688D01*
X492770Y54793D01*
X492677Y54901D01*
X492586Y55011D01*
X492499Y55123D01*
X492415Y55238D01*
X492334Y55356D01*
X492257Y55475D01*
X492183Y55597D01*
X492112Y55721D01*
X492045Y55846D01*
X491981Y55974D01*
X491921Y56103D01*
X491865Y56234D01*
X491812Y56366D01*
X491763Y56500D01*
X491718Y56635D01*
X491677Y56772D01*
X491639Y56909D01*
X491605Y57048D01*
X491576Y57187D01*
X491550Y57327D01*
X491528Y57468D01*
X491510Y57609D01*
X491496Y57751D01*
X491486Y57893D01*
X491480Y58036D01*
X491478Y58178D01*
D14*
X468244Y56273D02*
X460617Y67713D01*
X468244Y67713D02*
X460617Y56273D01*
X472311Y63900D02*
X476124Y67713D01*
X476124Y56273D01*
X472311Y56273D02*
X479937Y56273D01*
D16*
X174450Y248290D02*
X24590Y248290D01*
X24590Y158370D02*
X24590Y156340D01*
X174450Y156340D01*
X174450Y224410D02*
X174450Y248290D01*
X174450Y224410D02*
X158450Y224410D01*
X140670Y224410D02*
X108410Y224410D01*
X90630Y224410D02*
X58370Y224410D01*
X40590Y224410D02*
X24590Y224410D01*
X174450Y224410D02*
X174450Y158370D01*
X24590Y224410D02*
X24590Y248290D01*
X24590Y158370D02*
X174450Y158370D01*
X24590Y158370D02*
X24590Y224410D01*
X174450Y158370D02*
X174450Y156340D01*
X144480Y171582D02*
X144482Y171724D01*
X144488Y171867D01*
X144498Y172009D01*
X144512Y172151D01*
X144530Y172292D01*
X144552Y172433D01*
X144578Y172573D01*
X144607Y172712D01*
X144641Y172851D01*
X144679Y172988D01*
X144720Y173125D01*
X144765Y173260D01*
X144814Y173394D01*
X144867Y173526D01*
X144923Y173657D01*
X144983Y173786D01*
X145047Y173914D01*
X145114Y174039D01*
X145185Y174163D01*
X145259Y174285D01*
X145336Y174404D01*
X145417Y174522D01*
X145501Y174637D01*
X145588Y174749D01*
X145679Y174859D01*
X145772Y174967D01*
X145869Y175072D01*
X145968Y175174D01*
X146070Y175273D01*
X146175Y175370D01*
X146283Y175463D01*
X146393Y175554D01*
X146505Y175641D01*
X146620Y175725D01*
X146738Y175806D01*
X146857Y175883D01*
X146979Y175957D01*
X147103Y176028D01*
X147228Y176095D01*
X147356Y176159D01*
X147485Y176219D01*
X147616Y176275D01*
X147748Y176328D01*
X147882Y176377D01*
X148017Y176422D01*
X148154Y176463D01*
X148291Y176501D01*
X148430Y176535D01*
X148569Y176564D01*
X148709Y176590D01*
X148850Y176612D01*
X148991Y176630D01*
X149133Y176644D01*
X149275Y176654D01*
X149418Y176660D01*
X149560Y176662D01*
X149702Y176660D01*
X149845Y176654D01*
X149987Y176644D01*
X150129Y176630D01*
X150270Y176612D01*
X150411Y176590D01*
X150551Y176564D01*
X150690Y176535D01*
X150829Y176501D01*
X150966Y176463D01*
X151103Y176422D01*
X151238Y176377D01*
X151372Y176328D01*
X151504Y176275D01*
X151635Y176219D01*
X151764Y176159D01*
X151892Y176095D01*
X152017Y176028D01*
X152141Y175957D01*
X152263Y175883D01*
X152382Y175806D01*
X152500Y175725D01*
X152615Y175641D01*
X152727Y175554D01*
X152837Y175463D01*
X152945Y175370D01*
X153050Y175273D01*
X153152Y175174D01*
X153251Y175072D01*
X153348Y174967D01*
X153441Y174859D01*
X153532Y174749D01*
X153619Y174637D01*
X153703Y174522D01*
X153784Y174404D01*
X153861Y174285D01*
X153935Y174163D01*
X154006Y174039D01*
X154073Y173914D01*
X154137Y173786D01*
X154197Y173657D01*
X154253Y173526D01*
X154306Y173394D01*
X154355Y173260D01*
X154400Y173125D01*
X154441Y172988D01*
X154479Y172851D01*
X154513Y172712D01*
X154542Y172573D01*
X154568Y172433D01*
X154590Y172292D01*
X154608Y172151D01*
X154622Y172009D01*
X154632Y171867D01*
X154638Y171724D01*
X154640Y171582D01*
X154638Y171440D01*
X154632Y171297D01*
X154622Y171155D01*
X154608Y171013D01*
X154590Y170872D01*
X154568Y170731D01*
X154542Y170591D01*
X154513Y170452D01*
X154479Y170313D01*
X154441Y170176D01*
X154400Y170039D01*
X154355Y169904D01*
X154306Y169770D01*
X154253Y169638D01*
X154197Y169507D01*
X154137Y169378D01*
X154073Y169250D01*
X154006Y169125D01*
X153935Y169001D01*
X153861Y168879D01*
X153784Y168760D01*
X153703Y168642D01*
X153619Y168527D01*
X153532Y168415D01*
X153441Y168305D01*
X153348Y168197D01*
X153251Y168092D01*
X153152Y167990D01*
X153050Y167891D01*
X152945Y167794D01*
X152837Y167701D01*
X152727Y167610D01*
X152615Y167523D01*
X152500Y167439D01*
X152382Y167358D01*
X152263Y167281D01*
X152141Y167207D01*
X152017Y167136D01*
X151892Y167069D01*
X151764Y167005D01*
X151635Y166945D01*
X151504Y166889D01*
X151372Y166836D01*
X151238Y166787D01*
X151103Y166742D01*
X150966Y166701D01*
X150829Y166663D01*
X150690Y166629D01*
X150551Y166600D01*
X150411Y166574D01*
X150270Y166552D01*
X150129Y166534D01*
X149987Y166520D01*
X149845Y166510D01*
X149702Y166504D01*
X149560Y166502D01*
X149418Y166504D01*
X149275Y166510D01*
X149133Y166520D01*
X148991Y166534D01*
X148850Y166552D01*
X148709Y166574D01*
X148569Y166600D01*
X148430Y166629D01*
X148291Y166663D01*
X148154Y166701D01*
X148017Y166742D01*
X147882Y166787D01*
X147748Y166836D01*
X147616Y166889D01*
X147485Y166945D01*
X147356Y167005D01*
X147228Y167069D01*
X147103Y167136D01*
X146979Y167207D01*
X146857Y167281D01*
X146738Y167358D01*
X146620Y167439D01*
X146505Y167523D01*
X146393Y167610D01*
X146283Y167701D01*
X146175Y167794D01*
X146070Y167891D01*
X145968Y167990D01*
X145869Y168092D01*
X145772Y168197D01*
X145679Y168305D01*
X145588Y168415D01*
X145501Y168527D01*
X145417Y168642D01*
X145336Y168760D01*
X145259Y168879D01*
X145185Y169001D01*
X145114Y169125D01*
X145047Y169250D01*
X144983Y169378D01*
X144923Y169507D01*
X144867Y169638D01*
X144814Y169770D01*
X144765Y169904D01*
X144720Y170039D01*
X144679Y170176D01*
X144641Y170313D01*
X144607Y170452D01*
X144578Y170591D01*
X144552Y170731D01*
X144530Y170872D01*
X144512Y171013D01*
X144498Y171155D01*
X144488Y171297D01*
X144482Y171440D01*
X144480Y171582D01*
X44404Y171582D02*
X44406Y171724D01*
X44412Y171867D01*
X44422Y172009D01*
X44436Y172151D01*
X44454Y172292D01*
X44476Y172433D01*
X44502Y172573D01*
X44531Y172712D01*
X44565Y172851D01*
X44603Y172988D01*
X44644Y173125D01*
X44689Y173260D01*
X44738Y173394D01*
X44791Y173526D01*
X44847Y173657D01*
X44907Y173786D01*
X44971Y173914D01*
X45038Y174039D01*
X45109Y174163D01*
X45183Y174285D01*
X45260Y174404D01*
X45341Y174522D01*
X45425Y174637D01*
X45512Y174749D01*
X45603Y174859D01*
X45696Y174967D01*
X45793Y175072D01*
X45892Y175174D01*
X45994Y175273D01*
X46099Y175370D01*
X46207Y175463D01*
X46317Y175554D01*
X46429Y175641D01*
X46544Y175725D01*
X46662Y175806D01*
X46781Y175883D01*
X46903Y175957D01*
X47027Y176028D01*
X47152Y176095D01*
X47280Y176159D01*
X47409Y176219D01*
X47540Y176275D01*
X47672Y176328D01*
X47806Y176377D01*
X47941Y176422D01*
X48078Y176463D01*
X48215Y176501D01*
X48354Y176535D01*
X48493Y176564D01*
X48633Y176590D01*
X48774Y176612D01*
X48915Y176630D01*
X49057Y176644D01*
X49199Y176654D01*
X49342Y176660D01*
X49484Y176662D01*
X49626Y176660D01*
X49769Y176654D01*
X49911Y176644D01*
X50053Y176630D01*
X50194Y176612D01*
X50335Y176590D01*
X50475Y176564D01*
X50614Y176535D01*
X50753Y176501D01*
X50890Y176463D01*
X51027Y176422D01*
X51162Y176377D01*
X51296Y176328D01*
X51428Y176275D01*
X51559Y176219D01*
X51688Y176159D01*
X51816Y176095D01*
X51941Y176028D01*
X52065Y175957D01*
X52187Y175883D01*
X52306Y175806D01*
X52424Y175725D01*
X52539Y175641D01*
X52651Y175554D01*
X52761Y175463D01*
X52869Y175370D01*
X52974Y175273D01*
X53076Y175174D01*
X53175Y175072D01*
X53272Y174967D01*
X53365Y174859D01*
X53456Y174749D01*
X53543Y174637D01*
X53627Y174522D01*
X53708Y174404D01*
X53785Y174285D01*
X53859Y174163D01*
X53930Y174039D01*
X53997Y173914D01*
X54061Y173786D01*
X54121Y173657D01*
X54177Y173526D01*
X54230Y173394D01*
X54279Y173260D01*
X54324Y173125D01*
X54365Y172988D01*
X54403Y172851D01*
X54437Y172712D01*
X54466Y172573D01*
X54492Y172433D01*
X54514Y172292D01*
X54532Y172151D01*
X54546Y172009D01*
X54556Y171867D01*
X54562Y171724D01*
X54564Y171582D01*
X54562Y171440D01*
X54556Y171297D01*
X54546Y171155D01*
X54532Y171013D01*
X54514Y170872D01*
X54492Y170731D01*
X54466Y170591D01*
X54437Y170452D01*
X54403Y170313D01*
X54365Y170176D01*
X54324Y170039D01*
X54279Y169904D01*
X54230Y169770D01*
X54177Y169638D01*
X54121Y169507D01*
X54061Y169378D01*
X53997Y169250D01*
X53930Y169125D01*
X53859Y169001D01*
X53785Y168879D01*
X53708Y168760D01*
X53627Y168642D01*
X53543Y168527D01*
X53456Y168415D01*
X53365Y168305D01*
X53272Y168197D01*
X53175Y168092D01*
X53076Y167990D01*
X52974Y167891D01*
X52869Y167794D01*
X52761Y167701D01*
X52651Y167610D01*
X52539Y167523D01*
X52424Y167439D01*
X52306Y167358D01*
X52187Y167281D01*
X52065Y167207D01*
X51941Y167136D01*
X51816Y167069D01*
X51688Y167005D01*
X51559Y166945D01*
X51428Y166889D01*
X51296Y166836D01*
X51162Y166787D01*
X51027Y166742D01*
X50890Y166701D01*
X50753Y166663D01*
X50614Y166629D01*
X50475Y166600D01*
X50335Y166574D01*
X50194Y166552D01*
X50053Y166534D01*
X49911Y166520D01*
X49769Y166510D01*
X49626Y166504D01*
X49484Y166502D01*
X49342Y166504D01*
X49199Y166510D01*
X49057Y166520D01*
X48915Y166534D01*
X48774Y166552D01*
X48633Y166574D01*
X48493Y166600D01*
X48354Y166629D01*
X48215Y166663D01*
X48078Y166701D01*
X47941Y166742D01*
X47806Y166787D01*
X47672Y166836D01*
X47540Y166889D01*
X47409Y166945D01*
X47280Y167005D01*
X47152Y167069D01*
X47027Y167136D01*
X46903Y167207D01*
X46781Y167281D01*
X46662Y167358D01*
X46544Y167439D01*
X46429Y167523D01*
X46317Y167610D01*
X46207Y167701D01*
X46099Y167794D01*
X45994Y167891D01*
X45892Y167990D01*
X45793Y168092D01*
X45696Y168197D01*
X45603Y168305D01*
X45512Y168415D01*
X45425Y168527D01*
X45341Y168642D01*
X45260Y168760D01*
X45183Y168879D01*
X45109Y169001D01*
X45038Y169125D01*
X44971Y169250D01*
X44907Y169378D01*
X44847Y169507D01*
X44791Y169638D01*
X44738Y169770D01*
X44689Y169904D01*
X44644Y170039D01*
X44603Y170176D01*
X44565Y170313D01*
X44531Y170452D01*
X44502Y170591D01*
X44476Y170731D01*
X44454Y170872D01*
X44436Y171013D01*
X44422Y171155D01*
X44412Y171297D01*
X44406Y171440D01*
X44404Y171582D01*
X94442Y171582D02*
X94444Y171724D01*
X94450Y171867D01*
X94460Y172009D01*
X94474Y172151D01*
X94492Y172292D01*
X94514Y172433D01*
X94540Y172573D01*
X94569Y172712D01*
X94603Y172851D01*
X94641Y172988D01*
X94682Y173125D01*
X94727Y173260D01*
X94776Y173394D01*
X94829Y173526D01*
X94885Y173657D01*
X94945Y173786D01*
X95009Y173914D01*
X95076Y174039D01*
X95147Y174163D01*
X95221Y174285D01*
X95298Y174404D01*
X95379Y174522D01*
X95463Y174637D01*
X95550Y174749D01*
X95641Y174859D01*
X95734Y174967D01*
X95831Y175072D01*
X95930Y175174D01*
X96032Y175273D01*
X96137Y175370D01*
X96245Y175463D01*
X96355Y175554D01*
X96467Y175641D01*
X96582Y175725D01*
X96700Y175806D01*
X96819Y175883D01*
X96941Y175957D01*
X97065Y176028D01*
X97190Y176095D01*
X97318Y176159D01*
X97447Y176219D01*
X97578Y176275D01*
X97710Y176328D01*
X97844Y176377D01*
X97979Y176422D01*
X98116Y176463D01*
X98253Y176501D01*
X98392Y176535D01*
X98531Y176564D01*
X98671Y176590D01*
X98812Y176612D01*
X98953Y176630D01*
X99095Y176644D01*
X99237Y176654D01*
X99380Y176660D01*
X99522Y176662D01*
X99664Y176660D01*
X99807Y176654D01*
X99949Y176644D01*
X100091Y176630D01*
X100232Y176612D01*
X100373Y176590D01*
X100513Y176564D01*
X100652Y176535D01*
X100791Y176501D01*
X100928Y176463D01*
X101065Y176422D01*
X101200Y176377D01*
X101334Y176328D01*
X101466Y176275D01*
X101597Y176219D01*
X101726Y176159D01*
X101854Y176095D01*
X101979Y176028D01*
X102103Y175957D01*
X102225Y175883D01*
X102344Y175806D01*
X102462Y175725D01*
X102577Y175641D01*
X102689Y175554D01*
X102799Y175463D01*
X102907Y175370D01*
X103012Y175273D01*
X103114Y175174D01*
X103213Y175072D01*
X103310Y174967D01*
X103403Y174859D01*
X103494Y174749D01*
X103581Y174637D01*
X103665Y174522D01*
X103746Y174404D01*
X103823Y174285D01*
X103897Y174163D01*
X103968Y174039D01*
X104035Y173914D01*
X104099Y173786D01*
X104159Y173657D01*
X104215Y173526D01*
X104268Y173394D01*
X104317Y173260D01*
X104362Y173125D01*
X104403Y172988D01*
X104441Y172851D01*
X104475Y172712D01*
X104504Y172573D01*
X104530Y172433D01*
X104552Y172292D01*
X104570Y172151D01*
X104584Y172009D01*
X104594Y171867D01*
X104600Y171724D01*
X104602Y171582D01*
X104600Y171440D01*
X104594Y171297D01*
X104584Y171155D01*
X104570Y171013D01*
X104552Y170872D01*
X104530Y170731D01*
X104504Y170591D01*
X104475Y170452D01*
X104441Y170313D01*
X104403Y170176D01*
X104362Y170039D01*
X104317Y169904D01*
X104268Y169770D01*
X104215Y169638D01*
X104159Y169507D01*
X104099Y169378D01*
X104035Y169250D01*
X103968Y169125D01*
X103897Y169001D01*
X103823Y168879D01*
X103746Y168760D01*
X103665Y168642D01*
X103581Y168527D01*
X103494Y168415D01*
X103403Y168305D01*
X103310Y168197D01*
X103213Y168092D01*
X103114Y167990D01*
X103012Y167891D01*
X102907Y167794D01*
X102799Y167701D01*
X102689Y167610D01*
X102577Y167523D01*
X102462Y167439D01*
X102344Y167358D01*
X102225Y167281D01*
X102103Y167207D01*
X101979Y167136D01*
X101854Y167069D01*
X101726Y167005D01*
X101597Y166945D01*
X101466Y166889D01*
X101334Y166836D01*
X101200Y166787D01*
X101065Y166742D01*
X100928Y166701D01*
X100791Y166663D01*
X100652Y166629D01*
X100513Y166600D01*
X100373Y166574D01*
X100232Y166552D01*
X100091Y166534D01*
X99949Y166520D01*
X99807Y166510D01*
X99664Y166504D01*
X99522Y166502D01*
X99380Y166504D01*
X99237Y166510D01*
X99095Y166520D01*
X98953Y166534D01*
X98812Y166552D01*
X98671Y166574D01*
X98531Y166600D01*
X98392Y166629D01*
X98253Y166663D01*
X98116Y166701D01*
X97979Y166742D01*
X97844Y166787D01*
X97710Y166836D01*
X97578Y166889D01*
X97447Y166945D01*
X97318Y167005D01*
X97190Y167069D01*
X97065Y167136D01*
X96941Y167207D01*
X96819Y167281D01*
X96700Y167358D01*
X96582Y167439D01*
X96467Y167523D01*
X96355Y167610D01*
X96245Y167701D01*
X96137Y167794D01*
X96032Y167891D01*
X95930Y167990D01*
X95831Y168092D01*
X95734Y168197D01*
X95641Y168305D01*
X95550Y168415D01*
X95463Y168527D01*
X95379Y168642D01*
X95298Y168760D01*
X95221Y168879D01*
X95147Y169001D01*
X95076Y169125D01*
X95009Y169250D01*
X94945Y169378D01*
X94885Y169507D01*
X94829Y169638D01*
X94776Y169770D01*
X94727Y169904D01*
X94682Y170039D01*
X94641Y170176D01*
X94603Y170313D01*
X94569Y170452D01*
X94540Y170591D01*
X94514Y170731D01*
X94492Y170872D01*
X94474Y171013D01*
X94460Y171155D01*
X94450Y171297D01*
X94444Y171440D01*
X94442Y171582D01*
D14*
X115885Y173497D02*
X123512Y162057D01*
X115885Y162057D02*
X123512Y173497D01*
X127579Y162057D02*
X135206Y162057D01*
X127579Y162057D02*
X135206Y169684D01*
X135206Y171590D01*
X133299Y173497D01*
X129486Y173497D01*
X127579Y171590D01*
D16*
X699730Y152280D02*
X699730Y243720D01*
X448270Y243720D02*
X448270Y152280D01*
D17*
X523200Y168790D02*
X624800Y168790D01*
D16*
X657820Y161170D02*
X688300Y161170D01*
X688300Y234830D01*
X459700Y234830D02*
X459700Y161170D01*
D17*
X521930Y198000D02*
X626070Y198000D01*
D16*
X523200Y243720D02*
X448270Y243720D01*
X523200Y234830D02*
X523200Y228480D01*
X624800Y228480D01*
X624800Y243720D02*
X699730Y243720D01*
X699730Y152280D02*
X624800Y152280D01*
X624800Y167520D02*
X523200Y167520D01*
X523200Y161170D02*
X523200Y152280D01*
X448270Y152280D01*
X505420Y234830D02*
X523200Y234830D01*
X505420Y234830D02*
X505420Y239910D01*
X490180Y239910D01*
X490180Y234830D01*
X459700Y234830D01*
X505420Y161170D02*
X523200Y161170D01*
X505420Y161170D02*
X505420Y156090D01*
X490180Y156090D01*
X490180Y161170D01*
X459700Y161170D01*
X523200Y161170D02*
X523200Y167520D01*
X523200Y234830D02*
X523200Y243720D01*
X624800Y167520D02*
X624800Y161170D01*
X624800Y152280D01*
X624800Y234830D02*
X624800Y243720D01*
X624800Y234830D02*
X624800Y228480D01*
X624800Y161170D02*
X642580Y161170D01*
X642580Y156090D01*
X657820Y156090D01*
X657820Y161170D01*
X642580Y234830D02*
X624800Y234830D01*
X642580Y234830D02*
X642580Y239910D01*
X657820Y239910D01*
X657820Y234830D01*
X688300Y234830D01*
D18*
X574000Y178950D03*
X574000Y217050D03*
D19*
X520025Y221495D03*
X520025Y174505D03*
D20*
X469860Y198000D03*
D21*
X492720Y171965D03*
X492720Y224035D03*
D22*
X497800Y233560D03*
X497800Y162440D03*
D19*
X627975Y174505D03*
X627975Y221495D03*
D21*
X655280Y224035D03*
D20*
X678140Y198000D03*
D21*
X655280Y171965D03*
D22*
X650200Y162440D03*
X650200Y233560D03*
D23*
X511770Y217685D03*
X511770Y178315D03*
D24*
X480020Y178315D03*
X480020Y217685D03*
X667980Y178315D03*
D23*
X636230Y178315D03*
X636230Y217685D03*
D24*
X667980Y217685D03*
D10*
X560030Y198000D02*
X560034Y198343D01*
X560047Y198685D01*
X560068Y199028D01*
X560097Y199369D01*
X560135Y199710D01*
X560181Y200050D01*
X560236Y200388D01*
X560298Y200725D01*
X560369Y201061D01*
X560449Y201394D01*
X560536Y201726D01*
X560632Y202055D01*
X560735Y202382D01*
X560847Y202706D01*
X560966Y203028D01*
X561093Y203346D01*
X561228Y203661D01*
X561371Y203973D01*
X561522Y204281D01*
X561680Y204585D01*
X561845Y204886D01*
X562018Y205182D01*
X562197Y205474D01*
X562384Y205761D01*
X562578Y206044D01*
X562779Y206322D01*
X562987Y206595D01*
X563201Y206862D01*
X563422Y207125D01*
X563649Y207382D01*
X563882Y207633D01*
X564122Y207878D01*
X564367Y208118D01*
X564618Y208351D01*
X564875Y208578D01*
X565138Y208799D01*
X565405Y209013D01*
X565678Y209221D01*
X565956Y209422D01*
X566239Y209616D01*
X566526Y209803D01*
X566818Y209982D01*
X567114Y210155D01*
X567415Y210320D01*
X567719Y210478D01*
X568027Y210629D01*
X568339Y210772D01*
X568654Y210907D01*
X568972Y211034D01*
X569294Y211153D01*
X569618Y211265D01*
X569945Y211368D01*
X570274Y211464D01*
X570606Y211551D01*
X570939Y211631D01*
X571275Y211702D01*
X571612Y211764D01*
X571950Y211819D01*
X572290Y211865D01*
X572631Y211903D01*
X572972Y211932D01*
X573315Y211953D01*
X573657Y211966D01*
X574000Y211970D01*
X574343Y211966D01*
X574685Y211953D01*
X575028Y211932D01*
X575369Y211903D01*
X575710Y211865D01*
X576050Y211819D01*
X576388Y211764D01*
X576725Y211702D01*
X577061Y211631D01*
X577394Y211551D01*
X577726Y211464D01*
X578055Y211368D01*
X578382Y211265D01*
X578706Y211153D01*
X579028Y211034D01*
X579346Y210907D01*
X579661Y210772D01*
X579973Y210629D01*
X580281Y210478D01*
X580585Y210320D01*
X580886Y210155D01*
X581182Y209982D01*
X581474Y209803D01*
X581761Y209616D01*
X582044Y209422D01*
X582322Y209221D01*
X582595Y209013D01*
X582862Y208799D01*
X583125Y208578D01*
X583382Y208351D01*
X583633Y208118D01*
X583878Y207878D01*
X584118Y207633D01*
X584351Y207382D01*
X584578Y207125D01*
X584799Y206862D01*
X585013Y206595D01*
X585221Y206322D01*
X585422Y206044D01*
X585616Y205761D01*
X585803Y205474D01*
X585982Y205182D01*
X586155Y204886D01*
X586320Y204585D01*
X586478Y204281D01*
X586629Y203973D01*
X586772Y203661D01*
X586907Y203346D01*
X587034Y203028D01*
X587153Y202706D01*
X587265Y202382D01*
X587368Y202055D01*
X587464Y201726D01*
X587551Y201394D01*
X587631Y201061D01*
X587702Y200725D01*
X587764Y200388D01*
X587819Y200050D01*
X587865Y199710D01*
X587903Y199369D01*
X587932Y199028D01*
X587953Y198685D01*
X587966Y198343D01*
X587970Y198000D01*
X587966Y197657D01*
X587953Y197315D01*
X587932Y196972D01*
X587903Y196631D01*
X587865Y196290D01*
X587819Y195950D01*
X587764Y195612D01*
X587702Y195275D01*
X587631Y194939D01*
X587551Y194606D01*
X587464Y194274D01*
X587368Y193945D01*
X587265Y193618D01*
X587153Y193294D01*
X587034Y192972D01*
X586907Y192654D01*
X586772Y192339D01*
X586629Y192027D01*
X586478Y191719D01*
X586320Y191415D01*
X586155Y191114D01*
X585982Y190818D01*
X585803Y190526D01*
X585616Y190239D01*
X585422Y189956D01*
X585221Y189678D01*
X585013Y189405D01*
X584799Y189138D01*
X584578Y188875D01*
X584351Y188618D01*
X584118Y188367D01*
X583878Y188122D01*
X583633Y187882D01*
X583382Y187649D01*
X583125Y187422D01*
X582862Y187201D01*
X582595Y186987D01*
X582322Y186779D01*
X582044Y186578D01*
X581761Y186384D01*
X581474Y186197D01*
X581182Y186018D01*
X580886Y185845D01*
X580585Y185680D01*
X580281Y185522D01*
X579973Y185371D01*
X579661Y185228D01*
X579346Y185093D01*
X579028Y184966D01*
X578706Y184847D01*
X578382Y184735D01*
X578055Y184632D01*
X577726Y184536D01*
X577394Y184449D01*
X577061Y184369D01*
X576725Y184298D01*
X576388Y184236D01*
X576050Y184181D01*
X575710Y184135D01*
X575369Y184097D01*
X575028Y184068D01*
X574685Y184047D01*
X574343Y184034D01*
X574000Y184030D01*
X573657Y184034D01*
X573315Y184047D01*
X572972Y184068D01*
X572631Y184097D01*
X572290Y184135D01*
X571950Y184181D01*
X571612Y184236D01*
X571275Y184298D01*
X570939Y184369D01*
X570606Y184449D01*
X570274Y184536D01*
X569945Y184632D01*
X569618Y184735D01*
X569294Y184847D01*
X568972Y184966D01*
X568654Y185093D01*
X568339Y185228D01*
X568027Y185371D01*
X567719Y185522D01*
X567415Y185680D01*
X567114Y185845D01*
X566818Y186018D01*
X566526Y186197D01*
X566239Y186384D01*
X565956Y186578D01*
X565678Y186779D01*
X565405Y186987D01*
X565138Y187201D01*
X564875Y187422D01*
X564618Y187649D01*
X564367Y187882D01*
X564122Y188122D01*
X563882Y188367D01*
X563649Y188618D01*
X563422Y188875D01*
X563201Y189138D01*
X562987Y189405D01*
X562779Y189678D01*
X562578Y189956D01*
X562384Y190239D01*
X562197Y190526D01*
X562018Y190818D01*
X561845Y191114D01*
X561680Y191415D01*
X561522Y191719D01*
X561371Y192027D01*
X561228Y192339D01*
X561093Y192654D01*
X560966Y192972D01*
X560847Y193294D01*
X560735Y193618D01*
X560632Y193945D01*
X560536Y194274D01*
X560449Y194606D01*
X560369Y194939D01*
X560298Y195275D01*
X560236Y195612D01*
X560181Y195950D01*
X560135Y196290D01*
X560097Y196631D01*
X560068Y196972D01*
X560047Y197315D01*
X560034Y197657D01*
X560030Y198000D01*
D11*
X549950Y161057D02*
X549950Y145041D01*
X549950Y161057D02*
X560627Y161057D01*
X555288Y153049D02*
X549950Y153049D01*
X566321Y155718D02*
X571660Y161057D01*
X571660Y145041D01*
X566321Y145041D02*
X576999Y145041D01*
M02*
