M48
;GenerationSoftware,Autodesk,EAGLE,9.5.2*%
;CreationDate,2020-04-27T13:06:34Z*%
FMAT,2
ICI,OFF
METRIC,TZ,000.000
T7C0.813
T6C1.194
T5C1.200
T4C1.321
T3C2.794
T2C3.200
%
G90
M71
T2
X11500Y11500
X49000Y11500
T3
X53500Y19800
T4
X43120Y19800
X65120Y19800
T5
X20080Y4570
X40180Y17070
X40180Y4570
X23570Y6840
X23570Y16840
X36070Y6840
X36070Y16840
X20080Y17070
T6
X44652Y2338
X49652Y2338
X54652Y2338
X14956Y20638
X9956Y20638
X4956Y20638
T7
X42700Y8900
X42700Y13980
X17500Y8460
X17500Y13540
M30