G04 EAGLE Gerber RS-274X export*
G75*
%MOMM*%
%FSLAX34Y34*%
%LPD*%
%INTop solder paste for stencil*%
%IPPOS*%
%AMOC8*
5,1,8,0,0,1.08239X$1,22.5*%
G01*
%ADD10C,0.000000*%


D10*
X25320Y-4000D02*
X674680Y-4000D01*
X674680Y235000D01*
X25320Y235000D01*
X25320Y-4000D01*
X99000Y115000D02*
X99005Y115393D01*
X99019Y115785D01*
X99043Y116177D01*
X99077Y116568D01*
X99120Y116959D01*
X99173Y117348D01*
X99236Y117735D01*
X99307Y118121D01*
X99389Y118506D01*
X99479Y118888D01*
X99580Y119267D01*
X99689Y119645D01*
X99808Y120019D01*
X99935Y120390D01*
X100072Y120758D01*
X100218Y121123D01*
X100373Y121484D01*
X100536Y121841D01*
X100708Y122194D01*
X100889Y122542D01*
X101079Y122886D01*
X101276Y123226D01*
X101482Y123560D01*
X101696Y123889D01*
X101919Y124213D01*
X102149Y124531D01*
X102386Y124844D01*
X102632Y125150D01*
X102885Y125451D01*
X103145Y125745D01*
X103412Y126033D01*
X103686Y126314D01*
X103967Y126588D01*
X104255Y126855D01*
X104549Y127115D01*
X104850Y127368D01*
X105156Y127614D01*
X105469Y127851D01*
X105787Y128081D01*
X106111Y128304D01*
X106440Y128518D01*
X106774Y128724D01*
X107114Y128921D01*
X107458Y129111D01*
X107806Y129292D01*
X108159Y129464D01*
X108516Y129627D01*
X108877Y129782D01*
X109242Y129928D01*
X109610Y130065D01*
X109981Y130192D01*
X110355Y130311D01*
X110733Y130420D01*
X111112Y130521D01*
X111494Y130611D01*
X111879Y130693D01*
X112265Y130764D01*
X112652Y130827D01*
X113041Y130880D01*
X113432Y130923D01*
X113823Y130957D01*
X114215Y130981D01*
X114607Y130995D01*
X115000Y131000D01*
X115393Y130995D01*
X115785Y130981D01*
X116177Y130957D01*
X116568Y130923D01*
X116959Y130880D01*
X117348Y130827D01*
X117735Y130764D01*
X118121Y130693D01*
X118506Y130611D01*
X118888Y130521D01*
X119267Y130420D01*
X119645Y130311D01*
X120019Y130192D01*
X120390Y130065D01*
X120758Y129928D01*
X121123Y129782D01*
X121484Y129627D01*
X121841Y129464D01*
X122194Y129292D01*
X122542Y129111D01*
X122886Y128921D01*
X123226Y128724D01*
X123560Y128518D01*
X123889Y128304D01*
X124213Y128081D01*
X124531Y127851D01*
X124844Y127614D01*
X125150Y127368D01*
X125451Y127115D01*
X125745Y126855D01*
X126033Y126588D01*
X126314Y126314D01*
X126588Y126033D01*
X126855Y125745D01*
X127115Y125451D01*
X127368Y125150D01*
X127614Y124844D01*
X127851Y124531D01*
X128081Y124213D01*
X128304Y123889D01*
X128518Y123560D01*
X128724Y123226D01*
X128921Y122886D01*
X129111Y122542D01*
X129292Y122194D01*
X129464Y121841D01*
X129627Y121484D01*
X129782Y121123D01*
X129928Y120758D01*
X130065Y120390D01*
X130192Y120019D01*
X130311Y119645D01*
X130420Y119267D01*
X130521Y118888D01*
X130611Y118506D01*
X130693Y118121D01*
X130764Y117735D01*
X130827Y117348D01*
X130880Y116959D01*
X130923Y116568D01*
X130957Y116177D01*
X130981Y115785D01*
X130995Y115393D01*
X131000Y115000D01*
X130995Y114607D01*
X130981Y114215D01*
X130957Y113823D01*
X130923Y113432D01*
X130880Y113041D01*
X130827Y112652D01*
X130764Y112265D01*
X130693Y111879D01*
X130611Y111494D01*
X130521Y111112D01*
X130420Y110733D01*
X130311Y110355D01*
X130192Y109981D01*
X130065Y109610D01*
X129928Y109242D01*
X129782Y108877D01*
X129627Y108516D01*
X129464Y108159D01*
X129292Y107806D01*
X129111Y107458D01*
X128921Y107114D01*
X128724Y106774D01*
X128518Y106440D01*
X128304Y106111D01*
X128081Y105787D01*
X127851Y105469D01*
X127614Y105156D01*
X127368Y104850D01*
X127115Y104549D01*
X126855Y104255D01*
X126588Y103967D01*
X126314Y103686D01*
X126033Y103412D01*
X125745Y103145D01*
X125451Y102885D01*
X125150Y102632D01*
X124844Y102386D01*
X124531Y102149D01*
X124213Y101919D01*
X123889Y101696D01*
X123560Y101482D01*
X123226Y101276D01*
X122886Y101079D01*
X122542Y100889D01*
X122194Y100708D01*
X121841Y100536D01*
X121484Y100373D01*
X121123Y100218D01*
X120758Y100072D01*
X120390Y99935D01*
X120019Y99808D01*
X119645Y99689D01*
X119267Y99580D01*
X118888Y99479D01*
X118506Y99389D01*
X118121Y99307D01*
X117735Y99236D01*
X117348Y99173D01*
X116959Y99120D01*
X116568Y99077D01*
X116177Y99043D01*
X115785Y99019D01*
X115393Y99005D01*
X115000Y99000D01*
X114607Y99005D01*
X114215Y99019D01*
X113823Y99043D01*
X113432Y99077D01*
X113041Y99120D01*
X112652Y99173D01*
X112265Y99236D01*
X111879Y99307D01*
X111494Y99389D01*
X111112Y99479D01*
X110733Y99580D01*
X110355Y99689D01*
X109981Y99808D01*
X109610Y99935D01*
X109242Y100072D01*
X108877Y100218D01*
X108516Y100373D01*
X108159Y100536D01*
X107806Y100708D01*
X107458Y100889D01*
X107114Y101079D01*
X106774Y101276D01*
X106440Y101482D01*
X106111Y101696D01*
X105787Y101919D01*
X105469Y102149D01*
X105156Y102386D01*
X104850Y102632D01*
X104549Y102885D01*
X104255Y103145D01*
X103967Y103412D01*
X103686Y103686D01*
X103412Y103967D01*
X103145Y104255D01*
X102885Y104549D01*
X102632Y104850D01*
X102386Y105156D01*
X102149Y105469D01*
X101919Y105787D01*
X101696Y106111D01*
X101482Y106440D01*
X101276Y106774D01*
X101079Y107114D01*
X100889Y107458D01*
X100708Y107806D01*
X100536Y108159D01*
X100373Y108516D01*
X100218Y108877D01*
X100072Y109242D01*
X99935Y109610D01*
X99808Y109981D01*
X99689Y110355D01*
X99580Y110733D01*
X99479Y111112D01*
X99389Y111494D01*
X99307Y111879D01*
X99236Y112265D01*
X99173Y112652D01*
X99120Y113041D01*
X99077Y113432D01*
X99043Y113823D01*
X99019Y114215D01*
X99005Y114607D01*
X99000Y115000D01*
X474000Y115000D02*
X474005Y115393D01*
X474019Y115785D01*
X474043Y116177D01*
X474077Y116568D01*
X474120Y116959D01*
X474173Y117348D01*
X474236Y117735D01*
X474307Y118121D01*
X474389Y118506D01*
X474479Y118888D01*
X474580Y119267D01*
X474689Y119645D01*
X474808Y120019D01*
X474935Y120390D01*
X475072Y120758D01*
X475218Y121123D01*
X475373Y121484D01*
X475536Y121841D01*
X475708Y122194D01*
X475889Y122542D01*
X476079Y122886D01*
X476276Y123226D01*
X476482Y123560D01*
X476696Y123889D01*
X476919Y124213D01*
X477149Y124531D01*
X477386Y124844D01*
X477632Y125150D01*
X477885Y125451D01*
X478145Y125745D01*
X478412Y126033D01*
X478686Y126314D01*
X478967Y126588D01*
X479255Y126855D01*
X479549Y127115D01*
X479850Y127368D01*
X480156Y127614D01*
X480469Y127851D01*
X480787Y128081D01*
X481111Y128304D01*
X481440Y128518D01*
X481774Y128724D01*
X482114Y128921D01*
X482458Y129111D01*
X482806Y129292D01*
X483159Y129464D01*
X483516Y129627D01*
X483877Y129782D01*
X484242Y129928D01*
X484610Y130065D01*
X484981Y130192D01*
X485355Y130311D01*
X485733Y130420D01*
X486112Y130521D01*
X486494Y130611D01*
X486879Y130693D01*
X487265Y130764D01*
X487652Y130827D01*
X488041Y130880D01*
X488432Y130923D01*
X488823Y130957D01*
X489215Y130981D01*
X489607Y130995D01*
X490000Y131000D01*
X490393Y130995D01*
X490785Y130981D01*
X491177Y130957D01*
X491568Y130923D01*
X491959Y130880D01*
X492348Y130827D01*
X492735Y130764D01*
X493121Y130693D01*
X493506Y130611D01*
X493888Y130521D01*
X494267Y130420D01*
X494645Y130311D01*
X495019Y130192D01*
X495390Y130065D01*
X495758Y129928D01*
X496123Y129782D01*
X496484Y129627D01*
X496841Y129464D01*
X497194Y129292D01*
X497542Y129111D01*
X497886Y128921D01*
X498226Y128724D01*
X498560Y128518D01*
X498889Y128304D01*
X499213Y128081D01*
X499531Y127851D01*
X499844Y127614D01*
X500150Y127368D01*
X500451Y127115D01*
X500745Y126855D01*
X501033Y126588D01*
X501314Y126314D01*
X501588Y126033D01*
X501855Y125745D01*
X502115Y125451D01*
X502368Y125150D01*
X502614Y124844D01*
X502851Y124531D01*
X503081Y124213D01*
X503304Y123889D01*
X503518Y123560D01*
X503724Y123226D01*
X503921Y122886D01*
X504111Y122542D01*
X504292Y122194D01*
X504464Y121841D01*
X504627Y121484D01*
X504782Y121123D01*
X504928Y120758D01*
X505065Y120390D01*
X505192Y120019D01*
X505311Y119645D01*
X505420Y119267D01*
X505521Y118888D01*
X505611Y118506D01*
X505693Y118121D01*
X505764Y117735D01*
X505827Y117348D01*
X505880Y116959D01*
X505923Y116568D01*
X505957Y116177D01*
X505981Y115785D01*
X505995Y115393D01*
X506000Y115000D01*
X505995Y114607D01*
X505981Y114215D01*
X505957Y113823D01*
X505923Y113432D01*
X505880Y113041D01*
X505827Y112652D01*
X505764Y112265D01*
X505693Y111879D01*
X505611Y111494D01*
X505521Y111112D01*
X505420Y110733D01*
X505311Y110355D01*
X505192Y109981D01*
X505065Y109610D01*
X504928Y109242D01*
X504782Y108877D01*
X504627Y108516D01*
X504464Y108159D01*
X504292Y107806D01*
X504111Y107458D01*
X503921Y107114D01*
X503724Y106774D01*
X503518Y106440D01*
X503304Y106111D01*
X503081Y105787D01*
X502851Y105469D01*
X502614Y105156D01*
X502368Y104850D01*
X502115Y104549D01*
X501855Y104255D01*
X501588Y103967D01*
X501314Y103686D01*
X501033Y103412D01*
X500745Y103145D01*
X500451Y102885D01*
X500150Y102632D01*
X499844Y102386D01*
X499531Y102149D01*
X499213Y101919D01*
X498889Y101696D01*
X498560Y101482D01*
X498226Y101276D01*
X497886Y101079D01*
X497542Y100889D01*
X497194Y100708D01*
X496841Y100536D01*
X496484Y100373D01*
X496123Y100218D01*
X495758Y100072D01*
X495390Y99935D01*
X495019Y99808D01*
X494645Y99689D01*
X494267Y99580D01*
X493888Y99479D01*
X493506Y99389D01*
X493121Y99307D01*
X492735Y99236D01*
X492348Y99173D01*
X491959Y99120D01*
X491568Y99077D01*
X491177Y99043D01*
X490785Y99019D01*
X490393Y99005D01*
X490000Y99000D01*
X489607Y99005D01*
X489215Y99019D01*
X488823Y99043D01*
X488432Y99077D01*
X488041Y99120D01*
X487652Y99173D01*
X487265Y99236D01*
X486879Y99307D01*
X486494Y99389D01*
X486112Y99479D01*
X485733Y99580D01*
X485355Y99689D01*
X484981Y99808D01*
X484610Y99935D01*
X484242Y100072D01*
X483877Y100218D01*
X483516Y100373D01*
X483159Y100536D01*
X482806Y100708D01*
X482458Y100889D01*
X482114Y101079D01*
X481774Y101276D01*
X481440Y101482D01*
X481111Y101696D01*
X480787Y101919D01*
X480469Y102149D01*
X480156Y102386D01*
X479850Y102632D01*
X479549Y102885D01*
X479255Y103145D01*
X478967Y103412D01*
X478686Y103686D01*
X478412Y103967D01*
X478145Y104255D01*
X477885Y104549D01*
X477632Y104850D01*
X477386Y105156D01*
X477149Y105469D01*
X476919Y105787D01*
X476696Y106111D01*
X476482Y106440D01*
X476276Y106774D01*
X476079Y107114D01*
X475889Y107458D01*
X475708Y107806D01*
X475536Y108159D01*
X475373Y108516D01*
X475218Y108877D01*
X475072Y109242D01*
X474935Y109610D01*
X474808Y109981D01*
X474689Y110355D01*
X474580Y110733D01*
X474479Y111112D01*
X474389Y111494D01*
X474307Y111879D01*
X474236Y112265D01*
X474173Y112652D01*
X474120Y113041D01*
X474077Y113432D01*
X474043Y113823D01*
X474019Y114215D01*
X474005Y114607D01*
X474000Y115000D01*
X521030Y198000D02*
X521034Y198343D01*
X521047Y198685D01*
X521068Y199028D01*
X521097Y199369D01*
X521135Y199710D01*
X521181Y200050D01*
X521236Y200388D01*
X521298Y200725D01*
X521369Y201061D01*
X521449Y201394D01*
X521536Y201726D01*
X521632Y202055D01*
X521735Y202382D01*
X521847Y202706D01*
X521966Y203028D01*
X522093Y203346D01*
X522228Y203661D01*
X522371Y203973D01*
X522522Y204281D01*
X522680Y204585D01*
X522845Y204886D01*
X523018Y205182D01*
X523197Y205474D01*
X523384Y205761D01*
X523578Y206044D01*
X523779Y206322D01*
X523987Y206595D01*
X524201Y206862D01*
X524422Y207125D01*
X524649Y207382D01*
X524882Y207633D01*
X525122Y207878D01*
X525367Y208118D01*
X525618Y208351D01*
X525875Y208578D01*
X526138Y208799D01*
X526405Y209013D01*
X526678Y209221D01*
X526956Y209422D01*
X527239Y209616D01*
X527526Y209803D01*
X527818Y209982D01*
X528114Y210155D01*
X528415Y210320D01*
X528719Y210478D01*
X529027Y210629D01*
X529339Y210772D01*
X529654Y210907D01*
X529972Y211034D01*
X530294Y211153D01*
X530618Y211265D01*
X530945Y211368D01*
X531274Y211464D01*
X531606Y211551D01*
X531939Y211631D01*
X532275Y211702D01*
X532612Y211764D01*
X532950Y211819D01*
X533290Y211865D01*
X533631Y211903D01*
X533972Y211932D01*
X534315Y211953D01*
X534657Y211966D01*
X535000Y211970D01*
X535343Y211966D01*
X535685Y211953D01*
X536028Y211932D01*
X536369Y211903D01*
X536710Y211865D01*
X537050Y211819D01*
X537388Y211764D01*
X537725Y211702D01*
X538061Y211631D01*
X538394Y211551D01*
X538726Y211464D01*
X539055Y211368D01*
X539382Y211265D01*
X539706Y211153D01*
X540028Y211034D01*
X540346Y210907D01*
X540661Y210772D01*
X540973Y210629D01*
X541281Y210478D01*
X541585Y210320D01*
X541886Y210155D01*
X542182Y209982D01*
X542474Y209803D01*
X542761Y209616D01*
X543044Y209422D01*
X543322Y209221D01*
X543595Y209013D01*
X543862Y208799D01*
X544125Y208578D01*
X544382Y208351D01*
X544633Y208118D01*
X544878Y207878D01*
X545118Y207633D01*
X545351Y207382D01*
X545578Y207125D01*
X545799Y206862D01*
X546013Y206595D01*
X546221Y206322D01*
X546422Y206044D01*
X546616Y205761D01*
X546803Y205474D01*
X546982Y205182D01*
X547155Y204886D01*
X547320Y204585D01*
X547478Y204281D01*
X547629Y203973D01*
X547772Y203661D01*
X547907Y203346D01*
X548034Y203028D01*
X548153Y202706D01*
X548265Y202382D01*
X548368Y202055D01*
X548464Y201726D01*
X548551Y201394D01*
X548631Y201061D01*
X548702Y200725D01*
X548764Y200388D01*
X548819Y200050D01*
X548865Y199710D01*
X548903Y199369D01*
X548932Y199028D01*
X548953Y198685D01*
X548966Y198343D01*
X548970Y198000D01*
X548966Y197657D01*
X548953Y197315D01*
X548932Y196972D01*
X548903Y196631D01*
X548865Y196290D01*
X548819Y195950D01*
X548764Y195612D01*
X548702Y195275D01*
X548631Y194939D01*
X548551Y194606D01*
X548464Y194274D01*
X548368Y193945D01*
X548265Y193618D01*
X548153Y193294D01*
X548034Y192972D01*
X547907Y192654D01*
X547772Y192339D01*
X547629Y192027D01*
X547478Y191719D01*
X547320Y191415D01*
X547155Y191114D01*
X546982Y190818D01*
X546803Y190526D01*
X546616Y190239D01*
X546422Y189956D01*
X546221Y189678D01*
X546013Y189405D01*
X545799Y189138D01*
X545578Y188875D01*
X545351Y188618D01*
X545118Y188367D01*
X544878Y188122D01*
X544633Y187882D01*
X544382Y187649D01*
X544125Y187422D01*
X543862Y187201D01*
X543595Y186987D01*
X543322Y186779D01*
X543044Y186578D01*
X542761Y186384D01*
X542474Y186197D01*
X542182Y186018D01*
X541886Y185845D01*
X541585Y185680D01*
X541281Y185522D01*
X540973Y185371D01*
X540661Y185228D01*
X540346Y185093D01*
X540028Y184966D01*
X539706Y184847D01*
X539382Y184735D01*
X539055Y184632D01*
X538726Y184536D01*
X538394Y184449D01*
X538061Y184369D01*
X537725Y184298D01*
X537388Y184236D01*
X537050Y184181D01*
X536710Y184135D01*
X536369Y184097D01*
X536028Y184068D01*
X535685Y184047D01*
X535343Y184034D01*
X535000Y184030D01*
X534657Y184034D01*
X534315Y184047D01*
X533972Y184068D01*
X533631Y184097D01*
X533290Y184135D01*
X532950Y184181D01*
X532612Y184236D01*
X532275Y184298D01*
X531939Y184369D01*
X531606Y184449D01*
X531274Y184536D01*
X530945Y184632D01*
X530618Y184735D01*
X530294Y184847D01*
X529972Y184966D01*
X529654Y185093D01*
X529339Y185228D01*
X529027Y185371D01*
X528719Y185522D01*
X528415Y185680D01*
X528114Y185845D01*
X527818Y186018D01*
X527526Y186197D01*
X527239Y186384D01*
X526956Y186578D01*
X526678Y186779D01*
X526405Y186987D01*
X526138Y187201D01*
X525875Y187422D01*
X525618Y187649D01*
X525367Y187882D01*
X525122Y188122D01*
X524882Y188367D01*
X524649Y188618D01*
X524422Y188875D01*
X524201Y189138D01*
X523987Y189405D01*
X523779Y189678D01*
X523578Y189956D01*
X523384Y190239D01*
X523197Y190526D01*
X523018Y190818D01*
X522845Y191114D01*
X522680Y191415D01*
X522522Y191719D01*
X522371Y192027D01*
X522228Y192339D01*
X522093Y192654D01*
X521966Y192972D01*
X521847Y193294D01*
X521735Y193618D01*
X521632Y193945D01*
X521536Y194274D01*
X521449Y194606D01*
X521369Y194939D01*
X521298Y195275D01*
X521236Y195612D01*
X521181Y195950D01*
X521135Y196290D01*
X521097Y196631D01*
X521068Y196972D01*
X521047Y197315D01*
X521034Y197657D01*
X521030Y198000D01*
M02*
