G75*
%MOIN*%
%OFA0B0*%
%FSLAX25Y25*%
%IPPOS*%
%LPD*%
%AMOC8*
5,1,8,0,0,1.08239X$1,22.5*
%
%ADD10C,0.00000*%
D10*
X0002816Y0009005D02*
X0002816Y0099556D01*
X0209509Y0097556D01*
X0209509Y0007005D01*
X0002816Y0009005D01*
X0026044Y0052280D02*
X0026046Y0052438D01*
X0026052Y0052596D01*
X0026062Y0052754D01*
X0026076Y0052912D01*
X0026094Y0053069D01*
X0026115Y0053226D01*
X0026141Y0053382D01*
X0026171Y0053538D01*
X0026204Y0053693D01*
X0026242Y0053846D01*
X0026283Y0053999D01*
X0026328Y0054151D01*
X0026377Y0054302D01*
X0026430Y0054451D01*
X0026486Y0054599D01*
X0026546Y0054745D01*
X0026610Y0054890D01*
X0026678Y0055033D01*
X0026749Y0055175D01*
X0026823Y0055315D01*
X0026901Y0055452D01*
X0026983Y0055588D01*
X0027067Y0055722D01*
X0027156Y0055853D01*
X0027247Y0055982D01*
X0027342Y0056109D01*
X0027439Y0056234D01*
X0027540Y0056356D01*
X0027644Y0056475D01*
X0027751Y0056592D01*
X0027861Y0056706D01*
X0027974Y0056817D01*
X0028089Y0056926D01*
X0028207Y0057031D01*
X0028328Y0057133D01*
X0028451Y0057233D01*
X0028577Y0057329D01*
X0028705Y0057422D01*
X0028835Y0057512D01*
X0028968Y0057598D01*
X0029103Y0057682D01*
X0029239Y0057761D01*
X0029378Y0057838D01*
X0029519Y0057910D01*
X0029661Y0057980D01*
X0029805Y0058045D01*
X0029951Y0058107D01*
X0030098Y0058165D01*
X0030247Y0058220D01*
X0030397Y0058271D01*
X0030548Y0058318D01*
X0030700Y0058361D01*
X0030853Y0058400D01*
X0031008Y0058436D01*
X0031163Y0058467D01*
X0031319Y0058495D01*
X0031475Y0058519D01*
X0031632Y0058539D01*
X0031790Y0058555D01*
X0031947Y0058567D01*
X0032106Y0058575D01*
X0032264Y0058579D01*
X0032422Y0058579D01*
X0032580Y0058575D01*
X0032739Y0058567D01*
X0032896Y0058555D01*
X0033054Y0058539D01*
X0033211Y0058519D01*
X0033367Y0058495D01*
X0033523Y0058467D01*
X0033678Y0058436D01*
X0033833Y0058400D01*
X0033986Y0058361D01*
X0034138Y0058318D01*
X0034289Y0058271D01*
X0034439Y0058220D01*
X0034588Y0058165D01*
X0034735Y0058107D01*
X0034881Y0058045D01*
X0035025Y0057980D01*
X0035167Y0057910D01*
X0035308Y0057838D01*
X0035447Y0057761D01*
X0035583Y0057682D01*
X0035718Y0057598D01*
X0035851Y0057512D01*
X0035981Y0057422D01*
X0036109Y0057329D01*
X0036235Y0057233D01*
X0036358Y0057133D01*
X0036479Y0057031D01*
X0036597Y0056926D01*
X0036712Y0056817D01*
X0036825Y0056706D01*
X0036935Y0056592D01*
X0037042Y0056475D01*
X0037146Y0056356D01*
X0037247Y0056234D01*
X0037344Y0056109D01*
X0037439Y0055982D01*
X0037530Y0055853D01*
X0037619Y0055722D01*
X0037703Y0055588D01*
X0037785Y0055452D01*
X0037863Y0055315D01*
X0037937Y0055175D01*
X0038008Y0055033D01*
X0038076Y0054890D01*
X0038140Y0054745D01*
X0038200Y0054599D01*
X0038256Y0054451D01*
X0038309Y0054302D01*
X0038358Y0054151D01*
X0038403Y0053999D01*
X0038444Y0053846D01*
X0038482Y0053693D01*
X0038515Y0053538D01*
X0038545Y0053382D01*
X0038571Y0053226D01*
X0038592Y0053069D01*
X0038610Y0052912D01*
X0038624Y0052754D01*
X0038634Y0052596D01*
X0038640Y0052438D01*
X0038642Y0052280D01*
X0038640Y0052122D01*
X0038634Y0051964D01*
X0038624Y0051806D01*
X0038610Y0051648D01*
X0038592Y0051491D01*
X0038571Y0051334D01*
X0038545Y0051178D01*
X0038515Y0051022D01*
X0038482Y0050867D01*
X0038444Y0050714D01*
X0038403Y0050561D01*
X0038358Y0050409D01*
X0038309Y0050258D01*
X0038256Y0050109D01*
X0038200Y0049961D01*
X0038140Y0049815D01*
X0038076Y0049670D01*
X0038008Y0049527D01*
X0037937Y0049385D01*
X0037863Y0049245D01*
X0037785Y0049108D01*
X0037703Y0048972D01*
X0037619Y0048838D01*
X0037530Y0048707D01*
X0037439Y0048578D01*
X0037344Y0048451D01*
X0037247Y0048326D01*
X0037146Y0048204D01*
X0037042Y0048085D01*
X0036935Y0047968D01*
X0036825Y0047854D01*
X0036712Y0047743D01*
X0036597Y0047634D01*
X0036479Y0047529D01*
X0036358Y0047427D01*
X0036235Y0047327D01*
X0036109Y0047231D01*
X0035981Y0047138D01*
X0035851Y0047048D01*
X0035718Y0046962D01*
X0035583Y0046878D01*
X0035447Y0046799D01*
X0035308Y0046722D01*
X0035167Y0046650D01*
X0035025Y0046580D01*
X0034881Y0046515D01*
X0034735Y0046453D01*
X0034588Y0046395D01*
X0034439Y0046340D01*
X0034289Y0046289D01*
X0034138Y0046242D01*
X0033986Y0046199D01*
X0033833Y0046160D01*
X0033678Y0046124D01*
X0033523Y0046093D01*
X0033367Y0046065D01*
X0033211Y0046041D01*
X0033054Y0046021D01*
X0032896Y0046005D01*
X0032739Y0045993D01*
X0032580Y0045985D01*
X0032422Y0045981D01*
X0032264Y0045981D01*
X0032106Y0045985D01*
X0031947Y0045993D01*
X0031790Y0046005D01*
X0031632Y0046021D01*
X0031475Y0046041D01*
X0031319Y0046065D01*
X0031163Y0046093D01*
X0031008Y0046124D01*
X0030853Y0046160D01*
X0030700Y0046199D01*
X0030548Y0046242D01*
X0030397Y0046289D01*
X0030247Y0046340D01*
X0030098Y0046395D01*
X0029951Y0046453D01*
X0029805Y0046515D01*
X0029661Y0046580D01*
X0029519Y0046650D01*
X0029378Y0046722D01*
X0029239Y0046799D01*
X0029103Y0046878D01*
X0028968Y0046962D01*
X0028835Y0047048D01*
X0028705Y0047138D01*
X0028577Y0047231D01*
X0028451Y0047327D01*
X0028328Y0047427D01*
X0028207Y0047529D01*
X0028089Y0047634D01*
X0027974Y0047743D01*
X0027861Y0047854D01*
X0027751Y0047968D01*
X0027644Y0048085D01*
X0027540Y0048204D01*
X0027439Y0048326D01*
X0027342Y0048451D01*
X0027247Y0048578D01*
X0027156Y0048707D01*
X0027067Y0048838D01*
X0026983Y0048972D01*
X0026901Y0049108D01*
X0026823Y0049245D01*
X0026749Y0049385D01*
X0026678Y0049527D01*
X0026610Y0049670D01*
X0026546Y0049815D01*
X0026486Y0049961D01*
X0026430Y0050109D01*
X0026377Y0050258D01*
X0026328Y0050409D01*
X0026283Y0050561D01*
X0026242Y0050714D01*
X0026204Y0050867D01*
X0026171Y0051022D01*
X0026141Y0051178D01*
X0026115Y0051334D01*
X0026094Y0051491D01*
X0026076Y0051648D01*
X0026062Y0051806D01*
X0026052Y0051964D01*
X0026046Y0052122D01*
X0026044Y0052280D01*
X0173682Y0052280D02*
X0173684Y0052438D01*
X0173690Y0052596D01*
X0173700Y0052754D01*
X0173714Y0052912D01*
X0173732Y0053069D01*
X0173753Y0053226D01*
X0173779Y0053382D01*
X0173809Y0053538D01*
X0173842Y0053693D01*
X0173880Y0053846D01*
X0173921Y0053999D01*
X0173966Y0054151D01*
X0174015Y0054302D01*
X0174068Y0054451D01*
X0174124Y0054599D01*
X0174184Y0054745D01*
X0174248Y0054890D01*
X0174316Y0055033D01*
X0174387Y0055175D01*
X0174461Y0055315D01*
X0174539Y0055452D01*
X0174621Y0055588D01*
X0174705Y0055722D01*
X0174794Y0055853D01*
X0174885Y0055982D01*
X0174980Y0056109D01*
X0175077Y0056234D01*
X0175178Y0056356D01*
X0175282Y0056475D01*
X0175389Y0056592D01*
X0175499Y0056706D01*
X0175612Y0056817D01*
X0175727Y0056926D01*
X0175845Y0057031D01*
X0175966Y0057133D01*
X0176089Y0057233D01*
X0176215Y0057329D01*
X0176343Y0057422D01*
X0176473Y0057512D01*
X0176606Y0057598D01*
X0176741Y0057682D01*
X0176877Y0057761D01*
X0177016Y0057838D01*
X0177157Y0057910D01*
X0177299Y0057980D01*
X0177443Y0058045D01*
X0177589Y0058107D01*
X0177736Y0058165D01*
X0177885Y0058220D01*
X0178035Y0058271D01*
X0178186Y0058318D01*
X0178338Y0058361D01*
X0178491Y0058400D01*
X0178646Y0058436D01*
X0178801Y0058467D01*
X0178957Y0058495D01*
X0179113Y0058519D01*
X0179270Y0058539D01*
X0179428Y0058555D01*
X0179585Y0058567D01*
X0179744Y0058575D01*
X0179902Y0058579D01*
X0180060Y0058579D01*
X0180218Y0058575D01*
X0180377Y0058567D01*
X0180534Y0058555D01*
X0180692Y0058539D01*
X0180849Y0058519D01*
X0181005Y0058495D01*
X0181161Y0058467D01*
X0181316Y0058436D01*
X0181471Y0058400D01*
X0181624Y0058361D01*
X0181776Y0058318D01*
X0181927Y0058271D01*
X0182077Y0058220D01*
X0182226Y0058165D01*
X0182373Y0058107D01*
X0182519Y0058045D01*
X0182663Y0057980D01*
X0182805Y0057910D01*
X0182946Y0057838D01*
X0183085Y0057761D01*
X0183221Y0057682D01*
X0183356Y0057598D01*
X0183489Y0057512D01*
X0183619Y0057422D01*
X0183747Y0057329D01*
X0183873Y0057233D01*
X0183996Y0057133D01*
X0184117Y0057031D01*
X0184235Y0056926D01*
X0184350Y0056817D01*
X0184463Y0056706D01*
X0184573Y0056592D01*
X0184680Y0056475D01*
X0184784Y0056356D01*
X0184885Y0056234D01*
X0184982Y0056109D01*
X0185077Y0055982D01*
X0185168Y0055853D01*
X0185257Y0055722D01*
X0185341Y0055588D01*
X0185423Y0055452D01*
X0185501Y0055315D01*
X0185575Y0055175D01*
X0185646Y0055033D01*
X0185714Y0054890D01*
X0185778Y0054745D01*
X0185838Y0054599D01*
X0185894Y0054451D01*
X0185947Y0054302D01*
X0185996Y0054151D01*
X0186041Y0053999D01*
X0186082Y0053846D01*
X0186120Y0053693D01*
X0186153Y0053538D01*
X0186183Y0053382D01*
X0186209Y0053226D01*
X0186230Y0053069D01*
X0186248Y0052912D01*
X0186262Y0052754D01*
X0186272Y0052596D01*
X0186278Y0052438D01*
X0186280Y0052280D01*
X0186278Y0052122D01*
X0186272Y0051964D01*
X0186262Y0051806D01*
X0186248Y0051648D01*
X0186230Y0051491D01*
X0186209Y0051334D01*
X0186183Y0051178D01*
X0186153Y0051022D01*
X0186120Y0050867D01*
X0186082Y0050714D01*
X0186041Y0050561D01*
X0185996Y0050409D01*
X0185947Y0050258D01*
X0185894Y0050109D01*
X0185838Y0049961D01*
X0185778Y0049815D01*
X0185714Y0049670D01*
X0185646Y0049527D01*
X0185575Y0049385D01*
X0185501Y0049245D01*
X0185423Y0049108D01*
X0185341Y0048972D01*
X0185257Y0048838D01*
X0185168Y0048707D01*
X0185077Y0048578D01*
X0184982Y0048451D01*
X0184885Y0048326D01*
X0184784Y0048204D01*
X0184680Y0048085D01*
X0184573Y0047968D01*
X0184463Y0047854D01*
X0184350Y0047743D01*
X0184235Y0047634D01*
X0184117Y0047529D01*
X0183996Y0047427D01*
X0183873Y0047327D01*
X0183747Y0047231D01*
X0183619Y0047138D01*
X0183489Y0047048D01*
X0183356Y0046962D01*
X0183221Y0046878D01*
X0183085Y0046799D01*
X0182946Y0046722D01*
X0182805Y0046650D01*
X0182663Y0046580D01*
X0182519Y0046515D01*
X0182373Y0046453D01*
X0182226Y0046395D01*
X0182077Y0046340D01*
X0181927Y0046289D01*
X0181776Y0046242D01*
X0181624Y0046199D01*
X0181471Y0046160D01*
X0181316Y0046124D01*
X0181161Y0046093D01*
X0181005Y0046065D01*
X0180849Y0046041D01*
X0180692Y0046021D01*
X0180534Y0046005D01*
X0180377Y0045993D01*
X0180218Y0045985D01*
X0180060Y0045981D01*
X0179902Y0045981D01*
X0179744Y0045985D01*
X0179585Y0045993D01*
X0179428Y0046005D01*
X0179270Y0046021D01*
X0179113Y0046041D01*
X0178957Y0046065D01*
X0178801Y0046093D01*
X0178646Y0046124D01*
X0178491Y0046160D01*
X0178338Y0046199D01*
X0178186Y0046242D01*
X0178035Y0046289D01*
X0177885Y0046340D01*
X0177736Y0046395D01*
X0177589Y0046453D01*
X0177443Y0046515D01*
X0177299Y0046580D01*
X0177157Y0046650D01*
X0177016Y0046722D01*
X0176877Y0046799D01*
X0176741Y0046878D01*
X0176606Y0046962D01*
X0176473Y0047048D01*
X0176343Y0047138D01*
X0176215Y0047231D01*
X0176089Y0047327D01*
X0175966Y0047427D01*
X0175845Y0047529D01*
X0175727Y0047634D01*
X0175612Y0047743D01*
X0175499Y0047854D01*
X0175389Y0047968D01*
X0175282Y0048085D01*
X0175178Y0048204D01*
X0175077Y0048326D01*
X0174980Y0048451D01*
X0174885Y0048578D01*
X0174794Y0048707D01*
X0174705Y0048838D01*
X0174621Y0048972D01*
X0174539Y0049108D01*
X0174461Y0049245D01*
X0174387Y0049385D01*
X0174316Y0049527D01*
X0174248Y0049670D01*
X0174184Y0049815D01*
X0174124Y0049961D01*
X0174068Y0050109D01*
X0174015Y0050258D01*
X0173966Y0050409D01*
X0173921Y0050561D01*
X0173880Y0050714D01*
X0173842Y0050867D01*
X0173809Y0051022D01*
X0173779Y0051178D01*
X0173753Y0051334D01*
X0173732Y0051491D01*
X0173714Y0051648D01*
X0173700Y0051806D01*
X0173690Y0051964D01*
X0173684Y0052122D01*
X0173682Y0052280D01*
M02*
