%
M48
M72
T01C0.0320
T02C0.0470
T03C0.0472
T04C0.1260
%
T01
X5597Y4031
X5597Y6031
X15518Y6204
X15518Y4204
T02
X3082Y8996
X5050Y8996
X1113Y8996
X16113Y1780
X18082Y1780
X20050Y1780
T03
X6612Y2500
X7986Y3393
X6612Y7421
X7986Y7330
X12908Y7330
X14526Y7421
X12908Y3393
X14526Y2500
T04
X3234Y5228
X17998Y5228
M30
